<?xml version="1.0" encoding="UTF-8"?>
<svg id="Layer_1" data-name="Layer 1" xmlns="http://www.w3.org/2000/svg" viewBox="0 0 211.82 84.18">
  <defs>
    <style>
      .cls-1 {
        fill: #9e3723;
      }
    </style>
  </defs>
  <path class="cls-1" d="M33.97,27.28c-3.85-3.68-8.44-5.52-13.78-5.52-5.67,0-10.45,2.06-14.35,6.16-3.89,4.1-5.84,8.85-5.84,14.24s1.92,10.21,5.75,14.09c3.83,3.87,8.42,5.81,13.75,5.81s10.13-2.11,14.17-6.32c4.05-4.21,6.08-9.1,6.08-14.68s-1.93-10.11-5.78-13.78ZM29.72,55.21c-2.5,3.27-5.39,4.91-8.67,4.91-3.59,0-6.6-1.74-9.04-5.23-2.44-3.5-3.66-7.88-3.66-13.15s1.14-9.57,3.41-13.02c2.27-3.45,5.18-5.17,8.74-5.17,3.83,0,6.95,1.89,9.36,5.68,2.41,3.78,3.61,8.09,3.61,12.93,0,5.42-1.25,9.77-3.75,13.05Z"/>
  <path class="cls-1" d="M100.15,9.11c-5.54-6.08-12.55-9.11-21.05-9.11-6.07,0-11.52,1.61-16.35,4.83-4.83,3.22-8.5,7.31-11.02,12.26-2.51,4.95-3.77,9.5-3.77,13.64,0,9.35,2.8,16.91,8.4,22.68,5.59,5.76,12.52,8.65,20.77,8.65s15.99-3.29,22.12-9.87c6.14-6.58,9.2-14.01,9.2-22.29,0-7.79-2.77-14.72-8.3-20.79ZM92.75,50.85c-3.63,5.87-8.46,8.81-14.5,8.81-3.74,0-7.24-1.19-10.52-3.56-3.28-2.38-5.68-6.21-7.21-11.47-1.54-5.26-2.3-10.4-2.3-15.4,0-3.56.69-7.44,2.07-11.65,1.37-4.2,3.56-7.82,6.57-10.84,3-3.02,6.75-4.53,11.25-4.53,5.98,0,10.82,2.83,14.52,8.49,3.71,5.66,5.56,12.24,5.56,19.73s-1.81,14.54-5.44,20.42Z"/>
  <path class="cls-1" d="M127.41,21.9c.15,1.32.23,2.51.23,3.59,0,.92-.08,2.25-.23,4,3.04-2.88,5.36-4.75,6.97-5.59,1.61-.84,3.41-1.26,5.41-1.26,4.72,0,8.75,1.94,12.08,5.82,3.33,3.88,4.99,8.44,4.99,13.69,0,5.67-1.9,10.31-5.7,13.92-3.8,3.6-8.23,5.41-13.3,5.41-3.5,0-6.98-1.03-10.44-3.08-.52,3.77-.78,7.93-.78,12.47,0,2.67.11,4.74.32,6.21l.14,1.79c.58,1.93,2.13,3.14,4.65,3.63.86.18,1.32.54,1.38,1.06l-.14.46-.32.18c-3.78-.21-6.75-.32-8.9-.32-5.44,0-8.72.05-9.82.14-.71,0-1.06-.26-1.06-.78,0-.49.31-.77.92-.83,2.85-.31,4.64-.95,5.36-1.93.72-.98,1.18-5.33,1.38-13.04.2-7.71.3-12.54.3-14.47l-.14-12.51.04-7.45c0-3.86-.26-6.33-.78-7.41-.52-1.07-1.86-1.69-4-1.84-.71-.06-1.06-.32-1.06-.78,0-.28.13-.49.39-.64.26-.15,1.65-.25,4.18-.28l7.94-.14ZM127.04,42.37c0,5.61.14,9.2.41,10.76.28,1.56,1.27,3.02,2.97,4.37,1.7,1.35,3.93,2.02,6.69,2.02,3.74,0,6.75-1.6,9.02-4.81,2.27-3.2,3.4-7.12,3.4-11.75,0-5.27-1.16-9.5-3.47-12.67-2.32-3.17-5.14-4.76-8.49-4.76s-5.82,1.35-7.7,4.05c-1.89,2.7-2.83,6.96-2.83,12.79Z"/>
  <path class="cls-1" d="M192.41,49.06c0,3.55-1.32,6.6-3.95,9.16-2.63,2.56-5.75,3.83-9.37,3.83-2.14,0-4.7-.69-7.67-2.07-1.62-.74-2.59-1.1-2.89-1.1-.52,0-.98.32-1.38.97-.5.86-.97,1.29-1.41,1.29-.38,0-.61-.44-.7-1.31-.09-.87-.16-2.86-.19-5.96-.03-2.67-.08-4.39-.14-5.15,0-1.13.3-1.7.9-1.7.35,0,.61.29.8.87,1.19,3.5,2.86,6.46,5.01,8.9,2.15,2.44,4.68,3.66,7.58,3.66,2.05,0,3.86-.64,5.45-1.91,1.59-1.27,2.38-3,2.38-5.18,0-3.37-2.92-6.36-8.77-8.97-4.01-1.79-6.69-3.1-8.03-3.93-1.35-.83-2.4-1.95-3.17-3.36-.77-1.41-1.15-2.95-1.15-4.61,0-3.16,1.2-5.81,3.6-7.94,2.4-2.13,5.3-3.2,8.71-3.2,2.52,0,5.29.78,8.3,2.35.49.25.92.37,1.29.37.31,0,.64-.25,1.01-.76.36-.47.64-.71.85-.71.27,0,.48.12.63.35.15.23.32,1.59.5,4.06.18,2.48.28,4.52.28,6.12,0,.99-.26,1.48-.78,1.48-.46,0-.83-.44-1.1-1.33-.25-.82-.98-2.4-2.21-4.72-1.23-2.32-2.57-3.8-4.03-4.44-1.46-.64-2.89-.96-4.3-.96-2.21,0-4.02.54-5.43,1.61-1.41,1.07-2.12,2.46-2.12,4.18,0,1.07.29,2.04.87,2.89.58.86,1.13,1.5,1.63,1.93.51.43,3.43,1.85,8.76,4.25,3.31,1.5,5.49,2.66,6.53,3.47,1.04.81,1.92,1.91,2.62,3.28.71,1.38,1.06,2.82,1.06,4.32Z"/>
  <path class="cls-1" d="M207.04.18c3.1,0,4.65,2.19,4.65,6.58,0,1.38-.37,4.94-1.1,10.67-.58,4.63-1.14,10.01-1.68,16.12-.54,6.12-.81,9.56-.81,10.33,0,1.53-.02,2.39-.07,2.55-.05.17-.33.25-.85.25-.83,0-1.24-.25-1.24-.74l.05-1.75c0-1.75-.28-6.2-.85-13.36-.57-7.16-1.26-14.16-2.09-21-.18-1.59-.28-2.9-.28-3.91,0-1.69.41-3.07,1.24-4.14.83-1.07,1.84-1.61,3.04-1.61ZM207.27,53.13c1.26,0,2.33.44,3.22,1.33.89.89,1.33,1.95,1.33,3.17s-.45,2.33-1.33,3.22c-.89.89-1.96,1.33-3.22,1.33s-2.28-.45-3.17-1.33c-.89-.89-1.33-1.96-1.33-3.22s.45-2.36,1.36-3.22c.9-.86,1.96-1.29,3.15-1.29Z"/>
</svg>