<?xml version="1.0" encoding="UTF-8"?>
<svg id="Layer_1" data-name="Layer 1" xmlns="http://www.w3.org/2000/svg" viewBox="0 0 463.85 184.34">
  <defs>
    <style>
      .cls-1 {
        fill: #f3ebdf;
      }
    </style>
  </defs>
  <path class="cls-1" d="M74.39,59.73c-8.43-8.05-18.48-12.07-30.17-12.07-12.42,0-22.9,4.49-31.43,13.48C4.26,70.13,0,80.53,0,92.33s4.19,22.36,12.59,30.84c8.39,8.49,18.43,12.73,30.12,12.73s22.16-4.61,31.03-13.83c8.86-9.23,13.29-19.94,13.29-32.15s-4.21-22.14-12.64-30.19ZM65.08,120.89c-5.48,7.18-11.8,10.77-18.99,10.77-7.86,0-14.46-3.82-19.79-11.47-5.34-7.65-8.01-17.24-8.01-28.78s2.48-20.97,7.45-28.52c4.97-7.54,11.35-11.32,19.14-11.32,8.4,0,15.23,4.15,20.5,12.43,5.27,8.28,7.91,17.72,7.91,28.32,0,11.87-2.74,21.4-8.21,28.57Z"/>
  <path class="cls-1" d="M219.31,19.94C207.19,6.64,191.82,0,173.22,0c-13.3,0-25.23,3.52-35.81,10.57-10.58,7.05-18.62,16-24.13,26.85-5.51,10.85-8.26,20.8-8.26,29.87,0,20.48,6.13,37.04,18.39,49.66,12.25,12.63,27.41,18.94,45.48,18.94s35.02-7.2,48.45-21.61c13.43-14.4,20.15-30.67,20.15-48.81,0-17.05-6.06-32.23-18.18-45.53ZM203.1,111.34c-7.95,12.88-18.53,19.31-31.74,19.31-8.19,0-15.87-2.6-23.04-7.81-7.18-5.21-12.45-13.58-15.8-25.11-3.36-11.52-5.03-22.76-5.03-33.72,0-7.8,1.5-16.3,4.52-25.51,3.02-9.2,7.82-17.12,14.39-23.74,6.58-6.62,14.79-9.93,24.66-9.93,13.08,0,23.67,6.2,31.79,18.6,8.12,12.4,12.18,26.8,12.18,43.2s-3.98,31.85-11.93,44.71Z"/>
  <path class="cls-1" d="M279,47.95c.33,2.89.5,5.51.5,7.86,0,2.01-.17,4.94-.5,8.76,6.65-6.31,11.73-10.39,15.26-12.24,3.53-1.85,7.47-2.77,11.84-2.77,10.34,0,19.16,4.25,26.45,12.74,7.28,8.5,10.93,18.49,10.93,29.97,0,12.43-4.17,22.58-12.49,30.47-8.33,7.89-18.03,11.84-29.12,11.84-7.66,0-15.28-2.25-22.87-6.75-1.14,8.26-1.71,17.36-1.71,27.3,0,5.84.24,10.38.71,13.6l.3,3.93c1.27,4.23,4.67,6.88,10.17,7.96,1.88.4,2.89,1.17,3.02,2.32l-.3,1.01-.71.4c-8.28-.47-14.77-.7-19.48-.7-11.92,0-19.08.1-21.51.3-1.55,0-2.32-.57-2.32-1.71,0-1.08.67-1.68,2.01-1.81,6.25-.67,10.16-2.08,11.74-4.23,1.58-2.15,2.58-11.67,3.02-28.56.44-16.89.65-27.45.65-31.68l-.3-27.4.1-16.32c0-8.46-.57-13.87-1.71-16.22-1.14-2.35-4.07-3.69-8.77-4.03-1.55-.13-2.32-.71-2.32-1.71,0-.6.29-1.07.86-1.41.57-.34,3.62-.54,9.15-.6l17.39-.3ZM278.19,92.78c0,12.29.3,20.15.91,23.57.61,3.42,2.77,6.61,6.5,9.57,3.73,2.96,8.61,4.43,14.66,4.43,8.19,0,14.78-3.51,19.75-10.53,4.97-7.02,7.46-15.6,7.46-25.74,0-11.55-2.54-20.8-7.61-27.75-5.07-6.95-11.27-10.43-18.59-10.43s-12.74,2.96-16.87,8.86c-4.13,5.91-6.2,15.25-6.2,28.01Z"/>
  <path class="cls-1" d="M421.34,107.44c0,7.78-2.88,14.46-8.65,20.06-5.77,5.6-12.6,8.39-20.51,8.39-4.69,0-10.29-1.51-16.79-4.53-3.55-1.61-5.67-2.42-6.33-2.42-1.14,0-2.15.71-3.02,2.12-1.1,1.88-2.12,2.82-3.08,2.82-.82,0-1.34-.96-1.54-2.87-.21-1.91-.34-6.26-.41-13.04-.07-5.84-.17-9.6-.3-11.28,0-2.48.65-3.73,1.97-3.73.76,0,1.34.64,1.76,1.91,2.61,7.66,6.27,14.15,10.98,19.49,4.71,5.34,10.25,8.01,16.6,8.01,4.48,0,8.46-1.39,11.93-4.18,3.47-2.79,5.21-6.56,5.21-11.33,0-7.39-6.4-13.93-19.2-19.64-8.78-3.93-14.64-6.8-17.59-8.62-2.95-1.81-5.26-4.27-6.94-7.36-1.68-3.09-2.51-6.45-2.51-10.08,0-6.93,2.62-12.72,7.87-17.4,5.25-4.67,11.61-7.01,19.08-7.01,5.52,0,11.57,1.71,18.17,5.14,1.08.54,2.02.81,2.83.81.67,0,1.41-.55,2.22-1.66.78-1.04,1.41-1.56,1.86-1.56.59,0,1.05.25,1.37.76.33.51.69,3.47,1.1,8.9.4,5.43.6,9.89.6,13.4,0,2.16-.57,3.24-1.71,3.24-1.01,0-1.81-.97-2.42-2.91-.54-1.81-2.15-5.25-4.84-10.33-2.69-5.08-5.63-8.33-8.81-9.73-3.19-1.4-6.33-2.11-9.42-2.11-4.84,0-8.8,1.17-11.89,3.52-3.09,2.35-4.63,5.4-4.63,9.15,0,2.35.64,4.46,1.91,6.34,1.28,1.88,2.47,3.28,3.58,4.22,1.11.94,7.5,4.04,19.19,9.31,7.25,3.28,12.02,5.82,14.31,7.59,2.28,1.78,4.2,4.17,5.74,7.19,1.54,3.02,2.32,6.17,2.32,9.45Z"/>
  <path class="cls-1" d="M453.37.4c6.78,0,10.18,4.8,10.18,14.41,0,3.02-.81,10.81-2.42,23.37-1.28,10.14-2.5,21.91-3.68,35.31-1.18,13.4-1.76,20.94-1.76,22.62,0,3.36-.05,5.22-.15,5.59-.1.37-.72.55-1.86.55-1.81,0-2.72-.54-2.72-1.61l.1-3.83c0-3.83-.62-13.58-1.86-29.27-1.24-15.68-2.77-31.01-4.58-45.99-.4-3.49-.6-6.35-.6-8.56,0-3.69.91-6.71,2.72-9.07,1.81-2.35,4.03-3.53,6.65-3.53ZM453.88,116.35c2.75,0,5.1.97,7.05,2.92,1.95,1.95,2.92,4.27,2.92,6.95s-.98,5.1-2.92,7.05c-1.95,1.95-4.3,2.92-7.05,2.92s-5-.98-6.95-2.92c-1.95-1.95-2.92-4.3-2.92-7.05s.99-5.17,2.97-7.05c1.98-1.88,4.28-2.82,6.9-2.82Z"/>
</svg>