<?xml version="1.0" encoding="UTF-8"?>
<svg id="Layer_1" data-name="Layer 1" xmlns="http://www.w3.org/2000/svg" xmlns:xlink="http://www.w3.org/1999/xlink" viewBox="0 0 479.73 426.18">
  <defs>
    <style>
      .cls-1 {
        fill: none;
      }

      .cls-2 {
        fill: #e5d4c2;
      }

      .cls-3 {
        clip-path: url(#clippath);
      }
    </style>
    <clipPath id="clippath">
      <rect class="cls-1" width="479.73" height="426.18"/>
    </clipPath>
  </defs>
  <g class="cls-3">
    <g>
      <path class="cls-2" d="M38.47,246.05c-.67-.67-1.25-1.34-1.92-2.01-6.32,3.93-12.84,7.09-19.64,9.29-2.68.96-5.37,1.73-8.14,2.4-3.45.86-6.8,1.34-10.06,1.63-3.74,2.97-8.24,5.46-13.41,7.57,6.9,2.78,14.28,4.41,22.13,4.98,3.54.38,7.09.38,10.83.29,14.28-.48,27.11-3.64,38.32-9.58-6.23-3.83-12.26-8.72-18.11-14.56h0ZM99.02,182.63c-.29-4.6-1.15-9.1-2.4-13.41-3.26-11.78-9.77-22.51-19.35-32.19-4.22-4.12-8.62-7.76-13.22-10.73-3.35-2.11-6.8-4.02-10.35-5.56-4.89-2.2-10.06-3.83-15.42-4.89-12.36-2.49-24.24-2.4-35.83.38-2.4.48-4.69,1.15-6.99,1.92-7.57,2.49-14.18,5.36-19.83,8.81-4.79,2.78-8.81,5.85-12.26,9.29-2.87,2.87-5.46,5.75-7.76,8.62-6.51,7.95-11.21,16.19-14.18,24.91-.77,1.82-1.34,3.74-1.82,5.65-1.53,5.84-2.4,11.88-2.49,18.01-.1,6.99.57,13.7,2.4,20.02.96,4.21,2.4,8.24,4.22,12.07,3.64,7.95,8.91,15.33,15.62,22.13,1.63,1.63,3.35,3.26,5.17,4.69,6.32,5.46,13.32,9.58,20.79,12.55,6.9,2.78,14.28,4.41,22.13,4.98,3.54.38,7.09.38,10.83.29,14.28-.48,27.11-3.64,38.32-9.58,7.19-3.74,13.7-8.53,19.64-14.47.86-.86,1.72-1.73,2.4-2.68,4.22-4.41,7.66-9.2,10.54-14.28,6.13-10.73,9.48-22.99,10.06-36.6.1-.86.1-1.63.1-2.4,0-2.59,0-5.17-.29-7.57l-.03.04ZM56.38,228.23c-6.32,6.23-12.93,11.59-19.83,15.81-6.32,3.93-12.84,7.09-19.64,9.29-2.68.96-5.37,1.73-8.14,2.4-3.45.86-6.8,1.34-10.06,1.63-13.03.86-23.95-3.16-32.86-12.07-6.9-6.9-11.11-15.52-12.84-25.96-1.63-10.35.96-21.84,7.86-34.3,2.3-4.12,4.6-8.05,7.19-11.78,3.83-5.85,8.05-11.11,12.55-16.1.38-.48.86-.96,1.34-1.44.96-1.15,2.01-2.2,3.07-3.26,5.08-5.08,11.21-9.77,18.49-13.99,2.11-1.25,4.41-2.49,6.71-3.64,10.35-5.27,20.98-7.86,32.1-7.95.86,0,1.82,0,2.68.1,3.45.19,6.8.86,9.96,1.92,6.04,2.01,11.5,5.46,16.48,10.44,10.92,10.92,14.66,25.1,11.02,42.35-.67,3.45-1.63,6.9-2.87,10.25-1.25,3.93-2.87,7.76-4.79,11.4-4.31,8.43-10.06,16.38-17.34,23.76-.29.38-.67.77-1.05,1.15h-.03Z"/>
      <g>
        <path class="cls-2" d="M132.94,121.31c-.29-19.54-7.47-37.08-21.56-52.41-14.37-15.81-32.67-23.67-54.8-23.67-15.81,0-29.99,4.22-42.54,12.55-12.55,8.43-22.13,19.07-28.74,31.9-6.52,12.93-9.77,24.72-9.77,35.54,0,.58,0,1.15.1,1.72.1,9.96,1.44,19.16,4.22,27.5.19.86.48,1.82.77,2.68,3.64,10.25,9.2,19.35,16.77,27.11,5.94,6.13,12.46,11.02,19.55,14.56.38.29.77.48,1.25.58,6.9,3.45,14.47,5.65,22.51,6.61,3.45.58,7.09.77,10.83.77,8.24,0,16-1.15,23.28-3.45,6.51-2.01,12.74-4.98,18.59-8.81,2.01-1.34,4.02-2.78,5.94-4.31,3.35-2.68,6.61-5.75,9.77-9.1,7.28-7.86,12.93-16.19,16.77-25.01.96-1.72,1.63-3.45,2.2-5.27,3.35-8.81,4.98-18.11,4.98-27.78,0-.58,0-1.15-.1-1.73l-.02.02ZM96.62,169.21c.1.1,0,.1,0,.1-1.34,2.87-2.87,5.65-4.5,8.34-3.74,5.94-7.86,10.73-12.55,14.28-7.19,5.75-15.62,8.62-25.2,8.62-6.51,0-12.74-1.34-18.78-4.22-2.97-1.34-5.84-3.07-8.62-5.08-3.93-2.87-7.38-6.51-10.35-11.02-3.45-5.17-6.23-11.4-8.43-18.78-2.2-7.76-3.83-15.43-4.69-22.99-.86-5.84-1.25-11.5-1.25-17.15,0-1.63.1-3.35.19-5.08.48-7.86,2.2-16.19,5.17-25.2,3.54-11.02,9.29-20.41,17.05-28.26,7.86-7.86,17.63-11.78,29.32-11.78,15.62,0,28.17,7.38,37.84,22.13,7.47,11.3,11.98,24.05,13.7,38.32.48,4.21.77,8.53.77,13.03,0,3.55-.19,6.99-.48,10.44-1.05,12.46-4.02,23.86-9.2,34.3h.01Z"/>
        <path class="cls-2" d="M145.77,275.94c0-.86,0-1.72.1-2.68-6.9-1.53-13.51-3.83-19.64-6.9-2.87-1.34-5.65-2.87-8.34-4.5-2.59-1.63-4.98-3.35-7.19-5.27-4.98-.48-10.16-1.92-15.52-4.12,2.97,6.8,7.09,13.12,12.26,19.07,2.11,2.49,4.5,4.89,6.99,7.28,10.54,9.77,21.75,16.48,33.92,20.31-1.72-7.19-2.59-14.85-2.59-23.18h.01ZM248.48,209.36c-.77-3.93-1.92-7.67-3.26-11.31-2.01-4.98-4.5-9.77-7.47-14.28-6.9-10.25-15.14-18.49-25.01-24.72-2.2-1.44-4.5-2.78-6.9-4.02-6.9-3.45-13.41-6.04-19.64-7.57-5.56-1.44-10.83-2.2-15.9-2.2-4.02,0-7.86.19-11.59.67-10.25.96-19.54,3.55-27.98,7.57-1.63.77-3.26,1.63-4.89,2.59-5.27,3.07-10.16,6.71-14.56,11.02-4.98,4.79-9.1,9.96-12.26,15.52-2.4,3.74-4.31,7.76-5.65,11.88-3.07,8.24-4.6,17.15-4.6,26.73,0,2.68.1,5.36.38,7.95.77,8.14,2.78,15.9,6.04,23.19v.1c2.97,6.8,7.09,13.12,12.26,19.07,2.11,2.49,4.5,4.89,6.99,7.28,10.54,9.77,21.75,16.48,33.92,20.31,7.66,2.4,15.71,3.64,24.05,3.64,1.25,0,2.4,0,3.54-.19,6.51-.19,12.84-1.15,18.78-3.07,11.5-3.35,22.04-9.48,31.81-18.39.38-.38.77-.67,1.15-1.15,1.72-1.63,3.45-3.26,4.98-5.08,3.16-3.54,5.84-7.28,8.05-11.21,6.42-10.92,9.58-23.38,9.58-37.36,0-5.94-.57-11.59-1.82-16.96h0ZM222.42,261.57c-3.35,2.2-6.8,4.12-10.44,5.75-3.54,1.82-7.28,3.26-11.11,4.31-8.72,2.87-18.2,4.31-28.26,4.41h-1.53c-8.91,0-17.25-.96-25.2-2.78-6.9-1.53-13.51-3.83-19.64-6.9-2.87-1.34-5.65-2.87-8.34-4.5-2.59-1.63-4.98-3.35-7.19-5.27-10.54-8.62-15.71-19.45-15.71-32.48,0-9.68,3.07-18.87,9.29-27.4,6.13-8.53,16.1-14.75,29.8-18.78,4.5-1.25,8.91-2.4,13.32-3.16,7.09-1.44,14.08-2.3,20.98-2.59.48-.1.96-.1,1.44,0,1.53-.19,2.97-.19,4.41-.19,7.28,0,15.14,1.05,23.47,3.35,2.2.58,4.5,1.25,6.8,2.01,10.92,3.55,20.41,9.29,28.26,17.05.57.58,1.25,1.25,1.72,1.92,2.3,2.59,4.22,5.37,5.75,8.34,2.87,5.65,4.31,11.98,4.31,19.07,0,15.62-7.38,28.17-22.13,37.84h0Z"/>
        <path class="cls-2" d="M-93.46,268.47c-.77-.29-1.53-.48-2.2-.77-3.07,1.05-6.32,1.92-9.77,2.49-4.89.77-10.06.57-15.52-.58.86,1.15,1.92,2.3,3.07,3.45,1.05,1.34,2.3,2.59,3.64,3.74.96.96,1.92,1.82,2.87,2.68l.29.29c.07.06.13.12.19.19,1.15.96,2.3,1.92,3.45,2.78.57-.19,1.05-.29,1.63-.57,7.38-2.49,14.28-6.23,20.69-11.31-2.68-.67-5.46-1.44-8.34-2.4h0ZM22.09,219.32c-.38-6.99-1.72-13.61-3.93-19.93-.38-1.44-.96-2.87-1.63-4.31v-.19c-4.31-10.16-10.92-19.45-19.93-27.88-4.69-4.41-9.58-8.24-14.66-11.31-.67-.48-1.34-.96-2.11-1.24-7.67-4.69-15.81-7.86-24.24-9.58-5.56-1.25-11.21-1.82-17.05-1.82-6.51,0-12.93.77-18.97,2.4-9.39,2.2-18.2,6.32-26.44,12.26-2.97,2.01-5.84,4.31-8.72,6.9-11.11,10.25-18.39,22.42-21.56,36.5-.86,3.45-1.44,6.99-1.72,10.73-.29,2.4-.38,4.98-.38,7.57,0,15.81,4.22,29.99,12.55,42.64,1.82,2.68,3.64,5.17,5.65,7.57h.1c.86,1.15,1.92,2.3,3.07,3.45,1.05,1.34,2.3,2.59,3.64,3.74.96.96,1.92,1.82,2.87,2.68l.29.29c.07.06.13.12.19.19,1.15.96,2.3,1.92,3.45,2.78,3.93,2.97,8.14,5.65,12.65,7.95,1.82.96,3.64,1.82,5.46,2.59,0,0,.1,0,.1.1,9.68,4.31,18.78,6.71,27.21,7.09.96.1,1.82.1,2.78.1,8.24,0,15.9-.86,23.09-2.59,14.08-3.16,26.06-9.58,35.93-19.26,2.87-2.78,5.46-5.75,7.67-8.81,4.12-5.17,7.19-10.63,9.48-16.57,3.64-8.72,5.37-18.4,5.37-28.74,0-1.82-.1-3.54-.19-5.27l-.02-.03ZM-23.04,267.8c-3.26.96-6.42,1.82-9.68,2.49-8.91,2.01-17.82,3.26-26.44,3.35-1.34.19-2.68.19-4.02.19-6.8,0-14.18-.96-21.94-2.97-2.68-.67-5.46-1.44-8.34-2.4-.77-.29-1.53-.48-2.2-.77-9.96-3.64-18.78-9.1-26.06-16.38-7.86-7.76-11.78-17.53-11.78-29.32,0-5.65.96-11.02,2.97-15.9,1.15-2.97,2.78-5.75,4.69-8.34,3.54-5.08,8.34-9.58,14.47-13.51,6.71-4.41,13.8-7.76,21.46-10.06,8.43-2.68,17.53-4.12,27.21-4.31.86-.1,1.72-.1,2.68-.1h1.44c9.39.1,18.3,1.25,26.63,3.45,9.01,2.4,17.34,5.94,25.1,10.73,15.23,9.39,22.9,22.04,22.9,37.75,0,9.68-3.07,18.78-9.29,27.3-2.2,3.07-4.89,5.85-8.05,8.34-3.74,2.97-8.24,5.46-13.41,7.57-2.59,1.05-5.37,2.01-8.34,2.87v.02Z"/>
      </g>
      <g>
        <path class="cls-2" d="M300.89,147.47c-11.21-11.21-24.14-18.2-38.99-21.17s-29.13-2.2-42.83,2.2c-13.8,4.5-24.43,10.63-32.1,18.2-.29.29-.48.48-.77.77-7.09,7.28-12.65,14.85-16.86,22.71-.29.67-.67,1.34-.96,2.01-4.98,10.06-7.47,20.6-7.66,31.71-.1,8.24.96,16,3.26,23.28.19.77.38,1.44.77,2.11,2.3,7.19,5.94,13.89,10.83,20.22,2.2,2.97,4.69,5.84,7.47,8.62,5.46,5.46,11.5,9.96,17.82,13.51,6.32,3.45,13.13,5.94,20.41,7.38,2.11.48,4.22.86,6.42.96,4.5.67,9.29.86,14.28.67,10.73-.38,20.6-2.3,29.6-5.75,1.63-.57,3.35-1.25,4.89-2.01,8.72-3.93,16.48-9.29,23.47-16.29.38-.38.77-.77,1.05-1.15,13.61-14.18,20.89-31.62,21.94-52.5.96-21.36-6.42-39.86-22.04-55.47h0ZM288.81,228.81c-2.68,3.35-5.65,6.71-8.81,9.87-2.49,2.49-5.17,4.89-7.76,7.09-9.77,8.24-20.31,14.18-31.52,17.92-2.78,1.05-5.56,1.82-8.34,2.49-7.38,1.82-14.18,2.2-20.41,1.15-8.62-1.25-16.1-5.17-22.51-11.59-4.79-4.79-8.34-10.54-10.54-17.05-.96-2.78-1.72-5.75-2.2-8.91-.86-5.08-.67-10.44.57-16,1.34-5.84,3.74-11.98,7.19-18.3,4.02-7.28,8.43-13.99,13.22-20.12,3.35-4.41,7.09-8.62,10.92-12.46,1.25-1.24,2.68-2.59,4.12-3.83h.1c5.84-5.08,12.84-9.68,21.08-13.89,10.25-5.17,20.98-7.76,32-7.86,11.11,0,20.79,4.12,29.13,12.36,11.02,11.02,14.66,25.2,11.02,42.44-2.68,13.22-8.53,25.48-17.25,36.7h0Z"/>
        <path class="cls-2" d="M193.58,352.49c-.96-2.78-1.82-5.65-2.49-8.53-.77-3.26-1.34-6.32-1.53-9.39-3.16-3.74-5.75-8.14-7.95-13.32-2.59,6.8-4.22,14.08-4.79,21.84-.29,3.35-.29,6.8-.19,10.35.48,14.28,3.64,27.02,9.58,38.32,3.83-6.23,8.72-12.26,14.56-18.11.67-.67,1.34-1.24,2.01-1.82-3.83-6.23-6.99-12.65-9.2-19.35h0ZM330.68,337.74c-.48-2.4-1.15-4.79-1.92-7.09-2.49-7.57-5.46-14.18-8.81-19.83-2.78-4.69-5.94-8.81-9.39-12.26-2.97-2.97-6.04-5.75-9.1-8.14-7.95-6.32-16.29-11.02-24.91-13.99-1.63-.67-3.35-1.15-4.98-1.53-5.94-1.63-11.98-2.49-18.2-2.59-7.28-.1-14.18.77-20.69,2.59-3.93.96-7.76,2.3-11.4,4.12-7.95,3.54-15.23,8.81-22.04,15.62-1.63,1.63-3.16,3.26-4.5,4.89-5.75,6.61-10.16,13.89-13.13,21.75-2.59,6.8-4.22,14.08-4.79,21.84-.29,3.35-.29,6.8-.19,10.35.48,14.28,3.64,27.02,9.58,38.32,3.64,7.19,8.53,13.8,14.47,19.74.86.86,1.72,1.63,2.59,2.4,4.41,4.12,9.1,7.57,14.18,10.44,10.83,6.04,23.09,9.48,36.89,10.16.67.1,1.25.1,1.82,0,2.59.1,5.17.1,7.66-.19,4.7-.29,9.2-1.05,13.51-2.3,11.88-3.26,22.71-9.77,32.48-19.55,4.22-4.21,7.76-8.62,10.73-13.22,2.2-3.35,4.12-6.8,5.56-10.44,2.2-4.89,3.83-9.96,4.89-15.33,2.49-12.36,2.4-24.24-.29-35.74l-.02-.02ZM317.94,390.15c-1.92,6.04-5.37,11.5-10.35,16.48-11.02,11.02-25.2,14.66-42.44,11.02-3.74-.77-7.47-1.82-11.11-3.07-3.83-1.34-7.57-2.97-11.21-4.98-8.24-4.21-15.9-9.87-23.09-16.96-.38-.29-.77-.67-1.15-1.05-6.23-6.23-11.5-12.84-15.81-19.74-3.83-6.23-6.99-12.65-9.2-19.35-.96-2.78-1.82-5.65-2.49-8.53-.77-3.26-1.34-6.32-1.53-9.39-1.15-13.22,2.87-24.43,11.98-33.53,6.9-6.8,15.52-11.11,25.96-12.74,10.35-1.73,21.84.96,34.3,7.76,3.93,2.2,7.66,4.41,11.31,6.9,5.94,3.83,11.4,8.14,16.48,12.84.38.19.86.58,1.25,1.05,1.25,1.05,2.4,2.2,3.54,3.35,5.08,5.08,9.68,11.11,13.99,18.4,1.25,2.2,2.49,4.5,3.74,6.9,5.17,10.25,7.76,20.98,7.86,32,0,.86,0,1.73-.1,2.59-.19,3.54-.86,6.9-1.92,10.06h-.01Z"/>
        <g>
          <path class="cls-2" d="M169.82,172.18c-.1-.67-.19-1.34-.48-2.01-2.2-8.81-5.75-16.86-10.63-24.24-2.97-4.5-6.51-8.81-10.44-12.74-4.69-4.79-9.87-8.72-15.33-11.88-8.24-5.08-17.44-8.34-27.4-9.87-3.54-.67-7.09-1.05-10.83-1.25-15.14-.67-28.84,2.78-41.01,10.54-2.97,1.72-5.94,3.83-8.72,6.23-1.92,1.63-3.83,3.35-5.75,5.27-11.21,11.11-18.3,24.14-21.27,38.99-.57,2.97-1.05,6.03-1.34,9.01-.48,4.98-.48,9.87-.1,14.66v.19c.1,1.24.19,2.49.38,3.74.57,5.08,1.72,10.16,3.35,15.23.57,1.82,1.25,3.54,1.82,5.17v.09c3.93,10.16,8.72,18.4,14.47,24.72.67.67,1.25,1.34,1.92,2.01,4.79,4.79,9.58,8.81,14.66,12.26,1.05.77,2.2,1.53,3.35,2.2l.1.1c12.26,7.66,25.29,11.59,39.09,11.78,4.02.1,7.95-.19,11.78-.86,6.61-.77,12.84-2.49,18.78-5.17,8.53-3.64,16.38-9.1,23.57-16.29.96-.96,1.82-1.92,2.59-2.87,5.17-5.46,9.29-11.5,12.36-17.92,1.05-2.01,1.92-4.02,2.68-6.23,3.74-9.68,5.37-20.31,4.98-31.9-.29-6.71-1.05-13.03-2.59-18.97h0ZM147.5,243.56c-6.9,6.9-15.52,11.21-25.96,12.84-3.54.58-7.09.58-10.83.19-4.98-.48-10.16-1.92-15.52-4.12v-.1c-2.59-1.05-5.27-2.3-8.05-3.83-2.97-1.63-5.75-3.26-8.53-5.08-7.76-4.79-14.85-10.25-21.17-16.38-.96-.77-1.92-1.73-2.87-2.68-4.98-4.98-9.68-11.11-13.89-18.4-1.34-2.2-2.59-4.41-3.74-6.8-.48-.96-.96-1.92-1.34-2.87-4.31-9.39-6.42-19.16-6.52-29.22,0-11.02,4.12-20.79,12.36-29.03,4.02-4.02,8.53-7.09,13.41-9.2h.1c2.87-1.25,5.84-2.11,9.01-2.59,0-.1.1,0,.1,0,6.04-1.05,12.65-.77,19.74.67,7.66,1.63,15.04,4.22,22.04,7.95,7.86,3.93,15.23,9.29,22.23,15.9.77.67,1.53,1.44,2.3,2.2.19.19.29.29.38.48,6.71,6.71,12.26,13.8,16.67,21.27,4.89,8.24,8.43,16.86,10.54,25.87,4.12,17.53.67,31.81-10.44,42.92h-.02Z"/>
          <path class="cls-2" d="M130.73,153.5c-1.63.77-3.26,1.63-4.89,2.59.96-1.72,1.63-3.45,2.2-5.27.77.67,1.53,1.44,2.3,2.2.19.19.29.29.38.48h.01Z"/>
        </g>
      </g>
      <g>
        <path class="cls-2" d="M388.45,349.24c-8.34-12.55-18.97-22.13-31.9-28.65-12.93-6.51-24.72-9.77-35.54-9.77h-1.05c-10.25.1-19.64,1.44-28.17,4.31-.77.1-1.44.38-2.2.67-10.44,3.55-19.64,9.2-27.59,16.86-6.13,5.94-11.02,12.46-14.47,19.55-.38.38-.57.77-.67,1.25-3.54,6.99-5.75,14.56-6.61,22.71-.57,3.45-.77,6.9-.77,10.54,0,8.05,1.05,15.71,3.35,22.9,2.01,6.71,4.98,13.03,8.91,18.97,1.34,2.01,2.78,4.02,4.31,5.94h.1c2.59,3.35,5.65,6.61,9.01,9.77,7.86,7.28,16.1,12.93,24.91,16.86,1.92.86,3.83,1.72,5.75,2.3,8.72,3.26,17.82,4.79,27.4,4.79.77,0,1.53,0,2.3-.1,19.35-.48,36.6-7.67,51.83-21.46,15.81-14.47,23.66-32.67,23.66-54.8,0-15.81-4.12-29.99-12.55-42.63h0ZM373.22,427.03c-11.21,7.38-23.76,11.88-37.75,13.7-4.41.58-9.01.86-13.7.86-3.35,0-6.61-.1-9.87-.38-12.55-1.05-24.14-4.12-34.59-9.2-2.97-1.34-5.84-2.87-8.62-4.6-6.13-3.74-11.02-8.05-14.56-12.84h-.1c-5.56-7.19-8.34-15.42-8.34-24.91,0-6.52,1.34-12.65,4.12-18.59,1.34-3.07,3.07-5.94,5.17-8.81,2.97-4.02,6.61-7.57,11.21-10.54,5.17-3.35,11.4-6.13,18.68-8.24,7.95-2.3,15.81-4.02,23.47-4.89,5.56-.77,11.11-1.15,16.57-1.15,1.92,0,3.83.1,5.75.29,7.66.48,15.81,2.2,24.62,5.08,10.92,3.64,20.31,9.29,28.17,17.15s11.78,17.63,11.78,29.32c0,15.52-7.38,28.17-22.04,37.75h.03Z"/>
        <path class="cls-2" d="M175.19,442.27c-2.68,2.3-5.17,4.69-7.66,7.38-9.77,10.44-16.57,21.75-20.31,33.92,7.19-1.72,14.85-2.59,23.09-2.59.86,0,1.72,0,2.68.09,1.63-7.09,4.02-13.8,7.19-20.02,1.25-2.68,2.68-5.37,4.22-7.86,1.82-2.97,3.74-5.56,5.84-7.95.67-4.79,2.11-9.87,4.31-15.14-6.9,2.97-13.32,6.99-19.35,12.17h0ZM300.31,494.19c-.96-10.25-3.45-19.45-7.38-27.78-.86-1.82-1.72-3.54-2.87-5.27-2.87-5.27-6.61-10.16-10.92-14.66-4.69-4.89-9.87-9.01-15.33-12.17-3.83-2.4-7.86-4.31-12.07-5.75-8.14-3.07-17.05-4.6-26.63-4.6-2.59,0-5.17.1-7.66.38h-.1c-8.05.67-15.71,2.59-22.8,5.75-6.9,2.97-13.32,6.99-19.35,12.17-2.68,2.3-5.17,4.69-7.66,7.38-9.77,10.44-16.57,21.75-20.31,33.92-2.4,7.76-3.64,15.81-3.64,24.14,0,1.25,0,2.4.19,3.55.19,6.23,1.15,12.26,2.78,18.01,3.35,11.78,9.48,22.61,18.59,32.57.57.58,1.05,1.15,1.63,1.63,1.72,1.92,3.54,3.54,5.37,5.08,3.54,3.07,7.28,5.75,11.21,7.95,10.73,6.04,22.9,9.01,36.6,9.01,5.84,0,11.5-.58,16.96-1.73,3.83-.77,7.67-1.92,11.31-3.35,4.98-1.92,9.77-4.41,14.37-7.47,10.35-6.9,18.68-15.42,24.91-25.39,1.34-2.11,2.59-4.31,3.74-6.52,3.54-6.99,6.13-13.7,7.66-20.12,1.44-5.37,2.11-10.44,2.11-15.43,0-3.93-.19-7.67-.67-11.3h-.04ZM268.98,539.7c-3.64,11.02-9.29,20.41-17.15,28.26-.57.58-1.24,1.25-1.92,1.72-2.59,2.3-5.37,4.22-8.34,5.75-5.65,2.87-11.98,4.31-19.07,4.31-15.52,0-28.17-7.38-37.75-22.13-2.01-3.07-3.83-6.32-5.37-9.58-1.82-3.54-3.35-7.28-4.5-11.11-2.97-8.91-4.5-18.68-4.69-29.03v-1.63c0-8.91.96-17.25,2.78-25.2,1.63-7.09,4.02-13.8,7.19-20.02,1.25-2.68,2.68-5.37,4.22-7.86,1.82-2.97,3.74-5.56,5.84-7.95,8.53-10.06,19.16-15.04,31.9-15.04,9.77,0,18.87,3.07,27.4,9.29,8.53,6.23,14.85,16.1,18.78,29.79,1.34,4.6,2.49,9.1,3.26,13.61,1.44,6.9,2.3,13.7,2.59,20.41.1.67.1,1.25,0,1.82.19,1.44.19,2.87.19,4.31,0,7.19-1.05,14.95-3.35,23.09-.48,2.4-1.24,4.79-2.01,7.19h0Z"/>
        <g>
          <path class="cls-2" d="M300.98,255.44c-2.2-9.48-6.23-18.3-12.17-26.63-2.11-3.16-4.5-6.13-7.19-9.1-10.25-11.21-22.32-18.4-36.41-21.65-3.45-.86-7.09-1.44-10.73-1.73-2.49-.29-5.08-.38-7.66-.38-15.81,0-29.99,4.21-42.54,12.65-2.49,1.63-4.79,3.35-6.99,5.17-3.64,2.87-6.9,5.94-9.87,9.29-.1,0,0,.1,0,.1-1.25,1.34-2.4,2.68-3.45,4.02-3.26,4.12-6.04,8.53-8.43,13.32-1.15,2.2-2.2,4.41-3.07,6.61,0,0-.1,0-.1.1-3.93,9.29-6.13,18.01-6.52,26.06-.1.96-.1,1.82-.1,2.68,0,2.78.1,5.46.38,8.05-.1.67,0,1.34.1,1.92.1,1.72.29,3.35.57,4.98.1.96.29,1.82.38,2.78.29,1.82.67,3.74,1.15,5.46,3.16,14.08,9.68,25.96,19.26,35.93,2.97,2.97,6.04,5.75,9.2,8.05,5.17,4.02,10.83,7.09,16.77,9.39,8.53,3.35,17.92,5.08,28.07,5.08,1.92,0,3.83-.1,5.65-.19,6.9-.48,13.41-1.72,19.55-3.93,1.53-.48,3.07-1.05,4.6-1.73,10.16-4.21,19.45-10.92,27.78-19.83,4.5-4.89,8.43-9.87,11.59-15.04.38-.58.77-1.15.96-1.73,4.79-7.86,7.95-16.1,9.68-24.72,1.15-5.37,1.72-10.92,1.72-16.57,0-6.32-.67-12.55-2.2-18.4h.02ZM273.1,302.96c-2.3,9.1-5.94,17.53-10.73,25.39-9.48,15.33-22.04,22.99-37.75,22.99-9.77,0-18.87-3.16-27.4-9.29-2.87-2.11-5.46-4.6-7.67-7.47-3.16-3.74-5.75-8.14-7.95-13.32-1.15-2.78-2.2-5.84-3.16-9.1-.96-3.16-1.72-6.42-2.49-9.58-2.01-9.01-3.26-17.82-3.35-26.54-.19-1.34-.19-2.59-.19-3.93,0-7.09,1.05-14.56,3.16-22.61.67-2.49,1.44-5.08,2.3-7.76.38-1.05.67-2.11,1.05-3.07,3.64-9.68,9.01-18.01,16-25.1,7.86-7.86,17.63-11.88,29.32-11.88,5.75,0,11.02.96,16,2.97,2.87,1.24,5.65,2.68,8.24,4.69,5.08,3.45,9.58,8.33,13.6,14.47,4.41,6.8,7.86,14.08,10.16,21.94,2.68,8.43,4.12,17.44,4.22,27.11.1.77.1,1.53.1,2.3v1.25c-.1,9.39-1.25,18.2-3.45,26.54h0Z"/>
          <path class="cls-2" d="M276.55,275.18v1.25c-1.63-.67-3.35-1.15-4.98-1.53,1.63-.57,3.35-1.25,4.89-2.01.1.77.1,1.53.1,2.3h-.01Z"/>
        </g>
      </g>
      <path class="cls-2" d="M218.59,391.58c-6.23-6.23-11.5-12.84-15.81-19.74-.67.58-1.34,1.15-2.01,1.82-4.79,4.79-8.81,9.58-12.26,14.66-.77,1.05-1.53,2.2-2.2,3.35l-.1.09c3.64,7.19,8.53,13.8,14.47,19.74.86.86,1.72,1.63,2.59,2.4,4.98-7.76,10.44-14.95,16.48-21.27-.38-.29-.77-.67-1.15-1.05h0ZM326.08,388.81c-1.72-2.97-3.83-5.94-6.23-8.72-1.63-1.92-3.35-3.83-5.17-5.65-11.21-11.21-24.14-18.3-38.99-21.27-3.16-.67-6.32-1.05-9.49-1.44-4.98-.38-9.87-.38-14.75,0-.07,0-.13.03-.19.1-1.25,0-2.49.19-3.74.38-4.98.58-9.87,1.73-14.75,3.26-1.92.57-3.74,1.24-5.46,1.92-10.06,3.83-18.2,8.62-24.53,14.47-.67.58-1.34,1.15-2.01,1.82-4.79,4.79-8.81,9.58-12.26,14.66-.77,1.05-1.53,2.2-2.2,3.35l-.1.09c-7.66,12.26-11.5,25.29-11.78,39.09-.1,3.93.19,7.76.77,11.4.77,6.61,2.49,12.84,4.98,18.78,3.74,8.72,9.29,16.67,16.57,23.95,1.15,1.15,2.3,2.2,3.45,3.16,5.37,4.89,11.21,8.81,17.44,11.78,1.63.96,3.35,1.63,5.08,2.4,9.96,3.93,20.98,5.65,32.96,5.27,6.51-.19,12.65-1.05,18.49-2.49.86-.1,1.72-.29,2.49-.57,8.62-2.11,16.48-5.56,23.66-10.35,4.79-2.97,9.2-6.61,13.32-10.73,4.79-4.69,8.72-9.87,11.88-15.33,5.08-8.24,8.34-17.44,9.96-27.4.57-3.54.96-7.09,1.15-10.83.67-15.14-2.78-28.84-10.54-41.1h-.01ZM271.57,482.89c-8.05,4.79-16.48,8.14-25.39,10.25-17.53,4.12-31.81.67-42.92-10.44-6.9-6.9-11.11-15.52-12.84-25.96-.57-3.64-.67-7.47-.19-11.5.67-4.79,2.11-9.87,4.31-15.14,1.05-2.49,2.3-5.08,3.74-7.76,1.63-2.87,3.26-5.75,4.98-8.43,4.98-7.76,10.44-14.95,16.48-21.27.77-.96,1.72-1.92,2.68-2.87,4.89-4.89,10.83-9.39,17.82-13.61,2.4-1.34,4.79-2.68,7.38-4.02.77-.38,1.44-.67,2.2-1.05,9.68-4.5,19.54-6.8,29.89-6.8,11.11,0,20.79,4.12,29.03,12.36,4.02,4.02,7.09,8.53,9.2,13.41v.1c1.25,2.87,2.11,5.94,2.59,9.1,1.05,6.04.86,12.65-.67,19.74-1.63,7.76-4.31,15.23-7.95,22.23-4.02,7.86-9.39,15.33-16.1,22.23-.67.77-1.34,1.44-2.01,2.11-.29.29-.57.57-.86.86-6.71,6.61-13.89,12.17-21.37,16.48v-.02Z"/>
    </g>
  </g>
</svg>