<?xml version="1.0" encoding="UTF-8"?>
<svg id="Layer_1" data-name="Layer 1" xmlns="http://www.w3.org/2000/svg" xmlns:xlink="http://www.w3.org/1999/xlink" viewBox="0 0 991.75 1022.86">
  <defs>
    <style>
      .cls-1 {
        fill: none;
      }

      .cls-2 {
        fill: #e5d4c2;
      }

      .cls-3 {
        clip-path: url(#clippath);
      }
    </style>
    <clipPath id="clippath">
      <rect class="cls-1" x="485.59" y="360.67" width="506.16" height="662.19"/>
    </clipPath>
  </defs>
  <g class="cls-3">
    <g>
      <g>
        <path class="cls-2" d="M589.98,815c-.13-.94-.4-1.88-.81-2.68-5.1-15.03-13.02-28.04-23.88-39.18-8.05-8.32-16.91-15.03-26.57-19.99-.81-.54-1.61-.94-2.55-1.07v-.13c-9.53-4.83-19.99-7.92-31.13-9.12-5.1-.94-10.2-1.21-15.56-1.21-10.87,0-21.33,1.48-31.13,4.43-9.66,2.82-18.79,6.98-27.37,12.61-2.55,1.74-5.1,3.49-7.51,5.5-5.1,3.89-9.93,8.45-14.62,13.42-10.33,11-18.25,22.68-23.62,35.02-1.21,2.41-2.15,4.83-2.95,7.25-4.7,12.34-6.98,25.23-6.98,38.91,0,.94,0,2.01.13,2.95.54,27.24,10.6,51.52,30.19,72.86,20.13,22.14,45.75,33.28,76.75,33.28,22.14,0,42-5.9,59.58-17.58,17.58-11.81,31-26.7,40.12-44.68,9.26-18.11,13.82-34.75,13.82-49.78v-1.21c-.13-14.36-2.01-27.51-5.9-39.58ZM550.94,903.69c-5.1,15.29-13.01,28.58-24.02,39.58-10.87,11-24.55,16.5-41.06,16.5-21.74,0-39.31-10.33-52.87-30.99-10.33-15.7-16.64-33.41-19.19-53-.67-6.04-1.07-12.34-1.07-18.92,0-4.83.13-9.53.67-14.22,1.34-17.85,5.77-34.35,13.15-49.24v-.13c1.88-3.76,3.89-7.38,6.04-10.87,5.5-8.99,11.81-15.97,18.92-21.07,9.79-7.38,21.2-11,33.95-11,9.26,0,18.25,2.01,26.84,6.17,3.89,1.74,7.78,4.16,11.54,6.84,5.9,4.16,10.87,9.66,15.3,16.5v.13c4.56,6.98,8.19,15.43,11,25.09,3.22,11.27,5.5,22.41,6.71,33.28,1.07,7.78,1.61,15.43,1.61,22.94,0,2.55-.13,5.23-.4,8.05-.67,10.6-3.09,22.14-7.11,34.35Z"/>
        <path class="cls-2" d="M436.88,712.22c-.81-12.08-3.62-23.35-8.32-33.95-4.16-9.39-9.66-18.38-16.77-26.7-3.22-3.76-6.71-7.38-10.47-10.87-14.63-13.55-30.46-23.08-47.5-28.44-10.87-3.35-22.14-5.1-33.81-5.1-1.61,0-3.22,0-4.83.27-8.32.13-16.37,1.48-24.15,3.62-16.91,4.56-32.61,13.42-46.83,26.43-.67.67-1.48,1.34-2.15,2.15-2.68,2.42-5.1,5.1-7.38,7.78-4.29,4.97-7.92,10.2-10.87,15.7-8.45,15.03-12.75,32.07-12.75,51.12,0,8.18.81,16.1,2.55,23.61,1.07,5.5,2.55,10.73,4.56,15.83,2.68,7.11,6.17,13.69,10.47,20.13,9.79,14.62,21.74,26.43,35.96,35.15,2.82,1.74,5.77,3.49,8.72,4.97,10.06,5.1,19.59,8.85,28.71,11,7.25,1.88,14.36,2.82,21.07,2.82,5.77,0,11.27-.27,16.64-.94,14.22-1.48,27.1-4.97,38.78-10.6,2.28-1.07,4.56-2.28,6.71-3.62,7.51-4.16,14.22-9.39,20.53-15.43,7.25-7.11,13.28-14.76,17.98-22.95,2.95-4.96,5.37-10.2,7.25-15.57,4.29-11.4,6.31-23.88,6.31-37.3,0-3.09-.13-6.17-.4-9.12ZM373.82,781.99c-6.17,1.75-12.34,3.22-18.38,4.43-9.53,1.88-19.05,3.09-28.31,3.49-.94.27-1.88.27-2.82.13-2.28.27-4.43.27-6.71.27-9.8,0-20.53-1.48-31.8-4.29-3.49-.94-6.98-2.01-10.6-3.22-15.3-5.1-28.58-13.01-39.58-24.02-.94-.94-1.74-1.74-2.55-2.68-3.22-3.62-5.9-7.51-7.92-11.67-4.03-7.92-6.04-16.77-6.04-26.57,0-21.87,10.33-39.45,31-53,4.29-2.82,8.72-5.37,13.42-7.51,5.23-2.68,10.6-4.83,16.24-6.44,12.48-4.02,25.76-6.04,40.12-6.31h2.15c12.48,0,24.15,1.34,35.29,3.89,10.2,2.28,19.72,5.63,28.71,10.2,3.62,1.74,7.11,3.62,10.47,5.77,4.03,2.55,7.65,5.1,10.87,8.19,14.09,11.81,21.2,26.84,21.2,44.68,0,13.55-4.29,26.43-13.01,38.37-8.59,11.94-22.54,20.66-41.73,26.3Z"/>
        <g>
          <path class="cls-2" d="M739.05,664.18c-2.42-3.49-4.83-6.84-7.38-9.93-4.16-5.23-8.72-9.93-13.55-14.09h-.13c-1.61-1.61-3.22-2.95-4.96-4.16-5.77-4.56-11.94-8.59-18.65-11.94-2.68-1.34-5.37-2.68-7.92-3.76-13.69-6.17-26.43-9.39-38.11-9.93-1.34-.13-2.55-.13-3.76-.13-3.76,0-7.38.13-11,.54-1.07-.13-2.15,0-3.22.13-2.15.13-4.29.4-6.44.81-1.34.13-2.68.27-4.03.54-2.55.54-5.1.94-7.65,1.61-19.72,4.43-36.5,13.42-50.32,26.97-4.29,4.16-8.05,8.45-11.27,12.88-5.64,7.38-10.06,15.3-13.28,23.75-4.7,11.94-6.98,25.09-6.98,39.18,0,2.01,0,3.89.13,5.77v.13c.54,10.33,2.28,20.13,5.64,29.38.81,2.82,2.01,5.64,3.09,8.32,0,0,.13,0,.13.13,5.9,13.42,15.03,25.63,26.97,36.9,6.84,6.44,14.09,11.94,21.47,16.51.67.54,1.48.94,2.15,1.21,11.14,6.71,22.68,11.14,35.02,13.55,7.25,1.61,14.76,2.28,22.54,2.28,9.26,0,18.11-1.07,26.57-3.35,13.15-3.09,25.63-8.86,37.17-17.31,4.16-2.82,8.18-6.04,12.08-9.66,15.7-14.22,25.76-31.26,30.32-50.99,1.21-4.83,2.01-9.79,2.42-15.03.4-3.49.54-7.11.54-10.73,0-22.14-5.9-42-17.58-59.58ZM737.85,754.22c-4.96,6.98-11.67,13.28-20.26,18.92-9.26,6.17-19.32,10.87-29.92,14.09-11.81,3.76-24.29,5.77-37.84,6.04-1.34.13-2.68.13-4.16.13h-.94c-13.15-.13-25.63-1.61-37.3-4.56-13.02-3.35-25.09-8.45-36.23-15.29-21.47-13.15-32.07-30.86-32.07-52.87,0-13.55,4.29-26.43,13.02-38.37,2.82-3.89,6.17-7.51,10.2-10.6,5.37-4.43,11.67-8.18,19.19-11.27,3.89-1.74,7.92-3.09,12.34-4.43,4.56-1.34,8.99-2.42,13.55-3.35,12.48-2.95,24.96-4.56,37.03-4.7,1.88-.27,3.76-.27,5.64-.27,9.93,0,20.8,1.48,32.2,4.56,3.35.8,6.71,1.88,10.2,2.95,1.61.54,3.22,1.07,4.7,1.61,13.28,5.23,25.09,12.61,34.89,22.41,11,10.87,16.5,24.55,16.5,40.92,0,8.05-1.34,15.57-4.16,22.41-1.74,4.16-3.89,7.92-6.58,11.67Z"/>
          <path class="cls-2" d="M649.83,793.26c-1.34.13-2.68.13-4.16.13h-.94c.94-2.28,1.61-4.7,2.28-7.11.67,2.41,1.61,4.7,2.82,6.98Z"/>
        </g>
      </g>
      <g>
        <path class="cls-2" d="M332.23,712.49c0-.54-.13-1.07-.54-1.61-3.35-10.47-8.72-20.13-15.97-29.25-2.82-3.89-6.04-7.51-9.66-11.14-8.05-8.05-16.77-14.62-26.3-19.59-8.59-4.56-17.71-7.78-27.37-9.66-3.35-.8-6.84-1.34-10.33-1.61-5.9-.67-12.08-.94-18.52-.67-15.03.54-28.85,3.09-41.46,8.05-2.55.8-5.23,1.88-7.65,3.22-11.81,5.37-22.54,12.88-32.07,22.41-.67.67-1.48,1.47-2.01,2.28-18.79,19.72-28.71,43.88-30.06,72.73-1.48,29.92,8.86,55.82,30.73,77.82,15.57,15.57,33.81,25.49,54.61,29.65,20.8,4.16,40.79,3.09,59.98-3.22,19.32-6.31,34.22-14.76,44.95-25.49.54-.54.94-.94,1.48-1.48,9.79-9.93,17.44-20.4,23.21-31.26.67-1.21,1.21-2.55,1.88-3.76,6.57-13.82,9.93-28.31,10.2-43.61.13-11.94-1.48-23.21-5.1-33.81ZM234.81,828.55c-14.36,7.38-29.39,11-44.82,11-15.57.13-29.12-5.63-40.79-17.31-15.43-15.43-20.53-35.15-15.43-59.31,3.76-18.38,11.81-35.42,24.02-51.12,3.76-4.83,7.92-9.53,12.48-14.09,3.35-3.35,6.84-6.57,10.33-9.53,13.42-11.4,27.78-19.86,43.21-25.09v-.13c4.29-1.61,8.72-2.82,13.15-3.89,9.53-2.28,18.38-2.82,26.57-1.75,12.88,1.48,24.02,6.98,33.54,16.51,6.31,6.31,11,13.68,14.09,22.27,1.74,4.29,2.95,8.99,3.76,13.95,1.07,6.71.94,13.55-.54,20.93-1.74,8.72-5.1,17.71-10.33,27.24-5.5,10.06-11.54,19.32-18.25,27.78-4.83,6.44-10.06,12.34-15.56,17.85-1.74,1.74-3.62,3.49-5.64,5.1-8.19,7.11-18.11,13.69-29.79,19.59Z"/>
        <path class="cls-2" d="M301.63,483.31c-.94-1.74-1.88-3.49-2.95-5.1-.54-1.21-1.34-2.42-2.15-3.62-.54-1.07-1.21-2.15-2.01-3.09-1.48-2.28-3.09-4.43-4.83-6.44-2.55-3.22-5.37-6.44-8.32-9.39-1.21-1.21-2.42-2.28-3.62-3.35-6.44-6.04-13.55-11.14-21.07-15.3h-.13c-14.89-8.18-31.67-12.75-50.32-13.55-.81,0-1.74-.13-2.55,0-3.49-.13-6.84-.13-10.2.27-6.58.27-12.88,1.34-18.92,3.09-16.91,4.43-32.2,13.55-46.02,27.37-5.9,5.9-10.87,12.07-15.03,18.65-3.09,4.56-5.77,9.39-7.92,14.36-2.95,6.84-5.23,14.09-6.71,21.6-3.35,16.91-3.35,33.41.27,49.38.67,3.62,1.61,7.25,2.82,10.73,3.35,10.2,7.25,19.05,11.81,26.84h.13c3.89,6.98,8.45,13.01,13.55,17.98,3.89,3.89,7.78,7.51,11.81,10.73,11.14,8.99,22.81,15.7,35.02,20.13,2.55.94,5.23,1.74,7.78,2.42,8.32,2.28,16.77,3.49,25.49,3.62,9.53.13,18.52-.94,27.1-3.22,6.17-1.34,12.08-3.35,17.71-6.17,11.14-5.1,21.47-12.34,31-21.87,2.68-2.68,5.23-5.5,7.65-8.32,7.11-8.72,12.75-18.25,16.64-28.45,3.89-9.66,6.31-20.13,6.98-31.26.4-4.7.54-9.53.4-14.49-.67-19.99-5.1-37.84-13.42-53.54ZM294.79,550.13c1.07,4.56,1.88,8.99,2.15,13.28,1.48,18.52-4.16,34.22-16.77,46.83-9.66,9.66-21.74,15.57-36.36,17.98-14.49,2.28-30.59-1.34-48.17-11-5.77-3.22-11.27-6.57-16.64-10.2-8.32-5.5-15.97-11.4-23.08-18.11-.54-.27-1.07-.81-1.61-1.48-1.48-1.21-2.95-2.55-4.29-4.02-7.25-7.25-13.82-16.1-19.86-26.57h-.13c-1.61-2.82-3.09-5.63-4.7-8.72-7.25-14.36-10.87-29.38-11-44.95,0-1.21,0-2.28.13-3.49.27-4.96,1.21-9.66,2.68-14.22,2.68-8.45,7.51-15.97,14.49-22.94,15.43-15.43,35.29-20.66,59.44-15.57,5.1,1.07,10.2,2.55,15.16,4.29,5.23,1.74,10.47,4.02,15.43,6.71,11.67,5.9,22.68,13.95,33.01,24.02.54.4,1.07.94,1.61,1.48,6.57,6.57,12.34,13.55,17.44,20.66,1.74,2.28,3.22,4.7,4.7,7.11,5.37,8.45,9.66,17.31,12.75,26.57,1.48,4.03,2.68,8.18,3.62,12.34Z"/>
        <g>
          <path class="cls-2" d="M508.54,687.26c-8.18-8.18-16.5-14.89-25.23-20.26-17.04-10.73-35.42-16.24-54.88-16.5-5.77-.13-11.27.27-16.64,1.07-8.99,1.21-17.58,3.49-25.76,7.11,3.62,1.74,7.11,3.62,10.47,5.77,4.03,2.55,7.65,5.1,10.87,8.19,6.84.67,13.82,2.55,21.2,5.63,3.89,1.48,7.78,3.35,11.81,5.5,4.16,2.28,8.18,4.7,12.08,7.11,10.87,6.98,20.66,14.49,29.52,22.95.54-.54.94-.94,1.48-1.48,8.86-8.86,18.11-16.24,27.78-22.27-.94-.94-1.74-1.88-2.68-2.82ZM539.4,760.39c0-.13-.13-.13-.13-.13,0-2.42-.27-4.83-.54-7.11-.94-7.11-2.42-14.09-4.7-20.93-1.07-3.35-2.28-6.57-3.49-9.66v-.13c-5.23-13.15-11.67-23.88-19.32-32.34-.94-.94-1.74-1.88-2.68-2.82-8.18-8.18-16.5-14.89-25.23-20.26-17.04-10.73-35.42-16.24-54.88-16.5-5.77-.13-11.27.27-16.64,1.07-8.99,1.21-17.58,3.49-25.76,7.11-12.08,5.1-23.21,12.88-33.41,23.08-2.15,2.15-4.16,4.29-5.9,6.44-6.17,7.11-11.27,14.63-15.03,22.68-1.07,1.88-1.88,3.76-2.68,5.64-5.9,14.49-8.59,30.32-8.05,47.77.27,8.99,1.48,17.58,3.35,25.76.27,1.21.54,2.41.94,3.62,2.95,12.07,7.78,23.08,14.49,33.14,4.16,6.71,9.26,12.88,15.03,18.65,6.44,6.31,13.28,11.81,20.66,16.24,11.54,7.11,24.29,11.81,38.37,14.09,5.1,1.07,10.47,1.61,15.97,1.88,21.2.94,40.25-3.89,57.43-14.76,4.29-2.55,8.32-5.5,12.35-8.85,2.68-2.28,5.37-4.7,7.92-7.25,15.7-15.57,25.63-33.81,29.79-54.61.81-4.03,1.34-8.18,1.88-12.21v-.13c.67-6.57.81-13.01.27-19.46ZM504.38,838.61c-5.64,5.64-11.81,9.93-18.65,12.88-4.03,1.74-8.32,2.95-12.88,3.62-8.45,1.48-17.71,1.07-27.77-.94-11-2.28-21.6-6.17-31.67-11.54-11-5.77-21.33-13.42-31.13-22.81-.81-.67-1.61-1.48-2.42-2.28l-1.34-1.34c-9.26-9.39-16.91-19.32-23.08-29.79-6.57-11.27-11.27-23.08-14.22-35.56-5.77-24.42-.94-44.55,14.63-60.11,9.66-9.53,21.74-15.57,36.36-17.85,4.96-.81,9.93-.81,15.16-.27,6.84.67,13.82,2.55,21.2,5.63,3.89,1.48,7.78,3.35,11.81,5.5,4.16,2.28,8.18,4.7,12.08,7.11,10.87,6.98,20.66,14.49,29.52,22.95,1.34,1.07,2.68,2.42,4.03,3.76,6.84,6.98,13.28,15.43,19.05,25.23,2.01,3.22,3.89,6.71,5.64,10.2.54,1.21,1.21,2.28,1.61,3.49,6.17,13.28,9.39,27.1,9.39,41.33.13,15.57-5.64,29.12-17.31,40.79Z"/>
          <path class="cls-2" d="M385.23,812.59c-1.21,2.41-2.15,4.83-2.95,7.25-.81-.67-1.61-1.48-2.42-2.28l-1.34-1.34c2.28-1.07,4.56-2.28,6.71-3.62Z"/>
        </g>
      </g>
      <g>
        <path class="cls-2" d="M221.66,457.95c-2.68-9.39-6.84-18.38-12.48-26.84v-.13c-1.74-2.55-3.49-5.1-5.5-7.51-3.89-5.1-8.32-9.93-13.42-14.62-11-10.2-22.68-18.11-35.02-23.48-2.28-1.21-4.56-2.15-6.84-2.82-10.47-4.16-21.33-6.44-32.74-6.98-2.15-.27-4.43-.27-6.71-.27-.67,0-1.21,0-1.88.13-1.88-.13-3.76,0-5.64.27-11,.54-21.6,2.95-31.67,6.84h-.13c-12.08,4.56-23.21,11.54-33.81,20.8-.94.67-1.74,1.48-2.68,2.28C11,425.75,0,451.38,0,482.37c0,22.14,5.77,42,17.58,59.58,11.67,17.71,26.7,30.99,44.68,40.25,18.11,9.12,34.62,13.69,49.78,13.69.67,0,1.21,0,1.74-.13h.13c14.09,0,27.1-2.01,38.91-5.77,1.07-.27,2.01-.54,3.09-1.07,14.76-4.97,27.64-12.88,38.78-23.62,8.32-8.05,15.03-16.91,19.99-26.57.54-.81.94-1.61,1.21-2.55,4.83-9.39,7.78-19.73,9.12-30.59.81-5.1,1.21-10.46,1.21-15.97,0-11.13-1.48-21.6-4.56-31.66ZM130.02,556.84c-7.92,1.07-15.7,1.61-23.48,1.61-2.42,0-4.83-.13-7.38-.27-10.87-.67-22.54-3.09-35.02-7.25-15.43-4.96-28.58-13.01-39.58-23.88-11-11-16.5-24.69-16.5-41.06,0-21.87,10.33-39.45,31-53,15.83-10.33,33.81-16.77,53.81-19.05,5.77-.81,11.94-1.21,18.11-1.21,5.1,0,10.06.27,14.89.67,17.71,1.61,33.95,6.04,48.71,13.42,3.76,1.61,7.25,3.62,10.73,5.77,8.86,5.5,15.83,11.68,20.93,18.65,7.51,9.79,11.27,21.2,11.27,34.21,0,9.53-2.15,18.65-6.31,27.24-1.88,3.76-4.03,7.51-6.71,11.14-4.29,5.77-9.66,10.87-16.37,15.16-7.11,4.56-15.57,8.18-25.36,11.14-11,3.22-21.87,5.5-32.61,6.71h-.13Z"/>
        <path class="cls-2" d="M360.27,315.18c-.27-8.72-1.48-17.04-3.89-25.09-4.56-16.5-13.28-31.8-26.03-45.76-.54-.54-.94-1.07-1.48-1.48-2.42-2.68-4.96-5.1-7.51-7.25-4.96-4.43-10.2-8.18-15.7-11.4-15.3-8.72-32.61-13.15-52.06-13.15-8.18,0-16.1.8-23.75,2.55-5.37,1.07-10.73,2.68-15.83,4.7-6.98,2.68-13.69,6.17-20.13,10.47-14.49,9.53-26.03,21.34-34.75,35.29-2.01,3.09-3.76,6.17-5.37,9.39-2.01,4.02-3.89,7.92-5.37,11.81-2.28,5.5-4.16,10.87-5.5,16.1-2.01,7.65-2.95,14.89-2.95,21.74,0,5.5.27,10.87.94,16.1-.13.27,0,.67.13.94,1.48,14.36,5.1,27.24,10.87,38.91.94,2.15,2.01,4.29,3.35,6.31,4.16,7.38,9.39,14.22,15.43,20.53,6.98,7.25,14.62,13.15,22.81,17.85,4.96,2.95,10.2,5.5,15.7,7.25v.13c11.4,4.16,23.75,6.31,37.17,6.31,3.49,0,6.84-.13,10.2-.4h.13c11.94-1.07,23.21-4.03,33.81-8.85,9.26-4.16,18.11-9.8,26.3-16.91,3.49-2.95,6.84-6.31,10.2-9.8,13.69-14.62,23.21-30.46,28.45-47.5,3.35-10.87,5.1-22.14,5.1-33.81,0-1.74,0-3.35-.27-4.97ZM309.42,385.09c-1.74,3.89-3.76,7.78-6.04,11.4-2.28,3.62-4.56,6.98-7.25,9.93-12.08,14.9-27.37,22.27-45.62,22.27-13.69,0-26.43-4.43-38.38-13.01-11.94-8.72-20.8-22.68-26.3-41.86-1.74-6.04-3.22-11.94-4.43-17.85-2.01-9.93-3.35-19.59-3.62-29.25-.27-.81-.27-1.48-.13-2.15-.27-2.28-.27-4.56-.27-6.84,0-10.06,1.48-20.8,4.56-32.34.81-3.35,1.88-6.71,2.95-10.2,5.1-15.29,13.01-28.44,24.02-39.45.81-.81,1.74-1.74,2.68-2.41,3.62-3.35,7.51-5.9,11.67-8.05,7.92-4.16,16.77-6.17,26.7-6.17,21.74,0,39.45,10.33,52.87,31,3.09,4.83,5.9,9.79,8.32,14.89v.13c2.42,4.97,4.43,10.2,6.04,15.57,3.89,12.21,5.77,25.23,6.04,39.18v2.15c0,12.48-1.34,24.29-4.03,35.42-2.15,9.79-5.37,18.92-9.8,27.64Z"/>
        <g>
          <path class="cls-2" d="M353.83,612.26c-4.43-19.59-13.42-36.36-26.97-50.32-3.89-4.03-7.92-7.65-12.21-10.6-7.25-5.9-15.16-10.33-23.48-13.55,1.48,4.03,2.68,8.18,3.62,12.34,1.07,4.56,1.88,8.99,2.15,13.28,4.16,5.37,7.78,11.81,10.73,19.19,1.61,3.49,2.82,7.25,4.03,11.27,1.34,4.56,2.55,9.12,3.49,13.55,2.82,12.61,4.43,24.96,4.7,37.17h2.15c12.48,0,24.15,1.34,35.29,3.89.13-1.34.13-2.55.13-3.89,0-11.54-1.21-22.27-3.62-32.34ZM353.83,612.26c-4.43-19.59-13.42-36.36-26.97-50.32-3.89-4.03-7.92-7.65-12.21-10.6-7.25-5.9-15.16-10.33-23.48-13.55-12.21-4.96-25.49-7.38-39.98-7.38-1.74,0-3.49,0-5.23.13-10.6.4-20.66,2.28-30.06,5.64-2.82.8-5.64,2.01-8.32,3.22h-.13c-13.42,5.9-25.76,15.03-37.03,26.97-6.31,6.84-11.67,13.82-16.1,21.07-.67.81-1.07,1.61-1.48,2.55-6.57,10.87-11.14,22.41-13.55,34.48-1.61,7.51-2.42,15.3-2.42,23.21,0,9.39,1.07,18.52,3.49,27.24,3.22,13.15,9.12,25.36,17.44,36.9,2.82,4.03,5.9,7.92,9.39,11.67,14.36,15.7,31.26,25.76,50.99,30.19,4.83,1.21,9.79,2.01,14.89,2.42,3.62.4,7.11.54,10.87.54,22.14,0,42-5.77,59.58-17.58,3.89-2.55,7.51-5.23,10.87-8.05,5.37-4.43,10.2-9.26,14.63-14.49,1.07-1.21,2.15-2.55,3.22-4.03,4.43-5.64,8.18-11.67,11.54-18.12,1.07-2.15,2.01-4.16,2.95-6.17,6.44-14.22,10.06-27.37,10.6-39.72.13-1.34.13-2.55.13-3.89,0-11.54-1.21-22.27-3.62-32.34ZM312.5,692.5c-.4,1.21-.81,2.41-1.34,3.62-4.96,13.95-12.61,25.9-22.54,35.96-11,11-24.69,16.5-41.06,16.5-8.05,0-15.43-1.34-22.41-4.16-4.03-1.74-7.92-3.76-11.54-6.58-7.11-4.83-13.42-11.67-19.05-20.26-5.9-9.12-10.6-18.92-13.95-29.39-3.76-11.81-5.9-24.42-6.17-37.97-.13-1.48-.13-2.95-.13-4.56v-1.07c.13-13.28,1.61-25.76,4.7-37.57,3.35-12.88,8.45-24.69,15.16-35.69,13.28-21.47,30.86-32.2,52.87-32.2,13.69,0,26.43,4.29,38.37,13.02,4.29,3.09,8.05,6.84,11.54,11.27,4.16,5.37,7.78,11.81,10.73,19.19,1.61,3.49,2.82,7.25,4.03,11.27,1.34,4.56,2.55,9.12,3.49,13.55,2.82,12.61,4.43,24.96,4.7,37.17.13,1.88.13,3.62.13,5.5,0,9.93-1.34,20.4-4.29,31.53-.94,3.62-2.01,7.25-3.22,10.87Z"/>
          <path class="cls-2" d="M182.08,647.01c-2.55.8-5.23,1.88-7.65,3.22-.13-1.48-.13-2.95-.13-4.56v-1.07c2.55.94,5.23,1.74,7.78,2.42Z"/>
        </g>
      </g>
      <g>
        <path class="cls-2" d="M250.78,328.74q-.13-.13-.27-.27l-.4-.4c-1.34-1.21-2.68-2.42-4.03-3.76-1.88-1.61-3.62-3.35-5.1-5.23-1.61-1.61-3.09-3.22-4.29-4.83h-.13c-8.45-1.74-17.04-5.1-26.3-10.2-10.2-5.64-19.72-11.81-28.31-18.65-6.17-4.7-11.94-9.79-17.31-15.16-1.88-1.88-3.89-4.03-5.5-6.17-7.11-8.05-13.42-17.85-19.19-29.12-7.25-14.49-10.87-29.38-11-44.95,0-7.65,1.34-14.63,4.16-21.34,2.82-6.98,7.25-13.42,13.15-19.32,2.15-2.15,4.29-4.03,6.57-5.77-1.07.13-2.01.13-3.09.13-2.95,0-5.9-.13-8.72-.4-10.06,10.6-17.58,22.27-22.54,35.02-.27.67-.54,1.34-.81,2.01-1.74,4.96-3.22,10.06-4.29,15.3-.94,5.23-1.74,10.33-2.01,15.43-.54,6.71-.54,13.42.27,19.99.67,8.32,2.28,16.5,4.96,24.55,6.31,19.32,14.76,34.35,25.49,44.95l.81.8c1.88,1.88,3.76,3.62,5.64,5.37,8.45,7.51,17.31,13.69,26.3,18.52h.13c.94.54,1.88,1.07,2.82,1.48,14.09,6.84,28.85,10.47,44.41,10.73,11.81.13,22.94-1.48,33.41-4.83-1.61-1.21-3.22-2.55-4.83-3.89ZM250.78,328.74q-.13-.13-.27-.27l-.4-.4c-1.34-1.07-2.68-2.42-4.03-3.76-1.88-1.61-3.62-3.35-5.1-5.23-1.61-1.61-3.09-3.22-4.29-4.83h-.13c-8.45-1.74-17.04-5.1-26.3-10.2-10.2-5.64-19.72-11.81-28.31-18.65-6.17-4.7-11.94-9.79-17.31-15.16-1.88-1.88-3.89-4.03-5.5-6.17-7.11-8.05-13.42-17.85-19.19-29.12-7.25-14.49-10.87-29.38-11-44.95,0-7.65,1.34-14.63,4.16-21.34,2.82-6.98,7.25-13.42,13.15-19.32,2.15-2.15,4.29-4.03,6.57-5.77-1.07.13-2.01.13-3.09.13-2.95,0-5.9-.13-8.72-.4-10.06,10.6-17.58,22.27-22.54,35.02-.27.67-.54,1.34-.81,2.01-1.74,4.96-3.22,10.06-4.29,15.3-.94,5.23-1.74,10.33-2.01,15.43-.54,6.71-.54,13.42.27,19.99.67,8.32,2.28,16.5,4.96,24.55,6.31,19.32,14.76,34.35,25.49,44.95l.81.8c1.88,1.88,3.76,3.62,5.64,5.37,8.45,7.51,17.31,13.69,26.3,18.52h.13c.94.54,1.88,1.07,2.82,1.48,14.09,6.84,28.85,10.47,44.41,10.73,11.81.13,22.94-1.48,33.41-4.83-1.61-1.21-3.22-2.55-4.83-3.89ZM321.49,182.35c-.81-2.68-1.88-5.23-3.22-7.78-5.37-11.81-12.88-22.54-22.41-32.07-.81-.81-1.61-1.61-2.42-2.15-18.11-17.44-40.25-27.24-66.42-29.52-2.01-.27-4.03-.4-6.17-.54-21.74-.94-41.46,4.16-58.9,15.57-6.57,4.02-12.75,9.12-18.78,15.16-.81.81-1.48,1.48-2.15,2.28-10.06,10.6-17.58,22.27-22.54,35.02-.27.67-.54,1.34-.81,2.01-1.74,4.96-3.22,10.06-4.29,15.3-.94,5.23-1.74,10.33-2.01,15.43-.54,6.71-.54,13.42.27,19.99.67,8.32,2.28,16.5,4.96,24.55,6.31,19.32,14.76,34.35,25.49,44.95l.81.8c1.88,1.88,3.76,3.62,5.64,5.37,8.45,7.51,17.31,13.69,26.3,18.52h.13c.94.54,1.88,1.07,2.82,1.48,14.09,6.84,28.85,10.47,44.41,10.73,11.81.13,22.94-1.48,33.41-4.83.81-.27,1.48-.4,2.28-.8,10.33-3.49,19.99-8.72,28.98-15.83,3.89-2.95,7.51-6.17,11.14-9.79,7.78-7.78,14.22-16.37,19.19-25.49,4.7-8.72,8.18-18.11,10.06-28.18.81-3.09,1.34-6.31,1.61-9.66.81-6.17,1.07-12.61.81-19.19-.54-14.89-3.22-28.71-8.18-41.33ZM294.79,297.07c-6.44,6.44-13.96,11.27-22.68,14.49-4.29,1.48-8.86,2.68-13.69,3.49-6.84,1.07-14.09.8-21.74-.81h-.13c-8.45-1.74-17.04-5.1-26.3-10.2-10.2-5.64-19.72-11.81-28.31-18.65-6.17-4.7-11.94-9.79-17.31-15.16-1.88-1.88-3.89-4.03-5.5-6.17-7.11-8.05-13.42-17.85-19.19-29.12-7.25-14.49-10.87-29.38-11-44.95,0-7.65,1.34-14.63,4.16-21.34,2.82-6.98,7.25-13.42,13.15-19.32,2.15-2.15,4.29-4.03,6.57-5.77.54-.4,1.07-.8,1.61-1.21,12.08-8.59,26.3-11.81,42.94-9.79,2.68.13,5.5.67,8.32,1.21,18.38,3.76,35.15,11.67,50.72,23.75,4.97,3.89,9.66,8.05,14.36,12.75,3.35,3.35,6.58,6.84,9.39,10.33,11.67,13.55,20.13,28.04,25.49,43.61,1.48,4.16,2.68,8.45,3.76,12.75,2.42,10.06,2.95,19.46,1.74,28.04v.13c-1.74,12.21-7.25,22.81-16.37,31.94ZM250.78,328.74q-.13-.13-.27-.27l-.4-.4c-1.34-1.21-2.68-2.42-4.03-3.76-1.88-1.61-3.62-3.35-5.1-5.23-1.61-1.61-3.09-3.22-4.29-4.83h-.13c-8.45-1.74-17.04-5.1-26.3-10.2-10.2-5.64-19.72-11.81-28.31-18.65-6.17-4.7-11.94-9.79-17.31-15.16-1.88-1.88-3.89-4.03-5.5-6.17-7.11-8.05-13.42-17.85-19.19-29.12-7.25-14.49-10.87-29.38-11-44.95,0-7.65,1.34-14.63,4.16-21.34,2.82-6.98,7.25-13.42,13.15-19.32,2.15-2.15,4.29-4.03,6.57-5.77-1.07.13-2.01.13-3.09.13-2.95,0-5.9-.13-8.72-.4-10.06,10.6-17.58,22.27-22.54,35.02-.27.67-.54,1.34-.81,2.01-1.74,4.96-3.22,10.06-4.29,15.3-.94,5.23-1.74,10.33-2.01,15.43-.54,6.71-.54,13.42.27,19.99.67,8.32,2.28,16.5,4.96,24.55,6.31,19.32,14.76,34.35,25.49,44.95l.81.8c1.88,1.88,3.76,3.62,5.64,5.37,8.45,7.51,17.31,13.69,26.3,18.52h.13c.94.54,1.88,1.07,2.82,1.48,14.09,6.84,28.85,10.47,44.41,10.73,11.81.13,22.94-1.48,33.41-4.83-1.61-1.21-3.22-2.55-4.83-3.89Z"/>
        <path class="cls-2" d="M459.96,281.24c-.94-.94-1.74-1.88-2.68-2.82-8.86,5.5-17.98,9.93-27.51,13.02-3.76,1.34-7.51,2.42-11.41,3.35-4.83,1.21-9.53,1.88-14.09,2.28-5.23,4.16-11.54,7.65-18.78,10.6,9.66,3.89,19.99,6.17,31,6.98,4.96.54,9.93.54,15.16.4,19.99-.67,37.97-5.1,53.67-13.42-8.72-5.37-17.18-12.21-25.36-20.4ZM544.76,192.41c-.4-6.44-1.61-12.75-3.35-18.79-4.56-16.5-13.69-31.53-27.1-45.08-5.9-5.77-12.08-10.87-18.52-15.03-4.7-2.95-9.53-5.64-14.49-7.78-6.84-3.09-14.09-5.37-21.6-6.84-17.31-3.49-33.95-3.35-50.18.54-3.35.67-6.57,1.61-9.79,2.68-10.6,3.49-19.86,7.51-27.78,12.34-6.71,3.89-12.35,8.19-17.18,13.01-4.03,4.03-7.65,8.05-10.87,12.08-9.12,11.14-15.7,22.68-19.86,34.88-1.07,2.55-1.88,5.23-2.55,7.92-2.15,8.18-3.35,16.64-3.49,25.23-.13,9.79.81,19.19,3.35,28.04,1.34,5.9,3.35,11.54,5.9,16.91,5.1,11.14,12.48,21.47,21.87,31,2.28,2.28,4.7,4.56,7.25,6.57,8.86,7.65,18.65,13.42,29.12,17.58,9.66,3.89,19.99,6.17,31,6.98,4.96.54,9.93.54,15.16.4,19.99-.67,37.97-5.1,53.67-13.42,10.06-5.23,19.19-11.94,27.51-20.26,1.21-1.21,2.42-2.42,3.35-3.76,5.9-6.17,10.73-12.88,14.76-19.99,8.59-15.03,13.28-32.2,14.09-51.26.13-1.21.13-2.28.13-3.35,0-3.62,0-7.25-.4-10.6ZM485.06,256.28c-8.86,8.72-18.11,16.24-27.78,22.14-8.86,5.5-17.98,9.93-27.51,13.02-3.76,1.34-7.51,2.42-11.41,3.35-4.83,1.21-9.53,1.88-14.09,2.28-18.25,1.21-33.54-4.43-46.02-16.91-9.66-9.66-15.56-21.74-17.98-36.36-2.28-14.49,1.34-30.59,11-48.04,3.22-5.77,6.44-11.27,10.06-16.5,5.37-8.19,11.27-15.57,17.58-22.54.54-.67,1.21-1.34,1.88-2.01,1.34-1.61,2.82-3.09,4.29-4.56,7.11-7.11,15.7-13.69,25.9-19.59,2.95-1.74,6.17-3.49,9.39-5.1,14.49-7.38,29.39-11,44.95-11.14,1.21,0,2.55,0,3.76.13,4.83.27,9.53,1.21,13.95,2.68,8.45,2.82,16.1,7.65,23.08,14.62,15.3,15.3,20.53,35.15,15.43,59.31-.94,4.83-2.28,9.66-4.03,14.36-1.74,5.5-4.03,10.87-6.71,15.97-6.04,11.81-14.09,22.95-24.29,33.28-.4.54-.94,1.07-1.48,1.61Z"/>
        <g>
          <path class="cls-2" d="M309.42,385.09c-1.74,3.89-3.76,7.78-6.04,11.4-2.28,3.62-4.56,6.98-7.25,9.93-.67,6.98-2.42,14.22-5.64,21.74,9.26-4.16,18.11-9.8,26.3-16.91-1.07-9.12-3.62-17.85-7.38-26.17ZM289.69,465.06c-2.55-3.22-5.37-6.44-8.32-9.39-1.21-1.21-2.42-2.28-3.62-3.35-6.98,10.87-14.63,20.8-23.08,29.65.54.4,1.07.94,1.61,1.48,2.15,2.15,4.29,4.43,6.31,6.71,2.01,2.28,4.03,4.56,5.77,6.84,1.88,2.42,3.62,4.7,5.37,7.11,1.74,2.28,3.22,4.7,4.7,7.11.94-.81,1.88-1.61,2.82-2.55,8.18-8.19,15.03-16.64,20.4-25.36-2.01-4.02-4.43-8.05-7.11-11.81-1.48-2.28-3.09-4.43-4.83-6.44ZM316.79,411.26c-1.07-9.12-3.62-17.85-7.38-26.17-5.1-11.67-12.61-22.54-22.54-32.47-1.88-1.88-3.76-3.62-5.77-5.1,0-.13-.13-.13-.13-.13-7.25-6.44-14.76-11.68-23.08-15.57-2.28-1.21-4.56-2.28-7.11-3.09q-.13-.13-.27-.27c-13.96-5.5-29.39-8.05-46.16-7.38-9.39.27-18.25,1.48-26.7,3.49-.94.13-1.88.4-2.68.67h-.13c-12.35,3.09-23.62,8.19-33.81,14.9-.27.13-.4.27-.67.54h-.13c-5.9,4.02-11.4,8.45-16.64,13.69l-.13.13-.27.27c-4.29,4.29-8.05,8.72-11.4,13.55-.13,0-.13.13-.13.13-1.74,2.28-3.35,4.56-4.56,6.98-2.68,3.89-4.83,8.05-6.58,12.35-3.76,8.18-6.31,16.91-7.65,26.16-1.07,5.1-1.61,10.33-1.88,15.83-1.07,21.2,3.76,40.25,14.62,57.43,2.55,4.29,5.5,8.45,8.86,12.48,2.28,2.68,4.7,5.37,7.25,7.92,15.7,15.56,33.95,25.49,54.61,29.65,4.03.81,7.92,1.34,11.81,1.74,6.57.81,13.01.94,19.32.4h.13c2.42-.13,4.83-.27,7.11-.67,7.38-.81,14.49-2.42,21.6-4.7,3.35-1.07,6.58-2.28,9.66-3.49,13.15-5.23,24.02-11.67,32.47-19.32.94-.81,1.88-1.61,2.82-2.55,8.18-8.19,15.03-16.64,20.4-25.36,10.6-17.18,16.1-35.42,16.37-54.88.13-5.9-.27-11.67-1.21-17.17ZM250.91,486c-7.11,7.11-15.7,13.68-25.9,19.59-2.95,1.74-6.17,3.49-9.39,5.1-1.48.81-2.95,1.48-4.43,2.01-13.01,6.04-26.57,8.99-40.52,8.99-15.57.13-29.12-5.64-40.66-17.31-5.77-5.77-10.06-11.94-12.88-18.92-1.74-3.89-2.95-8.18-3.62-12.61-1.48-8.45-1.21-17.71.94-27.77,2.28-11,6.04-21.6,11.4-31.67,5.64-10.87,13.28-21.2,22.54-30.86.81-.94,1.61-1.74,2.55-2.68.27-.27.67-.67.94-.81,9.39-9.39,19.19-17.04,29.52-23.08,11.4-6.84,23.48-11.67,36.23-14.76,24.55-5.77,44.55-.8,60.11,14.76,9.66,9.53,15.56,21.6,17.98,36.23.67,4.56.81,9.39.4,14.22-.67,6.98-2.42,14.22-5.64,21.74-1.48,3.89-3.49,8.05-5.77,12.21-2.28,4.16-4.56,8.05-6.98,11.94-6.98,10.87-14.63,20.8-23.08,29.65-1.07,1.34-2.42,2.68-3.76,4.03ZM294.52,471.5c-1.48-2.28-3.09-4.43-4.83-6.44-2.55-3.22-5.37-6.44-8.32-9.39-1.21-1.21-2.42-2.28-3.62-3.35-6.98,10.87-14.63,20.8-23.08,29.65.54.4,1.07.94,1.61,1.48,2.15,2.28,4.29,4.43,6.31,6.71,2.01,2.28,4.03,4.56,5.77,6.84,1.88,2.42,3.62,4.7,5.37,7.11,1.61,2.28,3.22,4.7,4.7,7.11.94-.81,1.88-1.61,2.82-2.55,8.18-8.19,15.03-16.64,20.4-25.36-2.01-4.02-4.43-8.05-7.11-11.81ZM309.42,385.09c-1.74,3.89-3.76,7.78-6.04,11.4-2.28,3.62-4.56,6.98-7.25,9.93-.67,6.98-2.42,14.22-5.64,21.74,9.26-4.16,18.11-9.8,26.3-16.91-1.07-9.12-3.62-17.85-7.38-26.17Z"/>
          <path class="cls-2" d="M155.24,385.36c-2.28-1.21-4.56-2.15-6.84-2.82.81-.94,1.61-1.74,2.55-2.68.27-.27.67-.67.94-.81.94,2.15,2.01,4.29,3.35,6.31Z"/>
        </g>
      </g>
      <g>
        <path class="cls-2" d="M592.26,106.54c-.4-27.37-10.47-51.93-30.19-73.4C541.95,11,516.32,0,485.32,0c-22.14,0-42,5.9-59.58,17.58-17.58,11.81-31,26.7-40.25,44.68-9.12,18.11-13.69,34.62-13.69,49.78,0,.81,0,1.61.13,2.41.13,13.96,2.01,26.84,5.9,38.51.27,1.21.67,2.55,1.07,3.76,5.1,14.36,12.88,27.1,23.48,37.97,8.32,8.59,17.44,15.43,27.37,20.4.54.4,1.07.67,1.74.81,9.66,4.83,20.26,7.92,31.53,9.26,4.83.81,9.93,1.07,15.16,1.07,11.54,0,22.41-1.61,32.61-4.83,9.12-2.82,17.85-6.98,26.03-12.34,2.82-1.88,5.64-3.89,8.32-6.04,4.7-3.76,9.26-8.05,13.69-12.75,10.2-11,18.11-22.68,23.48-35.02,1.34-2.41,2.28-4.83,3.09-7.38,4.7-12.34,6.98-25.36,6.98-38.91,0-.81,0-1.61-.13-2.42ZM541.41,173.63c.13.13,0,.13,0,.13-1.88,4.02-4.03,7.92-6.31,11.67-5.23,8.32-11,15.03-17.58,19.99-10.06,8.05-21.87,12.08-35.29,12.08-9.12,0-17.85-1.88-26.3-5.9-4.16-1.88-8.19-4.29-12.08-7.11-5.5-4.02-10.33-9.12-14.49-15.43-4.83-7.25-8.72-15.97-11.81-26.3-3.09-10.87-5.37-21.6-6.57-32.2-1.21-8.18-1.74-16.1-1.74-24.02,0-2.28.13-4.7.27-7.11.67-11,3.09-22.68,7.25-35.29,4.96-15.43,13.02-28.58,23.88-39.58,11-11,24.69-16.5,41.06-16.5,21.87,0,39.45,10.33,53,31,10.47,15.83,16.77,33.68,19.19,53.67.67,5.9,1.07,11.94,1.07,18.25,0,4.97-.27,9.79-.67,14.63-1.48,17.44-5.64,33.41-12.88,48.04Z"/>
        <path class="cls-2" d="M610.24,323.1c0-1.21,0-2.41.13-3.76-9.66-2.15-18.92-5.37-27.51-9.66-4.03-1.88-7.92-4.03-11.67-6.31-3.62-2.28-6.98-4.7-10.06-7.38-6.98-.67-14.22-2.68-21.74-5.77,4.16,9.53,9.93,18.38,17.18,26.7,2.95,3.49,6.31,6.84,9.79,10.2,14.76,13.69,30.46,23.08,47.5,28.44-2.42-10.06-3.62-20.8-3.62-32.47ZM754.08,229.85c-1.07-5.5-2.68-10.73-4.56-15.83-2.82-6.98-6.31-13.69-10.47-19.99-9.66-14.36-21.2-25.9-35.02-34.62-3.09-2.01-6.31-3.89-9.66-5.64-9.66-4.83-18.78-8.45-27.51-10.6-7.78-2.01-15.16-3.09-22.27-3.09-5.64,0-11,.27-16.24.94-14.36,1.34-27.37,4.97-39.18,10.6-2.28,1.07-4.56,2.28-6.84,3.62-7.38,4.29-14.22,9.39-20.4,15.43-6.98,6.71-12.75,13.95-17.17,21.74-3.35,5.23-6.04,10.87-7.92,16.64-4.29,11.54-6.44,24.02-6.44,37.44,0,3.76.13,7.51.54,11.14,1.07,11.4,3.89,22.27,8.45,32.47v.13c4.16,9.53,9.93,18.38,17.18,26.7,2.95,3.49,6.31,6.84,9.79,10.2,14.76,13.69,30.46,23.08,47.5,28.44,10.73,3.35,22.01,5.1,33.68,5.1,1.74,0,3.35,0,4.96-.27,9.12-.27,17.98-1.61,26.3-4.29,16.1-4.7,30.86-13.28,44.55-25.76.54-.54,1.07-.94,1.61-1.61,2.42-2.28,4.83-4.56,6.98-7.11,4.43-4.96,8.19-10.2,11.27-15.7,8.99-15.29,13.42-32.74,13.42-52.33,0-8.32-.81-16.24-2.55-23.75ZM717.59,302.98c-4.7,3.09-9.53,5.77-14.63,8.05-4.96,2.55-10.2,4.56-15.56,6.04-12.21,4.02-25.49,6.04-39.58,6.17h-2.15c-12.48,0-24.15-1.34-35.29-3.89-9.66-2.15-18.92-5.37-27.51-9.66-4.03-1.88-7.92-4.03-11.67-6.31-3.62-2.28-6.98-4.7-10.06-7.38-14.76-12.07-22.01-27.24-22.01-45.49,0-13.55,4.29-26.43,13.02-38.37,8.59-11.94,22.54-20.66,41.73-26.3,6.31-1.74,12.48-3.35,18.65-4.43,9.93-2.01,19.72-3.22,29.39-3.62.67-.13,1.34-.13,2.01,0,2.15-.27,4.16-.27,6.17-.27,10.2,0,21.2,1.48,32.87,4.7,3.09.81,6.31,1.74,9.53,2.82,15.3,4.97,28.58,13.01,39.58,23.88.81.81,1.74,1.74,2.42,2.68,3.22,3.62,5.9,7.51,8.05,11.68,4.03,7.92,6.04,16.77,6.04,26.7,0,21.87-10.33,39.45-31,53Z"/>
        <g>
          <path class="cls-2" d="M275.2,312.64c-1.07-.4-2.15-.67-3.09-1.07-4.29,1.48-8.86,2.68-13.69,3.49-6.84,1.07-14.09.8-21.74-.81,1.21,1.61,2.68,3.22,4.29,4.83,1.48,1.88,3.22,3.62,5.1,5.23,1.34,1.34,2.68,2.55,4.03,3.76l.4.4q.13.13.27.27c1.61,1.34,3.22,2.68,4.83,3.89.81-.27,1.48-.4,2.28-.8,10.33-3.49,19.99-8.72,28.98-15.83-3.76-.94-7.65-2.01-11.67-3.35ZM437.02,243.8c-.54-9.79-2.42-19.05-5.5-27.91-.54-2.01-1.34-4.03-2.28-6.04v-.27c-6.04-14.22-15.3-27.24-27.91-39.05-6.57-6.17-13.42-11.54-20.53-15.83-.94-.67-1.88-1.34-2.95-1.74-10.73-6.57-22.14-11-33.95-13.42-7.78-1.75-15.7-2.55-23.88-2.55-9.12,0-18.11,1.07-26.57,3.35-13.15,3.09-25.49,8.86-37.03,17.17-4.16,2.82-8.18,6.04-12.21,9.66-15.56,14.36-25.76,31.4-30.19,51.12-1.21,4.83-2.01,9.79-2.42,15.03-.4,3.35-.54,6.98-.54,10.6,0,22.14,5.9,42,17.58,59.71,2.55,3.76,5.1,7.24,7.92,10.6h.13c1.21,1.61,2.68,3.22,4.29,4.83,1.48,1.88,3.22,3.62,5.1,5.23,1.34,1.34,2.68,2.55,4.03,3.76l.4.4q.13.13.27.27c1.61,1.34,3.22,2.68,4.83,3.89,5.5,4.16,11.41,7.92,17.71,11.14,2.55,1.34,5.1,2.55,7.65,3.62,0,0,.13,0,.13.13,13.55,6.04,26.3,9.39,38.11,9.93,1.34.13,2.55.13,3.89.13,11.54,0,22.27-1.21,32.34-3.62,19.72-4.43,36.5-13.42,50.32-26.97,4.03-3.89,7.65-8.05,10.73-12.35,5.77-7.24,10.06-14.89,13.28-23.21,5.1-12.21,7.51-25.76,7.51-40.25,0-2.55-.13-4.96-.27-7.38ZM373.82,311.7c-4.56,1.34-8.99,2.55-13.55,3.49-12.48,2.82-24.96,4.56-37.03,4.7-1.88.27-3.76.27-5.64.27-9.53,0-19.86-1.34-30.73-4.16-3.76-.94-7.65-2.01-11.67-3.35-1.07-.4-2.15-.67-3.09-1.07-13.96-5.1-26.3-12.75-36.5-22.95-11-10.87-16.5-24.55-16.5-41.06,0-7.92,1.34-15.43,4.16-22.27,1.61-4.16,3.89-8.05,6.57-11.67,4.96-7.11,11.67-13.42,20.26-18.92,9.39-6.17,19.32-10.87,30.06-14.09,11.81-3.76,24.55-5.77,38.11-6.04,1.21-.13,2.42-.13,3.76-.13h2.01c13.15.13,25.63,1.75,37.3,4.83,12.61,3.35,24.29,8.32,35.15,15.03,21.33,13.15,32.07,30.86,32.07,52.87,0,13.55-4.29,26.3-13.01,38.24-3.09,4.29-6.84,8.19-11.27,11.68-5.23,4.16-11.54,7.65-18.78,10.6-3.62,1.48-7.51,2.82-11.67,4.03Z"/>
          <path class="cls-2" d="M324.04,174.43c-1.07,2.55-1.88,5.23-2.55,7.92-.81-2.68-1.88-5.23-3.22-7.78,1.21-.13,2.42-.13,3.76-.13h2.01Z"/>
        </g>
      </g>
      <g>
        <path class="cls-2" d="M827.48,143.17c-15.7-15.7-33.81-25.49-54.61-29.65-20.8-4.16-40.79-3.09-59.98,3.09-19.32,6.31-34.22,14.89-44.95,25.49-.4.4-.67.67-1.07,1.07-9.93,10.2-17.71,20.8-23.62,31.8-.4.94-.94,1.88-1.34,2.82-6.98,14.09-10.47,28.85-10.73,44.41-.13,11.54,1.34,22.41,4.56,32.6.27,1.07.54,2.01,1.07,2.95,3.22,10.06,8.32,19.46,15.16,28.31,3.09,4.16,6.57,8.18,10.47,12.08,7.65,7.65,16.1,13.95,24.96,18.92,8.86,4.83,18.38,8.32,28.58,10.33,2.95.67,5.9,1.21,8.99,1.34,6.31.94,13.01,1.21,19.99.94,15.03-.54,28.85-3.22,41.46-8.05,2.28-.8,4.7-1.74,6.84-2.82,12.21-5.5,23.08-13.01,32.87-22.81.54-.54,1.07-1.07,1.48-1.61,19.05-19.86,29.25-44.28,30.73-73.53,1.34-29.92-8.99-55.82-30.86-77.69ZM810.57,257.09c-3.76,4.69-7.92,9.39-12.35,13.82-3.49,3.49-7.25,6.84-10.87,9.93-13.69,11.54-28.45,19.86-44.14,25.09-3.89,1.48-7.78,2.55-11.67,3.49-10.33,2.55-19.86,3.09-28.58,1.61-12.08-1.74-22.54-7.24-31.53-16.24-6.71-6.71-11.67-14.76-14.76-23.88-1.34-3.89-2.42-8.05-3.09-12.48-1.21-7.11-.94-14.62.81-22.41,1.88-8.18,5.23-16.77,10.06-25.63,5.64-10.2,11.81-19.59,18.52-28.18,4.7-6.17,9.93-12.08,15.3-17.44,1.74-1.74,3.76-3.62,5.77-5.37h.13c8.18-7.11,17.98-13.55,29.52-19.46,14.36-7.24,29.39-10.87,44.82-11,15.56,0,29.12,5.77,40.79,17.31,15.43,15.43,20.53,35.29,15.43,59.44-3.76,18.52-11.94,35.69-24.15,51.39Z"/>
        <path class="cls-2" d="M677.2,430.31c-1.34-3.89-2.55-7.92-3.49-11.94-1.07-4.56-1.88-8.86-2.15-13.15-4.43-5.23-8.05-11.4-11.14-18.65-3.62,9.53-5.9,19.72-6.71,30.59-.4,4.7-.4,9.53-.27,14.49.67,19.99,5.1,37.84,13.42,53.67,5.37-8.72,12.21-17.17,20.4-25.36.94-.94,1.88-1.74,2.82-2.55-5.37-8.72-9.79-17.71-12.88-27.1ZM869.21,409.65c-.67-3.35-1.61-6.71-2.68-9.93-3.49-10.6-7.65-19.86-12.34-27.77-3.89-6.57-8.32-12.35-13.15-17.18-4.16-4.16-8.45-8.05-12.75-11.4-11.14-8.86-22.81-15.43-34.89-19.59-2.28-.94-4.7-1.61-6.98-2.15-8.32-2.28-16.77-3.49-25.49-3.62-10.2-.13-19.86,1.07-28.98,3.62-5.5,1.34-10.87,3.22-15.97,5.77-11.14,4.96-21.33,12.34-30.86,21.87-2.28,2.28-4.43,4.56-6.31,6.84-8.05,9.26-14.22,19.46-18.38,30.46-3.62,9.53-5.9,19.72-6.71,30.59-.4,4.7-.4,9.53-.27,14.49.67,19.99,5.1,37.84,13.42,53.67,5.1,10.06,11.94,19.32,20.26,27.64,1.21,1.21,2.42,2.28,3.62,3.35,6.17,5.77,12.75,10.6,19.86,14.62,15.16,8.45,32.34,13.28,51.66,14.22.94.13,1.74.13,2.55,0,3.62.13,7.25.13,10.73-.27,6.58-.4,12.88-1.48,18.92-3.22,16.64-4.56,31.8-13.69,45.49-27.37,5.9-5.9,10.87-12.08,15.03-18.52,3.09-4.7,5.77-9.53,7.78-14.62,3.09-6.84,5.37-13.96,6.84-21.47,3.49-17.31,3.35-33.95-.4-50.05ZM851.36,483.04c-2.68,8.45-7.51,16.1-14.49,23.08-15.43,15.43-35.29,20.53-59.44,15.43-5.23-1.07-10.47-2.55-15.56-4.29-5.37-1.88-10.6-4.16-15.7-6.98-11.54-5.9-22.27-13.82-32.34-23.75-.54-.4-1.07-.94-1.61-1.47-8.72-8.72-16.1-17.98-22.14-27.64-5.37-8.72-9.79-17.71-12.88-27.1-1.34-3.89-2.55-7.92-3.49-11.94-1.07-4.56-1.88-8.86-2.15-13.15-1.61-18.52,4.03-34.21,16.77-46.96,9.66-9.53,21.74-15.57,36.36-17.85,14.49-2.42,30.59,1.34,48.04,10.87,5.5,3.09,10.73,6.17,15.83,9.66,8.32,5.37,15.97,11.4,23.08,17.98.54.27,1.21.81,1.74,1.48,1.74,1.48,3.35,3.09,4.96,4.7,7.11,7.11,13.55,15.57,19.59,25.76,1.74,3.09,3.49,6.31,5.23,9.66,7.25,14.36,10.87,29.38,11,44.82,0,1.21,0,2.42-.13,3.62-.27,4.96-1.21,9.66-2.68,14.09Z"/>
        <g>
          <path class="cls-2" d="M643.92,177.79c-.13-.94-.27-1.88-.67-2.82-3.09-12.34-8.05-23.62-14.89-33.95-4.16-6.31-9.12-12.34-14.63-17.85-6.57-6.71-13.82-12.21-21.47-16.64-11.54-7.11-24.42-11.67-38.37-13.82-4.96-.94-9.93-1.48-15.16-1.75-21.2-.94-40.39,3.89-57.43,14.76-4.16,2.41-8.32,5.37-12.21,8.72-2.68,2.28-5.37,4.7-8.05,7.38-15.7,15.56-25.63,33.81-29.79,54.61-.81,4.16-1.48,8.45-1.88,12.61-.67,6.98-.67,13.82-.13,20.53v.27c.13,1.74.27,3.49.54,5.23.81,7.11,2.42,14.22,4.7,21.34.81,2.55,1.74,4.96,2.55,7.25v.13c5.5,14.22,12.21,25.76,20.26,34.62.94.94,1.74,1.88,2.68,2.82,6.71,6.71,13.42,12.35,20.53,17.17,1.48,1.07,3.09,2.15,4.7,3.09l.13.13c17.17,10.73,35.42,16.24,54.74,16.5,5.64.13,11.14-.27,16.5-1.21,9.26-1.07,17.98-3.49,26.3-7.25,11.94-5.1,22.94-12.75,33.01-22.81,1.34-1.34,2.55-2.68,3.62-4.03,7.25-7.65,13.01-16.1,17.31-25.09,1.48-2.82,2.68-5.64,3.76-8.72,5.23-13.55,7.51-28.45,6.98-44.68-.4-9.39-1.48-18.25-3.62-26.57ZM612.66,277.75c-9.66,9.66-21.74,15.7-36.36,17.98-4.96.81-9.93.81-15.16.27-6.98-.67-14.22-2.68-21.74-5.77v-.13c-3.62-1.48-7.38-3.22-11.27-5.37-4.16-2.28-8.05-4.56-11.94-7.11-10.87-6.71-20.8-14.36-29.65-22.94-1.34-1.07-2.68-2.42-4.03-3.76-6.98-6.98-13.55-15.57-19.46-25.76-1.88-3.09-3.62-6.17-5.23-9.53-.67-1.34-1.34-2.68-1.88-4.03-6.04-13.15-8.99-26.84-9.12-40.92,0-15.43,5.77-29.12,17.31-40.66,5.64-5.64,11.94-9.93,18.78-12.88h.13c4.03-1.74,8.18-2.95,12.61-3.62,0-.13.13,0,.13,0,8.45-1.48,17.71-1.07,27.64.94,10.73,2.28,21.07,5.9,30.86,11.14,11,5.5,21.33,13.01,31.13,22.27,1.07.94,2.15,2.01,3.22,3.09.27.27.4.4.54.67,9.39,9.39,17.17,19.32,23.35,29.79,6.84,11.54,11.81,23.62,14.76,36.23,5.77,24.55.94,44.55-14.62,60.11Z"/>
          <path class="cls-2" d="M589.18,151.62c-2.28,1.07-4.56,2.28-6.84,3.62,1.34-2.41,2.28-4.83,3.09-7.38,1.07.94,2.15,2.01,3.22,3.09.27.27.4.4.54.67Z"/>
        </g>
      </g>
      <g>
        <path class="cls-2" d="M950.12,425.75c-11.67-17.58-26.57-31-44.68-40.12-18.11-9.12-34.62-13.68-49.78-13.68h-1.48c-14.36.13-27.51,2.01-39.45,6.04-1.07.13-2.01.54-3.09.94-14.62,4.97-27.51,12.88-38.64,23.62-8.59,8.32-15.43,17.44-20.26,27.37-.54.54-.81,1.07-.94,1.74-4.96,9.8-8.05,20.4-9.26,31.8-.81,4.83-1.07,9.66-1.07,14.76,0,11.27,1.48,22,4.7,32.07,2.82,9.39,6.98,18.25,12.48,26.57,1.88,2.82,3.89,5.64,6.04,8.32h.13c3.62,4.7,7.92,9.26,12.61,13.69,11,10.2,22.54,18.11,34.89,23.62,2.68,1.21,5.37,2.41,8.05,3.22,12.21,4.56,24.96,6.71,38.37,6.71,1.07,0,2.15,0,3.22-.13,27.1-.67,51.26-10.73,72.59-30.06,22.14-20.26,33.14-45.76,33.14-76.75,0-22.14-5.77-42-17.58-59.71ZM928.78,534.7c-15.7,10.33-33.28,16.64-52.87,19.19-6.17.81-12.61,1.21-19.19,1.21-4.7,0-9.26-.13-13.82-.54-17.58-1.48-33.81-5.77-48.44-12.88-4.16-1.88-8.18-4.03-12.08-6.44-8.59-5.23-15.43-11.27-20.39-17.98h-.13c-7.78-10.06-11.67-21.6-11.67-34.89,0-9.12,1.88-17.71,5.77-26.03,1.88-4.29,4.29-8.32,7.25-12.34,4.16-5.64,9.26-10.6,15.7-14.76,7.25-4.69,15.97-8.59,26.16-11.54,11.14-3.22,22.14-5.64,32.87-6.84,7.78-1.07,15.56-1.61,23.21-1.61,2.68,0,5.37.13,8.05.4,10.73.67,22.14,3.09,34.48,7.11,15.3,5.1,28.45,13.01,39.45,24.02,11,11,16.5,24.69,16.5,41.06,0,21.74-10.33,39.45-30.86,52.87Z"/>
        <path class="cls-2" d="M651.44,556.04c-3.76,3.22-7.25,6.57-10.73,10.33-13.69,14.62-23.21,30.46-28.45,47.5,10.06-2.41,20.8-3.62,32.34-3.62,1.21,0,2.42,0,3.76.13,2.28-9.93,5.64-19.32,10.06-28.04,1.74-3.76,3.76-7.51,5.9-11,2.55-4.16,5.23-7.78,8.18-11.14.94-6.71,2.95-13.82,6.04-21.2-9.66,4.16-18.65,9.8-27.1,17.04ZM826.67,628.76c-1.34-14.36-4.83-27.24-10.33-38.91-1.21-2.55-2.42-4.96-4.03-7.38-4.03-7.38-9.26-14.22-15.3-20.53-6.57-6.84-13.82-12.61-21.47-17.04-5.37-3.35-11-6.04-16.91-8.05-11.41-4.29-23.88-6.44-37.3-6.44-3.62,0-7.25.13-10.73.54h-.13c-11.27.94-22.01,3.62-31.93,8.05-9.66,4.16-18.65,9.8-27.1,17.04-3.76,3.22-7.25,6.57-10.73,10.33-13.69,14.62-23.21,30.46-28.45,47.5-3.35,10.87-5.1,22.14-5.1,33.81,0,1.75,0,3.35.27,4.97.27,8.72,1.61,17.17,3.89,25.22,4.7,16.5,13.28,31.67,26.03,45.62.81.81,1.48,1.61,2.28,2.28,2.42,2.68,4.96,4.96,7.51,7.11,4.96,4.29,10.2,8.05,15.7,11.14,15.03,8.45,32.07,12.61,51.26,12.61,8.18,0,16.1-.81,23.75-2.42,5.37-1.07,10.73-2.68,15.83-4.7,6.98-2.68,13.69-6.17,20.13-10.47,14.49-9.66,26.16-21.6,34.89-35.56,1.88-2.95,3.62-6.04,5.23-9.12,4.96-9.79,8.59-19.19,10.73-28.18,2.01-7.51,2.95-14.63,2.95-21.6,0-5.5-.27-10.73-.94-15.83ZM782.8,692.5c-5.1,15.43-13.02,28.58-24.02,39.58-.81.81-1.74,1.74-2.68,2.41-3.62,3.22-7.51,5.9-11.67,8.05-7.92,4.03-16.77,6.04-26.7,6.04-21.74,0-39.45-10.33-52.87-30.99-2.82-4.29-5.37-8.86-7.51-13.42-2.55-4.96-4.7-10.2-6.31-15.57-4.16-12.48-6.31-26.16-6.57-40.66v-2.28c0-12.48,1.34-24.15,3.89-35.29,2.28-9.93,5.64-19.32,10.06-28.04,1.74-3.76,3.76-7.51,5.9-11,2.55-4.16,5.23-7.78,8.18-11.14,11.94-14.09,26.84-21.07,44.68-21.07,13.69,0,26.43,4.29,38.37,13.02,11.94,8.72,20.8,22.54,26.3,41.73,1.88,6.44,3.49,12.75,4.56,19.05,2.01,9.66,3.22,19.19,3.62,28.58.13.94.13,1.74,0,2.55.27,2.01.27,4.03.27,6.04,0,10.06-1.48,20.93-4.7,32.34-.67,3.35-1.74,6.71-2.82,10.06Z"/>
        <g>
          <path class="cls-2" d="M827.61,294.39c-3.09-13.28-8.72-25.63-17.04-37.3-2.95-4.43-6.31-8.59-10.06-12.75-14.36-15.7-31.26-25.76-50.99-30.32-4.83-1.21-9.93-2.01-15.03-2.42-3.49-.4-7.11-.54-10.73-.54-22.14,0-42,5.9-59.58,17.71-3.49,2.28-6.71,4.7-9.79,7.25-5.1,4.03-9.66,8.32-13.82,13.01-.13,0,0,.13,0,.13-1.74,1.88-3.35,3.76-4.83,5.63-4.56,5.77-8.45,11.94-11.81,18.65-1.61,3.09-3.09,6.17-4.29,9.26,0,0-.13,0-.13.13-5.5,13.01-8.59,25.23-9.12,36.5-.13,1.34-.13,2.55-.13,3.76,0,3.89.13,7.65.54,11.27-.13.94,0,1.88.13,2.68.13,2.41.4,4.7.81,6.98.13,1.34.4,2.55.54,3.89.4,2.55.94,5.23,1.61,7.65,4.43,19.73,13.55,36.36,26.97,50.32,4.16,4.16,8.45,8.05,12.88,11.27,7.25,5.63,15.16,9.93,23.48,13.15,11.94,4.7,25.09,7.11,39.31,7.11,2.68,0,5.37-.13,7.92-.27,9.66-.67,18.79-2.41,27.37-5.5,2.15-.67,4.29-1.48,6.44-2.42,14.22-5.9,27.24-15.29,38.91-27.77,6.31-6.84,11.81-13.82,16.24-21.07.54-.81,1.07-1.61,1.34-2.42,6.71-11,11.14-22.54,13.55-34.62,1.61-7.51,2.42-15.3,2.42-23.21,0-8.86-.94-17.58-3.09-25.76ZM788.57,360.94c-3.22,12.75-8.32,24.55-15.03,35.56-13.28,21.47-30.86,32.2-52.87,32.2-13.69,0-26.43-4.43-38.37-13.01-4.03-2.95-7.65-6.44-10.73-10.47-4.43-5.23-8.05-11.4-11.14-18.65-1.61-3.89-3.09-8.18-4.43-12.75-1.34-4.43-2.42-8.99-3.49-13.42-2.82-12.61-4.56-24.96-4.7-37.17-.27-1.88-.27-3.62-.27-5.5,0-9.93,1.48-20.39,4.43-31.67.94-3.49,2.01-7.11,3.22-10.87.54-1.47.94-2.95,1.48-4.29,5.1-13.55,12.61-25.23,22.41-35.15,11-11,24.69-16.64,41.06-16.64,8.05,0,15.43,1.34,22.41,4.16,4.03,1.74,7.92,3.76,11.54,6.57,7.11,4.83,13.42,11.67,19.05,20.26,6.17,9.53,11,19.72,14.22,30.73,3.76,11.81,5.77,24.42,5.9,37.97.13,1.07.13,2.15.13,3.22v1.75c-.13,13.15-1.74,25.49-4.83,37.17Z"/>
          <path class="cls-2" d="M793.4,322.03v1.75c-2.28-.94-4.7-1.61-6.98-2.15,2.28-.8,4.7-1.74,6.84-2.82.13,1.07.13,2.15.13,3.22Z"/>
        </g>
      </g>
      <g>
        <path class="cls-2" d="M851.9,712.89c-6.31-19.19-14.76-34.22-25.49-44.95l-1.74-1.74c-9.93-9.66-20.4-17.18-31.13-22.95-1.21-.54-2.28-1.21-3.49-1.74-13.95-6.71-28.45-10.06-43.74-10.33-11.67-.13-22.81,1.48-33.28,4.83-.67.13-1.48.4-2.15.8-10.2,3.35-19.72,8.45-28.58,15.43-4.03,2.95-8.05,6.44-11.81,10.2-8.05,8.05-14.49,16.77-19.46,26.16-4.56,8.59-7.92,17.71-9.79,27.37-.81,3.22-1.34,6.44-1.61,9.79-.81,6.17-1.07,12.61-.81,19.19.54,14.9,3.22,28.72,8.19,41.33.67,2.41,1.61,4.7,2.82,6.98,5.37,12.21,13.02,23.08,22.81,32.87.54.54.94.94,1.48,1.34,19.72,19.19,44.28,29.39,73.53,30.86,29.92,1.34,55.82-8.99,77.69-30.86,15.7-15.57,25.63-33.81,29.79-54.61,4.03-20.66,3.09-40.79-3.22-59.98ZM822.25,819.29c-15.43,15.43-35.15,20.53-59.44,15.57-18.52-3.89-35.69-12.08-51.52-24.69-4.56-3.49-9.12-7.51-13.55-11.94-3.62-3.62-6.98-7.24-10.06-11-11.4-13.42-19.72-27.91-24.82-43.21-1.61-4.02-2.82-8.18-3.76-12.35-2.28-9.93-2.95-19.05-1.74-27.51v-.13c1.61-12.48,7.11-23.21,16.37-32.47,6.71-6.71,14.49-11.54,23.48-14.76,4.03-1.48,8.32-2.55,12.88-3.22,6.84-1.07,14.09-.8,21.6.67,8.45,1.88,17.31,5.23,26.57,10.33,9.79,5.37,19.05,11.27,27.37,17.85,6.58,4.96,12.61,10.2,18.25,15.83,1.61,1.61,3.22,3.35,4.83,5.23,7.25,8.32,13.95,18.38,19.86,30.19,7.25,14.36,10.87,29.39,11,44.82,0,15.57-5.77,29.12-17.31,40.79Z"/>
        <path class="cls-2" d="M550.67,653.72c-4.43-.4-9.12-.4-13.82-.27-19.99.67-37.84,5.23-53.54,13.55,8.72,5.37,17.04,12.08,25.23,20.26.94.94,1.74,1.88,2.68,2.82,8.32-5.23,17.04-9.53,26.16-12.61,4.16-1.47,8.45-2.68,12.75-3.76,4.16-1.07,8.32-1.74,12.21-2.01,5.37-4.43,11.67-8.18,19.19-11.27-9.66-3.76-19.86-6.04-30.86-6.71ZM647.14,732.88c-1.34-5.9-3.35-11.54-5.9-16.91-5.1-11.14-12.48-21.47-22.01-30.86-2.55-2.55-5.23-4.96-7.92-7.25-9.12-7.65-19.05-13.42-29.79-17.44-9.66-3.76-19.86-6.04-30.86-6.71-4.43-.4-9.12-.4-13.82-.27-19.99.67-37.84,5.23-53.54,13.55-10.06,5.1-19.32,11.94-27.64,20.26-1.21,1.21-2.42,2.42-3.22,3.62-6.31,6.58-11.41,13.69-15.57,21.34-8.18,14.76-12.61,31.4-13.42,50.05,0,.67-.13,1.34,0,1.88-.13,3.49-.13,6.84.27,10.06.13,6.57,1.21,12.88,2.82,19.05,4.43,17.18,13.69,32.74,27.64,46.69,5.9,5.9,12.08,11,18.65,15.16,4.7,3.09,9.39,5.64,14.36,7.78,6.84,3.09,14.09,5.37,21.6,6.84,16.91,3.35,33.41,3.35,49.24-.4,3.62-.67,7.25-1.61,10.73-2.82,10.33-3.35,19.32-7.38,27.1-11.94,6.84-4.02,12.88-8.59,17.85-13.55,4.16-4.16,7.92-8.32,11.27-12.48,8.99-11.27,15.56-22.94,19.72-35.15.94-2.28,1.61-4.7,2.28-7.11,2.15-8.19,3.35-16.64,3.49-25.36.13-9.79-.94-19.19-3.35-28.04ZM589.18,812.32c-.4.54-.81.94-1.34,1.48-1.34,1.61-2.95,3.22-4.43,4.69-7.25,7.25-16.1,13.96-26.57,19.86-2.82,1.74-5.64,3.35-8.72,4.83-14.49,7.25-29.39,11-44.95,11-1.21,0-2.42,0-3.62-.13-4.83-.27-9.39-1.07-13.82-2.55-8.45-2.82-16.24-7.65-23.35-14.62-15.3-15.43-20.53-35.16-15.43-59.31,1.07-5.5,2.68-11,4.56-16.24,1.88-5.23,4.16-10.33,6.84-15.29,5.9-11.41,13.82-22.14,23.62-32.2.54-.54.94-.94,1.48-1.48,8.86-8.86,18.11-16.24,27.78-22.27,8.32-5.23,17.04-9.53,26.16-12.61,4.16-1.47,8.45-2.68,12.75-3.76,4.16-1.07,8.32-1.74,12.21-2.01,19.05-1.74,35.02,3.76,47.9,16.64,9.66,9.66,15.56,21.74,17.85,36.36,2.42,14.49-1.21,30.59-10.87,48.17-3.09,5.5-6.31,10.87-9.79,15.97-5.5,8.45-11.67,16.24-18.25,23.48Z"/>
        <g>
          <path class="cls-2" d="M712.22,485.06c-8.72-8.72-16.1-17.98-22.14-27.64-.94.81-1.88,1.61-2.82,2.55-6.71,6.71-12.35,13.42-17.18,20.53-1.07,1.48-2.15,3.09-3.09,4.7l-.13.13c5.1,10.06,11.94,19.32,20.26,27.64,1.21,1.21,2.42,2.28,3.62,3.35,6.98-10.87,14.62-20.93,23.08-29.79-.54-.4-1.07-.94-1.61-1.47ZM862.77,481.17c-2.42-4.16-5.37-8.32-8.72-12.21-2.28-2.68-4.7-5.37-7.25-7.92-15.7-15.7-33.81-25.63-54.61-29.79-4.43-.94-8.86-1.48-13.28-2.01-6.98-.54-13.82-.54-20.66,0q-.13,0-.27.13c-1.74,0-3.49.27-5.23.54-6.98.81-13.82,2.42-20.66,4.56-2.68.8-5.23,1.74-7.65,2.68-14.09,5.37-25.49,12.08-34.35,20.26-.94.81-1.88,1.61-2.82,2.55-6.71,6.71-12.35,13.42-17.18,20.53-1.07,1.48-2.15,3.09-3.09,4.7l-.13.13c-10.73,17.18-16.1,35.42-16.5,54.74-.13,5.5.27,10.87,1.07,15.97,1.07,9.26,3.49,17.98,6.98,26.3,5.23,12.21,13.02,23.35,23.21,33.54,1.61,1.61,3.22,3.09,4.83,4.43,7.51,6.84,15.7,12.35,24.42,16.5,2.28,1.34,4.7,2.28,7.11,3.35,13.95,5.5,29.39,7.92,46.16,7.38,9.12-.27,17.71-1.47,25.9-3.49,1.21-.13,2.42-.4,3.49-.8,12.08-2.95,23.08-7.78,33.14-14.49,6.71-4.16,12.88-9.26,18.65-15.03,6.71-6.57,12.21-13.82,16.64-21.47,7.11-11.54,11.67-24.42,13.96-38.38.81-4.96,1.34-9.93,1.61-15.16.94-21.2-3.89-40.39-14.76-57.56ZM786.42,612.93c-11.27,6.71-23.08,11.4-35.56,14.36-24.55,5.77-44.55.94-60.11-14.62-9.66-9.66-15.57-21.74-17.98-36.36-.81-5.1-.94-10.47-.27-16.1.94-6.71,2.95-13.82,6.04-21.2,1.48-3.49,3.22-7.11,5.23-10.87,2.28-4.03,4.56-8.05,6.98-11.81,6.98-10.87,14.62-20.93,23.08-29.79,1.07-1.34,2.42-2.68,3.76-4.02,6.84-6.84,15.16-13.15,24.96-19.05,3.35-1.88,6.71-3.76,10.33-5.63,1.07-.54,2.01-.94,3.09-1.48,13.55-6.31,27.37-9.53,41.86-9.53,15.56,0,29.12,5.77,40.66,17.31,5.64,5.63,9.93,11.94,12.88,18.78v.13c1.74,4.03,2.95,8.32,3.62,12.75,1.48,8.45,1.21,17.71-.94,27.64-2.28,10.87-6.04,21.34-11.14,31.13-5.64,11-13.15,21.47-22.54,31.13-.94,1.07-1.88,2.01-2.82,2.95-.4.4-.81.8-1.21,1.21-9.39,9.26-19.46,17.04-29.92,23.08Z"/>
          <path class="cls-2" d="M820.37,585.69c-.94,1.07-1.88,2.01-2.82,2.95-.4.4-.81.8-1.21,1.21-1.21-2.55-2.42-4.96-4.03-7.38,2.68,1.21,5.37,2.41,8.05,3.22Z"/>
        </g>
      </g>
    </g>
  </g>
</svg>