<?xml version="1.0" encoding="UTF-8"?>
<svg id="Layer_1" data-name="Layer 1" xmlns="http://www.w3.org/2000/svg" viewBox="0 0 434.85 434.91">
  <defs>
    <style>
      .cls-1 {
        fill: #9d3723;
      }

      .cls-2 {
        opacity: .35;
      }
    </style>
  </defs>
  <g class="cls-2">
    <g>
      <path class="cls-1" d="M265.12,366.23c-.06-.42-.18-.84-.36-1.21-2.29-6.75-5.85-12.6-10.73-17.61-3.62-3.74-7.6-6.75-11.94-8.98-.36-.24-.72-.42-1.15-.48v-.06c-4.28-2.17-8.98-3.56-13.99-4.1-2.29-.42-4.58-.54-6.99-.54-4.88,0-9.59.66-13.99,1.99-4.34,1.27-8.44,3.14-12.3,5.67-1.15.78-2.29,1.57-3.38,2.47-2.29,1.75-4.46,3.8-6.57,6.03-4.64,4.94-8.2,10.19-10.61,15.74-.54,1.08-.96,2.17-1.33,3.26-2.11,5.55-3.14,11.34-3.14,17.49,0,.42,0,.91.06,1.33.24,12.24,4.76,23.15,13.57,32.74,9.04,9.95,20.56,14.95,34.49,14.95,9.95,0,18.87-2.65,26.77-7.9,7.9-5.31,13.93-12,18.03-20.08,4.16-8.14,6.21-15.62,6.21-22.37v-.54c-.06-6.45-.9-12.36-2.65-17.79ZM247.57,406.09c-2.29,6.87-5.85,12.84-10.79,17.79-4.88,4.94-11.03,7.42-18.45,7.42-9.77,0-17.67-4.64-23.76-13.93-4.64-7.05-7.48-15.01-8.62-23.82-.3-2.71-.48-5.55-.48-8.5,0-2.17.06-4.28.3-6.39.6-8.02,2.59-15.44,5.91-22.13v-.06c.84-1.69,1.75-3.32,2.71-4.88,2.47-4.04,5.31-7.17,8.5-9.47,4.4-3.32,9.53-4.94,15.25-4.94,4.16,0,8.2.9,12.06,2.77,1.75.78,3.5,1.87,5.19,3.08,2.65,1.87,4.88,4.34,6.87,7.42v.06c2.05,3.14,3.68,6.93,4.94,11.27,1.45,5.07,2.47,10.07,3.01,14.95.48,3.5.72,6.93.72,10.31,0,1.15-.06,2.35-.18,3.62-.3,4.76-1.39,9.95-3.2,15.44Z"/>
      <path class="cls-1" d="M196.32,320.05c-.36-5.43-1.63-10.49-3.74-15.25-1.87-4.22-4.34-8.26-7.54-12-1.45-1.69-3.01-3.32-4.7-4.88-6.57-6.09-13.69-10.37-21.34-12.78-4.88-1.51-9.95-2.29-15.19-2.29-.72,0-1.45,0-2.17.12-3.74.06-7.36.66-10.85,1.63-7.6,2.05-14.65,6.03-21.04,11.88-.3.3-.66.6-.96.96-1.21,1.09-2.29,2.29-3.32,3.5-1.93,2.23-3.56,4.58-4.88,7.05-3.8,6.75-5.73,14.41-5.73,22.97,0,3.68.36,7.24,1.15,10.61.48,2.47,1.15,4.82,2.05,7.12,1.21,3.2,2.77,6.15,4.7,9.04,4.4,6.57,9.77,11.88,16.16,15.8,1.27.78,2.59,1.57,3.92,2.23,4.52,2.29,8.8,3.98,12.9,4.94,3.26.84,6.45,1.27,9.47,1.27,2.59,0,5.06-.12,7.48-.42,6.39-.66,12.18-2.23,17.43-4.76,1.02-.48,2.05-1.02,3.01-1.63,3.38-1.87,6.39-4.22,9.22-6.93,3.26-3.2,5.97-6.63,8.08-10.31,1.33-2.23,2.41-4.58,3.26-6.99,1.93-5.12,2.83-10.73,2.83-16.76,0-1.39-.06-2.77-.18-4.1ZM167.98,351.4c-2.77.78-5.55,1.45-8.26,1.99-4.28.84-8.56,1.39-12.72,1.57-.42.12-.84.12-1.27.06-1.03.12-1.99.12-3.01.12-4.4,0-9.23-.66-14.29-1.93-1.57-.42-3.14-.9-4.76-1.45-6.87-2.29-12.84-5.85-17.79-10.79-.42-.42-.78-.78-1.15-1.21-1.45-1.63-2.65-3.38-3.56-5.25-1.81-3.56-2.71-7.54-2.71-11.94,0-9.83,4.64-17.73,13.93-23.82,1.93-1.27,3.92-2.41,6.03-3.38,2.35-1.21,4.76-2.17,7.3-2.89,5.61-1.81,11.58-2.71,18.03-2.83h.96c5.61,0,10.85.6,15.86,1.75,4.58,1.02,8.86,2.53,12.9,4.58,1.63.78,3.2,1.63,4.7,2.59,1.81,1.15,3.44,2.29,4.88,3.68,6.33,5.31,9.53,12.06,9.53,20.08,0,6.09-1.93,11.88-5.85,17.24-3.86,5.37-10.13,9.29-18.75,11.82Z"/>
      <g>
        <path class="cls-1" d="M332.11,298.46c-1.09-1.57-2.17-3.08-3.32-4.46-1.87-2.35-3.92-4.46-6.09-6.33h-.06c-.72-.72-1.45-1.33-2.23-1.87-2.59-2.05-5.37-3.86-8.38-5.37-1.21-.6-2.41-1.21-3.56-1.69-6.15-2.77-11.88-4.22-17.12-4.46-.6-.06-1.15-.06-1.69-.06-1.69,0-3.32.06-4.94.24-.48-.06-.96,0-1.45.06-.96.06-1.93.18-2.89.36-.6.06-1.21.12-1.81.24-1.15.24-2.29.42-3.44.72-8.86,1.99-16.4,6.03-22.61,12.12-1.93,1.87-3.62,3.8-5.06,5.79-2.53,3.32-4.52,6.87-5.97,10.67-2.11,5.37-3.14,11.28-3.14,17.61,0,.9,0,1.75.06,2.59v.06c.24,4.64,1.02,9.04,2.53,13.2.36,1.27.9,2.53,1.39,3.74,0,0,.06,0,.06.06,2.65,6.03,6.75,11.52,12.12,16.58,3.08,2.89,6.33,5.37,9.65,7.42.3.24.66.42.96.54,5,3.01,10.19,5,15.74,6.09,3.26.72,6.63,1.03,10.13,1.03,4.16,0,8.14-.48,11.94-1.51,5.91-1.39,11.52-3.98,16.7-7.78,1.87-1.27,3.68-2.71,5.43-4.34,7.05-6.39,11.58-14.05,13.63-22.91.54-2.17.9-4.4,1.09-6.75.18-1.57.24-3.2.24-4.82,0-9.95-2.65-18.87-7.9-26.77ZM331.56,338.92c-2.23,3.14-5.25,5.97-9.1,8.5-4.16,2.77-8.68,4.88-13.45,6.33-5.31,1.69-10.91,2.59-17,2.71-.6.06-1.21.06-1.87.06h-.42c-5.91-.06-11.52-.72-16.76-2.05-5.85-1.51-11.28-3.8-16.28-6.87-9.65-5.91-14.41-13.87-14.41-23.76,0-6.09,1.93-11.88,5.85-17.24,1.27-1.75,2.77-3.38,4.58-4.76,2.41-1.99,5.25-3.68,8.62-5.06,1.75-.78,3.56-1.39,5.55-1.99,2.05-.6,4.04-1.09,6.09-1.51,5.61-1.33,11.21-2.05,16.64-2.11.84-.12,1.69-.12,2.53-.12,4.46,0,9.35.66,14.47,2.05,1.51.36,3.01.84,4.58,1.33.72.24,1.45.48,2.11.72,5.97,2.35,11.28,5.67,15.68,10.07,4.94,4.88,7.42,11.03,7.42,18.39,0,3.62-.6,6.99-1.87,10.07-.78,1.87-1.75,3.56-2.95,5.25Z"/>
        <path class="cls-1" d="M292.01,356.47c-.6.06-1.21.06-1.87.06h-.42c.42-1.03.72-2.11,1.03-3.2.3,1.08.72,2.11,1.27,3.14Z"/>
      </g>
    </g>
    <g>
      <path class="cls-1" d="M149.29,320.17c0-.24-.06-.48-.24-.72-1.51-4.7-3.92-9.04-7.18-13.14-1.27-1.75-2.71-3.38-4.34-5-3.62-3.62-7.54-6.57-11.82-8.8-3.86-2.05-7.96-3.5-12.3-4.34-1.51-.36-3.08-.6-4.64-.72-2.65-.3-5.43-.42-8.32-.3-6.75.24-12.96,1.39-18.63,3.62-1.15.36-2.35.84-3.44,1.45-5.31,2.41-10.13,5.79-14.41,10.07-.3.3-.66.66-.9,1.02-8.44,8.86-12.9,19.72-13.51,32.68-.66,13.45,3.98,25.08,13.81,34.97,6.99,6.99,15.19,11.46,24.54,13.33,9.35,1.87,18.33,1.39,26.95-1.45,8.68-2.83,15.38-6.63,20.2-11.46.24-.24.42-.42.66-.66,4.4-4.46,7.84-9.17,10.43-14.05.3-.54.54-1.15.84-1.69,2.95-6.21,4.46-12.72,4.58-19.6.06-5.37-.66-10.43-2.29-15.19ZM105.52,372.32c-6.45,3.32-13.2,4.94-20.14,4.94-6.99.06-13.08-2.53-18.33-7.78-6.93-6.93-9.22-15.8-6.93-26.65,1.69-8.26,5.31-15.92,10.79-22.97,1.69-2.17,3.56-4.28,5.61-6.33,1.51-1.51,3.08-2.95,4.64-4.28,6.03-5.12,12.48-8.92,19.41-11.28v-.06c1.93-.72,3.92-1.27,5.91-1.75,4.28-1.03,8.26-1.27,11.94-.78,5.79.66,10.79,3.14,15.07,7.42,2.83,2.83,4.94,6.15,6.33,10.01.78,1.93,1.33,4.04,1.69,6.27.48,3.01.42,6.09-.24,9.41-.78,3.92-2.29,7.96-4.64,12.24-2.47,4.52-5.19,8.68-8.2,12.48-2.17,2.89-4.52,5.55-6.99,8.02-.78.78-1.63,1.57-2.53,2.29-3.68,3.2-8.14,6.15-13.39,8.8Z"/>
      <path class="cls-1" d="M135.54,217.18c-.42-.78-.84-1.57-1.33-2.29-.24-.54-.6-1.09-.96-1.63-.24-.48-.54-.96-.9-1.39-.66-1.03-1.39-1.99-2.17-2.89-1.15-1.45-2.41-2.89-3.74-4.22-.54-.54-1.09-1.03-1.63-1.51-2.89-2.71-6.09-5-9.47-6.87h-.06c-6.69-3.68-14.23-5.73-22.61-6.09-.36,0-.78-.06-1.15,0-1.57-.06-3.07-.06-4.58.12-2.95.12-5.79.6-8.5,1.39-7.6,1.99-14.47,6.09-20.68,12.3-2.65,2.65-4.88,5.43-6.75,8.38-1.39,2.05-2.59,4.22-3.56,6.45-1.33,3.08-2.35,6.33-3.01,9.71-1.51,7.6-1.51,15.01.12,22.19.3,1.63.72,3.26,1.27,4.82,1.51,4.58,3.26,8.56,5.31,12.06h.06c1.75,3.13,3.8,5.85,6.09,8.08,1.75,1.75,3.5,3.38,5.31,4.82,5,4.04,10.25,7.05,15.74,9.04,1.15.42,2.35.78,3.5,1.09,3.74,1.03,7.54,1.57,11.46,1.63,4.28.06,8.32-.42,12.18-1.45,2.77-.6,5.43-1.51,7.96-2.77,5-2.29,9.65-5.55,13.93-9.83,1.21-1.21,2.35-2.47,3.44-3.74,3.2-3.92,5.73-8.2,7.48-12.78,1.75-4.34,2.83-9.04,3.14-14.05.18-2.11.24-4.28.18-6.51-.3-8.98-2.29-17-6.03-24.06ZM132.47,247.21c.48,2.05.84,4.04.96,5.97.66,8.32-1.87,15.38-7.54,21.04-4.34,4.34-9.77,6.99-16.34,8.08-6.51,1.02-13.75-.6-21.65-4.94-2.59-1.45-5.06-2.95-7.48-4.58-3.74-2.47-7.18-5.12-10.37-8.14-.24-.12-.48-.36-.72-.66-.66-.54-1.33-1.15-1.93-1.81-3.26-3.26-6.21-7.24-8.92-11.94h-.06c-.72-1.27-1.39-2.53-2.11-3.92-3.26-6.45-4.88-13.2-4.94-20.2,0-.54,0-1.02.06-1.57.12-2.23.54-4.34,1.21-6.39,1.21-3.8,3.38-7.18,6.51-10.31,6.93-6.93,15.86-9.29,26.71-6.99,2.29.48,4.58,1.15,6.81,1.93,2.35.78,4.7,1.81,6.93,3.01,5.25,2.65,10.19,6.27,14.83,10.79.24.18.48.42.72.66,2.95,2.95,5.55,6.09,7.84,9.29.78,1.02,1.45,2.11,2.11,3.2,2.41,3.8,4.34,7.78,5.73,11.94.66,1.81,1.21,3.68,1.63,5.55Z"/>
      <g>
        <path class="cls-1" d="M228.52,308.83c-3.68-3.68-7.42-6.69-11.34-9.1-7.66-4.82-15.92-7.3-24.66-7.42-2.59-.06-5.06.12-7.48.48-4.04.54-7.9,1.57-11.58,3.2,1.63.78,3.2,1.63,4.7,2.59,1.81,1.15,3.44,2.29,4.88,3.68,3.08.3,6.21,1.15,9.53,2.53,1.75.66,3.5,1.51,5.31,2.47,1.87,1.03,3.68,2.11,5.43,3.2,4.88,3.14,9.29,6.51,13.27,10.31.24-.24.42-.42.66-.66,3.98-3.98,8.14-7.3,12.48-10.01-.42-.42-.78-.84-1.21-1.27ZM242.39,341.69c0-.06-.06-.06-.06-.06,0-1.09-.12-2.17-.24-3.2-.42-3.2-1.09-6.33-2.11-9.41-.48-1.51-1.02-2.95-1.57-4.34v-.06c-2.35-5.91-5.25-10.73-8.68-14.53-.42-.42-.78-.84-1.21-1.27-3.68-3.68-7.42-6.69-11.34-9.1-7.66-4.82-15.92-7.3-24.66-7.42-2.59-.06-5.06.12-7.48.48-4.04.54-7.9,1.57-11.58,3.2-5.43,2.29-10.43,5.79-15.01,10.37-.96.96-1.87,1.93-2.65,2.89-2.77,3.2-5.06,6.57-6.75,10.19-.48.84-.84,1.69-1.21,2.53-2.65,6.51-3.86,13.63-3.62,21.46.12,4.04.66,7.9,1.51,11.58.12.54.24,1.08.42,1.63,1.33,5.43,3.5,10.37,6.51,14.89,1.87,3.01,4.16,5.79,6.75,8.38,2.89,2.83,5.97,5.31,9.29,7.3,5.19,3.2,10.91,5.31,17.24,6.33,2.29.48,4.7.72,7.18.84,9.53.42,18.09-1.75,25.81-6.63,1.93-1.15,3.74-2.47,5.55-3.98,1.21-1.03,2.41-2.11,3.56-3.26,7.05-6.99,11.52-15.19,13.39-24.54.36-1.81.6-3.68.84-5.49v-.06c.3-2.95.36-5.85.12-8.74ZM226.65,376.85c-2.53,2.53-5.31,4.46-8.38,5.79-1.81.78-3.74,1.33-5.79,1.63-3.8.66-7.96.48-12.48-.42-4.94-1.03-9.71-2.77-14.23-5.19-4.94-2.59-9.59-6.03-13.99-10.25-.36-.3-.72-.66-1.09-1.03l-.6-.6c-4.16-4.22-7.6-8.68-10.37-13.39-2.95-5.07-5.06-10.37-6.39-15.98-2.59-10.97-.42-20.02,6.57-27.01,4.34-4.28,9.77-6.99,16.34-8.02,2.23-.36,4.46-.36,6.81-.12,3.08.3,6.21,1.15,9.53,2.53,1.75.66,3.5,1.51,5.31,2.47,1.87,1.03,3.68,2.11,5.43,3.2,4.88,3.14,9.29,6.51,13.27,10.31.6.48,1.21,1.09,1.81,1.69,3.08,3.13,5.97,6.93,8.56,11.34.9,1.45,1.75,3.01,2.53,4.58.24.54.54,1.02.72,1.57,2.77,5.97,4.22,12.18,4.22,18.57.06,6.99-2.53,13.08-7.78,18.33Z"/>
        <path class="cls-1" d="M173.11,365.15c-.54,1.08-.96,2.17-1.33,3.26-.36-.3-.72-.66-1.09-1.03l-.6-.6c1.02-.48,2.05-1.02,3.01-1.63Z"/>
      </g>
    </g>
    <g>
      <path class="cls-1" d="M99.61,205.79c-1.21-4.22-3.08-8.26-5.61-12.06v-.06c-.78-1.15-1.57-2.29-2.47-3.38-1.75-2.29-3.74-4.46-6.03-6.57-4.94-4.58-10.19-8.14-15.74-10.55-1.02-.54-2.05-.96-3.08-1.27-4.7-1.87-9.59-2.89-14.71-3.14-.96-.12-1.99-.12-3.01-.12-.3,0-.54,0-.84.06-.84-.06-1.69,0-2.53.12-4.94.24-9.71,1.33-14.23,3.08h-.06c-5.43,2.05-10.43,5.19-15.19,9.35-.42.3-.78.66-1.21,1.03-9.95,9.04-14.89,20.56-14.89,34.49,0,9.95,2.59,18.87,7.9,26.77,5.25,7.96,12,13.93,20.08,18.09,8.14,4.1,15.56,6.15,22.37,6.15.3,0,.54,0,.78-.06h.06c6.33,0,12.18-.91,17.49-2.59.48-.12.9-.24,1.39-.48,6.63-2.23,12.42-5.79,17.43-10.61,3.74-3.62,6.75-7.6,8.98-11.94.24-.36.42-.72.54-1.15,2.17-4.22,3.5-8.86,4.1-13.75.36-2.29.54-4.7.54-7.18,0-5-.66-9.71-2.05-14.23ZM58.43,250.23c-3.56.48-7.05.72-10.55.72-1.09,0-2.17-.06-3.32-.12-4.88-.3-10.13-1.39-15.74-3.26-6.93-2.23-12.84-5.85-17.79-10.73-4.94-4.94-7.42-11.09-7.42-18.45,0-9.83,4.64-17.73,13.93-23.82,7.11-4.64,15.19-7.54,24.18-8.56,2.59-.36,5.37-.54,8.14-.54,2.29,0,4.52.12,6.69.3,7.96.72,15.25,2.71,21.89,6.03,1.69.72,3.26,1.63,4.82,2.59,3.98,2.47,7.11,5.25,9.41,8.38,3.38,4.4,5.06,9.53,5.06,15.37,0,4.28-.96,8.38-2.83,12.24-.84,1.69-1.81,3.38-3.01,5-1.93,2.59-4.34,4.88-7.36,6.81-3.2,2.05-6.99,3.68-11.4,5-4.94,1.45-9.83,2.47-14.65,3.01h-.06Z"/>
      <path class="cls-1" d="M161.89,141.63c-.12-3.92-.66-7.66-1.75-11.27-2.05-7.42-5.97-14.29-11.7-20.56-.24-.24-.42-.48-.66-.66-1.09-1.21-2.23-2.29-3.38-3.26-2.23-1.99-4.58-3.68-7.05-5.12-6.87-3.92-14.65-5.91-23.39-5.91-3.68,0-7.24.36-10.67,1.15-2.41.48-4.82,1.21-7.11,2.11-3.14,1.21-6.15,2.77-9.04,4.7-6.51,4.28-11.7,9.59-15.62,15.86-.9,1.39-1.69,2.77-2.41,4.22-.9,1.81-1.75,3.56-2.41,5.31-1.02,2.47-1.87,4.88-2.47,7.24-.9,3.44-1.33,6.69-1.33,9.77,0,2.47.12,4.88.42,7.24-.06.12,0,.3.06.42.66,6.45,2.29,12.24,4.88,17.49.42.97.9,1.93,1.51,2.83,1.87,3.32,4.22,6.39,6.93,9.22,3.14,3.26,6.57,5.91,10.25,8.02,2.23,1.33,4.58,2.47,7.05,3.26v.06c5.12,1.87,10.67,2.83,16.7,2.83,1.57,0,3.08-.06,4.58-.18h.06c5.37-.48,10.43-1.81,15.19-3.98,4.16-1.87,8.14-4.4,11.82-7.6,1.57-1.33,3.08-2.83,4.58-4.4,6.15-6.57,10.43-13.69,12.78-21.34,1.51-4.88,2.29-9.95,2.29-15.19,0-.78,0-1.51-.12-2.23ZM139.04,173.05c-.78,1.75-1.69,3.5-2.71,5.12-1.02,1.63-2.05,3.14-3.26,4.46-5.43,6.69-12.3,10.01-20.5,10.01-6.15,0-11.88-1.99-17.24-5.85-5.37-3.92-9.35-10.19-11.82-18.81-.78-2.71-1.45-5.37-1.99-8.02-.9-4.46-1.51-8.8-1.63-13.14-.12-.36-.12-.66-.06-.96-.12-1.03-.12-2.05-.12-3.08,0-4.52.66-9.35,2.05-14.53.36-1.51.84-3.01,1.33-4.58,2.29-6.87,5.85-12.78,10.79-17.73.36-.36.78-.78,1.21-1.08,1.63-1.51,3.38-2.65,5.25-3.62,3.56-1.87,7.54-2.77,12-2.77,9.77,0,17.73,4.64,23.76,13.93,1.39,2.17,2.65,4.4,3.74,6.69v.06c1.09,2.23,1.99,4.58,2.71,6.99,1.75,5.49,2.59,11.34,2.71,17.61v.96c0,5.61-.6,10.91-1.81,15.92-.96,4.4-2.41,8.5-4.4,12.42Z"/>
      <g>
        <path class="cls-1" d="M159,275.13c-1.99-8.8-6.03-16.34-12.12-22.61-1.75-1.81-3.56-3.44-5.49-4.76-3.26-2.65-6.81-4.64-10.55-6.09.66,1.81,1.21,3.68,1.63,5.55.48,2.05.84,4.04.96,5.97,1.87,2.41,3.5,5.31,4.82,8.62.72,1.57,1.27,3.26,1.81,5.06.6,2.05,1.15,4.1,1.57,6.09,1.27,5.67,1.99,11.22,2.11,16.7h.96c5.61,0,10.85.6,15.86,1.75.06-.6.06-1.15.06-1.75,0-5.19-.54-10.01-1.63-14.53ZM159,275.13c-1.99-8.8-6.03-16.34-12.12-22.61-1.75-1.81-3.56-3.44-5.49-4.76-3.26-2.65-6.81-4.64-10.55-6.09-5.49-2.23-11.46-3.32-17.97-3.32-.78,0-1.57,0-2.35.06-4.76.18-9.29,1.03-13.51,2.53-1.27.36-2.53.9-3.74,1.45h-.06c-6.03,2.65-11.58,6.75-16.64,12.12-2.83,3.08-5.25,6.21-7.24,9.47-.3.36-.48.72-.66,1.15-2.95,4.88-5,10.07-6.09,15.5-.72,3.38-1.09,6.87-1.09,10.43,0,4.22.48,8.32,1.57,12.24,1.45,5.91,4.1,11.4,7.84,16.58,1.27,1.81,2.65,3.56,4.22,5.25,6.45,7.05,14.05,11.58,22.91,13.57,2.17.54,4.4.9,6.69,1.09,1.63.18,3.2.24,4.88.24,9.95,0,18.87-2.59,26.77-7.9,1.75-1.15,3.38-2.35,4.88-3.62,2.41-1.99,4.58-4.16,6.57-6.51.48-.54.96-1.15,1.45-1.81,1.99-2.53,3.68-5.25,5.19-8.14.48-.96.9-1.87,1.33-2.77,2.89-6.39,4.52-12.3,4.76-17.85.06-.6.06-1.15.06-1.75,0-5.19-.54-10.01-1.63-14.53ZM140.43,311.18c-.18.54-.36,1.08-.6,1.63-2.23,6.27-5.67,11.64-10.13,16.16-4.94,4.94-11.09,7.42-18.45,7.42-3.62,0-6.93-.6-10.07-1.87-1.81-.78-3.56-1.69-5.19-2.96-3.2-2.17-6.03-5.24-8.56-9.1-2.65-4.1-4.76-8.5-6.27-13.21-1.69-5.31-2.65-10.97-2.77-17.06-.06-.66-.06-1.33-.06-2.05v-.48c.06-5.97.72-11.58,2.11-16.88,1.51-5.79,3.8-11.09,6.81-16.04,5.97-9.65,13.87-14.47,23.76-14.47,6.15,0,11.88,1.93,17.24,5.85,1.93,1.39,3.62,3.08,5.19,5.06,1.87,2.41,3.5,5.31,4.82,8.62.72,1.57,1.27,3.26,1.81,5.06.6,2.05,1.15,4.1,1.57,6.09,1.27,5.67,1.99,11.22,2.11,16.7.06.84.06,1.63.06,2.47,0,4.46-.6,9.17-1.93,14.17-.42,1.63-.9,3.26-1.45,4.88Z"/>
        <path class="cls-1" d="M81.82,290.74c-1.15.36-2.35.84-3.44,1.45-.06-.66-.06-1.33-.06-2.05v-.48c1.15.42,2.35.78,3.5,1.09Z"/>
      </g>
    </g>
    <g>
      <path class="cls-1" d="M112.69,147.72q-.06-.06-.12-.12l-.18-.18c-.6-.54-1.21-1.09-1.81-1.69-.84-.72-1.63-1.51-2.29-2.35-.72-.72-1.39-1.45-1.93-2.17h-.06c-3.8-.78-7.66-2.29-11.82-4.58-4.58-2.53-8.86-5.31-12.72-8.38-2.77-2.11-5.37-4.4-7.78-6.81-.84-.84-1.75-1.81-2.47-2.77-3.2-3.62-6.03-8.02-8.62-13.08-3.26-6.51-4.88-13.2-4.94-20.2,0-3.44.6-6.57,1.87-9.59,1.27-3.14,3.26-6.03,5.91-8.68.96-.96,1.93-1.81,2.95-2.59-.48.06-.9.06-1.39.06-1.33,0-2.65-.06-3.92-.18-4.52,4.76-7.9,10.01-10.13,15.74-.12.3-.24.6-.36.9-.78,2.23-1.45,4.52-1.93,6.87-.42,2.35-.78,4.64-.9,6.93-.24,3.01-.24,6.03.12,8.98.3,3.74,1.02,7.42,2.23,11.03,2.83,8.68,6.63,15.44,11.46,20.2l.36.36c.84.84,1.69,1.63,2.53,2.41,3.8,3.38,7.78,6.15,11.82,8.32h.06c.42.24.84.48,1.27.66,6.33,3.08,12.96,4.7,19.96,4.82,5.31.06,10.31-.66,15.01-2.17-.72-.54-1.45-1.15-2.17-1.75ZM112.69,147.72q-.06-.06-.12-.12l-.18-.18c-.6-.48-1.21-1.09-1.81-1.69-.84-.72-1.63-1.51-2.29-2.35-.72-.72-1.39-1.45-1.93-2.17h-.06c-3.8-.78-7.66-2.29-11.82-4.58-4.58-2.53-8.86-5.31-12.72-8.38-2.77-2.11-5.37-4.4-7.78-6.81-.84-.84-1.75-1.81-2.47-2.77-3.2-3.62-6.03-8.02-8.62-13.08-3.26-6.51-4.88-13.2-4.94-20.2,0-3.44.6-6.57,1.87-9.59,1.27-3.14,3.26-6.03,5.91-8.68.96-.96,1.93-1.81,2.95-2.59-.48.06-.9.06-1.39.06-1.33,0-2.65-.06-3.92-.18-4.52,4.76-7.9,10.01-10.13,15.74-.12.3-.24.6-.36.9-.78,2.23-1.45,4.52-1.93,6.87-.42,2.35-.78,4.64-.9,6.93-.24,3.01-.24,6.03.12,8.98.3,3.74,1.02,7.42,2.23,11.03,2.83,8.68,6.63,15.44,11.46,20.2l.36.36c.84.84,1.69,1.63,2.53,2.41,3.8,3.38,7.78,6.15,11.82,8.32h.06c.42.24.84.48,1.27.66,6.33,3.08,12.96,4.7,19.96,4.82,5.31.06,10.31-.66,15.01-2.17-.72-.54-1.45-1.15-2.17-1.75ZM144.47,81.94c-.36-1.21-.84-2.35-1.45-3.5-2.41-5.31-5.79-10.13-10.07-14.41-.36-.36-.72-.72-1.09-.96-8.14-7.84-18.09-12.24-29.85-13.27-.9-.12-1.81-.18-2.77-.24-9.77-.42-18.63,1.87-26.47,6.99-2.95,1.81-5.73,4.1-8.44,6.81-.36.36-.66.66-.96,1.03-4.52,4.76-7.9,10.01-10.13,15.74-.12.3-.24.6-.36.9-.78,2.23-1.45,4.52-1.93,6.87-.42,2.35-.78,4.64-.9,6.93-.24,3.01-.24,6.03.12,8.98.3,3.74,1.02,7.42,2.23,11.03,2.83,8.68,6.63,15.44,11.46,20.2l.36.36c.84.84,1.69,1.63,2.53,2.41,3.8,3.38,7.78,6.15,11.82,8.32h.06c.42.24.84.48,1.27.66,6.33,3.08,12.96,4.7,19.96,4.82,5.31.06,10.31-.66,15.01-2.17.36-.12.66-.18,1.03-.36,4.64-1.57,8.98-3.92,13.02-7.12,1.75-1.33,3.38-2.77,5-4.4,3.5-3.5,6.39-7.36,8.62-11.46,2.11-3.92,3.68-8.14,4.52-12.66.36-1.39.6-2.83.72-4.34.36-2.77.48-5.67.36-8.62-.24-6.69-1.45-12.9-3.68-18.57ZM132.47,133.49c-2.89,2.89-6.27,5.06-10.19,6.51-1.93.66-3.98,1.21-6.15,1.57-3.08.48-6.33.36-9.77-.36h-.06c-3.8-.78-7.66-2.29-11.82-4.58-4.58-2.53-8.86-5.31-12.72-8.38-2.77-2.11-5.37-4.4-7.78-6.81-.84-.84-1.75-1.81-2.47-2.77-3.2-3.62-6.03-8.02-8.62-13.08-3.26-6.51-4.88-13.2-4.94-20.2,0-3.44.6-6.57,1.87-9.59,1.27-3.14,3.26-6.03,5.91-8.68.96-.96,1.93-1.81,2.95-2.59.24-.18.48-.36.72-.54,5.43-3.86,11.82-5.31,19.29-4.4,1.21.06,2.47.3,3.74.54,8.26,1.69,15.8,5.25,22.79,10.67,2.23,1.75,4.34,3.62,6.45,5.73,1.51,1.51,2.95,3.08,4.22,4.64,5.25,6.09,9.04,12.6,11.46,19.6.66,1.87,1.21,3.8,1.69,5.73,1.09,4.52,1.33,8.74.78,12.6v.06c-.78,5.49-3.26,10.25-7.36,14.35ZM112.69,147.72q-.06-.06-.12-.12l-.18-.18c-.6-.54-1.21-1.09-1.81-1.69-.84-.72-1.63-1.51-2.29-2.35-.72-.72-1.39-1.45-1.93-2.17h-.06c-3.8-.78-7.66-2.29-11.82-4.58-4.58-2.53-8.86-5.31-12.72-8.38-2.77-2.11-5.37-4.4-7.78-6.81-.84-.84-1.75-1.81-2.47-2.77-3.2-3.62-6.03-8.02-8.62-13.08-3.26-6.51-4.88-13.2-4.94-20.2,0-3.44.6-6.57,1.87-9.59,1.27-3.14,3.26-6.03,5.91-8.68.96-.96,1.93-1.81,2.95-2.59-.48.06-.9.06-1.39.06-1.33,0-2.65-.06-3.92-.18-4.52,4.76-7.9,10.01-10.13,15.74-.12.3-.24.6-.36.9-.78,2.23-1.45,4.52-1.93,6.87-.42,2.35-.78,4.64-.9,6.93-.24,3.01-.24,6.03.12,8.98.3,3.74,1.02,7.42,2.23,11.03,2.83,8.68,6.63,15.44,11.46,20.2l.36.36c.84.84,1.69,1.63,2.53,2.41,3.8,3.38,7.78,6.15,11.82,8.32h.06c.42.24.84.48,1.27.66,6.33,3.08,12.96,4.7,19.96,4.82,5.31.06,10.31-.66,15.01-2.17-.72-.54-1.45-1.15-2.17-1.75Z"/>
      <path class="cls-1" d="M206.69,126.38c-.42-.42-.78-.84-1.21-1.27-3.98,2.47-8.08,4.46-12.36,5.85-1.69.6-3.38,1.09-5.13,1.51-2.17.54-4.28.84-6.33,1.03-2.35,1.87-5.19,3.44-8.44,4.76,4.34,1.75,8.98,2.77,13.93,3.14,2.23.24,4.46.24,6.81.18,8.98-.3,17.06-2.29,24.12-6.03-3.92-2.41-7.72-5.49-11.4-9.17ZM244.8,86.46c-.18-2.89-.72-5.73-1.51-8.44-2.05-7.42-6.15-14.17-12.18-20.26-2.65-2.59-5.43-4.88-8.32-6.75-2.11-1.33-4.28-2.53-6.51-3.5-3.08-1.39-6.33-2.41-9.71-3.08-7.78-1.57-15.25-1.51-22.55.24-1.51.3-2.95.72-4.4,1.21-4.76,1.57-8.92,3.38-12.48,5.55-3.01,1.75-5.55,3.68-7.72,5.85-1.81,1.81-3.44,3.62-4.88,5.43-4.1,5-7.05,10.19-8.92,15.68-.48,1.15-.84,2.35-1.15,3.56-.96,3.68-1.51,7.48-1.57,11.34-.06,4.4.36,8.62,1.51,12.6.6,2.65,1.51,5.19,2.65,7.6,2.29,5,5.61,9.65,9.83,13.93,1.02,1.02,2.11,2.05,3.26,2.95,3.98,3.44,8.38,6.03,13.08,7.9,4.34,1.75,8.98,2.77,13.93,3.14,2.23.24,4.46.24,6.81.18,8.98-.3,17.06-2.29,24.12-6.03,4.52-2.35,8.62-5.37,12.36-9.1.54-.54,1.09-1.09,1.51-1.69,2.65-2.77,4.82-5.79,6.63-8.98,3.86-6.75,5.97-14.47,6.33-23.03.06-.54.06-1.03.06-1.51,0-1.63,0-3.26-.18-4.76ZM217.97,115.16c-3.98,3.92-8.14,7.3-12.48,9.95-3.98,2.47-8.08,4.46-12.36,5.85-1.69.6-3.38,1.09-5.13,1.51-2.17.54-4.28.84-6.33,1.03-8.2.54-15.07-1.99-20.68-7.6-4.34-4.34-6.99-9.77-8.08-16.34-1.02-6.51.6-13.75,4.94-21.59,1.45-2.59,2.89-5.07,4.52-7.42,2.41-3.68,5.06-6.99,7.9-10.13.24-.3.54-.6.84-.9.6-.72,1.27-1.39,1.93-2.05,3.2-3.2,7.05-6.15,11.64-8.8,1.33-.78,2.77-1.57,4.22-2.29,6.51-3.32,13.2-4.94,20.2-5,.54,0,1.15,0,1.69.06,2.17.12,4.28.54,6.27,1.21,3.8,1.27,7.24,3.44,10.37,6.57,6.87,6.87,9.22,15.8,6.93,26.65-.42,2.17-1.02,4.34-1.81,6.45-.78,2.47-1.81,4.88-3.01,7.17-2.71,5.31-6.33,10.31-10.91,14.95-.18.24-.42.48-.66.72Z"/>
      <g>
        <path class="cls-1" d="M139.04,173.05c-.78,1.75-1.69,3.5-2.71,5.12-1.02,1.63-2.05,3.14-3.26,4.46-.3,3.14-1.09,6.39-2.53,9.77,4.16-1.87,8.14-4.4,11.82-7.6-.48-4.1-1.63-8.02-3.32-11.76ZM130.18,208.98c-1.15-1.45-2.41-2.89-3.74-4.22-.54-.54-1.09-1.03-1.63-1.51-3.14,4.88-6.57,9.35-10.37,13.33.24.18.48.42.72.66.96.96,1.93,1.99,2.83,3.01.9,1.03,1.81,2.05,2.59,3.08.84,1.09,1.63,2.11,2.41,3.2.78,1.02,1.45,2.11,2.11,3.2.42-.36.84-.72,1.27-1.15,3.68-3.68,6.75-7.48,9.17-11.4-.9-1.81-1.99-3.62-3.2-5.31-.66-1.03-1.39-1.99-2.17-2.89ZM142.36,184.81c-.48-4.1-1.63-8.02-3.32-11.76-2.29-5.25-5.67-10.13-10.13-14.59-.84-.84-1.69-1.63-2.59-2.29,0-.06-.06-.06-.06-.06-3.26-2.89-6.63-5.25-10.37-6.99-1.03-.54-2.05-1.03-3.2-1.39q-.06-.06-.12-.12c-6.27-2.47-13.2-3.62-20.74-3.32-4.22.12-8.2.66-12,1.57-.42.06-.84.18-1.21.3h-.06c-5.55,1.39-10.61,3.68-15.19,6.69-.12.06-.18.12-.3.24h-.06c-2.65,1.81-5.12,3.8-7.48,6.15l-.06.06-.12.12c-1.93,1.93-3.62,3.92-5.12,6.09-.06,0-.06.06-.06.06-.78,1.03-1.51,2.05-2.05,3.14-1.21,1.75-2.17,3.62-2.95,5.55-1.69,3.68-2.83,7.6-3.44,11.76-.48,2.29-.72,4.64-.84,7.11-.48,9.53,1.69,18.09,6.57,25.81,1.15,1.93,2.47,3.8,3.98,5.61,1.02,1.21,2.11,2.41,3.26,3.56,7.05,6.99,15.25,11.46,24.54,13.33,1.81.36,3.56.6,5.31.78,2.95.36,5.85.42,8.68.18h.06c1.09-.06,2.17-.12,3.2-.3,3.32-.36,6.51-1.09,9.71-2.11,1.51-.48,2.95-1.02,4.34-1.57,5.91-2.35,10.79-5.25,14.59-8.68.42-.36.84-.72,1.27-1.15,3.68-3.68,6.75-7.48,9.17-11.4,4.76-7.72,7.24-15.92,7.36-24.66.06-2.65-.12-5.25-.54-7.72ZM112.75,218.39c-3.2,3.2-7.05,6.15-11.64,8.8-1.33.78-2.77,1.57-4.22,2.29-.66.36-1.33.66-1.99.9-5.85,2.71-11.94,4.04-18.21,4.04-6.99.06-13.08-2.53-18.27-7.78-2.59-2.59-4.52-5.37-5.79-8.5-.78-1.75-1.33-3.68-1.63-5.67-.66-3.8-.54-7.96.42-12.48,1.02-4.94,2.71-9.71,5.12-14.23,2.53-4.88,5.97-9.53,10.13-13.87.36-.42.72-.78,1.15-1.21.12-.12.3-.3.42-.36,4.22-4.22,8.62-7.66,13.27-10.37,5.12-3.08,10.55-5.24,16.28-6.63,11.03-2.59,20.02-.36,27.01,6.63,4.34,4.28,6.99,9.71,8.08,16.28.3,2.05.36,4.22.18,6.39-.3,3.14-1.09,6.39-2.53,9.77-.66,1.75-1.57,3.62-2.59,5.49-1.03,1.87-2.05,3.62-3.14,5.37-3.14,4.88-6.57,9.35-10.37,13.33-.48.6-1.09,1.21-1.69,1.81ZM132.35,211.88c-.66-1.03-1.39-1.99-2.17-2.89-1.15-1.45-2.41-2.89-3.74-4.22-.54-.54-1.09-1.03-1.63-1.51-3.14,4.88-6.57,9.35-10.37,13.33.24.18.48.42.72.66.96,1.03,1.93,1.99,2.83,3.01.9,1.03,1.81,2.05,2.59,3.08.84,1.09,1.63,2.11,2.41,3.2.72,1.02,1.45,2.11,2.11,3.2.42-.36.84-.72,1.27-1.15,3.68-3.68,6.75-7.48,9.17-11.4-.9-1.81-1.99-3.62-3.2-5.31ZM139.04,173.05c-.78,1.75-1.69,3.5-2.71,5.12-1.02,1.63-2.05,3.14-3.26,4.46-.3,3.14-1.09,6.39-2.53,9.77,4.16-1.87,8.14-4.4,11.82-7.6-.48-4.1-1.63-8.02-3.32-11.76Z"/>
        <path class="cls-1" d="M69.76,173.17c-1.02-.54-2.05-.96-3.08-1.27.36-.42.72-.78,1.15-1.21.12-.12.3-.3.42-.36.42.97.9,1.93,1.51,2.83Z"/>
      </g>
    </g>
    <g>
      <path class="cls-1" d="M266.14,47.87c-.18-12.3-4.7-23.33-13.57-32.98-9.04-9.95-20.56-14.89-34.49-14.89-9.95,0-18.87,2.65-26.77,7.9-7.9,5.31-13.93,12-18.09,20.08-4.1,8.14-6.15,15.56-6.15,22.37,0,.36,0,.72.06,1.08.06,6.27.9,12.06,2.65,17.31.12.54.3,1.15.48,1.69,2.29,6.45,5.79,12.18,10.55,17.06,3.74,3.86,7.84,6.93,12.3,9.17.24.18.48.3.78.36,4.34,2.17,9.1,3.56,14.17,4.16,2.17.36,4.46.48,6.81.48,5.19,0,10.07-.72,14.65-2.17,4.1-1.27,8.02-3.13,11.7-5.55,1.27-.84,2.53-1.75,3.74-2.71,2.11-1.69,4.16-3.62,6.15-5.73,4.58-4.94,8.14-10.19,10.55-15.74.6-1.08,1.02-2.17,1.39-3.32,2.11-5.55,3.14-11.4,3.14-17.49,0-.36,0-.72-.06-1.09ZM243.29,78.02c.06.06,0,.06,0,.06-.84,1.81-1.81,3.56-2.83,5.25-2.35,3.74-4.94,6.75-7.9,8.98-4.52,3.62-9.83,5.43-15.86,5.43-4.1,0-8.02-.84-11.82-2.65-1.87-.84-3.68-1.93-5.43-3.2-2.47-1.81-4.64-4.1-6.51-6.93-2.17-3.26-3.92-7.17-5.31-11.82-1.39-4.88-2.41-9.71-2.95-14.47-.54-3.68-.78-7.24-.78-10.79,0-1.03.06-2.11.12-3.2.3-4.94,1.39-10.19,3.26-15.86,2.23-6.93,5.85-12.84,10.73-17.79,4.94-4.94,11.09-7.42,18.45-7.42,9.83,0,17.73,4.64,23.82,13.93,4.7,7.11,7.54,15.13,8.62,24.12.3,2.65.48,5.37.48,8.2,0,2.23-.12,4.4-.3,6.57-.66,7.84-2.53,15.01-5.79,21.59Z"/>
      <path class="cls-1" d="M274.22,145.19c0-.54,0-1.08.06-1.69-4.34-.96-8.5-2.41-12.36-4.34-1.81-.84-3.56-1.81-5.25-2.83-1.63-1.03-3.14-2.11-4.52-3.32-3.14-.3-6.39-1.21-9.77-2.59,1.87,4.28,4.46,8.26,7.72,12,1.33,1.57,2.83,3.08,4.4,4.58,6.63,6.15,13.69,10.37,21.34,12.78-1.09-4.52-1.63-9.35-1.63-14.59ZM338.86,103.29c-.48-2.47-1.21-4.82-2.05-7.12-1.27-3.14-2.83-6.15-4.7-8.98-4.34-6.45-9.53-11.64-15.74-15.56-1.39-.9-2.83-1.75-4.34-2.53-4.34-2.17-8.44-3.8-12.36-4.76-3.5-.9-6.81-1.39-10.01-1.39-2.53,0-4.94.12-7.3.42-6.45.6-12.3,2.23-17.61,4.76-1.03.48-2.05,1.03-3.08,1.63-3.32,1.93-6.39,4.22-9.17,6.93-3.14,3.01-5.73,6.27-7.72,9.77-1.51,2.35-2.71,4.88-3.56,7.48-1.93,5.19-2.89,10.79-2.89,16.82,0,1.69.06,3.38.24,5,.48,5.12,1.75,10.01,3.8,14.59v.06c1.87,4.28,4.46,8.26,7.72,12,1.33,1.57,2.83,3.08,4.4,4.58,6.63,6.15,13.69,10.37,21.34,12.78,4.82,1.51,9.89,2.29,15.13,2.29.78,0,1.51,0,2.23-.12,4.1-.12,8.08-.72,11.82-1.93,7.24-2.11,13.87-5.97,20.02-11.58.24-.24.48-.42.72-.72,1.09-1.02,2.17-2.05,3.14-3.2,1.99-2.23,3.68-4.58,5.06-7.05,4.04-6.87,6.03-14.71,6.03-23.51,0-3.74-.36-7.3-1.15-10.67ZM322.46,136.15c-2.11,1.39-4.28,2.59-6.57,3.62-2.23,1.15-4.58,2.05-6.99,2.71-5.49,1.81-11.46,2.71-17.79,2.77h-.96c-5.61,0-10.85-.6-15.86-1.75-4.34-.96-8.5-2.41-12.36-4.34-1.81-.84-3.56-1.81-5.25-2.83-1.63-1.03-3.14-2.11-4.52-3.32-6.63-5.43-9.89-12.24-9.89-20.44,0-6.09,1.93-11.88,5.85-17.24,3.86-5.37,10.13-9.29,18.75-11.82,2.83-.78,5.61-1.51,8.38-1.99,4.46-.9,8.86-1.45,13.2-1.63.3-.06.6-.06.9,0,.96-.12,1.87-.12,2.77-.12,4.58,0,9.53.66,14.77,2.11,1.39.36,2.83.78,4.28,1.27,6.87,2.23,12.84,5.85,17.79,10.73.36.36.78.78,1.09,1.21,1.45,1.63,2.65,3.38,3.62,5.25,1.81,3.56,2.71,7.54,2.71,12,0,9.83-4.64,17.73-13.93,23.82Z"/>
      <g>
        <path class="cls-1" d="M123.67,140.49c-.48-.18-.96-.3-1.39-.48-1.93.66-3.98,1.21-6.15,1.57-3.08.48-6.33.36-9.77-.36.54.72,1.21,1.45,1.93,2.17.66.84,1.45,1.63,2.29,2.35.6.6,1.21,1.15,1.81,1.69l.18.18q.06.06.12.12c.72.6,1.45,1.21,2.17,1.75.36-.12.66-.18,1.03-.36,4.64-1.57,8.98-3.92,13.02-7.12-1.69-.42-3.44-.9-5.25-1.51ZM196.38,109.56c-.24-4.4-1.09-8.56-2.47-12.54-.24-.9-.6-1.81-1.03-2.71v-.12c-2.71-6.39-6.87-12.24-12.54-17.55-2.95-2.77-6.03-5.19-9.23-7.12-.42-.3-.84-.6-1.33-.78-4.82-2.95-9.95-4.94-15.25-6.03-3.5-.78-7.05-1.15-10.73-1.15-4.1,0-8.14.48-11.94,1.51-5.91,1.39-11.46,3.98-16.64,7.72-1.87,1.27-3.68,2.71-5.49,4.34-6.99,6.45-11.58,14.11-13.57,22.97-.54,2.17-.9,4.4-1.09,6.75-.18,1.51-.24,3.14-.24,4.76,0,9.95,2.65,18.87,7.9,26.83,1.15,1.69,2.29,3.26,3.56,4.76h.06c.54.72,1.21,1.45,1.93,2.17.66.84,1.45,1.63,2.29,2.35.6.6,1.21,1.15,1.81,1.69l.18.18q.06.06.12.12c.72.6,1.45,1.21,2.17,1.75,2.47,1.87,5.13,3.56,7.96,5,1.15.6,2.29,1.15,3.44,1.63,0,0,.06,0,.06.06,6.09,2.71,11.82,4.22,17.12,4.46.6.06,1.15.06,1.75.06,5.19,0,10.01-.54,14.53-1.63,8.86-1.99,16.4-6.03,22.61-12.12,1.81-1.75,3.44-3.62,4.82-5.55,2.59-3.26,4.52-6.69,5.97-10.43,2.29-5.49,3.38-11.58,3.38-18.09,0-1.15-.06-2.23-.12-3.32ZM167.98,140.07c-2.05.6-4.04,1.15-6.09,1.57-5.61,1.27-11.22,2.05-16.64,2.11-.84.12-1.69.12-2.53.12-4.28,0-8.92-.6-13.81-1.87-1.69-.42-3.44-.9-5.25-1.51-.48-.18-.96-.3-1.39-.48-6.27-2.29-11.82-5.73-16.4-10.31-4.94-4.88-7.42-11.03-7.42-18.45,0-3.56.6-6.93,1.87-10.01.72-1.87,1.75-3.62,2.95-5.25,2.23-3.2,5.25-6.03,9.1-8.5,4.22-2.77,8.68-4.88,13.51-6.33,5.31-1.69,11.03-2.59,17.12-2.71.54-.06,1.09-.06,1.69-.06h.9c5.91.06,11.52.78,16.76,2.17,5.67,1.51,10.91,3.74,15.8,6.75,9.59,5.91,14.41,13.87,14.41,23.76,0,6.09-1.93,11.82-5.85,17.18-1.39,1.93-3.08,3.68-5.06,5.25-2.35,1.87-5.19,3.44-8.44,4.76-1.63.66-3.38,1.27-5.25,1.81Z"/>
        <path class="cls-1" d="M145.61,78.38c-.48,1.15-.84,2.35-1.15,3.56-.36-1.21-.84-2.35-1.45-3.5.54-.06,1.09-.06,1.69-.06h.9Z"/>
      </g>
    </g>
    <g>
      <path class="cls-1" d="M371.84,64.34c-7.05-7.05-15.19-11.46-24.54-13.33-9.35-1.87-18.33-1.39-26.95,1.39-8.68,2.83-15.38,6.69-20.2,11.46-.18.18-.3.3-.48.48-4.46,4.58-7.96,9.35-10.61,14.29-.18.42-.42.84-.6,1.27-3.14,6.33-4.7,12.96-4.82,19.96-.06,5.19.6,10.07,2.05,14.65.12.48.24.91.48,1.33,1.45,4.52,3.74,8.74,6.81,12.72,1.39,1.87,2.95,3.68,4.7,5.43,3.44,3.44,7.24,6.27,11.22,8.5,3.98,2.17,8.26,3.74,12.84,4.64,1.33.3,2.65.54,4.04.6,2.83.42,5.85.54,8.98.42,6.75-.24,12.96-1.45,18.63-3.62,1.03-.36,2.11-.78,3.08-1.27,5.49-2.47,10.37-5.85,14.77-10.25.24-.24.48-.48.66-.72,8.56-8.92,13.14-19.9,13.81-33.04.6-13.45-4.04-25.08-13.87-34.91ZM364.24,115.53c-1.69,2.11-3.56,4.22-5.55,6.21-1.57,1.57-3.26,3.08-4.88,4.46-6.15,5.19-12.78,8.92-19.84,11.28-1.75.66-3.5,1.15-5.25,1.57-4.64,1.15-8.92,1.39-12.84.72-5.43-.78-10.13-3.26-14.17-7.3-3.01-3.01-5.25-6.63-6.63-10.73-.6-1.75-1.09-3.62-1.39-5.61-.54-3.2-.42-6.57.36-10.07.84-3.68,2.35-7.54,4.52-11.52,2.53-4.58,5.31-8.8,8.32-12.66,2.11-2.77,4.46-5.43,6.87-7.84.78-.78,1.69-1.63,2.59-2.41h.06c3.68-3.2,8.08-6.09,13.26-8.74,6.45-3.26,13.2-4.88,20.14-4.94,6.99,0,13.08,2.59,18.33,7.78,6.93,6.93,9.23,15.86,6.93,26.71-1.69,8.32-5.37,16.04-10.85,23.09Z"/>
      <path class="cls-1" d="M304.31,193.37c-.6-1.75-1.15-3.56-1.57-5.37-.48-2.05-.84-3.98-.96-5.91-1.99-2.35-3.62-5.12-5-8.38-1.63,4.28-2.65,8.86-3.01,13.75-.18,2.11-.18,4.28-.12,6.51.3,8.98,2.29,17,6.03,24.12,2.41-3.92,5.49-7.72,9.17-11.4.42-.42.84-.78,1.27-1.15-2.41-3.92-4.4-7.96-5.79-12.18ZM390.59,184.08c-.3-1.51-.72-3.01-1.21-4.46-1.57-4.76-3.44-8.92-5.55-12.48-1.75-2.95-3.74-5.55-5.91-7.72-1.87-1.87-3.8-3.62-5.73-5.12-5-3.98-10.25-6.93-15.68-8.8-1.02-.42-2.11-.72-3.14-.96-3.74-1.03-7.54-1.57-11.46-1.63-4.58-.06-8.92.48-13.02,1.63-2.47.6-4.88,1.45-7.18,2.59-5,2.23-9.59,5.55-13.87,9.83-1.02,1.03-1.99,2.05-2.83,3.08-3.62,4.16-6.39,8.74-8.26,13.69-1.63,4.28-2.65,8.86-3.01,13.75-.18,2.11-.18,4.28-.12,6.51.3,8.98,2.29,17,6.03,24.12,2.29,4.52,5.37,8.68,9.1,12.42.54.54,1.09,1.03,1.63,1.51,2.77,2.59,5.73,4.76,8.92,6.57,6.81,3.8,14.53,5.97,23.21,6.39.42.06.78.06,1.15,0,1.63.06,3.26.06,4.82-.12,2.95-.18,5.79-.66,8.5-1.45,7.48-2.05,14.29-6.15,20.44-12.3,2.65-2.65,4.88-5.43,6.75-8.32,1.39-2.11,2.59-4.28,3.5-6.57,1.39-3.08,2.41-6.27,3.08-9.65,1.57-7.78,1.51-15.25-.18-22.49ZM382.57,217.06c-1.21,3.8-3.38,7.24-6.51,10.37-6.93,6.93-15.86,9.22-26.71,6.93-2.35-.48-4.7-1.15-6.99-1.93-2.41-.84-4.76-1.87-7.05-3.14-5.19-2.65-10.01-6.21-14.53-10.67-.24-.18-.48-.42-.72-.66-3.92-3.92-7.24-8.08-9.95-12.42-2.41-3.92-4.4-7.96-5.79-12.18-.6-1.75-1.15-3.56-1.57-5.37-.48-2.05-.84-3.98-.96-5.91-.72-8.32,1.81-15.37,7.54-21.1,4.34-4.28,9.77-6.99,16.34-8.02,6.51-1.09,13.75.6,21.59,4.88,2.47,1.39,4.82,2.77,7.11,4.34,3.74,2.41,7.18,5.12,10.37,8.08.24.12.54.36.78.66.78.66,1.51,1.39,2.23,2.11,3.2,3.2,6.09,6.99,8.8,11.58.78,1.39,1.57,2.83,2.35,4.34,3.26,6.45,4.88,13.2,4.94,20.14,0,.54,0,1.09-.06,1.63-.12,2.23-.54,4.34-1.21,6.33Z"/>
      <g>
        <path class="cls-1" d="M289.36,79.89c-.06-.42-.12-.84-.3-1.27-1.39-5.55-3.62-10.61-6.69-15.25-1.87-2.83-4.1-5.55-6.57-8.02-2.95-3.01-6.21-5.49-9.65-7.48-5.19-3.2-10.97-5.25-17.24-6.21-2.23-.42-4.46-.66-6.81-.78-9.53-.42-18.15,1.75-25.81,6.63-1.87,1.08-3.74,2.41-5.49,3.92-1.21,1.03-2.41,2.11-3.62,3.32-7.05,6.99-11.52,15.19-13.39,24.54-.36,1.87-.66,3.8-.84,5.67-.3,3.14-.3,6.21-.06,9.23v.12c.06.78.12,1.57.24,2.35.36,3.2,1.09,6.39,2.11,9.59.36,1.15.78,2.23,1.15,3.26v.06c2.47,6.39,5.49,11.58,9.1,15.56.42.42.78.84,1.21,1.27,3.01,3.01,6.03,5.55,9.22,7.72.66.48,1.39.97,2.11,1.39l.06.06c7.72,4.82,15.92,7.3,24.6,7.42,2.53.06,5-.12,7.42-.54,4.16-.48,8.08-1.57,11.82-3.26,5.37-2.29,10.31-5.73,14.83-10.25.6-.6,1.15-1.21,1.63-1.81,3.26-3.44,5.85-7.24,7.78-11.28.66-1.27,1.21-2.53,1.69-3.92,2.35-6.09,3.38-12.78,3.14-20.08-.18-4.22-.66-8.2-1.63-11.94ZM275.31,124.81c-4.34,4.34-9.77,7.05-16.34,8.08-2.23.36-4.46.36-6.81.12-3.14-.3-6.39-1.21-9.77-2.59v-.06c-1.63-.66-3.32-1.45-5.06-2.41-1.87-1.03-3.62-2.05-5.37-3.2-4.88-3.01-9.35-6.45-13.33-10.31-.6-.48-1.21-1.09-1.81-1.69-3.14-3.14-6.09-6.99-8.74-11.58-.84-1.39-1.63-2.77-2.35-4.28-.3-.6-.6-1.21-.84-1.81-2.71-5.91-4.04-12.06-4.1-18.39,0-6.93,2.59-13.08,7.78-18.27,2.53-2.53,5.37-4.46,8.44-5.79h.06c1.81-.78,3.68-1.33,5.67-1.63,0-.06.06,0,.06,0,3.8-.66,7.96-.48,12.42.42,4.82,1.03,9.47,2.65,13.87,5,4.94,2.47,9.59,5.85,13.99,10.01.48.42.96.9,1.45,1.39.12.12.18.18.24.3,4.22,4.22,7.72,8.68,10.49,13.39,3.08,5.19,5.31,10.61,6.63,16.28,2.59,11.03.42,20.02-6.57,27.01Z"/>
        <path class="cls-1" d="M264.76,68.13c-1.03.48-2.05,1.03-3.08,1.63.6-1.08,1.02-2.17,1.39-3.32.48.42.96.9,1.45,1.39.12.12.18.18.24.3Z"/>
      </g>
    </g>
    <g>
      <path class="cls-1" d="M426.95,191.32c-5.25-7.9-11.94-13.93-20.08-18.03-8.14-4.1-15.56-6.15-22.37-6.15h-.66c-6.45.06-12.36.9-17.73,2.71-.48.06-.9.24-1.39.42-6.57,2.23-12.36,5.79-17.37,10.61-3.86,3.74-6.93,7.84-9.1,12.3-.24.24-.36.48-.42.78-2.23,4.4-3.62,9.17-4.16,14.29-.36,2.17-.48,4.34-.48,6.63,0,5.06.66,9.89,2.11,14.41,1.27,4.22,3.14,8.2,5.61,11.94.84,1.27,1.75,2.53,2.71,3.74h.06c1.63,2.11,3.56,4.16,5.67,6.15,4.94,4.58,10.13,8.14,15.68,10.61,1.21.54,2.41,1.08,3.62,1.45,5.49,2.05,11.21,3.01,17.24,3.01.48,0,.96,0,1.45-.06,12.18-.3,23.03-4.82,32.62-13.51,9.95-9.1,14.89-20.56,14.89-34.49,0-9.95-2.59-18.87-7.9-26.83ZM417.36,240.28c-7.05,4.64-14.95,7.48-23.76,8.62-2.77.36-5.67.54-8.62.54-2.11,0-4.16-.06-6.21-.24-7.9-.66-15.19-2.59-21.77-5.79-1.87-.84-3.68-1.81-5.43-2.89-3.86-2.35-6.93-5.07-9.16-8.08h-.06c-3.5-4.52-5.25-9.71-5.25-15.68,0-4.1.84-7.96,2.59-11.7.84-1.93,1.93-3.74,3.26-5.55,1.87-2.53,4.16-4.76,7.05-6.63,3.26-2.11,7.18-3.86,11.76-5.18,5-1.45,9.95-2.53,14.77-3.08,3.5-.48,6.99-.72,10.43-.72,1.21,0,2.41.06,3.62.18,4.82.3,9.95,1.39,15.5,3.2,6.87,2.29,12.78,5.85,17.73,10.79,4.94,4.94,7.42,11.09,7.42,18.45,0,9.77-4.64,17.73-13.87,23.76Z"/>
      <path class="cls-1" d="M292.73,249.86c-1.69,1.45-3.26,2.95-4.82,4.64-6.15,6.57-10.43,13.69-12.78,21.34,4.52-1.08,9.35-1.63,14.53-1.63.54,0,1.09,0,1.69.06,1.02-4.46,2.53-8.68,4.52-12.6.78-1.69,1.69-3.38,2.65-4.94,1.15-1.87,2.35-3.5,3.68-5,.42-3.01,1.33-6.21,2.71-9.53-4.34,1.87-8.38,4.4-12.18,7.66ZM371.48,282.54c-.6-6.45-2.17-12.24-4.64-17.49-.54-1.15-1.09-2.23-1.81-3.32-1.81-3.32-4.16-6.39-6.87-9.23-2.95-3.08-6.21-5.67-9.65-7.66-2.41-1.51-4.94-2.71-7.6-3.62-5.13-1.93-10.73-2.89-16.76-2.89-1.63,0-3.26.06-4.82.24h-.06c-5.06.42-9.89,1.63-14.35,3.62-4.34,1.87-8.38,4.4-12.18,7.66-1.69,1.45-3.26,2.95-4.82,4.64-6.15,6.57-10.43,13.69-12.78,21.34-1.51,4.88-2.29,9.95-2.29,15.19,0,.78,0,1.51.12,2.23.12,3.92.72,7.72,1.75,11.33,2.11,7.42,5.97,14.23,11.7,20.5.36.36.66.72,1.03,1.03,1.09,1.21,2.23,2.23,3.38,3.2,2.23,1.93,4.58,3.62,7.05,5,6.75,3.8,14.41,5.67,23.03,5.67,3.68,0,7.24-.36,10.67-1.09,2.41-.48,4.82-1.21,7.12-2.11,3.14-1.21,6.15-2.77,9.04-4.7,6.51-4.34,11.76-9.71,15.68-15.98.84-1.33,1.63-2.71,2.35-4.1,2.23-4.4,3.86-8.62,4.82-12.66.9-3.38,1.33-6.57,1.33-9.71,0-2.47-.12-4.82-.42-7.11ZM351.76,311.18c-2.29,6.93-5.85,12.84-10.79,17.79-.36.36-.78.78-1.21,1.08-1.63,1.45-3.38,2.65-5.25,3.62-3.56,1.81-7.54,2.71-12,2.71-9.77,0-17.73-4.64-23.76-13.93-1.27-1.93-2.41-3.98-3.38-6.03-1.15-2.23-2.11-4.58-2.83-6.99-1.87-5.61-2.83-11.76-2.95-18.27v-1.02c0-5.61.6-10.85,1.75-15.86,1.02-4.46,2.53-8.68,4.52-12.6.78-1.69,1.69-3.38,2.65-4.94,1.15-1.87,2.35-3.5,3.68-5,5.37-6.33,12.06-9.47,20.08-9.47,6.15,0,11.88,1.93,17.24,5.85,5.37,3.92,9.35,10.13,11.82,18.75.84,2.89,1.57,5.73,2.05,8.56.9,4.34,1.45,8.62,1.63,12.84.06.42.06.78,0,1.15.12.91.12,1.81.12,2.71,0,4.52-.66,9.41-2.11,14.53-.3,1.51-.78,3.01-1.27,4.52Z"/>
      <g>
        <path class="cls-1" d="M371.9,132.29c-1.39-5.97-3.92-11.52-7.66-16.76-1.33-1.99-2.83-3.86-4.52-5.73-6.45-7.05-14.05-11.58-22.91-13.63-2.17-.54-4.46-.9-6.75-1.09-1.57-.18-3.2-.24-4.82-.24-9.95,0-18.87,2.65-26.77,7.96-1.57,1.03-3.01,2.11-4.4,3.26-2.29,1.81-4.34,3.74-6.21,5.85-.06,0,0,.06,0,.06-.78.84-1.51,1.69-2.17,2.53-2.05,2.59-3.8,5.37-5.31,8.38-.72,1.39-1.39,2.77-1.93,4.16,0,0-.06,0-.06.06-2.47,5.85-3.86,11.34-4.1,16.4-.06.6-.06,1.15-.06,1.69,0,1.75.06,3.44.24,5.06-.06.42,0,.84.06,1.21.06,1.08.18,2.11.36,3.14.06.6.18,1.15.24,1.75.18,1.15.42,2.35.72,3.44,1.99,8.86,6.09,16.34,12.12,22.61,1.87,1.87,3.8,3.62,5.79,5.07,3.26,2.53,6.81,4.46,10.55,5.91,5.37,2.11,11.28,3.2,17.67,3.2,1.21,0,2.41-.06,3.56-.12,4.34-.3,8.44-1.08,12.3-2.47.96-.3,1.93-.66,2.89-1.09,6.39-2.65,12.24-6.87,17.49-12.48,2.83-3.07,5.31-6.21,7.3-9.47.24-.36.48-.72.6-1.09,3.01-4.94,5-10.13,6.09-15.56.72-3.38,1.09-6.87,1.09-10.43,0-3.98-.42-7.9-1.39-11.58ZM354.36,162.2c-1.45,5.73-3.74,11.03-6.75,15.98-5.97,9.65-13.87,14.47-23.76,14.47-6.15,0-11.88-1.99-17.24-5.85-1.81-1.33-3.44-2.89-4.82-4.7-1.99-2.35-3.62-5.12-5-8.38-.72-1.75-1.39-3.68-1.99-5.73-.6-1.99-1.09-4.04-1.57-6.03-1.27-5.67-2.05-11.22-2.11-16.7-.12-.84-.12-1.63-.12-2.47,0-4.46.66-9.16,1.99-14.23.42-1.57.9-3.2,1.45-4.88.24-.66.42-1.33.66-1.93,2.29-6.09,5.67-11.34,10.07-15.8,4.94-4.94,11.09-7.48,18.45-7.48,3.62,0,6.93.6,10.07,1.87,1.81.78,3.56,1.69,5.19,2.95,3.2,2.17,6.03,5.24,8.56,9.1,2.77,4.28,4.94,8.86,6.39,13.81,1.69,5.31,2.59,10.97,2.65,17.06.06.48.06.96.06,1.45v.78c-.06,5.91-.78,11.46-2.17,16.7Z"/>
        <path class="cls-1" d="M356.53,144.71v.78c-1.02-.42-2.11-.72-3.14-.96,1.03-.36,2.11-.78,3.08-1.27.06.48.06.96.06,1.45Z"/>
      </g>
    </g>
    <g>
      <path class="cls-1" d="M382.81,320.35c-2.83-8.62-6.63-15.38-11.46-20.2l-.78-.78c-4.46-4.34-9.17-7.72-13.99-10.31-.54-.24-1.02-.54-1.57-.78-6.27-3.01-12.78-4.52-19.66-4.64-5.25-.06-10.25.66-14.95,2.17-.3.06-.66.18-.96.36-4.58,1.51-8.86,3.8-12.84,6.93-1.81,1.33-3.62,2.89-5.31,4.58-3.62,3.62-6.51,7.54-8.74,11.76-2.05,3.86-3.56,7.96-4.4,12.3-.36,1.45-.6,2.89-.72,4.4-.36,2.77-.48,5.67-.36,8.62.24,6.69,1.45,12.9,3.68,18.57.3,1.08.72,2.11,1.27,3.14,2.41,5.49,5.85,10.37,10.25,14.77.24.24.42.42.66.6,8.86,8.62,19.9,13.21,33.04,13.87,13.45.6,25.08-4.04,34.91-13.87,7.05-6.99,11.52-15.19,13.39-24.54,1.81-9.29,1.39-18.33-1.45-26.95ZM369.49,368.16c-6.93,6.93-15.8,9.23-26.71,6.99-8.32-1.75-16.04-5.43-23.15-11.09-2.05-1.57-4.1-3.38-6.09-5.37-1.63-1.63-3.14-3.26-4.52-4.94-5.12-6.03-8.86-12.54-11.15-19.41-.72-1.81-1.27-3.68-1.69-5.55-1.02-4.46-1.33-8.56-.78-12.36v-.06c.72-5.61,3.2-10.43,7.36-14.59,3.01-3.01,6.51-5.19,10.55-6.63,1.81-.66,3.74-1.15,5.79-1.45,3.07-.48,6.33-.36,9.71.3,3.8.84,7.78,2.35,11.94,4.64,4.4,2.41,8.56,5.07,12.3,8.02,2.95,2.23,5.67,4.58,8.2,7.11.72.72,1.45,1.51,2.17,2.35,3.26,3.74,6.27,8.26,8.92,13.57,3.26,6.45,4.88,13.21,4.94,20.14,0,6.99-2.59,13.08-7.78,18.33Z"/>
      <path class="cls-1" d="M247.45,293.76c-1.99-.18-4.1-.18-6.21-.12-8.98.3-17,2.35-24.06,6.09,3.92,2.41,7.66,5.43,11.34,9.1.42.42.78.84,1.21,1.27,3.74-2.35,7.66-4.28,11.76-5.67,1.87-.66,3.8-1.21,5.73-1.69,1.87-.48,3.74-.78,5.49-.9,2.41-1.99,5.25-3.68,8.62-5.06-4.34-1.69-8.92-2.71-13.87-3.01ZM290.8,329.33c-.6-2.65-1.51-5.19-2.65-7.6-2.29-5-5.61-9.65-9.89-13.87-1.15-1.15-2.35-2.23-3.56-3.26-4.1-3.44-8.56-6.03-13.39-7.84-4.34-1.69-8.92-2.71-13.87-3.01-1.99-.18-4.1-.18-6.21-.12-8.98.3-17,2.35-24.06,6.09-4.52,2.29-8.68,5.37-12.42,9.1-.54.54-1.09,1.09-1.45,1.63-2.83,2.96-5.13,6.15-6.99,9.59-3.68,6.63-5.67,14.11-6.03,22.49,0,.3-.06.6,0,.84-.06,1.57-.06,3.08.12,4.52.06,2.95.54,5.79,1.27,8.56,1.99,7.72,6.15,14.71,12.42,20.98,2.65,2.65,5.43,4.94,8.38,6.81,2.11,1.39,4.22,2.53,6.45,3.5,3.08,1.39,6.33,2.41,9.71,3.08,7.6,1.51,15.01,1.51,22.13-.18,1.63-.3,3.26-.72,4.82-1.27,4.64-1.51,8.68-3.32,12.18-5.37,3.08-1.81,5.79-3.86,8.02-6.09,1.87-1.87,3.56-3.74,5.06-5.61,4.04-5.06,6.99-10.31,8.86-15.8.42-1.03.72-2.11,1.03-3.2.96-3.68,1.51-7.48,1.57-11.4.06-4.4-.42-8.62-1.51-12.6ZM264.76,365.03c-.18.24-.36.42-.6.66-.6.72-1.33,1.45-1.99,2.11-3.26,3.26-7.24,6.27-11.94,8.92-1.27.78-2.53,1.51-3.92,2.17-6.51,3.26-13.2,4.94-20.2,4.94-.54,0-1.09,0-1.63-.06-2.17-.12-4.22-.48-6.21-1.15-3.8-1.27-7.3-3.44-10.49-6.57-6.87-6.93-9.23-15.8-6.93-26.65.48-2.47,1.21-4.94,2.05-7.3.84-2.35,1.87-4.64,3.08-6.87,2.65-5.13,6.21-9.95,10.61-14.47.24-.24.42-.42.66-.66,3.98-3.98,8.14-7.3,12.48-10.01,3.74-2.35,7.66-4.28,11.76-5.67,1.87-.66,3.8-1.21,5.73-1.69,1.87-.48,3.74-.78,5.49-.9,8.56-.78,15.74,1.69,21.53,7.48,4.34,4.34,6.99,9.77,8.02,16.34,1.09,6.51-.54,13.75-4.88,21.65-1.39,2.47-2.83,4.88-4.4,7.17-2.47,3.8-5.25,7.3-8.2,10.55Z"/>
      <g>
        <path class="cls-1" d="M320.05,217.97c-3.92-3.92-7.24-8.08-9.95-12.42-.42.36-.84.72-1.27,1.15-3.01,3.01-5.55,6.03-7.72,9.23-.48.66-.96,1.39-1.39,2.11l-.06.06c2.29,4.52,5.37,8.68,9.1,12.42.54.54,1.09,1.03,1.63,1.51,3.14-4.88,6.57-9.41,10.37-13.39-.24-.18-.48-.42-.72-.66ZM387.7,216.22c-1.09-1.87-2.41-3.74-3.92-5.49-1.02-1.21-2.11-2.41-3.26-3.56-7.05-7.05-15.19-11.52-24.54-13.39-1.99-.42-3.98-.66-5.97-.91-3.14-.24-6.21-.24-9.29,0q-.06,0-.12.06c-.78,0-1.57.12-2.35.24-3.14.36-6.21,1.09-9.29,2.05-1.21.36-2.35.78-3.44,1.21-6.33,2.41-11.46,5.43-15.44,9.1-.42.36-.84.72-1.27,1.15-3.01,3.01-5.55,6.03-7.72,9.23-.48.66-.96,1.39-1.39,2.11l-.06.06c-4.82,7.72-7.24,15.92-7.42,24.6-.06,2.47.12,4.88.48,7.18.48,4.16,1.57,8.08,3.14,11.82,2.35,5.49,5.85,10.49,10.43,15.07.72.72,1.45,1.39,2.17,1.99,3.38,3.07,7.05,5.55,10.97,7.42,1.02.6,2.11,1.03,3.2,1.51,6.27,2.47,13.2,3.56,20.74,3.32,4.1-.12,7.96-.66,11.64-1.57.54-.06,1.09-.18,1.57-.36,5.43-1.33,10.37-3.5,14.89-6.51,3.01-1.87,5.79-4.16,8.38-6.75,3.01-2.95,5.49-6.21,7.48-9.65,3.2-5.19,5.25-10.97,6.27-17.25.36-2.23.6-4.46.72-6.81.42-9.53-1.75-18.15-6.63-25.87ZM353.39,275.43c-5.06,3.01-10.37,5.12-15.98,6.45-11.03,2.59-20.02.42-27.01-6.57-4.34-4.34-6.99-9.77-8.08-16.34-.36-2.29-.42-4.7-.12-7.24.42-3.01,1.33-6.21,2.71-9.53.66-1.57,1.45-3.2,2.35-4.88,1.02-1.81,2.05-3.62,3.14-5.31,3.14-4.88,6.57-9.41,10.37-13.39.48-.6,1.09-1.21,1.69-1.81,3.07-3.08,6.81-5.91,11.21-8.56,1.51-.84,3.01-1.69,4.64-2.53.48-.24.9-.42,1.39-.66,6.09-2.83,12.3-4.28,18.81-4.28,6.99,0,13.08,2.59,18.27,7.78,2.53,2.53,4.46,5.37,5.79,8.44v.06c.78,1.81,1.33,3.74,1.63,5.73.66,3.8.54,7.96-.42,12.42-1.02,4.88-2.71,9.59-5,13.99-2.53,4.94-5.91,9.65-10.13,13.99-.42.48-.84.9-1.27,1.33-.18.18-.36.36-.54.54-4.22,4.16-8.74,7.66-13.45,10.37Z"/>
        <path class="cls-1" d="M368.65,263.19c-.42.48-.84.9-1.27,1.33-.18.18-.36.36-.54.54-.54-1.15-1.09-2.23-1.81-3.32,1.21.54,2.41,1.08,3.62,1.45Z"/>
      </g>
    </g>
  </g>
</svg>