<?xml version="1.0" encoding="UTF-8"?>
<svg id="Layer_1" data-name="Layer 1" xmlns="http://www.w3.org/2000/svg" viewBox="0 0 574.38 574.47">
  <defs>
    <style>
      .cls-1 {
        opacity: .11;
      }

      .cls-2 {
        fill: #e5d4c2;
      }
    </style>
  </defs>
  <g class="cls-1">
    <g>
      <g>
        <path class="cls-2" d="M350.19,483.75c-.08-.56-.24-1.11-.48-1.59-3.03-8.92-7.73-16.65-14.18-23.26-4.78-4.94-10.04-8.92-15.77-11.87-.48-.32-.96-.56-1.51-.64v-.08c-5.65-2.87-11.87-4.7-18.48-5.42-3.03-.56-6.05-.72-9.24-.72-6.45,0-12.66.88-18.48,2.63-5.73,1.67-11.15,4.14-16.25,7.49-1.51,1.04-3.03,2.07-4.46,3.27-3.03,2.31-5.89,5.02-8.68,7.96-6.13,6.53-10.83,13.46-14.02,20.79-.72,1.43-1.27,2.87-1.75,4.3-2.79,7.33-4.14,14.97-4.14,23.1,0,.56,0,1.2.08,1.75.32,16.17,6.29,30.58,17.92,43.25,11.95,13.14,27.16,19.75,45.56,19.75,13.14,0,24.93-3.5,35.36-10.43,10.43-7.01,18.4-15.85,23.81-26.52,5.5-10.75,8.2-20.63,8.2-29.55v-.72c-.08-8.52-1.19-16.33-3.5-23.5ZM327.01,536.4c-3.03,9.08-7.73,16.96-14.26,23.49-6.45,6.53-14.57,9.8-24.37,9.8-12.9,0-23.34-6.13-31.38-18.4-6.13-9.32-9.88-19.83-11.39-31.46-.4-3.58-.64-7.33-.64-11.23,0-2.87.08-5.65.4-8.44.8-10.59,3.42-20.39,7.81-29.23v-.08c1.11-2.23,2.31-4.38,3.58-6.45,3.27-5.34,7.01-9.48,11.23-12.5,5.81-4.38,12.58-6.53,20.15-6.53,5.5,0,10.83,1.19,15.93,3.66,2.31,1.03,4.62,2.47,6.85,4.06,3.5,2.47,6.45,5.73,9.08,9.8v.08c2.71,4.14,4.86,9.16,6.53,14.89,1.91,6.69,3.27,13.3,3.98,19.75.64,4.62.96,9.16.96,13.62,0,1.51-.08,3.11-.24,4.78-.4,6.29-1.83,13.14-4.22,20.39Z"/>
        <path class="cls-2" d="M259.32,422.75c-.48-7.17-2.15-13.86-4.94-20.15-2.47-5.57-5.73-10.91-9.96-15.85-1.91-2.23-3.98-4.38-6.21-6.45-8.68-8.04-18.08-13.7-28.19-16.88-6.45-1.99-13.14-3.03-20.07-3.03-.96,0-1.91,0-2.87.16-4.94.08-9.72.88-14.34,2.15-10.04,2.71-19.35,7.96-27.8,15.69-.4.4-.88.8-1.27,1.27-1.59,1.43-3.03,3.03-4.38,4.62-2.55,2.95-4.7,6.05-6.45,9.32-5.02,8.92-7.57,19.03-7.57,30.34,0,4.86.48,9.56,1.51,14.02.64,3.27,1.51,6.37,2.71,9.4,1.59,4.22,3.66,8.12,6.21,11.95,5.81,8.68,12.9,15.69,21.34,20.87,1.67,1.04,3.42,2.07,5.18,2.95,5.97,3.03,11.63,5.26,17.04,6.53,4.3,1.12,8.52,1.67,12.5,1.67,3.42,0,6.69-.16,9.88-.56,8.44-.88,16.09-2.95,23.02-6.29,1.35-.64,2.71-1.35,3.98-2.15,4.46-2.47,8.44-5.57,12.19-9.16,4.3-4.22,7.89-8.76,10.67-13.62,1.75-2.95,3.19-6.05,4.3-9.24,2.55-6.77,3.74-14.18,3.74-22.14,0-1.83-.08-3.66-.24-5.42ZM221.89,464.16c-3.66,1.04-7.33,1.91-10.91,2.63-5.65,1.11-11.31,1.83-16.8,2.07-.56.16-1.12.16-1.67.08-1.35.16-2.63.16-3.98.16-5.81,0-12.19-.88-18.88-2.55-2.07-.56-4.14-1.19-6.29-1.91-9.08-3.03-16.96-7.73-23.49-14.26-.56-.56-1.04-1.04-1.51-1.59-1.91-2.15-3.5-4.46-4.7-6.93-2.39-4.7-3.58-9.96-3.58-15.77,0-12.98,6.13-23.41,18.4-31.46,2.55-1.67,5.18-3.18,7.96-4.46,3.11-1.59,6.29-2.87,9.64-3.82,7.41-2.39,15.29-3.58,23.81-3.74h1.27c7.41,0,14.34.8,20.95,2.31,6.05,1.35,11.71,3.34,17.04,6.05,2.15,1.04,4.22,2.15,6.21,3.42,2.39,1.51,4.54,3.03,6.45,4.86,8.36,7.01,12.58,15.93,12.58,26.52,0,8.04-2.55,15.69-7.73,22.78-5.1,7.09-13.38,12.27-24.77,15.61Z"/>
        <g>
          <path class="cls-2" d="M438.67,394.23c-1.43-2.07-2.87-4.06-4.38-5.89-2.47-3.11-5.18-5.89-8.04-8.36h-.08c-.96-.96-1.91-1.75-2.95-2.47-3.42-2.71-7.09-5.1-11.07-7.09-1.59-.8-3.19-1.59-4.7-2.23-8.12-3.66-15.69-5.58-22.62-5.89-.8-.08-1.51-.08-2.23-.08-2.23,0-4.38.08-6.53.32-.64-.08-1.27,0-1.91.08-1.27.08-2.55.24-3.82.48-.8.08-1.59.16-2.39.32-1.51.32-3.03.56-4.54.95-11.71,2.63-21.66,7.96-29.87,16.01-2.55,2.47-4.78,5.02-6.69,7.65-3.35,4.38-5.97,9.08-7.89,14.1-2.79,7.09-4.14,14.89-4.14,23.26,0,1.19,0,2.31.08,3.42v.08c.32,6.13,1.35,11.95,3.34,17.44.48,1.67,1.19,3.35,1.83,4.94,0,0,.08,0,.08.08,3.5,7.96,8.92,15.21,16.01,21.9,4.06,3.82,8.36,7.09,12.74,9.8.4.32.88.56,1.27.72,6.61,3.98,13.46,6.61,20.79,8.04,4.3.96,8.76,1.35,13.38,1.35,5.5,0,10.75-.64,15.77-1.99,7.81-1.83,15.21-5.26,22.06-10.27,2.47-1.67,4.86-3.58,7.17-5.73,9.32-8.44,15.29-18.56,18-30.26.72-2.87,1.19-5.81,1.43-8.92.24-2.07.32-4.22.32-6.37,0-13.14-3.5-24.93-10.43-35.36ZM437.96,447.67c-2.95,4.14-6.93,7.88-12.03,11.23-5.5,3.66-11.47,6.45-17.76,8.36-7.01,2.23-14.42,3.43-22.46,3.58-.8.08-1.59.08-2.47.08h-.56c-7.8-.08-15.21-.96-22.14-2.71-7.73-1.99-14.89-5.02-21.5-9.08-12.74-7.81-19.03-18.32-19.03-31.38,0-8.04,2.55-15.69,7.73-22.78,1.67-2.31,3.66-4.46,6.05-6.29,3.19-2.63,6.93-4.86,11.39-6.69,2.31-1.04,4.7-1.83,7.33-2.63,2.71-.8,5.34-1.43,8.04-1.99,7.41-1.75,14.81-2.71,21.98-2.79,1.12-.16,2.23-.16,3.34-.16,5.89,0,12.34.88,19.11,2.71,1.99.48,3.98,1.11,6.05,1.75.96.32,1.91.64,2.79.96,7.88,3.11,14.89,7.49,20.71,13.3,6.53,6.45,9.8,14.57,9.8,24.29,0,4.78-.8,9.24-2.47,13.3-1.04,2.47-2.31,4.7-3.9,6.93Z"/>
          <path class="cls-2" d="M385.71,470.85c-.8.08-1.59.08-2.47.08h-.56c.56-1.35.96-2.79,1.35-4.22.4,1.43.96,2.79,1.67,4.14Z"/>
        </g>
      </g>
      <g>
        <path class="cls-2" d="M197.2,422.9c0-.32-.08-.64-.32-.96-1.99-6.21-5.18-11.95-9.48-17.36-1.67-2.31-3.58-4.46-5.73-6.61-4.78-4.78-9.96-8.68-15.61-11.63-5.1-2.71-10.51-4.62-16.25-5.73-1.99-.48-4.06-.8-6.13-.96-3.5-.4-7.17-.56-10.99-.4-8.92.32-17.12,1.83-24.61,4.78-1.51.48-3.11,1.12-4.54,1.91-7.01,3.19-13.38,7.65-19.03,13.3-.4.4-.88.87-1.19,1.35-11.15,11.71-17.04,26.04-17.84,43.17-.88,17.76,5.26,33.13,18.24,46.19,9.24,9.24,20.07,15.13,32.41,17.6,12.34,2.47,24.21,1.83,35.6-1.91,11.47-3.74,20.31-8.76,26.68-15.13.32-.32.56-.56.88-.88,5.81-5.89,10.35-12.11,13.78-18.56.4-.72.72-1.51,1.12-2.23,3.9-8.2,5.89-16.81,6.05-25.88.08-7.09-.88-13.78-3.03-20.07ZM139.38,491.8c-8.52,4.38-17.44,6.53-26.6,6.53-9.24.08-17.28-3.34-24.21-10.27-9.16-9.16-12.19-20.87-9.16-35.2,2.23-10.91,7.01-21.03,14.26-30.34,2.23-2.87,4.7-5.65,7.41-8.36,1.99-1.99,4.06-3.9,6.13-5.65,7.96-6.77,16.49-11.79,25.64-14.89v-.08c2.55-.96,5.18-1.67,7.81-2.31,5.65-1.35,10.91-1.67,15.77-1.04,7.65.88,14.26,4.14,19.91,9.8,3.74,3.74,6.53,8.12,8.36,13.22,1.04,2.55,1.75,5.34,2.23,8.28.64,3.98.56,8.04-.32,12.42-1.04,5.18-3.03,10.51-6.13,16.17-3.27,5.97-6.85,11.47-10.83,16.49-2.87,3.82-5.97,7.33-9.24,10.59-1.04,1.03-2.15,2.07-3.34,3.03-4.86,4.22-10.75,8.12-17.68,11.63Z"/>
        <path class="cls-2" d="M179.04,286.87c-.56-1.03-1.12-2.07-1.75-3.03-.32-.72-.8-1.43-1.27-2.15-.32-.64-.72-1.27-1.19-1.83-.88-1.35-1.83-2.63-2.87-3.82-1.51-1.91-3.19-3.82-4.94-5.58-.72-.72-1.43-1.35-2.15-1.99-3.82-3.58-8.04-6.61-12.5-9.08h-.08c-8.84-4.86-18.8-7.57-29.87-8.04-.48,0-1.04-.08-1.51,0-2.07-.08-4.06-.08-6.05.16-3.9.16-7.65.8-11.23,1.83-10.04,2.63-19.11,8.04-27.32,16.25-3.5,3.5-6.45,7.17-8.92,11.07-1.83,2.71-3.42,5.58-4.7,8.52-1.75,4.06-3.11,8.36-3.98,12.82-1.99,10.04-1.99,19.83.16,29.31.4,2.15.96,4.3,1.67,6.37,1.99,6.05,4.3,11.31,7.01,15.93h.08c2.31,4.14,5.02,7.73,8.04,10.67,2.31,2.31,4.62,4.46,7.01,6.37,6.61,5.34,13.54,9.32,20.79,11.95,1.51.56,3.11,1.04,4.62,1.43,4.94,1.35,9.96,2.07,15.13,2.15,5.65.08,10.99-.56,16.09-1.91,3.66-.8,7.17-1.99,10.51-3.66,6.61-3.03,12.74-7.33,18.4-12.98,1.59-1.59,3.11-3.27,4.54-4.94,4.22-5.18,7.57-10.83,9.88-16.88,2.31-5.73,3.74-11.95,4.14-18.56.24-2.79.32-5.65.24-8.6-.4-11.87-3.03-22.46-7.96-31.78ZM174.98,326.54c.64,2.71,1.11,5.34,1.27,7.88.88,10.99-2.47,20.31-9.96,27.8-5.73,5.73-12.9,9.24-21.58,10.67-8.6,1.35-18.16-.8-28.59-6.53-3.42-1.91-6.69-3.9-9.88-6.05-4.94-3.26-9.48-6.77-13.7-10.75-.32-.16-.64-.48-.96-.88-.88-.72-1.75-1.51-2.55-2.39-4.3-4.3-8.2-9.56-11.79-15.77h-.08c-.96-1.67-1.83-3.34-2.79-5.18-4.3-8.52-6.45-17.44-6.53-26.68,0-.72,0-1.35.08-2.07.16-2.95.72-5.73,1.59-8.44,1.59-5.02,4.46-9.48,8.6-13.62,9.16-9.16,20.95-12.27,35.28-9.24,3.03.64,6.05,1.51,9,2.55,3.11,1.03,6.21,2.39,9.16,3.98,6.93,3.5,13.46,8.28,19.59,14.26.32.24.64.56.96.88,3.9,3.9,7.33,8.04,10.35,12.27,1.04,1.35,1.91,2.79,2.79,4.22,3.19,5.02,5.73,10.27,7.57,15.77.88,2.39,1.59,4.86,2.15,7.33Z"/>
        <g>
          <path class="cls-2" d="M301.85,407.93c-4.86-4.86-9.8-8.84-14.97-12.03-10.11-6.37-21.03-9.64-32.57-9.8-3.42-.08-6.69.16-9.88.64-5.34.72-10.43,2.07-15.29,4.22,2.15,1.04,4.22,2.15,6.21,3.42,2.39,1.51,4.54,3.03,6.45,4.86,4.06.4,8.2,1.51,12.58,3.34,2.31.88,4.62,1.99,7.01,3.27,2.47,1.35,4.86,2.79,7.17,4.22,6.45,4.14,12.26,8.6,17.52,13.62.32-.32.56-.56.88-.88,5.26-5.26,10.75-9.64,16.49-13.22-.56-.56-1.04-1.12-1.59-1.67ZM320.16,451.34c0-.08-.08-.08-.08-.08,0-1.43-.16-2.87-.32-4.22-.56-4.22-1.43-8.36-2.79-12.42-.64-1.99-1.35-3.9-2.07-5.73v-.08c-3.11-7.8-6.93-14.18-11.47-19.19-.56-.56-1.04-1.12-1.59-1.67-4.86-4.86-9.8-8.84-14.97-12.03-10.11-6.37-21.03-9.64-32.57-9.8-3.42-.08-6.69.16-9.88.64-5.34.72-10.43,2.07-15.29,4.22-7.17,3.03-13.78,7.65-19.83,13.7-1.27,1.27-2.47,2.55-3.5,3.82-3.66,4.22-6.69,8.68-8.92,13.46-.64,1.12-1.12,2.23-1.59,3.35-3.5,8.6-5.1,18-4.78,28.35.16,5.34.88,10.43,1.99,15.29.16.72.32,1.43.56,2.15,1.75,7.17,4.62,13.7,8.6,19.67,2.47,3.98,5.5,7.65,8.92,11.07,3.82,3.74,7.88,7.01,12.27,9.64,6.85,4.22,14.42,7.01,22.78,8.36,3.03.64,6.21.96,9.48,1.12,12.58.56,23.89-2.31,34.09-8.76,2.55-1.51,4.94-3.26,7.33-5.26,1.59-1.35,3.19-2.79,4.7-4.3,9.32-9.24,15.21-20.07,17.68-32.42.48-2.39.8-4.86,1.11-7.25v-.08c.4-3.9.48-7.73.16-11.55ZM299.38,497.77c-3.34,3.35-7.01,5.89-11.07,7.65-2.39,1.04-4.94,1.75-7.65,2.15-5.02.88-10.51.64-16.49-.56-6.53-1.36-12.82-3.66-18.8-6.85-6.53-3.42-12.66-7.96-18.48-13.54-.48-.4-.96-.88-1.43-1.35l-.8-.8c-5.5-5.57-10.04-11.47-13.7-17.68-3.9-6.69-6.69-13.7-8.44-21.11-3.42-14.49-.56-26.44,8.68-35.68,5.73-5.66,12.9-9.24,21.58-10.59,2.95-.48,5.89-.48,9-.16,4.06.4,8.2,1.51,12.58,3.34,2.31.88,4.62,1.99,7.01,3.27,2.47,1.35,4.86,2.79,7.17,4.22,6.45,4.14,12.26,8.6,17.52,13.62.8.64,1.59,1.43,2.39,2.23,4.06,4.14,7.88,9.16,11.31,14.97,1.19,1.91,2.31,3.98,3.34,6.05.32.72.72,1.35.96,2.07,3.66,7.88,5.58,16.09,5.58,24.53.08,9.24-3.34,17.28-10.27,24.21Z"/>
          <path class="cls-2" d="M228.66,482.32c-.72,1.43-1.27,2.87-1.75,4.3-.48-.4-.96-.88-1.43-1.35l-.8-.8c1.35-.64,2.71-1.35,3.98-2.15Z"/>
        </g>
      </g>
      <g>
        <path class="cls-2" d="M131.57,271.82c-1.59-5.58-4.06-10.91-7.41-15.93v-.08c-1.04-1.51-2.07-3.03-3.27-4.46-2.31-3.03-4.94-5.89-7.96-8.68-6.53-6.05-13.46-10.75-20.79-13.94-1.35-.72-2.71-1.27-4.06-1.67-6.21-2.47-12.66-3.82-19.43-4.14-1.27-.16-2.63-.16-3.98-.16-.4,0-.72,0-1.11.08-1.12-.08-2.23,0-3.35.16-6.53.32-12.82,1.75-18.8,4.06h-.08c-7.17,2.71-13.78,6.85-20.07,12.35-.56.4-1.04.88-1.59,1.35-13.14,11.95-19.67,27.16-19.67,45.56,0,13.14,3.42,24.93,10.43,35.36,6.93,10.51,15.85,18.4,26.52,23.89,10.75,5.42,20.55,8.12,29.55,8.12.4,0,.72,0,1.04-.08h.08c8.36,0,16.09-1.2,23.1-3.43.64-.16,1.19-.32,1.83-.64,8.76-2.95,16.41-7.65,23.02-14.02,4.94-4.78,8.92-10.04,11.87-15.77.32-.48.56-.96.72-1.51,2.87-5.58,4.62-11.71,5.42-18.16.48-3.03.72-6.21.72-9.48,0-6.61-.88-12.82-2.71-18.79ZM77.17,330.52c-4.7.64-9.32.96-13.94.96-1.43,0-2.87-.08-4.38-.16-6.45-.4-13.38-1.83-20.79-4.3-9.16-2.95-16.96-7.73-23.49-14.18-6.53-6.53-9.8-14.65-9.8-24.37,0-12.98,6.13-23.42,18.4-31.46,9.4-6.13,20.07-9.96,31.94-11.31,3.42-.48,7.09-.72,10.75-.72,3.03,0,5.97.16,8.84.4,10.51.96,20.15,3.58,28.91,7.96,2.23.96,4.3,2.15,6.37,3.42,5.26,3.27,9.4,6.93,12.42,11.07,4.46,5.81,6.69,12.58,6.69,20.31,0,5.66-1.27,11.07-3.74,16.17-1.11,2.23-2.39,4.46-3.98,6.61-2.55,3.43-5.73,6.45-9.72,9-4.22,2.71-9.24,4.86-15.05,6.61-6.53,1.91-12.98,3.27-19.35,3.98h-.08Z"/>
        <path class="cls-2" d="M213.84,187.08c-.16-5.18-.88-10.11-2.31-14.89-2.71-9.8-7.88-18.88-15.45-27.16-.32-.32-.56-.64-.88-.88-1.43-1.59-2.95-3.03-4.46-4.3-2.95-2.63-6.05-4.86-9.32-6.77-9.08-5.18-19.35-7.8-30.9-7.8-4.86,0-9.56.48-14.1,1.51-3.19.64-6.37,1.59-9.4,2.79-4.14,1.59-8.12,3.66-11.95,6.21-8.6,5.65-15.45,12.66-20.63,20.95-1.19,1.83-2.23,3.66-3.19,5.58-1.19,2.39-2.31,4.7-3.19,7.01-1.35,3.27-2.47,6.45-3.27,9.56-1.19,4.54-1.75,8.84-1.75,12.9,0,3.26.16,6.45.56,9.56-.08.16,0,.4.08.56.88,8.52,3.03,16.17,6.45,23.1.56,1.28,1.19,2.55,1.99,3.74,2.47,4.38,5.58,8.44,9.16,12.18,4.14,4.3,8.68,7.81,13.54,10.59,2.95,1.75,6.05,3.26,9.32,4.3v.08c6.77,2.47,14.1,3.74,22.06,3.74,2.07,0,4.06-.08,6.05-.24h.08c7.09-.64,13.78-2.39,20.07-5.26,5.5-2.47,10.75-5.81,15.61-10.04,2.07-1.75,4.06-3.74,6.05-5.81,8.12-8.68,13.78-18.08,16.88-28.19,1.99-6.45,3.03-13.14,3.03-20.07,0-1.04,0-1.99-.16-2.95ZM183.66,228.58c-1.04,2.31-2.23,4.62-3.58,6.77-1.35,2.15-2.71,4.14-4.3,5.89-7.17,8.84-16.25,13.22-27.08,13.22-8.12,0-15.69-2.63-22.78-7.73-7.09-5.18-12.34-13.46-15.61-24.85-1.04-3.58-1.91-7.09-2.63-10.59-1.19-5.89-1.99-11.63-2.15-17.36-.16-.48-.16-.88-.08-1.27-.16-1.35-.16-2.71-.16-4.06,0-5.97.88-12.34,2.71-19.19.48-1.99,1.12-3.98,1.75-6.05,3.03-9.08,7.73-16.88,14.26-23.41.48-.48,1.04-1.04,1.59-1.43,2.15-1.99,4.46-3.5,6.93-4.78,4.7-2.47,9.96-3.66,15.85-3.66,12.9,0,23.42,6.13,31.38,18.4,1.83,2.87,3.5,5.81,4.94,8.84v.08c1.43,2.95,2.63,6.05,3.58,9.24,2.31,7.25,3.42,14.97,3.58,23.26v1.27c0,7.41-.8,14.42-2.39,21.03-1.27,5.81-3.19,11.23-5.81,16.41Z"/>
        <g>
          <path class="cls-2" d="M210.02,363.41c-2.63-11.63-7.96-21.58-16.01-29.87-2.31-2.39-4.7-4.54-7.25-6.29-4.3-3.5-9-6.13-13.94-8.04.88,2.39,1.59,4.86,2.15,7.33.64,2.71,1.11,5.34,1.27,7.88,2.47,3.19,4.62,7.01,6.37,11.39.96,2.07,1.67,4.3,2.39,6.69.8,2.71,1.51,5.42,2.07,8.04,1.67,7.49,2.63,14.81,2.79,22.06h1.27c7.41,0,14.34.8,20.95,2.31.08-.8.08-1.51.08-2.31,0-6.85-.72-13.22-2.15-19.19ZM210.02,363.41c-2.63-11.63-7.96-21.58-16.01-29.87-2.31-2.39-4.7-4.54-7.25-6.29-4.3-3.5-9-6.13-13.94-8.04-7.25-2.95-15.13-4.38-23.73-4.38-1.04,0-2.07,0-3.11.08-6.29.24-12.26,1.35-17.84,3.35-1.67.48-3.34,1.19-4.94,1.91h-.08c-7.96,3.5-15.29,8.92-21.98,16.01-3.74,4.06-6.93,8.2-9.56,12.5-.4.48-.64.96-.88,1.51-3.9,6.45-6.61,13.3-8.04,20.47-.96,4.46-1.43,9.08-1.43,13.78,0,5.58.64,10.99,2.07,16.17,1.91,7.8,5.42,15.05,10.35,21.9,1.67,2.39,3.5,4.7,5.58,6.93,8.52,9.32,18.56,15.29,30.26,17.92,2.87.72,5.81,1.19,8.84,1.43,2.15.24,4.22.32,6.45.32,13.14,0,24.93-3.43,35.36-10.43,2.31-1.51,4.46-3.11,6.45-4.78,3.19-2.63,6.05-5.5,8.68-8.6.64-.72,1.27-1.51,1.91-2.39,2.63-3.35,4.86-6.93,6.85-10.75.64-1.27,1.19-2.47,1.75-3.66,3.82-8.44,5.97-16.25,6.29-23.57.08-.8.08-1.51.08-2.31,0-6.85-.72-13.22-2.15-19.19ZM185.49,411.04c-.24.72-.48,1.43-.8,2.15-2.95,8.28-7.49,15.37-13.38,21.34-6.53,6.53-14.65,9.8-24.37,9.8-4.78,0-9.16-.8-13.3-2.47-2.39-1.04-4.7-2.23-6.85-3.9-4.22-2.87-7.96-6.93-11.31-12.03-3.5-5.42-6.29-11.23-8.28-17.44-2.23-7.01-3.5-14.49-3.66-22.54-.08-.88-.08-1.75-.08-2.71v-.64c.08-7.88.96-15.29,2.79-22.3,1.99-7.65,5.02-14.65,9-21.18,7.88-12.74,18.32-19.11,31.38-19.11,8.12,0,15.69,2.55,22.78,7.73,2.55,1.83,4.78,4.06,6.85,6.69,2.47,3.19,4.62,7.01,6.37,11.39.96,2.07,1.67,4.3,2.39,6.69.8,2.71,1.51,5.42,2.07,8.04,1.67,7.49,2.63,14.81,2.79,22.06.08,1.12.08,2.15.08,3.27,0,5.89-.8,12.11-2.55,18.72-.56,2.15-1.19,4.3-1.91,6.45Z"/>
          <path class="cls-2" d="M108.08,384.04c-1.51.48-3.11,1.12-4.54,1.91-.08-.88-.08-1.75-.08-2.71v-.64c1.51.56,3.11,1.04,4.62,1.43Z"/>
        </g>
      </g>
      <g>
        <path class="cls-2" d="M148.85,195.13q-.08-.08-.16-.16l-.24-.24c-.8-.72-1.59-1.43-2.39-2.23-1.12-.96-2.15-1.99-3.03-3.11-.96-.95-1.83-1.91-2.55-2.87h-.08c-5.02-1.04-10.11-3.03-15.61-6.05-6.05-3.35-11.71-7.01-16.81-11.07-3.66-2.79-7.09-5.81-10.27-9-1.12-1.12-2.31-2.39-3.27-3.66-4.22-4.78-7.96-10.59-11.39-17.28-4.3-8.6-6.45-17.44-6.53-26.68,0-4.54.8-8.68,2.47-12.66,1.67-4.14,4.3-7.96,7.8-11.47,1.27-1.27,2.55-2.39,3.9-3.43-.64.08-1.19.08-1.83.08-1.75,0-3.5-.08-5.18-.24-5.97,6.29-10.43,13.22-13.38,20.79-.16.4-.32.8-.48,1.19-1.04,2.95-1.91,5.97-2.55,9.08-.56,3.11-1.04,6.13-1.19,9.16-.32,3.98-.32,7.96.16,11.87.4,4.94,1.35,9.8,2.95,14.57,3.74,11.47,8.76,20.39,15.13,26.68l.48.48c1.12,1.12,2.23,2.15,3.34,3.19,5.02,4.46,10.27,8.12,15.61,10.99h.08c.56.32,1.11.64,1.67.88,8.36,4.06,17.12,6.21,26.36,6.37,7.01.08,13.62-.88,19.83-2.87-.96-.72-1.91-1.51-2.87-2.31ZM148.85,195.13q-.08-.08-.16-.16l-.24-.24c-.8-.64-1.59-1.43-2.39-2.23-1.12-.96-2.15-1.99-3.03-3.11-.96-.95-1.83-1.91-2.55-2.87h-.08c-5.02-1.04-10.11-3.03-15.61-6.05-6.05-3.35-11.71-7.01-16.81-11.07-3.66-2.79-7.09-5.81-10.27-9-1.12-1.12-2.31-2.39-3.27-3.66-4.22-4.78-7.96-10.59-11.39-17.28-4.3-8.6-6.45-17.44-6.53-26.68,0-4.54.8-8.68,2.47-12.66,1.67-4.14,4.3-7.96,7.8-11.47,1.27-1.27,2.55-2.39,3.9-3.43-.64.08-1.19.08-1.83.08-1.75,0-3.5-.08-5.18-.24-5.97,6.29-10.43,13.22-13.38,20.79-.16.4-.32.8-.48,1.19-1.04,2.95-1.91,5.97-2.55,9.08-.56,3.11-1.04,6.13-1.19,9.16-.32,3.98-.32,7.96.16,11.87.4,4.94,1.35,9.8,2.95,14.57,3.74,11.47,8.76,20.39,15.13,26.68l.48.48c1.12,1.12,2.23,2.15,3.34,3.19,5.02,4.46,10.27,8.12,15.61,10.99h.08c.56.32,1.11.64,1.67.88,8.36,4.06,17.12,6.21,26.36,6.37,7.01.08,13.62-.88,19.83-2.87-.96-.72-1.91-1.51-2.87-2.31ZM190.82,108.24c-.48-1.59-1.12-3.11-1.91-4.62-3.19-7.01-7.65-13.38-13.3-19.03-.48-.48-.96-.96-1.43-1.27-10.75-10.35-23.89-16.17-39.42-17.52-1.19-.16-2.39-.24-3.66-.32-12.9-.56-24.61,2.47-34.96,9.24-3.9,2.39-7.57,5.42-11.15,9-.48.48-.88.88-1.27,1.35-5.97,6.29-10.43,13.22-13.38,20.79-.16.4-.32.8-.48,1.19-1.04,2.95-1.91,5.97-2.55,9.08-.56,3.11-1.04,6.13-1.19,9.16-.32,3.98-.32,7.96.16,11.87.4,4.94,1.35,9.8,2.95,14.57,3.74,11.47,8.76,20.39,15.13,26.68l.48.48c1.12,1.12,2.23,2.15,3.34,3.19,5.02,4.46,10.27,8.12,15.61,10.99h.08c.56.32,1.11.64,1.67.88,8.36,4.06,17.12,6.21,26.36,6.37,7.01.08,13.62-.88,19.83-2.87.48-.16.88-.24,1.35-.48,6.13-2.07,11.87-5.18,17.2-9.4,2.31-1.75,4.46-3.66,6.61-5.81,4.62-4.62,8.44-9.72,11.39-15.13,2.79-5.18,4.86-10.75,5.97-16.72.48-1.83.8-3.74.96-5.73.48-3.66.64-7.49.48-11.39-.32-8.84-1.91-17.04-4.86-24.53ZM174.98,176.33c-3.82,3.82-8.28,6.69-13.46,8.6-2.55.88-5.26,1.59-8.12,2.07-4.06.64-8.36.48-12.9-.48h-.08c-5.02-1.04-10.11-3.03-15.61-6.05-6.05-3.35-11.71-7.01-16.81-11.07-3.66-2.79-7.09-5.81-10.27-9-1.12-1.12-2.31-2.39-3.27-3.66-4.22-4.78-7.96-10.59-11.39-17.28-4.3-8.6-6.45-17.44-6.53-26.68,0-4.54.8-8.68,2.47-12.66,1.67-4.14,4.3-7.96,7.8-11.47,1.27-1.27,2.55-2.39,3.9-3.43.32-.24.64-.48.96-.72,7.17-5.1,15.61-7.01,25.49-5.81,1.59.08,3.27.4,4.94.72,10.91,2.23,20.87,6.93,30.1,14.1,2.95,2.31,5.73,4.78,8.52,7.57,1.99,1.99,3.9,4.06,5.58,6.13,6.93,8.04,11.95,16.65,15.13,25.88.88,2.47,1.59,5.02,2.23,7.57,1.43,5.97,1.75,11.55,1.04,16.64v.08c-1.04,7.25-4.3,13.54-9.72,18.96ZM148.85,195.13q-.08-.08-.16-.16l-.24-.24c-.8-.72-1.59-1.43-2.39-2.23-1.12-.96-2.15-1.99-3.03-3.11-.96-.95-1.83-1.91-2.55-2.87h-.08c-5.02-1.04-10.11-3.03-15.61-6.05-6.05-3.35-11.71-7.01-16.81-11.07-3.66-2.79-7.09-5.81-10.27-9-1.12-1.12-2.31-2.39-3.27-3.66-4.22-4.78-7.96-10.59-11.39-17.28-4.3-8.6-6.45-17.44-6.53-26.68,0-4.54.8-8.68,2.47-12.66,1.67-4.14,4.3-7.96,7.8-11.47,1.27-1.27,2.55-2.39,3.9-3.43-.64.08-1.19.08-1.83.08-1.75,0-3.5-.08-5.18-.24-5.97,6.29-10.43,13.22-13.38,20.79-.16.4-.32.8-.48,1.19-1.04,2.95-1.91,5.97-2.55,9.08-.56,3.11-1.04,6.13-1.19,9.16-.32,3.98-.32,7.96.16,11.87.4,4.94,1.35,9.8,2.95,14.57,3.74,11.47,8.76,20.39,15.13,26.68l.48.48c1.12,1.12,2.23,2.15,3.34,3.19,5.02,4.46,10.27,8.12,15.61,10.99h.08c.56.32,1.11.64,1.67.88,8.36,4.06,17.12,6.21,26.36,6.37,7.01.08,13.62-.88,19.83-2.87-.96-.72-1.91-1.51-2.87-2.31Z"/>
        <path class="cls-2" d="M273.02,166.93c-.56-.56-1.04-1.12-1.59-1.67-5.26,3.27-10.67,5.89-16.33,7.73-2.23.8-4.46,1.43-6.77,1.99-2.87.72-5.65,1.12-8.36,1.35-3.11,2.47-6.85,4.54-11.15,6.29,5.73,2.31,11.87,3.66,18.4,4.14,2.95.32,5.89.32,9,.24,11.87-.4,22.54-3.03,31.86-7.96-5.18-3.19-10.19-7.25-15.05-12.11ZM323.35,114.21c-.24-3.82-.96-7.57-1.99-11.15-2.71-9.8-8.12-18.72-16.09-26.76-3.5-3.42-7.17-6.45-10.99-8.92-2.79-1.75-5.65-3.35-8.6-4.62-4.06-1.83-8.36-3.19-12.82-4.06-10.27-2.07-20.15-1.99-29.79.32-1.99.4-3.9.95-5.81,1.59-6.29,2.07-11.79,4.46-16.49,7.33-3.98,2.31-7.33,4.86-10.19,7.73-2.39,2.39-4.54,4.78-6.45,7.17-5.42,6.61-9.32,13.46-11.79,20.71-.64,1.51-1.12,3.11-1.51,4.7-1.27,4.86-1.99,9.88-2.07,14.97-.08,5.81.48,11.39,1.99,16.65.8,3.5,1.99,6.85,3.5,10.04,3.03,6.61,7.41,12.74,12.98,18.4,1.35,1.35,2.79,2.71,4.3,3.9,5.26,4.54,11.07,7.96,17.28,10.43,5.73,2.31,11.87,3.66,18.4,4.14,2.95.32,5.89.32,9,.24,11.87-.4,22.54-3.03,31.86-7.96,5.97-3.11,11.39-7.09,16.33-12.03.72-.72,1.43-1.43,1.99-2.23,3.5-3.66,6.37-7.65,8.76-11.87,5.1-8.92,7.88-19.11,8.36-30.42.08-.72.08-1.35.08-1.99,0-2.15,0-4.3-.24-6.29ZM287.91,152.12c-5.26,5.18-10.75,9.64-16.49,13.14-5.26,3.27-10.67,5.89-16.33,7.73-2.23.8-4.46,1.43-6.77,1.99-2.87.72-5.65,1.12-8.36,1.35-10.83.72-19.91-2.63-27.32-10.04-5.73-5.73-9.24-12.9-10.67-21.58-1.35-8.6.8-18.16,6.53-28.51,1.91-3.42,3.82-6.69,5.97-9.8,3.19-4.86,6.69-9.24,10.43-13.38.32-.4.72-.8,1.12-1.19.8-.95,1.67-1.83,2.55-2.71,4.22-4.22,9.32-8.12,15.37-11.63,1.75-1.04,3.66-2.07,5.58-3.03,8.6-4.38,17.44-6.53,26.68-6.61.72,0,1.51,0,2.23.08,2.87.16,5.65.72,8.28,1.59,5.02,1.67,9.56,4.54,13.7,8.68,9.08,9.08,12.19,20.87,9.16,35.2-.56,2.87-1.35,5.74-2.39,8.52-1.04,3.27-2.39,6.45-3.98,9.48-3.58,7.01-8.36,13.62-14.42,19.75-.24.32-.56.64-.88.96Z"/>
        <g>
          <path class="cls-2" d="M183.66,228.58c-1.04,2.31-2.23,4.62-3.58,6.77-1.35,2.15-2.71,4.14-4.3,5.89-.4,4.14-1.43,8.44-3.34,12.9,5.5-2.47,10.75-5.81,15.61-10.04-.64-5.42-2.15-10.59-4.38-15.53ZM171.95,276.04c-1.51-1.91-3.19-3.82-4.94-5.58-.72-.72-1.43-1.35-2.15-1.99-4.14,6.45-8.68,12.34-13.7,17.6.32.24.64.56.96.88,1.27,1.27,2.55,2.63,3.74,3.98,1.19,1.35,2.39,2.71,3.42,4.06,1.12,1.43,2.15,2.79,3.19,4.22,1.04,1.35,1.91,2.79,2.79,4.22.56-.48,1.12-.96,1.67-1.51,4.86-4.86,8.92-9.88,12.11-15.05-1.19-2.39-2.63-4.78-4.22-7.01-.88-1.35-1.83-2.63-2.87-3.82ZM188.04,244.11c-.64-5.42-2.15-10.59-4.38-15.53-3.03-6.93-7.49-13.38-13.38-19.27-1.12-1.11-2.23-2.15-3.42-3.03,0-.08-.08-.08-.08-.08-4.3-3.82-8.76-6.93-13.7-9.24-1.35-.72-2.71-1.35-4.22-1.83q-.08-.08-.16-.16c-8.28-3.27-17.44-4.78-27.4-4.38-5.58.16-10.83.88-15.85,2.07-.56.08-1.11.24-1.59.4h-.08c-7.33,1.83-14.02,4.86-20.07,8.84-.16.08-.24.16-.4.32h-.08c-3.5,2.39-6.77,5.02-9.88,8.12l-.08.08-.16.16c-2.55,2.55-4.78,5.18-6.77,8.04-.08,0-.08.08-.08.08-1.04,1.35-1.99,2.71-2.71,4.14-1.59,2.31-2.87,4.78-3.9,7.33-2.23,4.86-3.74,10.04-4.54,15.53-.64,3.03-.96,6.13-1.12,9.4-.64,12.58,2.23,23.89,8.68,34.09,1.51,2.55,3.27,5.02,5.26,7.41,1.35,1.59,2.79,3.19,4.3,4.7,9.32,9.24,20.15,15.13,32.41,17.6,2.39.48,4.7.8,7.01,1.04,3.9.48,7.73.56,11.47.24h.08c1.43-.08,2.87-.16,4.22-.4,4.38-.48,8.6-1.43,12.82-2.79,1.99-.64,3.9-1.35,5.73-2.07,7.8-3.11,14.26-6.93,19.27-11.47.56-.48,1.12-.96,1.67-1.51,4.86-4.86,8.92-9.88,12.11-15.05,6.29-10.19,9.56-21.02,9.72-32.57.08-3.5-.16-6.93-.72-10.19ZM148.93,288.47c-4.22,4.22-9.32,8.12-15.37,11.63-1.75,1.04-3.66,2.07-5.58,3.03-.88.48-1.75.88-2.63,1.19-7.73,3.58-15.77,5.34-24.05,5.34-9.24.08-17.28-3.35-24.13-10.27-3.42-3.42-5.97-7.09-7.65-11.23-1.04-2.31-1.75-4.86-2.15-7.49-.88-5.02-.72-10.51.56-16.49,1.35-6.53,3.58-12.82,6.77-18.8,3.34-6.45,7.88-12.58,13.38-18.32.48-.56.96-1.03,1.51-1.59.16-.16.4-.4.56-.48,5.58-5.57,11.39-10.11,17.52-13.7,6.77-4.06,13.94-6.93,21.5-8.76,14.57-3.43,26.44-.48,35.68,8.76,5.73,5.65,9.24,12.82,10.67,21.5.4,2.71.48,5.57.24,8.44-.4,4.14-1.43,8.44-3.34,12.9-.88,2.31-2.07,4.78-3.42,7.25-1.35,2.47-2.71,4.78-4.14,7.09-4.14,6.45-8.68,12.34-13.7,17.6-.64.8-1.43,1.59-2.23,2.39ZM174.82,279.87c-.88-1.35-1.83-2.63-2.87-3.82-1.51-1.91-3.19-3.82-4.94-5.58-.72-.72-1.43-1.35-2.15-1.99-4.14,6.45-8.68,12.34-13.7,17.6.32.24.64.56.96.88,1.27,1.35,2.55,2.63,3.74,3.98,1.19,1.35,2.39,2.71,3.42,4.06,1.12,1.43,2.15,2.79,3.19,4.22.96,1.35,1.91,2.79,2.79,4.22.56-.48,1.12-.96,1.67-1.51,4.86-4.86,8.92-9.88,12.11-15.05-1.19-2.39-2.63-4.78-4.22-7.01ZM183.66,228.58c-1.04,2.31-2.23,4.62-3.58,6.77-1.35,2.15-2.71,4.14-4.3,5.89-.4,4.14-1.43,8.44-3.34,12.9,5.5-2.47,10.75-5.81,15.61-10.04-.64-5.42-2.15-10.59-4.38-15.53Z"/>
          <path class="cls-2" d="M92.15,228.74c-1.35-.72-2.71-1.27-4.06-1.67.48-.56.96-1.03,1.51-1.59.16-.16.4-.4.56-.48.56,1.28,1.19,2.55,1.99,3.74Z"/>
        </g>
      </g>
      <g>
        <path class="cls-2" d="M351.54,63.24c-.24-16.25-6.21-30.82-17.92-43.56-11.95-13.14-27.16-19.67-45.56-19.67-13.14,0-24.93,3.5-35.36,10.43-10.43,7.01-18.4,15.85-23.89,26.52-5.42,10.75-8.12,20.55-8.12,29.55,0,.48,0,.96.08,1.43.08,8.28,1.19,15.93,3.5,22.86.16.72.4,1.51.64,2.23,3.03,8.52,7.65,16.09,13.94,22.54,4.94,5.1,10.35,9.16,16.25,12.11.32.24.64.4,1.04.48,5.73,2.87,12.03,4.7,18.72,5.49,2.87.48,5.89.64,9,.64,6.85,0,13.3-.96,19.35-2.87,5.42-1.67,10.59-4.14,15.45-7.33,1.67-1.12,3.34-2.31,4.94-3.58,2.79-2.23,5.5-4.78,8.12-7.57,6.05-6.53,10.75-13.46,13.94-20.79.8-1.43,1.35-2.87,1.83-4.38,2.79-7.33,4.14-15.05,4.14-23.1,0-.48,0-.96-.08-1.43ZM321.36,103.06c.08.08,0,.08,0,.08-1.12,2.39-2.39,4.7-3.74,6.93-3.11,4.94-6.53,8.92-10.43,11.87-5.97,4.78-12.98,7.17-20.95,7.17-5.42,0-10.59-1.12-15.61-3.5-2.47-1.11-4.86-2.55-7.17-4.22-3.27-2.39-6.13-5.42-8.6-9.16-2.87-4.3-5.18-9.48-7.01-15.61-1.83-6.45-3.19-12.82-3.9-19.11-.72-4.86-1.04-9.56-1.04-14.26,0-1.35.08-2.79.16-4.22.4-6.53,1.83-13.46,4.3-20.95,2.95-9.16,7.73-16.96,14.18-23.49,6.53-6.53,14.65-9.8,24.37-9.8,12.98,0,23.42,6.13,31.46,18.4,6.21,9.4,9.96,19.99,11.39,31.86.4,3.5.64,7.09.64,10.83,0,2.95-.16,5.81-.4,8.68-.88,10.35-3.34,19.83-7.65,28.51Z"/>
        <path class="cls-2" d="M362.22,191.78c0-.72,0-1.43.08-2.23-5.73-1.27-11.23-3.18-16.33-5.73-2.39-1.12-4.7-2.39-6.93-3.74-2.15-1.35-4.14-2.79-5.97-4.38-4.14-.4-8.44-1.59-12.9-3.42,2.47,5.65,5.89,10.91,10.19,15.85,1.75,2.07,3.74,4.06,5.81,6.05,8.76,8.12,18.08,13.7,28.19,16.88-1.43-5.97-2.15-12.34-2.15-19.27ZM447.59,136.43c-.64-3.27-1.59-6.37-2.71-9.4-1.67-4.14-3.74-8.12-6.21-11.87-5.73-8.52-12.58-15.37-20.79-20.55-1.83-1.19-3.74-2.31-5.73-3.35-5.73-2.87-11.15-5.02-16.33-6.29-4.62-1.19-9-1.83-13.22-1.83-3.35,0-6.53.16-9.64.56-8.52.8-16.25,2.95-23.26,6.29-1.35.64-2.71,1.35-4.06,2.15-4.38,2.55-8.44,5.57-12.11,9.16-4.14,3.98-7.57,8.28-10.19,12.9-1.99,3.11-3.58,6.45-4.7,9.88-2.55,6.85-3.82,14.26-3.82,22.22,0,2.23.08,4.46.32,6.61.64,6.77,2.31,13.22,5.02,19.27v.08c2.47,5.65,5.89,10.91,10.19,15.85,1.75,2.07,3.74,4.06,5.81,6.05,8.76,8.12,18.08,13.7,28.19,16.88,6.37,1.99,13.06,3.03,19.99,3.03,1.04,0,1.99,0,2.95-.16,5.42-.16,10.67-.96,15.61-2.55,9.56-2.79,18.32-7.88,26.44-15.29.32-.32.64-.56.96-.96,1.43-1.35,2.87-2.71,4.14-4.22,2.63-2.95,4.86-6.05,6.69-9.32,5.34-9.08,7.96-19.43,7.96-31.06,0-4.94-.48-9.64-1.51-14.1ZM425.93,179.83c-2.79,1.83-5.65,3.42-8.68,4.78-2.95,1.51-6.05,2.71-9.24,3.58-7.25,2.39-15.13,3.58-23.49,3.66h-1.27c-7.41,0-14.34-.8-20.95-2.31-5.73-1.27-11.23-3.18-16.33-5.73-2.39-1.12-4.7-2.39-6.93-3.74-2.15-1.35-4.14-2.79-5.97-4.38-8.76-7.17-13.06-16.17-13.06-27,0-8.04,2.55-15.69,7.73-22.78,5.1-7.09,13.38-12.27,24.77-15.61,3.74-1.04,7.41-1.99,11.07-2.63,5.89-1.19,11.71-1.91,17.44-2.15.4-.08.8-.08,1.19,0,1.27-.16,2.47-.16,3.66-.16,6.05,0,12.58.88,19.51,2.79,1.83.48,3.74,1.04,5.65,1.67,9.08,2.95,16.96,7.73,23.49,14.18.48.48,1.04,1.04,1.43,1.59,1.91,2.15,3.5,4.46,4.78,6.93,2.39,4.7,3.58,9.96,3.58,15.85,0,12.98-6.13,23.41-18.4,31.46Z"/>
        <g>
          <path class="cls-2" d="M163.35,185.57c-.64-.24-1.27-.4-1.83-.64-2.55.88-5.26,1.59-8.12,2.07-4.06.64-8.36.48-12.9-.48.72.96,1.59,1.91,2.55,2.87.88,1.12,1.91,2.15,3.03,3.11.8.8,1.59,1.51,2.39,2.23l.24.24q.08.08.16.16c.96.8,1.91,1.59,2.87,2.31.48-.16.88-.24,1.35-.48,6.13-2.07,11.87-5.18,17.2-9.4-2.23-.56-4.54-1.19-6.93-1.99ZM259.4,144.71c-.32-5.81-1.43-11.31-3.27-16.57-.32-1.19-.8-2.39-1.35-3.58v-.16c-3.58-8.44-9.08-16.17-16.57-23.18-3.9-3.66-7.96-6.85-12.19-9.4-.56-.4-1.12-.8-1.75-1.03-6.37-3.9-13.14-6.53-20.15-7.96-4.62-1.04-9.32-1.51-14.18-1.51-5.42,0-10.75.64-15.77,1.99-7.8,1.83-15.13,5.26-21.98,10.19-2.47,1.67-4.86,3.58-7.25,5.74-9.24,8.52-15.29,18.64-17.92,30.34-.72,2.87-1.19,5.81-1.43,8.92-.24,1.99-.32,4.14-.32,6.29,0,13.14,3.5,24.93,10.43,35.44,1.51,2.23,3.03,4.3,4.7,6.29h.08c.72.96,1.59,1.91,2.55,2.87.88,1.12,1.91,2.15,3.03,3.11.8.8,1.59,1.51,2.39,2.23l.24.24q.08.08.16.16c.96.8,1.91,1.59,2.87,2.31,3.27,2.47,6.77,4.7,10.51,6.61,1.51.8,3.03,1.51,4.54,2.15,0,0,.08,0,.08.08,8.04,3.58,15.61,5.57,22.62,5.89.8.08,1.51.08,2.31.08,6.85,0,13.22-.72,19.19-2.15,11.71-2.63,21.66-7.96,29.87-16.01,2.39-2.31,4.54-4.78,6.37-7.33,3.42-4.3,5.97-8.84,7.88-13.78,3.03-7.25,4.46-15.29,4.46-23.89,0-1.51-.08-2.95-.16-4.38ZM221.89,185.01c-2.71.8-5.34,1.51-8.04,2.07-7.41,1.67-14.81,2.71-21.98,2.79-1.12.16-2.23.16-3.34.16-5.65,0-11.79-.8-18.24-2.47-2.23-.56-4.54-1.19-6.93-1.99-.64-.24-1.27-.4-1.83-.64-8.28-3.03-15.61-7.57-21.66-13.62-6.53-6.45-9.8-14.57-9.8-24.37,0-4.7.8-9.16,2.47-13.22.96-2.47,2.31-4.78,3.9-6.93,2.95-4.22,6.93-7.96,12.03-11.23,5.58-3.66,11.47-6.45,17.84-8.36,7.01-2.23,14.57-3.43,22.62-3.58.72-.08,1.43-.08,2.23-.08h1.19c7.8.08,15.21,1.04,22.14,2.87,7.49,1.99,14.42,4.94,20.87,8.92,12.66,7.8,19.03,18.32,19.03,31.38,0,8.04-2.55,15.61-7.73,22.7-1.83,2.55-4.06,4.86-6.69,6.93-3.11,2.47-6.85,4.54-11.15,6.29-2.15.88-4.46,1.67-6.93,2.39Z"/>
          <path class="cls-2" d="M192.34,103.54c-.64,1.51-1.12,3.11-1.51,4.7-.48-1.59-1.12-3.11-1.91-4.62.72-.08,1.43-.08,2.23-.08h1.19Z"/>
        </g>
      </g>
      <g>
        <path class="cls-2" d="M491.16,84.98c-9.32-9.32-20.07-15.13-32.41-17.6-12.35-2.47-24.21-1.83-35.6,1.83-11.47,3.74-20.31,8.84-26.68,15.13-.24.24-.4.4-.64.64-5.89,6.05-10.51,12.35-14.02,18.88-.24.56-.56,1.12-.8,1.67-4.14,8.36-6.21,17.12-6.37,26.36-.08,6.85.8,13.3,2.71,19.35.16.64.32,1.2.64,1.75,1.91,5.97,4.94,11.55,9,16.8,1.83,2.47,3.9,4.86,6.21,7.17,4.54,4.54,9.56,8.28,14.81,11.23,5.26,2.87,10.91,4.94,16.96,6.13,1.75.4,3.5.72,5.34.8,3.74.56,7.73.72,11.87.56,8.92-.32,17.12-1.91,24.61-4.78,1.35-.48,2.79-1.04,4.06-1.67,7.25-3.26,13.7-7.73,19.51-13.54.32-.32.64-.64.88-.96,11.31-11.79,17.36-26.28,18.24-43.64.8-17.76-5.34-33.13-18.32-46.11ZM481.12,152.6c-2.23,2.79-4.7,5.57-7.33,8.2-2.07,2.07-4.3,4.06-6.45,5.89-8.12,6.85-16.88,11.79-26.2,14.89-2.31.88-4.62,1.51-6.93,2.07-6.13,1.51-11.79,1.83-16.96.96-7.17-1.04-13.38-4.3-18.72-9.64-3.98-3.98-6.93-8.76-8.76-14.18-.8-2.31-1.43-4.78-1.83-7.41-.72-4.22-.56-8.68.48-13.3,1.12-4.86,3.11-9.96,5.97-15.21,3.34-6.05,7.01-11.63,10.99-16.72,2.79-3.66,5.89-7.17,9.08-10.35,1.04-1.03,2.23-2.15,3.42-3.18h.08c4.86-4.22,10.67-8.04,17.52-11.55,8.52-4.3,17.44-6.45,26.6-6.53,9.24,0,17.28,3.42,24.21,10.27,9.16,9.16,12.19,20.95,9.16,35.28-2.23,10.99-7.09,21.18-14.34,30.5Z"/>
        <path class="cls-2" d="M401.96,255.42c-.8-2.31-1.51-4.7-2.07-7.09-.64-2.71-1.12-5.26-1.27-7.8-2.63-3.11-4.78-6.77-6.61-11.07-2.15,5.65-3.5,11.71-3.98,18.16-.24,2.79-.24,5.65-.16,8.6.4,11.87,3.03,22.46,7.96,31.86,3.19-5.18,7.25-10.19,12.11-15.05.56-.56,1.11-1.03,1.67-1.51-3.19-5.18-5.81-10.51-7.65-16.09ZM515.93,243.15c-.4-1.99-.96-3.98-1.59-5.89-2.07-6.29-4.54-11.79-7.33-16.49-2.31-3.9-4.94-7.33-7.81-10.19-2.47-2.47-5.02-4.78-7.57-6.77-6.61-5.26-13.54-9.16-20.71-11.63-1.35-.56-2.79-.96-4.14-1.27-4.94-1.35-9.96-2.07-15.13-2.15-6.05-.08-11.79.64-17.2,2.15-3.27.8-6.45,1.91-9.48,3.43-6.61,2.95-12.66,7.33-18.32,12.98-1.35,1.35-2.63,2.71-3.74,4.06-4.78,5.5-8.44,11.55-10.91,18.08-2.15,5.65-3.5,11.71-3.98,18.16-.24,2.79-.24,5.65-.16,8.6.4,11.87,3.03,22.46,7.96,31.86,3.03,5.97,7.09,11.47,12.03,16.41.72.72,1.43,1.35,2.15,1.99,3.66,3.43,7.57,6.29,11.79,8.68,9,5.02,19.19,7.88,30.66,8.44.56.08,1.04.08,1.51,0,2.15.08,4.3.08,6.37-.16,3.9-.24,7.65-.88,11.23-1.91,9.88-2.71,18.88-8.12,27-16.25,3.5-3.5,6.45-7.17,8.92-10.99,1.83-2.79,3.42-5.66,4.62-8.68,1.83-4.06,3.19-8.28,4.06-12.74,2.07-10.27,1.99-20.15-.24-29.71ZM505.33,286.71c-1.59,5.02-4.46,9.56-8.6,13.7-9.16,9.16-20.95,12.18-35.28,9.16-3.11-.64-6.21-1.51-9.24-2.55-3.19-1.11-6.29-2.47-9.32-4.14-6.85-3.5-13.22-8.2-19.19-14.1-.32-.24-.64-.56-.96-.87-5.18-5.18-9.56-10.67-13.14-16.41-3.19-5.18-5.81-10.51-7.65-16.09-.8-2.31-1.51-4.7-2.07-7.09-.64-2.71-1.12-5.26-1.27-7.8-.96-10.99,2.39-20.31,9.96-27.88,5.73-5.66,12.9-9.24,21.58-10.59,8.6-1.43,18.16.8,28.51,6.45,3.27,1.83,6.37,3.66,9.4,5.74,4.94,3.18,9.48,6.77,13.7,10.67.32.16.72.48,1.04.88,1.04.88,1.99,1.83,2.95,2.79,4.22,4.22,8.04,9.24,11.63,15.29,1.04,1.83,2.07,3.74,3.11,5.73,4.3,8.52,6.45,17.44,6.53,26.6,0,.72,0,1.43-.08,2.15-.16,2.95-.72,5.73-1.59,8.36Z"/>
        <g>
          <path class="cls-2" d="M382.21,105.53c-.08-.56-.16-1.11-.4-1.67-1.83-7.33-4.78-14.02-8.84-20.15-2.47-3.74-5.42-7.33-8.68-10.59-3.9-3.98-8.2-7.25-12.74-9.88-6.85-4.22-14.5-6.93-22.78-8.2-2.95-.56-5.89-.88-9-1.04-12.58-.56-23.97,2.31-34.09,8.76-2.47,1.43-4.94,3.18-7.25,5.18-1.59,1.35-3.19,2.79-4.78,4.38-9.32,9.24-15.21,20.07-17.68,32.42-.48,2.47-.88,5.02-1.12,7.49-.4,4.14-.4,8.2-.08,12.19v.16c.08,1.03.16,2.07.32,3.11.48,4.22,1.43,8.44,2.79,12.66.48,1.51,1.04,2.95,1.51,4.3v.08c3.27,8.44,7.25,15.29,12.03,20.55.56.56,1.04,1.12,1.59,1.67,3.98,3.98,7.96,7.33,12.19,10.19.88.64,1.83,1.28,2.79,1.83l.08.08c10.19,6.37,21.03,9.64,32.49,9.8,3.35.08,6.61-.16,9.8-.72,5.5-.64,10.67-2.07,15.61-4.3,7.09-3.03,13.62-7.57,19.59-13.54.8-.8,1.51-1.59,2.15-2.39,4.3-4.54,7.73-9.56,10.27-14.89.88-1.67,1.59-3.35,2.23-5.18,3.11-8.04,4.46-16.88,4.14-26.52-.24-5.58-.88-10.83-2.15-15.77ZM363.65,164.86c-5.73,5.73-12.9,9.32-21.58,10.67-2.95.48-5.89.48-9,.16-4.14-.4-8.44-1.59-12.9-3.42v-.08c-2.15-.88-4.38-1.91-6.69-3.19-2.47-1.35-4.78-2.71-7.09-4.22-6.45-3.98-12.34-8.52-17.6-13.62-.8-.64-1.59-1.43-2.39-2.23-4.14-4.14-8.04-9.24-11.55-15.29-1.12-1.83-2.15-3.66-3.11-5.65-.4-.8-.8-1.59-1.11-2.39-3.58-7.8-5.34-15.93-5.42-24.29,0-9.16,3.43-17.28,10.27-24.13,3.34-3.35,7.09-5.89,11.15-7.65h.08c2.39-1.04,4.86-1.75,7.49-2.15,0-.08.08,0,.08,0,5.02-.88,10.51-.64,16.41.56,6.37,1.35,12.5,3.5,18.32,6.61,6.53,3.26,12.66,7.73,18.48,13.22.64.56,1.27,1.19,1.91,1.83.16.16.24.24.32.4,5.57,5.57,10.19,11.47,13.86,17.68,4.06,6.85,7.01,14.02,8.76,21.5,3.42,14.57.56,26.44-8.68,35.68Z"/>
          <path class="cls-2" d="M349.71,90c-1.35.64-2.71,1.35-4.06,2.15.8-1.43,1.35-2.87,1.83-4.38.64.56,1.27,1.19,1.91,1.83.16.16.24.24.32.4Z"/>
        </g>
      </g>
      <g>
        <path class="cls-2" d="M563.95,252.71c-6.93-10.43-15.77-18.4-26.52-23.81-10.75-5.42-20.55-8.12-29.55-8.12h-.88c-8.52.08-16.33,1.19-23.42,3.58-.64.08-1.19.32-1.83.56-8.68,2.95-16.33,7.65-22.94,14.02-5.1,4.94-9.16,10.35-12.03,16.25-.32.32-.48.64-.56,1.04-2.95,5.81-4.78,12.11-5.5,18.88-.48,2.87-.64,5.73-.64,8.76,0,6.69.88,13.06,2.79,19.03,1.67,5.58,4.14,10.83,7.41,15.77,1.11,1.67,2.31,3.35,3.58,4.94h.08c2.15,2.79,4.7,5.49,7.49,8.12,6.53,6.05,13.38,10.75,20.71,14.02,1.59.72,3.19,1.43,4.78,1.91,7.25,2.71,14.81,3.98,22.78,3.98.64,0,1.27,0,1.91-.08,16.09-.4,30.42-6.37,43.09-17.84,13.14-12.03,19.67-27.16,19.67-45.56,0-13.14-3.42-24.93-10.43-35.44ZM551.29,317.38c-9.32,6.13-19.75,9.88-31.38,11.39-3.66.48-7.49.72-11.39.72-2.79,0-5.5-.08-8.2-.32-10.43-.88-20.07-3.42-28.75-7.65-2.47-1.12-4.86-2.39-7.17-3.82-5.1-3.11-9.16-6.69-12.11-10.67h-.08c-4.62-5.97-6.93-12.82-6.93-20.71,0-5.42,1.11-10.51,3.42-15.45,1.12-2.55,2.55-4.94,4.3-7.33,2.47-3.35,5.5-6.29,9.32-8.76,4.3-2.79,9.48-5.1,15.53-6.85,6.61-1.91,13.14-3.35,19.51-4.06,4.62-.64,9.24-.96,13.78-.96,1.59,0,3.19.08,4.78.24,6.37.4,13.14,1.83,20.47,4.22,9.08,3.03,16.88,7.73,23.42,14.26,6.53,6.53,9.8,14.65,9.8,24.37,0,12.9-6.13,23.41-18.32,31.38Z"/>
        <path class="cls-2" d="M386.67,330.04c-2.23,1.91-4.3,3.9-6.37,6.13-8.12,8.68-13.78,18.08-16.88,28.19,5.97-1.43,12.34-2.15,19.19-2.15.72,0,1.43,0,2.23.08,1.35-5.89,3.34-11.47,5.97-16.64,1.04-2.23,2.23-4.46,3.5-6.53,1.51-2.47,3.11-4.62,4.86-6.61.56-3.98,1.75-8.2,3.58-12.58-5.73,2.47-11.07,5.81-16.09,10.11ZM490.68,373.21c-.8-8.52-2.87-16.17-6.13-23.1-.72-1.51-1.43-2.95-2.39-4.38-2.39-4.38-5.5-8.44-9.08-12.19-3.9-4.06-8.2-7.49-12.74-10.11-3.19-1.99-6.53-3.58-10.03-4.78-6.77-2.55-14.18-3.82-22.14-3.82-2.15,0-4.3.08-6.37.32h-.08c-6.69.56-13.06,2.15-18.96,4.78-5.73,2.47-11.07,5.81-16.09,10.11-2.23,1.91-4.3,3.9-6.37,6.13-8.12,8.68-13.78,18.08-16.88,28.19-1.99,6.45-3.03,13.14-3.03,20.07,0,1.04,0,1.99.16,2.95.16,5.18.96,10.19,2.31,14.97,2.79,9.8,7.88,18.8,15.45,27.08.48.48.88.96,1.35,1.35,1.43,1.59,2.95,2.95,4.46,4.22,2.95,2.55,6.05,4.78,9.32,6.61,8.92,5.02,19.03,7.49,30.42,7.49,4.86,0,9.56-.48,14.1-1.43,3.19-.64,6.37-1.59,9.4-2.79,4.14-1.59,8.12-3.66,11.95-6.21,8.6-5.73,15.53-12.82,20.71-21.11,1.12-1.75,2.15-3.58,3.11-5.42,2.95-5.81,5.1-11.39,6.37-16.72,1.19-4.46,1.75-8.68,1.75-12.82,0-3.26-.16-6.37-.56-9.4ZM464.64,411.04c-3.03,9.16-7.73,16.96-14.26,23.49-.48.48-1.03,1.04-1.59,1.43-2.15,1.91-4.46,3.5-6.93,4.78-4.7,2.39-9.96,3.58-15.85,3.58-12.9,0-23.42-6.13-31.38-18.4-1.67-2.55-3.19-5.26-4.46-7.96-1.51-2.95-2.79-6.05-3.74-9.24-2.47-7.41-3.74-15.53-3.9-24.13v-1.35c0-7.41.8-14.34,2.31-20.95,1.35-5.89,3.34-11.47,5.97-16.64,1.04-2.23,2.23-4.46,3.5-6.53,1.51-2.47,3.11-4.62,4.86-6.61,7.09-8.36,15.93-12.5,26.52-12.5,8.12,0,15.69,2.55,22.78,7.73,7.09,5.18,12.34,13.38,15.61,24.77,1.12,3.82,2.07,7.57,2.71,11.31,1.19,5.74,1.91,11.39,2.15,16.96.08.56.08,1.04,0,1.51.16,1.2.16,2.39.16,3.58,0,5.97-.88,12.42-2.79,19.19-.4,1.99-1.03,3.98-1.67,5.97Z"/>
        <g>
          <path class="cls-2" d="M491.24,174.74c-1.83-7.88-5.18-15.21-10.11-22.14-1.75-2.63-3.74-5.1-5.97-7.57-8.52-9.32-18.56-15.29-30.26-18-2.87-.72-5.89-1.19-8.92-1.43-2.07-.24-4.22-.32-6.37-.32-13.14,0-24.93,3.5-35.36,10.51-2.07,1.35-3.98,2.79-5.81,4.3-3.03,2.39-5.73,4.94-8.2,7.73-.08,0,0,.08,0,.08-1.04,1.12-1.99,2.23-2.87,3.34-2.71,3.43-5.02,7.09-7.01,11.07-.96,1.83-1.83,3.66-2.55,5.49,0,0-.08,0-.08.08-3.27,7.73-5.1,14.97-5.42,21.66-.08.8-.08,1.51-.08,2.23,0,2.31.08,4.54.32,6.69-.08.56,0,1.12.08,1.59.08,1.43.24,2.79.48,4.14.08.8.24,1.51.32,2.31.24,1.51.56,3.11.96,4.54,2.63,11.71,8.04,21.58,16.01,29.87,2.47,2.47,5.02,4.78,7.65,6.69,4.3,3.34,9,5.89,13.94,7.8,7.09,2.79,14.89,4.22,23.34,4.22,1.59,0,3.19-.08,4.7-.16,5.73-.4,11.15-1.43,16.25-3.27,1.27-.4,2.55-.88,3.82-1.43,8.44-3.5,16.17-9.08,23.1-16.49,3.74-4.06,7.01-8.2,9.64-12.5.32-.48.64-.96.8-1.43,3.98-6.53,6.61-13.38,8.04-20.55.96-4.46,1.43-9.08,1.43-13.78,0-5.26-.56-10.43-1.83-15.29ZM468.06,214.24c-1.91,7.57-4.94,14.57-8.92,21.1-7.88,12.74-18.32,19.11-31.38,19.11-8.12,0-15.69-2.63-22.78-7.73-2.39-1.75-4.54-3.82-6.37-6.21-2.63-3.11-4.78-6.77-6.61-11.07-.96-2.31-1.83-4.86-2.63-7.57-.8-2.63-1.43-5.34-2.07-7.96-1.67-7.49-2.71-14.81-2.79-22.06-.16-1.12-.16-2.15-.16-3.27,0-5.89.88-12.1,2.63-18.8.56-2.07,1.19-4.22,1.91-6.45.32-.87.56-1.75.88-2.55,3.03-8.04,7.49-14.97,13.3-20.87,6.53-6.53,14.65-9.88,24.37-9.88,4.78,0,9.16.8,13.3,2.47,2.39,1.03,4.7,2.23,6.85,3.9,4.22,2.87,7.96,6.93,11.31,12.03,3.66,5.65,6.53,11.71,8.44,18.24,2.23,7.01,3.42,14.49,3.5,22.54.08.64.08,1.27.08,1.91v1.04c-.08,7.8-1.04,15.13-2.87,22.06Z"/>
          <path class="cls-2" d="M470.93,191.14v1.04c-1.35-.56-2.79-.96-4.14-1.27,1.35-.48,2.79-1.04,4.06-1.67.08.64.08,1.27.08,1.91Z"/>
        </g>
      </g>
      <g>
        <path class="cls-2" d="M505.65,423.14c-3.74-11.39-8.76-20.31-15.13-26.68l-1.04-1.03c-5.89-5.74-12.11-10.19-18.48-13.62-.72-.32-1.35-.72-2.07-1.04-8.28-3.98-16.88-5.97-25.96-6.13-6.93-.08-13.54.88-19.75,2.87-.4.08-.88.24-1.27.48-6.05,1.99-11.71,5.02-16.96,9.16-2.39,1.75-4.78,3.82-7.01,6.05-4.78,4.78-8.6,9.96-11.55,15.53-2.71,5.1-4.7,10.51-5.81,16.25-.48,1.91-.8,3.82-.96,5.81-.48,3.66-.64,7.49-.48,11.39.32,8.84,1.91,17.04,4.86,24.53.4,1.43.96,2.79,1.67,4.14,3.19,7.25,7.73,13.7,13.54,19.51.32.32.56.56.88.8,11.71,11.39,26.28,17.44,43.64,18.32,17.76.8,33.13-5.34,46.11-18.32,9.32-9.24,15.21-20.07,17.68-32.41,2.39-12.27,1.83-24.21-1.91-35.6ZM488.05,486.3c-9.16,9.16-20.87,12.19-35.28,9.24-10.99-2.31-21.19-7.17-30.58-14.65-2.71-2.07-5.42-4.46-8.04-7.09-2.15-2.15-4.14-4.3-5.97-6.53-6.77-7.96-11.71-16.57-14.73-25.64-.96-2.39-1.67-4.86-2.23-7.33-1.35-5.89-1.75-11.31-1.04-16.33v-.08c.96-7.41,4.22-13.78,9.72-19.27,3.98-3.98,8.6-6.85,13.94-8.76,2.39-.88,4.94-1.51,7.65-1.91,4.06-.64,8.36-.48,12.82.4,5.02,1.12,10.27,3.11,15.77,6.13,5.81,3.19,11.31,6.69,16.25,10.59,3.9,2.95,7.49,6.05,10.83,9.4.96.96,1.91,1.99,2.87,3.11,4.3,4.94,8.28,10.91,11.79,17.92,4.3,8.52,6.45,17.44,6.53,26.6,0,9.24-3.42,17.28-10.27,24.21Z"/>
        <path class="cls-2" d="M326.85,388.02c-2.63-.24-5.42-.24-8.2-.16-11.87.4-22.46,3.11-31.78,8.04,5.18,3.19,10.11,7.17,14.97,12.03.56.56,1.04,1.12,1.59,1.67,4.94-3.11,10.11-5.65,15.53-7.49,2.47-.87,5.02-1.59,7.57-2.23,2.47-.64,4.94-1.04,7.25-1.19,3.19-2.63,6.93-4.86,11.39-6.69-5.73-2.23-11.79-3.58-18.32-3.98ZM384.12,435.01c-.8-3.5-1.99-6.85-3.5-10.04-3.03-6.61-7.41-12.74-13.06-18.32-1.51-1.51-3.11-2.95-4.7-4.3-5.42-4.54-11.31-7.96-17.68-10.35-5.73-2.23-11.79-3.58-18.32-3.98-2.63-.24-5.42-.24-8.2-.16-11.87.4-22.46,3.11-31.78,8.04-5.97,3.03-11.47,7.09-16.41,12.03-.72.72-1.43,1.43-1.91,2.15-3.74,3.9-6.77,8.12-9.24,12.66-4.86,8.76-7.49,18.64-7.96,29.71,0,.4-.08.8,0,1.12-.08,2.07-.08,4.06.16,5.97.08,3.9.72,7.65,1.67,11.31,2.63,10.19,8.12,19.43,16.41,27.72,3.5,3.5,7.17,6.53,11.07,9,2.79,1.83,5.58,3.35,8.52,4.62,4.06,1.83,8.36,3.19,12.82,4.06,10.03,1.99,19.83,1.99,29.23-.24,2.15-.4,4.3-.96,6.37-1.67,6.13-1.99,11.47-4.38,16.09-7.09,4.06-2.39,7.65-5.1,10.59-8.04,2.47-2.47,4.7-4.94,6.69-7.41,5.34-6.69,9.24-13.62,11.71-20.87.56-1.35.96-2.79,1.35-4.22,1.27-4.86,1.99-9.88,2.07-15.05.08-5.81-.56-11.39-1.99-16.65ZM349.71,482.16c-.24.32-.48.56-.8.88-.8.95-1.75,1.91-2.63,2.79-4.3,4.3-9.56,8.28-15.77,11.79-1.67,1.04-3.34,1.99-5.18,2.87-8.6,4.3-17.44,6.53-26.68,6.53-.72,0-1.43,0-2.15-.08-2.87-.16-5.58-.64-8.2-1.51-5.02-1.67-9.64-4.54-13.86-8.68-9.08-9.16-12.19-20.87-9.16-35.2.64-3.27,1.59-6.53,2.71-9.64,1.12-3.11,2.47-6.13,4.06-9.08,3.5-6.77,8.2-13.14,14.02-19.11.32-.32.56-.56.88-.88,5.26-5.26,10.75-9.64,16.49-13.22,4.94-3.11,10.11-5.65,15.53-7.49,2.47-.87,5.02-1.59,7.57-2.23,2.47-.64,4.94-1.04,7.25-1.19,11.31-1.04,20.79,2.23,28.43,9.88,5.73,5.73,9.24,12.9,10.59,21.58,1.43,8.6-.72,18.16-6.45,28.59-1.83,3.26-3.74,6.45-5.81,9.48-3.27,5.02-6.93,9.64-10.83,13.94Z"/>
        <g>
          <path class="cls-2" d="M422.74,287.91c-5.18-5.18-9.56-10.67-13.14-16.41-.56.48-1.11.96-1.67,1.51-3.98,3.98-7.33,7.96-10.19,12.19-.64.88-1.27,1.83-1.83,2.79l-.08.08c3.03,5.97,7.09,11.47,12.03,16.41.72.72,1.43,1.35,2.15,1.99,4.14-6.45,8.68-12.42,13.7-17.68-.32-.24-.64-.56-.96-.87ZM512.1,285.6c-1.43-2.47-3.19-4.94-5.18-7.25-1.35-1.59-2.79-3.19-4.3-4.7-9.32-9.32-20.07-15.21-32.41-17.68-2.63-.56-5.26-.88-7.89-1.2-4.14-.32-8.2-.32-12.26,0q-.08,0-.16.08c-1.04,0-2.07.16-3.11.32-4.14.48-8.2,1.43-12.27,2.71-1.59.48-3.11,1.03-4.54,1.59-8.36,3.19-15.13,7.17-20.39,12.03-.56.48-1.11.96-1.67,1.51-3.98,3.98-7.33,7.96-10.19,12.19-.64.88-1.27,1.83-1.83,2.79l-.08.08c-6.37,10.19-9.56,21.03-9.8,32.49-.08,3.27.16,6.45.64,9.48.64,5.5,2.07,10.67,4.14,15.61,3.11,7.25,7.73,13.86,13.78,19.91.96.95,1.91,1.83,2.87,2.63,4.46,4.06,9.32,7.33,14.5,9.8,1.35.8,2.79,1.35,4.22,1.99,8.28,3.27,17.44,4.7,27.4,4.38,5.42-.16,10.51-.87,15.37-2.07.72-.08,1.43-.24,2.07-.48,7.17-1.75,13.7-4.62,19.67-8.6,3.98-2.47,7.65-5.5,11.07-8.92,3.98-3.9,7.25-8.2,9.88-12.74,4.22-6.85,6.93-14.5,8.28-22.78.48-2.95.8-5.89.96-9,.56-12.58-2.31-23.97-8.76-34.17ZM466.79,363.81c-6.69,3.98-13.7,6.77-21.11,8.52-14.57,3.43-26.44.56-35.68-8.68-5.73-5.74-9.24-12.9-10.67-21.58-.48-3.03-.56-6.21-.16-9.56.56-3.98,1.75-8.2,3.58-12.58.88-2.07,1.91-4.22,3.11-6.45,1.35-2.39,2.71-4.78,4.14-7.01,4.14-6.45,8.68-12.42,13.7-17.68.64-.8,1.43-1.59,2.23-2.39,4.06-4.06,9-7.8,14.81-11.31,1.99-1.11,3.98-2.23,6.13-3.34.64-.32,1.19-.56,1.83-.88,8.04-3.74,16.25-5.65,24.85-5.65,9.24,0,17.28,3.43,24.13,10.27,3.35,3.34,5.89,7.09,7.65,11.15v.08c1.04,2.39,1.75,4.94,2.15,7.57.88,5.02.72,10.51-.56,16.41-1.35,6.45-3.58,12.66-6.61,18.48-3.34,6.53-7.8,12.74-13.38,18.48-.56.64-1.12,1.19-1.67,1.75-.24.24-.48.48-.72.72-5.58,5.5-11.55,10.11-17.76,13.7Z"/>
          <path class="cls-2" d="M486.94,347.64c-.56.64-1.12,1.19-1.67,1.75-.24.24-.48.48-.72.72-.72-1.51-1.43-2.95-2.39-4.38,1.59.72,3.19,1.43,4.78,1.91Z"/>
        </g>
      </g>
    </g>
  </g>
</svg>