<?xml version="1.0" encoding="UTF-8"?>
<svg id="Layer_1" data-name="Layer 1" xmlns="http://www.w3.org/2000/svg" viewBox="0 0 448.03 448.09">
  <defs>
    <style>
      .cls-1 {
        fill: #9d3723;
      }

      .cls-2 {
        opacity: .06;
      }
    </style>
  </defs>
  <g class="cls-2">
    <g>
      <path class="cls-1" d="M273.15,377.33c-.06-.43-.19-.87-.37-1.24-2.36-6.96-6.03-12.98-11.06-18.14-3.73-3.85-7.83-6.96-12.3-9.26-.37-.25-.75-.44-1.18-.5v-.06c-4.41-2.24-9.26-3.67-14.41-4.22-2.36-.44-4.72-.56-7.21-.56-5.03,0-9.88.68-14.41,2.05-4.47,1.3-8.7,3.23-12.67,5.84-1.18.81-2.36,1.62-3.48,2.55-2.36,1.8-4.6,3.91-6.77,6.21-4.78,5.09-8.45,10.5-10.93,16.21-.56,1.12-.99,2.24-1.37,3.35-2.17,5.71-3.23,11.68-3.23,18.01,0,.44,0,.93.06,1.37.25,12.61,4.91,23.85,13.98,33.73,9.32,10.25,21.18,15.41,35.53,15.41,10.25,0,19.44-2.73,27.58-8.14,8.14-5.47,14.35-12.36,18.57-20.69,4.29-8.39,6.4-16.09,6.4-23.05v-.56c-.06-6.65-.93-12.73-2.73-18.33ZM255.08,418.4c-2.36,7.08-6.03,13.23-11.12,18.33-5.03,5.09-11.37,7.64-19.01,7.64-10.06,0-18.2-4.78-24.48-14.35-4.78-7.27-7.7-15.47-8.88-24.54-.31-2.8-.5-5.71-.5-8.76,0-2.24.06-4.41.31-6.59.62-8.26,2.67-15.9,6.09-22.8v-.06c.87-1.74,1.8-3.42,2.8-5.03,2.55-4.16,5.47-7.39,8.76-9.75,4.53-3.42,9.82-5.09,15.72-5.09,4.29,0,8.45.93,12.42,2.86,1.8.81,3.6,1.93,5.34,3.17,2.73,1.93,5.03,4.47,7.08,7.64v.06c2.11,3.23,3.79,7.14,5.09,11.62,1.49,5.22,2.55,10.37,3.11,15.41.5,3.6.75,7.14.75,10.62,0,1.18-.06,2.42-.19,3.73-.31,4.91-1.43,10.25-3.29,15.9Z"/>
      <path class="cls-1" d="M202.27,329.75c-.37-5.59-1.68-10.81-3.85-15.72-1.93-4.35-4.47-8.51-7.77-12.36-1.49-1.74-3.11-3.42-4.85-5.03-6.77-6.27-14.1-10.68-21.99-13.17-5.03-1.55-10.25-2.36-15.65-2.36-.75,0-1.49,0-2.24.12-3.85.06-7.58.68-11.18,1.68-7.83,2.11-15.1,6.21-21.68,12.24-.31.31-.68.62-.99.99-1.24,1.12-2.36,2.36-3.42,3.6-1.99,2.3-3.67,4.72-5.03,7.27-3.91,6.96-5.9,14.85-5.9,23.67,0,3.79.37,7.45,1.18,10.93.5,2.55,1.18,4.97,2.11,7.33,1.24,3.29,2.86,6.34,4.85,9.32,4.53,6.77,10.06,12.24,16.65,16.28,1.3.81,2.67,1.62,4.04,2.3,4.66,2.36,9.07,4.1,13.29,5.09,3.35.87,6.65,1.3,9.75,1.3,2.67,0,5.22-.12,7.7-.43,6.58-.68,12.55-2.3,17.95-4.91,1.06-.5,2.11-1.06,3.11-1.68,3.48-1.93,6.58-4.35,9.5-7.14,3.35-3.29,6.15-6.83,8.32-10.62,1.37-2.3,2.49-4.72,3.35-7.21,1.99-5.28,2.92-11.06,2.92-17.27,0-1.43-.06-2.86-.19-4.22ZM173.07,362.05c-2.86.81-5.72,1.49-8.51,2.05-4.41.87-8.82,1.43-13.11,1.62-.43.12-.87.12-1.3.06-1.06.12-2.05.12-3.11.12-4.54,0-9.5-.68-14.72-1.99-1.61-.44-3.23-.93-4.91-1.49-7.08-2.36-13.23-6.03-18.33-11.12-.43-.43-.81-.81-1.18-1.24-1.49-1.68-2.73-3.48-3.67-5.4-1.86-3.67-2.8-7.77-2.8-12.3,0-10.13,4.78-18.26,14.35-24.54,1.99-1.3,4.04-2.48,6.21-3.48,2.42-1.24,4.91-2.24,7.52-2.98,5.78-1.86,11.93-2.8,18.57-2.92h.99c5.78,0,11.18.62,16.34,1.8,4.72,1.06,9.13,2.61,13.29,4.72,1.68.81,3.29,1.68,4.85,2.67,1.86,1.18,3.54,2.36,5.03,3.79,6.52,5.47,9.82,12.42,9.82,20.69,0,6.27-1.99,12.24-6.03,17.77-3.98,5.53-10.44,9.57-19.32,12.18Z"/>
      <g>
        <path class="cls-1" d="M342.17,307.51c-1.12-1.62-2.24-3.17-3.42-4.6-1.93-2.42-4.04-4.6-6.27-6.52h-.06c-.75-.75-1.49-1.37-2.3-1.93-2.67-2.11-5.53-3.98-8.64-5.53-1.24-.62-2.48-1.24-3.67-1.74-6.34-2.86-12.24-4.35-17.64-4.6-.62-.06-1.18-.06-1.74-.06-1.74,0-3.42.06-5.09.25-.5-.06-.99,0-1.49.06-.99.06-1.99.19-2.98.37-.62.06-1.24.12-1.86.25-1.18.25-2.36.43-3.54.74-9.13,2.05-16.9,6.21-23.3,12.49-1.99,1.93-3.73,3.91-5.22,5.96-2.61,3.42-4.66,7.08-6.15,11-2.17,5.53-3.23,11.62-3.23,18.14,0,.93,0,1.8.06,2.67v.06c.25,4.78,1.06,9.32,2.61,13.6.37,1.3.93,2.61,1.43,3.85,0,0,.06,0,.06.06,2.73,6.21,6.96,11.87,12.49,17.08,3.17,2.98,6.52,5.53,9.94,7.64.31.25.68.43.99.56,5.16,3.11,10.5,5.16,16.21,6.27,3.35.75,6.83,1.06,10.44,1.06,4.29,0,8.39-.5,12.3-1.55,6.09-1.43,11.87-4.1,17.21-8.01,1.93-1.31,3.79-2.8,5.59-4.47,7.27-6.59,11.93-14.48,14.04-23.61.56-2.24.93-4.53,1.12-6.96.19-1.61.25-3.29.25-4.97,0-10.25-2.73-19.44-8.14-27.58ZM341.61,349.19c-2.3,3.23-5.4,6.15-9.38,8.76-4.29,2.86-8.95,5.03-13.85,6.52-5.47,1.74-11.24,2.67-17.52,2.8-.62.06-1.24.06-1.93.06h-.43c-6.09-.06-11.87-.75-17.27-2.11-6.03-1.55-11.62-3.91-16.77-7.08-9.94-6.09-14.85-14.29-14.85-24.48,0-6.27,1.99-12.24,6.03-17.77,1.3-1.8,2.86-3.48,4.72-4.91,2.48-2.05,5.4-3.79,8.88-5.22,1.8-.81,3.67-1.43,5.72-2.05,2.11-.62,4.16-1.12,6.27-1.55,5.78-1.37,11.55-2.11,17.15-2.17.87-.12,1.74-.12,2.61-.12,4.6,0,9.63.68,14.91,2.11,1.55.37,3.11.87,4.72,1.37.75.25,1.49.5,2.17.75,6.15,2.42,11.62,5.84,16.15,10.37,5.09,5.03,7.64,11.37,7.64,18.95,0,3.73-.62,7.21-1.93,10.37-.81,1.93-1.8,3.67-3.04,5.4Z"/>
        <path class="cls-1" d="M300.86,367.27c-.62.06-1.24.06-1.93.06h-.43c.43-1.06.75-2.17,1.06-3.29.31,1.12.75,2.17,1.3,3.23Z"/>
      </g>
    </g>
    <g>
      <path class="cls-1" d="M153.82,329.87c0-.25-.06-.5-.25-.75-1.55-4.85-4.04-9.32-7.39-13.54-1.3-1.8-2.8-3.48-4.47-5.16-3.73-3.73-7.77-6.77-12.18-9.07-3.98-2.11-8.2-3.6-12.67-4.47-1.55-.37-3.17-.62-4.78-.75-2.73-.31-5.59-.43-8.57-.31-6.96.25-13.36,1.43-19.2,3.73-1.18.37-2.42.87-3.54,1.49-5.47,2.49-10.44,5.96-14.85,10.37-.31.31-.68.68-.93,1.06-8.7,9.13-13.29,20.31-13.92,33.67-.68,13.85,4.1,25.84,14.23,36.03,7.21,7.21,15.66,11.8,25.28,13.73,9.63,1.93,18.89,1.43,27.77-1.49,8.95-2.92,15.84-6.83,20.81-11.8.25-.25.43-.44.68-.68,4.53-4.6,8.08-9.44,10.75-14.47.31-.56.56-1.18.87-1.74,3.04-6.4,4.6-13.11,4.72-20.19.06-5.53-.68-10.75-2.36-15.66ZM108.71,383.61c-6.65,3.42-13.6,5.09-20.75,5.09-7.21.06-13.48-2.61-18.89-8.01-7.14-7.14-9.5-16.28-7.14-27.46,1.74-8.51,5.47-16.4,11.12-23.67,1.74-2.24,3.67-4.41,5.78-6.52,1.55-1.55,3.17-3.04,4.78-4.41,6.21-5.28,12.86-9.19,20-11.62v-.06c1.99-.75,4.04-1.31,6.09-1.8,4.41-1.06,8.51-1.3,12.3-.81,5.96.68,11.12,3.23,15.53,7.64,2.92,2.92,5.09,6.34,6.52,10.31.81,1.99,1.37,4.16,1.74,6.46.5,3.11.43,6.27-.25,9.69-.81,4.04-2.36,8.2-4.78,12.61-2.55,4.66-5.34,8.95-8.45,12.86-2.24,2.98-4.66,5.71-7.21,8.26-.81.81-1.68,1.61-2.61,2.36-3.79,3.29-8.39,6.34-13.79,9.07Z"/>
      <path class="cls-1" d="M139.65,223.77c-.43-.81-.87-1.62-1.37-2.36-.25-.56-.62-1.12-.99-1.68-.25-.5-.56-.99-.93-1.43-.68-1.06-1.43-2.05-2.24-2.98-1.18-1.49-2.49-2.98-3.85-4.35-.56-.56-1.12-1.06-1.68-1.55-2.98-2.8-6.27-5.16-9.75-7.08h-.06c-6.9-3.79-14.66-5.9-23.3-6.27-.37,0-.81-.06-1.18,0-1.61-.06-3.17-.06-4.72.12-3.04.12-5.96.62-8.76,1.43-7.83,2.05-14.91,6.27-21.31,12.67-2.73,2.73-5.03,5.59-6.96,8.63-1.43,2.11-2.67,4.35-3.67,6.65-1.37,3.17-2.42,6.52-3.11,10-1.55,7.83-1.55,15.47.12,22.86.31,1.68.75,3.35,1.3,4.97,1.55,4.72,3.35,8.82,5.47,12.42h.06c1.8,3.23,3.91,6.03,6.27,8.32,1.8,1.8,3.6,3.48,5.47,4.97,5.16,4.16,10.56,7.27,16.21,9.32,1.18.44,2.42.81,3.6,1.12,3.85,1.06,7.77,1.62,11.8,1.68,4.41.06,8.57-.43,12.55-1.49,2.86-.62,5.59-1.55,8.2-2.86,5.16-2.36,9.94-5.71,14.35-10.13,1.24-1.24,2.42-2.55,3.54-3.85,3.29-4.04,5.9-8.45,7.7-13.17,1.8-4.47,2.92-9.32,3.23-14.47.19-2.17.25-4.41.19-6.71-.31-9.26-2.36-17.52-6.21-24.79ZM136.48,254.7c.5,2.11.87,4.16.99,6.15.68,8.57-1.93,15.84-7.77,21.68-4.47,4.47-10.06,7.21-16.83,8.32-6.71,1.06-14.16-.62-22.3-5.09-2.67-1.49-5.22-3.04-7.7-4.72-3.85-2.55-7.39-5.28-10.69-8.39-.25-.12-.5-.37-.75-.68-.68-.56-1.37-1.18-1.99-1.86-3.35-3.35-6.4-7.46-9.19-12.3h-.06c-.75-1.3-1.43-2.61-2.17-4.04-3.35-6.65-5.03-13.6-5.09-20.81,0-.56,0-1.06.06-1.62.12-2.3.56-4.47,1.24-6.58,1.24-3.91,3.48-7.39,6.71-10.62,7.14-7.14,16.34-9.57,27.52-7.21,2.36.5,4.72,1.18,7.02,1.99,2.42.81,4.85,1.86,7.14,3.11,5.4,2.73,10.5,6.46,15.28,11.12.25.19.5.43.75.68,3.04,3.04,5.72,6.27,8.08,9.57.81,1.06,1.49,2.17,2.17,3.29,2.49,3.91,4.47,8.01,5.9,12.3.68,1.86,1.24,3.79,1.68,5.71Z"/>
      <g>
        <path class="cls-1" d="M235.44,318.19c-3.79-3.79-7.64-6.9-11.68-9.38-7.89-4.97-16.4-7.52-25.41-7.64-2.67-.06-5.22.12-7.7.5-4.16.56-8.14,1.62-11.93,3.29,1.68.81,3.29,1.68,4.85,2.67,1.86,1.18,3.54,2.36,5.03,3.79,3.17.31,6.4,1.18,9.82,2.61,1.8.68,3.6,1.55,5.47,2.55,1.93,1.06,3.79,2.17,5.59,3.29,5.03,3.23,9.57,6.71,13.67,10.62.25-.25.43-.43.68-.68,4.1-4.1,8.39-7.52,12.86-10.31-.43-.43-.81-.87-1.24-1.3ZM249.73,352.05c0-.06-.06-.06-.06-.06,0-1.12-.12-2.24-.25-3.29-.43-3.29-1.12-6.52-2.17-9.69-.5-1.55-1.06-3.04-1.61-4.47v-.06c-2.42-6.09-5.4-11.06-8.95-14.97-.43-.43-.81-.87-1.24-1.3-3.79-3.79-7.64-6.9-11.68-9.38-7.89-4.97-16.4-7.52-25.41-7.64-2.67-.06-5.22.12-7.7.5-4.16.56-8.14,1.62-11.93,3.29-5.59,2.36-10.75,5.96-15.47,10.68-.99.99-1.93,1.99-2.73,2.98-2.86,3.29-5.22,6.77-6.96,10.5-.5.87-.87,1.74-1.24,2.61-2.73,6.71-3.98,14.04-3.73,22.12.12,4.16.68,8.14,1.55,11.93.12.56.25,1.12.43,1.68,1.37,5.59,3.6,10.68,6.71,15.34,1.93,3.11,4.29,5.96,6.96,8.63,2.98,2.92,6.15,5.47,9.57,7.52,5.34,3.29,11.24,5.47,17.77,6.52,2.36.5,4.85.75,7.39.87,9.82.43,18.64-1.8,26.59-6.83,1.99-1.18,3.85-2.55,5.72-4.1,1.24-1.06,2.48-2.17,3.67-3.35,7.27-7.21,11.87-15.66,13.79-25.28.37-1.86.62-3.79.87-5.65v-.06c.31-3.04.37-6.03.12-9.01ZM233.52,388.27c-2.61,2.61-5.47,4.6-8.64,5.96-1.86.81-3.85,1.37-5.96,1.68-3.91.68-8.2.5-12.86-.43-5.09-1.06-10-2.86-14.66-5.34-5.09-2.67-9.88-6.21-14.41-10.56-.37-.31-.75-.68-1.12-1.06l-.62-.62c-4.29-4.35-7.83-8.95-10.69-13.79-3.04-5.22-5.22-10.68-6.58-16.46-2.67-11.31-.43-20.62,6.77-27.83,4.47-4.41,10.06-7.21,16.84-8.26,2.3-.37,4.6-.37,7.02-.12,3.17.31,6.4,1.18,9.82,2.61,1.8.68,3.6,1.55,5.47,2.55,1.93,1.06,3.79,2.17,5.59,3.29,5.03,3.23,9.57,6.71,13.67,10.62.62.5,1.24,1.12,1.86,1.74,3.17,3.23,6.15,7.14,8.82,11.68.93,1.49,1.8,3.11,2.61,4.72.25.56.56,1.06.75,1.62,2.86,6.15,4.35,12.55,4.35,19.13.06,7.21-2.61,13.48-8.01,18.88Z"/>
        <path class="cls-1" d="M178.35,376.21c-.56,1.12-.99,2.24-1.37,3.35-.37-.31-.75-.68-1.12-1.06l-.62-.62c1.06-.5,2.11-1.06,3.11-1.68Z"/>
      </g>
    </g>
    <g>
      <path class="cls-1" d="M102.63,212.03c-1.24-4.35-3.17-8.51-5.78-12.42v-.06c-.81-1.18-1.62-2.36-2.55-3.48-1.8-2.36-3.85-4.6-6.21-6.77-5.09-4.72-10.5-8.39-16.21-10.87-1.06-.56-2.11-.99-3.17-1.31-4.85-1.93-9.88-2.98-15.16-3.23-.99-.12-2.05-.12-3.11-.12-.31,0-.56,0-.87.06-.87-.06-1.74,0-2.61.12-5.09.25-10,1.37-14.66,3.17h-.06c-5.59,2.11-10.75,5.34-15.65,9.63-.43.31-.81.68-1.24,1.06-10.25,9.32-15.34,21.18-15.34,35.53,0,10.25,2.67,19.44,8.14,27.58,5.4,8.2,12.36,14.35,20.69,18.64,8.39,4.22,16.03,6.34,23.05,6.34.31,0,.56,0,.81-.06h.06c6.52,0,12.55-.93,18.02-2.67.5-.12.93-.25,1.43-.5,6.83-2.3,12.8-5.96,17.95-10.93,3.85-3.73,6.96-7.83,9.26-12.3.25-.37.43-.75.56-1.18,2.24-4.35,3.6-9.13,4.22-14.16.37-2.36.56-4.84.56-7.39,0-5.16-.68-10-2.11-14.66ZM60.2,257.81c-3.67.5-7.27.75-10.87.75-1.12,0-2.24-.06-3.42-.12-5.03-.31-10.44-1.43-16.21-3.35-7.14-2.3-13.23-6.03-18.33-11.06-5.09-5.09-7.64-11.43-7.64-19.01,0-10.13,4.78-18.26,14.35-24.54,7.33-4.78,15.65-7.77,24.91-8.82,2.67-.37,5.53-.56,8.39-.56,2.36,0,4.66.12,6.9.31,8.2.75,15.72,2.8,22.55,6.21,1.74.75,3.35,1.68,4.97,2.67,4.1,2.55,7.33,5.41,9.69,8.64,3.48,4.53,5.22,9.82,5.22,15.84,0,4.41-.99,8.64-2.92,12.61-.87,1.74-1.86,3.48-3.11,5.16-1.99,2.67-4.47,5.03-7.58,7.02-3.29,2.11-7.21,3.79-11.74,5.16-5.09,1.49-10.13,2.55-15.1,3.11h-.06Z"/>
      <path class="cls-1" d="M166.8,145.93c-.12-4.04-.68-7.89-1.8-11.62-2.11-7.64-6.15-14.72-12.05-21.18-.25-.25-.43-.5-.68-.68-1.12-1.24-2.3-2.36-3.48-3.35-2.3-2.05-4.72-3.79-7.27-5.28-7.08-4.04-15.1-6.09-24.1-6.09-3.79,0-7.45.37-11,1.18-2.48.5-4.97,1.24-7.33,2.17-3.23,1.24-6.34,2.86-9.32,4.85-6.71,4.41-12.05,9.88-16.09,16.34-.93,1.43-1.74,2.86-2.48,4.35-.93,1.86-1.8,3.67-2.49,5.47-1.06,2.55-1.93,5.03-2.55,7.46-.93,3.54-1.37,6.9-1.37,10.06,0,2.55.12,5.03.43,7.45-.06.12,0,.31.06.44.68,6.65,2.36,12.61,5.03,18.01.43.99.93,1.99,1.55,2.92,1.93,3.42,4.35,6.58,7.14,9.5,3.23,3.35,6.77,6.09,10.56,8.26,2.3,1.37,4.72,2.55,7.27,3.35v.06c5.28,1.93,11,2.92,17.21,2.92,1.62,0,3.17-.06,4.72-.19h.06c5.53-.5,10.75-1.86,15.66-4.1,4.29-1.93,8.39-4.54,12.18-7.83,1.62-1.37,3.17-2.92,4.72-4.54,6.34-6.77,10.75-14.1,13.17-21.99,1.55-5.03,2.36-10.25,2.36-15.66,0-.81,0-1.55-.12-2.3ZM143.25,178.29c-.81,1.8-1.74,3.6-2.8,5.28-1.06,1.68-2.11,3.23-3.35,4.6-5.59,6.9-12.67,10.31-21.12,10.31-6.34,0-12.24-2.05-17.77-6.03-5.53-4.04-9.63-10.5-12.18-19.38-.81-2.8-1.49-5.53-2.05-8.26-.93-4.6-1.55-9.07-1.68-13.54-.12-.37-.12-.68-.06-.99-.12-1.06-.12-2.11-.12-3.17,0-4.66.68-9.63,2.11-14.97.37-1.55.87-3.11,1.37-4.72,2.36-7.08,6.03-13.17,11.12-18.26.37-.37.81-.81,1.24-1.12,1.68-1.55,3.48-2.73,5.4-3.73,3.67-1.93,7.77-2.86,12.36-2.86,10.06,0,18.26,4.78,24.48,14.35,1.43,2.24,2.73,4.53,3.85,6.89v.06c1.12,2.3,2.05,4.72,2.8,7.21,1.8,5.65,2.67,11.68,2.8,18.14v.99c0,5.78-.62,11.24-1.86,16.4-.99,4.53-2.49,8.76-4.54,12.8Z"/>
      <g>
        <path class="cls-1" d="M163.82,283.47c-2.05-9.07-6.21-16.84-12.49-23.3-1.8-1.86-3.67-3.54-5.65-4.91-3.35-2.73-7.02-4.78-10.87-6.27.68,1.86,1.24,3.79,1.68,5.71.5,2.11.87,4.16.99,6.15,1.93,2.49,3.6,5.47,4.97,8.88.75,1.62,1.3,3.35,1.86,5.22.62,2.11,1.18,4.22,1.61,6.27,1.3,5.84,2.05,11.56,2.17,17.21h.99c5.78,0,11.18.62,16.34,1.8.06-.62.06-1.18.06-1.8,0-5.34-.56-10.31-1.68-14.97ZM163.82,283.47c-2.05-9.07-6.21-16.84-12.49-23.3-1.8-1.86-3.67-3.54-5.65-4.91-3.35-2.73-7.02-4.78-10.87-6.27-5.65-2.3-11.8-3.42-18.51-3.42-.81,0-1.62,0-2.42.06-4.91.19-9.57,1.06-13.92,2.61-1.3.37-2.61.93-3.85,1.49h-.06c-6.21,2.73-11.93,6.96-17.15,12.49-2.92,3.17-5.4,6.4-7.45,9.75-.31.37-.5.75-.68,1.18-3.04,5.03-5.16,10.37-6.27,15.97-.75,3.48-1.12,7.08-1.12,10.75,0,4.35.5,8.57,1.62,12.61,1.49,6.09,4.22,11.74,8.08,17.08,1.3,1.86,2.73,3.67,4.35,5.4,6.65,7.27,14.47,11.93,23.61,13.98,2.24.56,4.53.93,6.9,1.12,1.68.19,3.29.25,5.03.25,10.25,0,19.44-2.67,27.58-8.14,1.8-1.18,3.48-2.42,5.03-3.73,2.49-2.05,4.72-4.29,6.77-6.71.5-.56.99-1.18,1.49-1.86,2.05-2.61,3.79-5.4,5.34-8.39.5-.99.93-1.93,1.37-2.86,2.98-6.58,4.66-12.67,4.91-18.39.06-.62.06-1.18.06-1.8,0-5.34-.56-10.31-1.68-14.97ZM144.68,320.62c-.19.56-.37,1.12-.62,1.68-2.3,6.46-5.84,11.99-10.44,16.65-5.09,5.09-11.43,7.64-19.01,7.64-3.73,0-7.14-.62-10.37-1.93-1.86-.81-3.67-1.74-5.34-3.04-3.29-2.24-6.21-5.4-8.82-9.38-2.73-4.22-4.91-8.76-6.46-13.61-1.74-5.47-2.73-11.31-2.86-17.58-.06-.68-.06-1.37-.06-2.11v-.5c.06-6.15.75-11.93,2.17-17.39,1.55-5.96,3.91-11.43,7.02-16.52,6.15-9.94,14.29-14.91,24.48-14.91,6.34,0,12.24,1.99,17.77,6.03,1.99,1.43,3.73,3.17,5.34,5.22,1.93,2.49,3.6,5.47,4.97,8.88.75,1.62,1.3,3.35,1.86,5.22.62,2.11,1.18,4.22,1.61,6.27,1.3,5.84,2.05,11.56,2.17,17.21.06.87.06,1.68.06,2.55,0,4.6-.62,9.44-1.99,14.6-.43,1.68-.93,3.35-1.49,5.03Z"/>
        <path class="cls-1" d="M84.3,299.56c-1.18.37-2.42.87-3.54,1.49-.06-.68-.06-1.37-.06-2.11v-.5c1.18.44,2.42.81,3.6,1.12Z"/>
      </g>
    </g>
    <g>
      <path class="cls-1" d="M116.11,152.2q-.06-.06-.12-.12l-.19-.19c-.62-.56-1.24-1.12-1.86-1.74-.87-.75-1.68-1.55-2.36-2.42-.75-.74-1.43-1.49-1.99-2.24h-.06c-3.91-.81-7.89-2.36-12.18-4.72-4.72-2.61-9.13-5.47-13.11-8.64-2.86-2.17-5.53-4.53-8.01-7.02-.87-.87-1.8-1.86-2.55-2.86-3.29-3.73-6.21-8.26-8.88-13.48-3.35-6.71-5.03-13.6-5.09-20.81,0-3.54.62-6.77,1.93-9.88,1.3-3.23,3.35-6.21,6.09-8.95.99-.99,1.99-1.86,3.04-2.67-.5.06-.93.06-1.43.06-1.37,0-2.73-.06-4.04-.19-4.66,4.91-8.14,10.31-10.44,16.21-.12.31-.25.62-.37.93-.81,2.3-1.49,4.66-1.99,7.08-.43,2.42-.81,4.78-.93,7.14-.25,3.11-.25,6.21.12,9.26.31,3.85,1.06,7.64,2.3,11.37,2.92,8.95,6.83,15.9,11.8,20.81l.37.37c.87.87,1.74,1.68,2.61,2.49,3.91,3.48,8.01,6.34,12.18,8.57h.06c.43.25.87.5,1.3.68,6.52,3.17,13.36,4.85,20.56,4.97,5.47.06,10.62-.68,15.47-2.24-.75-.56-1.49-1.18-2.24-1.8ZM116.11,152.2q-.06-.06-.12-.12l-.19-.19c-.62-.5-1.24-1.12-1.86-1.74-.87-.75-1.68-1.55-2.36-2.42-.75-.74-1.43-1.49-1.99-2.24h-.06c-3.91-.81-7.89-2.36-12.18-4.72-4.72-2.61-9.13-5.47-13.11-8.64-2.86-2.17-5.53-4.53-8.01-7.02-.87-.87-1.8-1.86-2.55-2.86-3.29-3.73-6.21-8.26-8.88-13.48-3.35-6.71-5.03-13.6-5.09-20.81,0-3.54.62-6.77,1.93-9.88,1.3-3.23,3.35-6.21,6.09-8.95.99-.99,1.99-1.86,3.04-2.67-.5.06-.93.06-1.43.06-1.37,0-2.73-.06-4.04-.19-4.66,4.91-8.14,10.31-10.44,16.21-.12.31-.25.62-.37.93-.81,2.3-1.49,4.66-1.99,7.08-.43,2.42-.81,4.78-.93,7.14-.25,3.11-.25,6.21.12,9.26.31,3.85,1.06,7.64,2.3,11.37,2.92,8.95,6.83,15.9,11.8,20.81l.37.37c.87.87,1.74,1.68,2.61,2.49,3.91,3.48,8.01,6.34,12.18,8.57h.06c.43.25.87.5,1.3.68,6.52,3.17,13.36,4.85,20.56,4.97,5.47.06,10.62-.68,15.47-2.24-.75-.56-1.49-1.18-2.24-1.8ZM148.85,84.43c-.37-1.24-.87-2.42-1.49-3.6-2.49-5.47-5.96-10.44-10.37-14.85-.37-.37-.75-.75-1.12-.99-8.39-8.08-18.64-12.61-30.75-13.67-.93-.12-1.86-.19-2.86-.25-10.06-.43-19.2,1.93-27.27,7.21-3.04,1.86-5.9,4.22-8.7,7.02-.37.37-.68.68-.99,1.06-4.66,4.91-8.14,10.31-10.44,16.21-.12.31-.25.62-.37.93-.81,2.3-1.49,4.66-1.99,7.08-.43,2.42-.81,4.78-.93,7.14-.25,3.11-.25,6.21.12,9.26.31,3.85,1.06,7.64,2.3,11.37,2.92,8.95,6.83,15.9,11.8,20.81l.37.37c.87.87,1.74,1.68,2.61,2.49,3.91,3.48,8.01,6.34,12.18,8.57h.06c.43.25.87.5,1.3.68,6.52,3.17,13.36,4.85,20.56,4.97,5.47.06,10.62-.68,15.47-2.24.37-.12.68-.19,1.06-.37,4.78-1.62,9.26-4.04,13.42-7.33,1.8-1.37,3.48-2.86,5.16-4.53,3.6-3.6,6.58-7.58,8.88-11.8,2.17-4.04,3.79-8.39,4.66-13.05.37-1.43.62-2.92.75-4.47.37-2.86.5-5.84.37-8.88-.25-6.9-1.49-13.29-3.79-19.13ZM136.48,137.54c-2.98,2.98-6.46,5.22-10.5,6.71-1.99.68-4.1,1.24-6.34,1.62-3.17.5-6.52.37-10.06-.37h-.06c-3.91-.81-7.89-2.36-12.18-4.72-4.72-2.61-9.13-5.47-13.11-8.64-2.86-2.17-5.53-4.53-8.01-7.02-.87-.87-1.8-1.86-2.55-2.86-3.29-3.73-6.21-8.26-8.88-13.48-3.35-6.71-5.03-13.6-5.09-20.81,0-3.54.62-6.77,1.93-9.88,1.3-3.23,3.35-6.21,6.09-8.95.99-.99,1.99-1.86,3.04-2.67.25-.19.5-.37.75-.56,5.59-3.98,12.18-5.47,19.88-4.53,1.24.06,2.55.31,3.85.56,8.51,1.74,16.28,5.4,23.48,11,2.3,1.8,4.47,3.73,6.65,5.9,1.55,1.55,3.04,3.17,4.35,4.78,5.4,6.27,9.32,12.98,11.8,20.19.68,1.93,1.24,3.91,1.74,5.9,1.12,4.66,1.37,9.01.81,12.98v.06c-.81,5.65-3.35,10.56-7.58,14.79ZM116.11,152.2q-.06-.06-.12-.12l-.19-.19c-.62-.56-1.24-1.12-1.86-1.74-.87-.75-1.68-1.55-2.36-2.42-.75-.74-1.43-1.49-1.99-2.24h-.06c-3.91-.81-7.89-2.36-12.18-4.72-4.72-2.61-9.13-5.47-13.11-8.64-2.86-2.17-5.53-4.53-8.01-7.02-.87-.87-1.8-1.86-2.55-2.86-3.29-3.73-6.21-8.26-8.88-13.48-3.35-6.71-5.03-13.6-5.09-20.81,0-3.54.62-6.77,1.93-9.88,1.3-3.23,3.35-6.21,6.09-8.95.99-.99,1.99-1.86,3.04-2.67-.5.06-.93.06-1.43.06-1.37,0-2.73-.06-4.04-.19-4.66,4.91-8.14,10.31-10.44,16.21-.12.31-.25.62-.37.93-.81,2.3-1.49,4.66-1.99,7.08-.43,2.42-.81,4.78-.93,7.14-.25,3.11-.25,6.21.12,9.26.31,3.85,1.06,7.64,2.3,11.37,2.92,8.95,6.83,15.9,11.8,20.81l.37.37c.87.87,1.74,1.68,2.61,2.49,3.91,3.48,8.01,6.34,12.18,8.57h.06c.43.25.87.5,1.3.68,6.52,3.17,13.36,4.85,20.56,4.97,5.47.06,10.62-.68,15.47-2.24-.75-.56-1.49-1.18-2.24-1.8Z"/>
      <path class="cls-1" d="M212.96,130.21c-.43-.43-.81-.87-1.24-1.31-4.1,2.55-8.32,4.6-12.74,6.03-1.74.62-3.48,1.12-5.28,1.55-2.24.56-4.41.87-6.52,1.06-2.42,1.93-5.34,3.54-8.7,4.91,4.47,1.8,9.26,2.86,14.35,3.23,2.3.25,4.6.25,7.02.19,9.26-.31,17.58-2.36,24.85-6.21-4.04-2.49-7.95-5.65-11.74-9.44ZM252.22,89.08c-.19-2.98-.75-5.9-1.55-8.7-2.11-7.64-6.34-14.6-12.55-20.87-2.73-2.67-5.59-5.03-8.57-6.96-2.17-1.37-4.41-2.61-6.71-3.6-3.17-1.43-6.52-2.49-10-3.17-8.01-1.62-15.72-1.55-23.23.25-1.55.31-3.04.74-4.53,1.24-4.91,1.62-9.19,3.48-12.86,5.71-3.11,1.8-5.72,3.79-7.95,6.03-1.86,1.86-3.54,3.73-5.03,5.59-4.22,5.16-7.27,10.5-9.19,16.15-.5,1.18-.87,2.42-1.18,3.67-.99,3.79-1.55,7.7-1.62,11.68-.06,4.53.37,8.88,1.55,12.98.62,2.73,1.55,5.34,2.73,7.83,2.36,5.16,5.78,9.94,10.13,14.35,1.06,1.06,2.17,2.11,3.35,3.04,4.1,3.54,8.64,6.21,13.48,8.14,4.47,1.8,9.26,2.86,14.35,3.23,2.3.25,4.6.25,7.02.19,9.26-.31,17.58-2.36,24.85-6.21,4.66-2.42,8.88-5.53,12.74-9.38.56-.56,1.12-1.12,1.55-1.74,2.73-2.86,4.97-5.96,6.83-9.26,3.98-6.96,6.15-14.91,6.52-23.73.06-.56.06-1.06.06-1.55,0-1.68,0-3.35-.19-4.91ZM224.57,118.65c-4.1,4.04-8.39,7.52-12.86,10.25-4.1,2.55-8.32,4.6-12.74,6.03-1.74.62-3.48,1.12-5.28,1.55-2.24.56-4.41.87-6.52,1.06-8.45.56-15.53-2.05-21.31-7.83-4.47-4.47-7.21-10.06-8.32-16.84-1.06-6.71.62-14.16,5.09-22.24,1.49-2.67,2.98-5.22,4.66-7.64,2.49-3.79,5.22-7.21,8.14-10.44.25-.31.56-.62.87-.93.62-.74,1.3-1.43,1.99-2.11,3.29-3.29,7.27-6.34,11.99-9.07,1.37-.81,2.86-1.62,4.35-2.36,6.71-3.42,13.6-5.09,20.81-5.16.56,0,1.18,0,1.74.06,2.24.12,4.41.56,6.46,1.24,3.91,1.3,7.45,3.54,10.69,6.77,7.08,7.08,9.5,16.28,7.14,27.46-.43,2.24-1.06,4.47-1.86,6.65-.81,2.55-1.86,5.03-3.11,7.39-2.8,5.47-6.52,10.62-11.24,15.41-.19.25-.43.5-.68.75Z"/>
      <g>
        <path class="cls-1" d="M143.25,178.29c-.81,1.8-1.74,3.6-2.8,5.28-1.06,1.68-2.11,3.23-3.35,4.6-.31,3.23-1.12,6.59-2.61,10.06,4.29-1.93,8.39-4.54,12.18-7.83-.5-4.22-1.68-8.26-3.42-12.11ZM134.12,215.32c-1.18-1.49-2.49-2.98-3.85-4.35-.56-.56-1.12-1.06-1.68-1.55-3.23,5.03-6.77,9.63-10.68,13.73.25.19.5.43.75.68.99.99,1.99,2.05,2.92,3.11.93,1.06,1.86,2.11,2.67,3.17.87,1.12,1.68,2.17,2.49,3.29.81,1.06,1.49,2.17,2.17,3.29.43-.37.87-.75,1.3-1.18,3.79-3.79,6.96-7.7,9.44-11.74-.93-1.86-2.05-3.73-3.29-5.47-.68-1.06-1.43-2.05-2.24-2.98ZM146.67,190.41c-.5-4.22-1.68-8.26-3.42-12.11-2.36-5.4-5.84-10.44-10.44-15.03-.87-.87-1.74-1.68-2.67-2.36,0-.06-.06-.06-.06-.06-3.35-2.98-6.83-5.41-10.68-7.21-1.06-.56-2.11-1.06-3.29-1.43q-.06-.06-.12-.12c-6.46-2.55-13.6-3.73-21.37-3.42-4.35.12-8.45.68-12.36,1.62-.43.06-.87.19-1.24.31h-.06c-5.72,1.43-10.93,3.79-15.66,6.9-.12.06-.19.12-.31.25h-.06c-2.73,1.86-5.28,3.91-7.7,6.34l-.06.06-.12.12c-1.99,1.99-3.73,4.04-5.28,6.27-.06,0-.06.06-.06.06-.81,1.06-1.55,2.11-2.11,3.23-1.24,1.8-2.24,3.73-3.04,5.72-1.74,3.79-2.92,7.83-3.54,12.11-.5,2.36-.75,4.78-.87,7.33-.5,9.82,1.74,18.64,6.77,26.59,1.18,1.99,2.55,3.91,4.1,5.78,1.06,1.24,2.17,2.49,3.35,3.67,7.27,7.21,15.72,11.8,25.28,13.73,1.86.37,3.67.62,5.47.81,3.04.37,6.03.43,8.95.19h.06c1.12-.06,2.24-.12,3.29-.31,3.42-.37,6.71-1.12,10-2.17,1.55-.5,3.04-1.06,4.47-1.62,6.09-2.42,11.12-5.4,15.03-8.95.43-.37.87-.75,1.3-1.18,3.79-3.79,6.96-7.7,9.44-11.74,4.91-7.95,7.45-16.4,7.58-25.41.06-2.73-.12-5.4-.56-7.95ZM116.17,225.01c-3.29,3.29-7.27,6.34-11.99,9.07-1.37.81-2.86,1.62-4.35,2.36-.68.37-1.37.68-2.05.93-6.03,2.8-12.3,4.16-18.76,4.16-7.21.06-13.48-2.61-18.82-8.01-2.67-2.67-4.66-5.53-5.96-8.76-.81-1.8-1.37-3.79-1.68-5.84-.68-3.91-.56-8.2.43-12.86,1.06-5.09,2.8-10,5.28-14.66,2.61-5.03,6.15-9.82,10.44-14.29.37-.43.75-.81,1.18-1.24.12-.12.31-.31.43-.37,4.35-4.35,8.88-7.89,13.67-10.68,5.28-3.17,10.87-5.4,16.77-6.83,11.37-2.67,20.62-.37,27.83,6.83,4.47,4.41,7.21,10,8.32,16.77.31,2.11.37,4.35.19,6.58-.31,3.23-1.12,6.59-2.61,10.06-.68,1.8-1.62,3.73-2.67,5.65-1.06,1.93-2.11,3.73-3.23,5.53-3.23,5.03-6.77,9.63-10.68,13.73-.5.62-1.12,1.24-1.74,1.86ZM136.36,218.3c-.68-1.06-1.43-2.05-2.24-2.98-1.18-1.49-2.49-2.98-3.85-4.35-.56-.56-1.12-1.06-1.68-1.55-3.23,5.03-6.77,9.63-10.68,13.73.25.19.5.43.75.68.99,1.06,1.99,2.05,2.92,3.11.93,1.06,1.86,2.11,2.67,3.17.87,1.12,1.68,2.17,2.49,3.29.75,1.06,1.49,2.17,2.17,3.29.43-.37.87-.75,1.3-1.18,3.79-3.79,6.96-7.7,9.44-11.74-.93-1.86-2.05-3.73-3.29-5.47ZM143.25,178.29c-.81,1.8-1.74,3.6-2.8,5.28-1.06,1.68-2.11,3.23-3.35,4.6-.31,3.23-1.12,6.59-2.61,10.06,4.29-1.93,8.39-4.54,12.18-7.83-.5-4.22-1.68-8.26-3.42-12.11Z"/>
        <path class="cls-1" d="M71.88,178.42c-1.06-.56-2.11-.99-3.17-1.31.37-.43.75-.81,1.18-1.24.12-.12.31-.31.43-.37.43.99.93,1.99,1.55,2.92Z"/>
      </g>
    </g>
    <g>
      <path class="cls-1" d="M274.21,49.33c-.19-12.67-4.85-24.04-13.98-33.98-9.32-10.25-21.18-15.34-35.53-15.34-10.25,0-19.44,2.73-27.58,8.14-8.14,5.47-14.35,12.36-18.64,20.69-4.22,8.39-6.34,16.03-6.34,23.05,0,.37,0,.75.06,1.12.06,6.46.93,12.42,2.73,17.83.12.56.31,1.18.5,1.74,2.36,6.65,5.96,12.55,10.87,17.58,3.85,3.98,8.08,7.15,12.67,9.44.25.19.5.31.81.37,4.47,2.24,9.38,3.67,14.6,4.29,2.24.37,4.6.5,7.02.5,5.34,0,10.37-.75,15.1-2.24,4.22-1.3,8.26-3.23,12.05-5.71,1.3-.87,2.61-1.8,3.85-2.8,2.17-1.74,4.29-3.73,6.34-5.9,4.72-5.09,8.39-10.5,10.87-16.21.62-1.12,1.06-2.24,1.43-3.42,2.17-5.71,3.23-11.74,3.23-18.01,0-.37,0-.75-.06-1.12ZM250.66,80.39c.06.06,0,.06,0,.06-.87,1.86-1.86,3.67-2.92,5.4-2.42,3.85-5.09,6.96-8.14,9.26-4.66,3.73-10.13,5.59-16.34,5.59-4.22,0-8.26-.87-12.18-2.73-1.93-.87-3.79-1.99-5.59-3.29-2.55-1.86-4.78-4.22-6.71-7.14-2.24-3.35-4.04-7.39-5.47-12.18-1.43-5.03-2.48-10-3.04-14.91-.56-3.79-.81-7.46-.81-11.12,0-1.06.06-2.17.12-3.29.31-5.09,1.43-10.5,3.35-16.34,2.3-7.14,6.03-13.23,11.06-18.33,5.09-5.09,11.43-7.64,19.01-7.64,10.13,0,18.26,4.78,24.54,14.35,4.85,7.33,7.77,15.59,8.88,24.85.31,2.73.5,5.53.5,8.45,0,2.3-.12,4.53-.31,6.77-.68,8.08-2.61,15.47-5.96,22.24Z"/>
      <path class="cls-1" d="M282.53,149.59c0-.56,0-1.12.06-1.74-4.47-.99-8.76-2.48-12.74-4.47-1.86-.87-3.67-1.86-5.4-2.92-1.68-1.06-3.23-2.17-4.66-3.42-3.23-.31-6.58-1.24-10.06-2.67,1.93,4.41,4.6,8.51,7.95,12.36,1.37,1.62,2.92,3.17,4.53,4.72,6.83,6.34,14.1,10.68,21.99,13.17-1.12-4.66-1.68-9.63-1.68-15.03ZM349.13,106.42c-.5-2.55-1.24-4.97-2.11-7.33-1.3-3.23-2.92-6.34-4.85-9.26-4.47-6.65-9.82-11.99-16.21-16.03-1.43-.93-2.92-1.8-4.47-2.61-4.47-2.24-8.7-3.91-12.74-4.91-3.6-.93-7.02-1.43-10.31-1.43-2.61,0-5.09.12-7.52.43-6.65.62-12.67,2.3-18.14,4.91-1.06.5-2.11,1.06-3.17,1.68-3.42,1.99-6.58,4.35-9.44,7.14-3.23,3.11-5.9,6.46-7.95,10.06-1.55,2.42-2.8,5.03-3.67,7.7-1.99,5.34-2.98,11.12-2.98,17.33,0,1.74.06,3.48.25,5.16.5,5.28,1.8,10.31,3.91,15.03v.06c1.93,4.41,4.6,8.51,7.95,12.36,1.37,1.62,2.92,3.17,4.53,4.72,6.83,6.34,14.1,10.68,21.99,13.17,4.97,1.55,10.19,2.36,15.59,2.36.81,0,1.55,0,2.3-.12,4.22-.12,8.32-.75,12.18-1.99,7.45-2.17,14.29-6.15,20.62-11.93.25-.25.5-.44.75-.75,1.12-1.06,2.24-2.11,3.23-3.29,2.05-2.3,3.79-4.72,5.22-7.27,4.16-7.08,6.21-15.16,6.21-24.23,0-3.85-.37-7.52-1.18-11ZM332.23,140.27c-2.17,1.43-4.41,2.67-6.77,3.73-2.3,1.18-4.72,2.11-7.21,2.8-5.65,1.86-11.8,2.8-18.33,2.86h-.99c-5.78,0-11.18-.62-16.34-1.8-4.47-.99-8.76-2.48-12.74-4.47-1.86-.87-3.67-1.86-5.4-2.92-1.68-1.06-3.23-2.17-4.66-3.42-6.83-5.59-10.19-12.61-10.19-21.06,0-6.27,1.99-12.24,6.03-17.77,3.98-5.53,10.44-9.57,19.32-12.18,2.92-.81,5.78-1.55,8.64-2.05,4.6-.93,9.13-1.49,13.6-1.68.31-.06.62-.06.93,0,.99-.12,1.93-.12,2.86-.12,4.72,0,9.82.68,15.22,2.17,1.43.37,2.92.81,4.41,1.3,7.08,2.3,13.23,6.03,18.33,11.06.37.37.81.81,1.12,1.24,1.49,1.68,2.73,3.48,3.73,5.41,1.86,3.67,2.8,7.77,2.8,12.36,0,10.13-4.78,18.26-14.35,24.54Z"/>
      <g>
        <path class="cls-1" d="M127.41,144.75c-.5-.19-.99-.31-1.43-.5-1.99.68-4.1,1.24-6.34,1.62-3.17.5-6.52.37-10.06-.37.56.75,1.24,1.49,1.99,2.24.68.87,1.49,1.68,2.36,2.42.62.62,1.24,1.18,1.86,1.74l.19.19q.06.06.12.12c.75.62,1.49,1.24,2.24,1.8.37-.12.68-.19,1.06-.37,4.78-1.62,9.26-4.04,13.42-7.33-1.74-.43-3.54-.93-5.4-1.55ZM202.33,112.88c-.25-4.53-1.12-8.82-2.55-12.92-.25-.93-.62-1.86-1.06-2.8v-.12c-2.8-6.59-7.08-12.61-12.92-18.08-3.04-2.86-6.21-5.34-9.5-7.33-.43-.31-.87-.62-1.37-.81-4.97-3.04-10.25-5.09-15.72-6.21-3.6-.81-7.27-1.18-11.06-1.18-4.22,0-8.39.5-12.3,1.55-6.09,1.43-11.8,4.1-17.15,7.95-1.93,1.31-3.79,2.8-5.65,4.47-7.21,6.65-11.93,14.54-13.98,23.67-.56,2.24-.93,4.53-1.12,6.96-.19,1.55-.25,3.23-.25,4.91,0,10.25,2.73,19.44,8.14,27.65,1.18,1.74,2.36,3.35,3.67,4.91h.06c.56.75,1.24,1.49,1.99,2.24.68.87,1.49,1.68,2.36,2.42.62.62,1.24,1.18,1.86,1.74l.19.19q.06.06.12.12c.75.62,1.49,1.24,2.24,1.8,2.55,1.93,5.28,3.67,8.2,5.16,1.18.62,2.36,1.18,3.54,1.68,0,0,.06,0,.06.06,6.27,2.8,12.18,4.35,17.64,4.6.62.06,1.18.06,1.8.06,5.34,0,10.31-.56,14.97-1.68,9.13-2.05,16.9-6.21,23.3-12.49,1.86-1.8,3.54-3.73,4.97-5.72,2.67-3.35,4.66-6.9,6.15-10.75,2.36-5.65,3.48-11.93,3.48-18.64,0-1.18-.06-2.3-.12-3.42ZM173.07,144.31c-2.11.62-4.16,1.18-6.27,1.61-5.78,1.31-11.56,2.11-17.15,2.17-.87.12-1.74.12-2.61.12-4.41,0-9.19-.62-14.23-1.93-1.74-.43-3.54-.93-5.4-1.55-.5-.19-.99-.31-1.43-.5-6.46-2.36-12.18-5.9-16.9-10.62-5.09-5.03-7.64-11.37-7.64-19.01,0-3.67.62-7.14,1.93-10.31.75-1.93,1.8-3.73,3.04-5.4,2.3-3.29,5.4-6.21,9.38-8.76,4.35-2.86,8.95-5.03,13.92-6.52,5.47-1.74,11.37-2.67,17.64-2.8.56-.06,1.12-.06,1.74-.06h.93c6.09.06,11.87.81,17.27,2.24,5.84,1.55,11.24,3.85,16.28,6.96,9.88,6.09,14.85,14.29,14.85,24.48,0,6.27-1.99,12.18-6.03,17.7-1.43,1.99-3.17,3.79-5.22,5.41-2.42,1.93-5.34,3.54-8.7,4.91-1.68.68-3.48,1.31-5.41,1.86Z"/>
        <path class="cls-1" d="M150.03,80.76c-.5,1.18-.87,2.42-1.18,3.67-.37-1.24-.87-2.42-1.49-3.6.56-.06,1.12-.06,1.74-.06h.93Z"/>
      </g>
    </g>
    <g>
      <path class="cls-1" d="M383.11,66.29c-7.27-7.27-15.66-11.8-25.28-13.73-9.63-1.93-18.89-1.43-27.77,1.43-8.95,2.92-15.84,6.9-20.81,11.8-.19.19-.31.31-.5.5-4.6,4.72-8.2,9.63-10.93,14.72-.19.44-.43.87-.62,1.3-3.23,6.52-4.85,13.36-4.97,20.56-.06,5.34.62,10.37,2.11,15.1.12.5.25.93.5,1.37,1.49,4.66,3.85,9.01,7.02,13.11,1.43,1.93,3.04,3.79,4.85,5.59,3.54,3.54,7.45,6.46,11.56,8.76,4.1,2.24,8.51,3.85,13.23,4.78,1.37.31,2.73.56,4.16.62,2.92.44,6.03.56,9.26.44,6.96-.25,13.36-1.49,19.2-3.73,1.06-.37,2.17-.81,3.17-1.31,5.65-2.55,10.69-6.03,15.22-10.56.25-.25.5-.5.68-.75,8.82-9.19,13.54-20.5,14.23-34.04.62-13.85-4.16-25.84-14.29-35.97ZM375.28,119.03c-1.74,2.17-3.67,4.35-5.72,6.4-1.61,1.62-3.35,3.17-5.03,4.6-6.34,5.34-13.17,9.19-20.44,11.62-1.8.68-3.6,1.18-5.4,1.62-4.78,1.18-9.19,1.43-13.23.75-5.59-.81-10.44-3.35-14.6-7.52-3.11-3.11-5.4-6.83-6.83-11.06-.62-1.8-1.12-3.73-1.43-5.78-.56-3.29-.43-6.77.37-10.37.87-3.79,2.42-7.77,4.66-11.87,2.61-4.72,5.47-9.07,8.57-13.05,2.17-2.86,4.6-5.59,7.08-8.08.81-.81,1.74-1.68,2.67-2.48h.06c3.79-3.29,8.32-6.27,13.67-9.01,6.65-3.35,13.6-5.03,20.75-5.09,7.21,0,13.48,2.67,18.89,8.01,7.14,7.14,9.5,16.34,7.14,27.52-1.74,8.57-5.53,16.52-11.18,23.79Z"/>
      <path class="cls-1" d="M313.53,199.23c-.62-1.8-1.18-3.67-1.62-5.53-.5-2.11-.87-4.1-.99-6.09-2.05-2.42-3.73-5.28-5.16-8.64-1.68,4.41-2.73,9.13-3.11,14.16-.19,2.17-.19,4.41-.12,6.71.31,9.26,2.36,17.52,6.21,24.85,2.49-4.04,5.65-7.95,9.44-11.74.43-.43.87-.81,1.3-1.18-2.48-4.04-4.53-8.2-5.96-12.55ZM402.43,189.66c-.31-1.55-.75-3.11-1.24-4.6-1.62-4.91-3.54-9.19-5.72-12.86-1.8-3.04-3.85-5.72-6.09-7.95-1.93-1.93-3.91-3.73-5.9-5.28-5.16-4.1-10.56-7.14-16.15-9.07-1.06-.44-2.17-.75-3.23-.99-3.85-1.06-7.77-1.62-11.8-1.68-4.72-.06-9.19.5-13.42,1.68-2.55.62-5.03,1.49-7.39,2.67-5.16,2.3-9.88,5.71-14.29,10.13-1.06,1.06-2.05,2.11-2.92,3.17-3.73,4.29-6.58,9.01-8.51,14.1-1.68,4.41-2.73,9.13-3.11,14.16-.19,2.17-.19,4.41-.12,6.71.31,9.26,2.36,17.52,6.21,24.85,2.36,4.66,5.53,8.95,9.38,12.8.56.56,1.12,1.06,1.68,1.55,2.86,2.67,5.9,4.91,9.19,6.77,7.02,3.91,14.97,6.15,23.92,6.59.43.06.81.06,1.18,0,1.68.06,3.35.06,4.97-.12,3.04-.19,5.96-.68,8.76-1.49,7.7-2.11,14.72-6.34,21.06-12.67,2.73-2.73,5.03-5.59,6.96-8.57,1.43-2.17,2.67-4.41,3.6-6.77,1.43-3.17,2.49-6.46,3.17-9.94,1.62-8.01,1.55-15.72-.19-23.17ZM394.17,223.64c-1.24,3.91-3.48,7.46-6.71,10.69-7.14,7.14-16.34,9.5-27.52,7.14-2.42-.5-4.85-1.18-7.21-1.99-2.49-.87-4.91-1.93-7.27-3.23-5.34-2.73-10.31-6.4-14.97-11-.25-.19-.5-.43-.75-.68-4.04-4.04-7.45-8.32-10.25-12.8-2.48-4.04-4.53-8.2-5.96-12.55-.62-1.8-1.18-3.67-1.62-5.53-.5-2.11-.87-4.1-.99-6.09-.75-8.57,1.86-15.84,7.77-21.74,4.47-4.41,10.06-7.21,16.84-8.26,6.71-1.12,14.16.62,22.24,5.03,2.55,1.43,4.97,2.86,7.33,4.47,3.85,2.48,7.39,5.28,10.68,8.32.25.12.56.37.81.68.81.68,1.55,1.43,2.3,2.17,3.29,3.29,6.27,7.21,9.07,11.93.81,1.43,1.62,2.92,2.42,4.47,3.35,6.65,5.03,13.6,5.09,20.75,0,.56,0,1.12-.06,1.68-.12,2.3-.56,4.47-1.24,6.52Z"/>
      <g>
        <path class="cls-1" d="M298.13,82.31c-.06-.43-.12-.87-.31-1.3-1.43-5.71-3.73-10.93-6.9-15.72-1.93-2.92-4.22-5.71-6.77-8.26-3.04-3.11-6.4-5.65-9.94-7.7-5.34-3.29-11.31-5.4-17.77-6.4-2.3-.44-4.6-.68-7.02-.81-9.82-.43-18.7,1.8-26.59,6.83-1.93,1.12-3.85,2.48-5.65,4.04-1.24,1.06-2.49,2.17-3.73,3.42-7.27,7.21-11.87,15.66-13.79,25.28-.37,1.93-.68,3.91-.87,5.84-.31,3.23-.31,6.4-.06,9.5v.12c.06.81.12,1.62.25,2.42.37,3.29,1.12,6.59,2.17,9.88.37,1.18.81,2.3,1.18,3.35v.06c2.55,6.59,5.65,11.93,9.38,16.03.43.44.81.87,1.24,1.31,3.11,3.11,6.21,5.72,9.5,7.95.68.5,1.43.99,2.17,1.43l.06.06c7.95,4.97,16.4,7.52,25.35,7.64,2.61.06,5.16-.12,7.64-.56,4.29-.5,8.32-1.62,12.18-3.35,5.53-2.36,10.62-5.9,15.28-10.56.62-.62,1.18-1.24,1.68-1.86,3.35-3.54,6.03-7.45,8.01-11.62.68-1.31,1.24-2.61,1.74-4.04,2.42-6.27,3.48-13.17,3.23-20.69-.19-4.35-.68-8.45-1.68-12.3ZM283.65,128.59c-4.47,4.47-10.06,7.27-16.84,8.32-2.3.37-4.6.37-7.02.12-3.23-.31-6.58-1.24-10.06-2.67v-.06c-1.68-.68-3.42-1.49-5.22-2.49-1.93-1.06-3.73-2.11-5.53-3.29-5.03-3.11-9.63-6.65-13.73-10.62-.62-.5-1.24-1.12-1.86-1.74-3.23-3.23-6.27-7.21-9.01-11.93-.87-1.43-1.68-2.86-2.42-4.41-.31-.62-.62-1.24-.87-1.86-2.8-6.09-4.16-12.42-4.22-18.95,0-7.14,2.67-13.48,8.01-18.82,2.61-2.61,5.53-4.6,8.7-5.96h.06c1.86-.81,3.79-1.37,5.84-1.68,0-.06.06,0,.06,0,3.91-.68,8.2-.5,12.8.43,4.97,1.06,9.75,2.73,14.29,5.16,5.09,2.55,9.88,6.03,14.41,10.31.5.44.99.93,1.49,1.43.12.12.19.19.25.31,4.35,4.35,7.95,8.95,10.81,13.79,3.17,5.34,5.47,10.93,6.83,16.77,2.67,11.37.43,20.62-6.77,27.83Z"/>
        <path class="cls-1" d="M272.78,70.2c-1.06.5-2.11,1.06-3.17,1.68.62-1.12,1.06-2.24,1.43-3.42.5.44.99.93,1.49,1.43.12.12.19.19.25.31Z"/>
      </g>
    </g>
    <g>
      <path class="cls-1" d="M439.89,197.12c-5.4-8.14-12.3-14.35-20.69-18.58-8.39-4.22-16.03-6.34-23.05-6.34h-.68c-6.65.06-12.74.93-18.26,2.8-.5.06-.93.25-1.43.43-6.77,2.3-12.74,5.96-17.89,10.93-3.98,3.85-7.14,8.08-9.38,12.67-.25.25-.37.5-.43.81-2.3,4.54-3.73,9.44-4.29,14.72-.37,2.24-.5,4.47-.5,6.83,0,5.22.68,10.19,2.17,14.85,1.3,4.35,3.23,8.45,5.78,12.3.87,1.31,1.8,2.61,2.8,3.85h.06c1.68,2.17,3.67,4.29,5.84,6.34,5.09,4.72,10.44,8.39,16.15,10.93,1.24.56,2.48,1.12,3.73,1.49,5.65,2.11,11.55,3.11,17.77,3.11.5,0,.99,0,1.49-.06,12.55-.31,23.73-4.97,33.61-13.92,10.25-9.38,15.34-21.18,15.34-35.53,0-10.25-2.67-19.44-8.14-27.64ZM430.01,247.56c-7.27,4.78-15.41,7.7-24.48,8.88-2.86.37-5.84.56-8.88.56-2.17,0-4.29-.06-6.4-.25-8.14-.68-15.66-2.67-22.43-5.96-1.93-.87-3.79-1.86-5.59-2.98-3.98-2.42-7.14-5.22-9.44-8.32h-.06c-3.6-4.66-5.4-10-5.4-16.15,0-4.22.87-8.2,2.67-12.05.87-1.99,1.99-3.85,3.35-5.71,1.93-2.61,4.29-4.91,7.27-6.83,3.35-2.17,7.39-3.98,12.11-5.34,5.16-1.49,10.25-2.61,15.22-3.17,3.6-.5,7.21-.75,10.75-.75,1.24,0,2.49.06,3.73.19,4.97.31,10.25,1.43,15.97,3.29,7.08,2.36,13.17,6.03,18.26,11.12,5.09,5.09,7.64,11.43,7.64,19.01,0,10.06-4.78,18.26-14.29,24.48Z"/>
      <path class="cls-1" d="M301.61,257.44c-1.74,1.49-3.35,3.04-4.97,4.78-6.34,6.77-10.75,14.1-13.17,21.99,4.66-1.12,9.63-1.68,14.97-1.68.56,0,1.12,0,1.74.06,1.06-4.6,2.61-8.95,4.66-12.98.81-1.74,1.74-3.48,2.73-5.09,1.18-1.93,2.42-3.6,3.79-5.16.43-3.11,1.37-6.4,2.8-9.82-4.47,1.93-8.64,4.54-12.55,7.89ZM382.74,291.11c-.62-6.65-2.24-12.61-4.78-18.02-.56-1.18-1.12-2.3-1.86-3.42-1.86-3.42-4.29-6.59-7.08-9.5-3.04-3.17-6.4-5.84-9.94-7.89-2.48-1.55-5.09-2.8-7.83-3.73-5.28-1.99-11.06-2.98-17.27-2.98-1.68,0-3.35.06-4.97.25h-.06c-5.22.44-10.19,1.68-14.79,3.73-4.47,1.93-8.64,4.54-12.55,7.89-1.74,1.49-3.35,3.04-4.97,4.78-6.34,6.77-10.75,14.1-13.17,21.99-1.55,5.03-2.36,10.25-2.36,15.66,0,.81,0,1.55.12,2.3.12,4.04.75,7.95,1.8,11.68,2.17,7.64,6.15,14.66,12.05,21.12.37.37.68.75,1.06,1.06,1.12,1.24,2.3,2.3,3.48,3.29,2.3,1.99,4.72,3.73,7.27,5.16,6.96,3.91,14.85,5.84,23.73,5.84,3.79,0,7.45-.37,11-1.12,2.49-.5,4.97-1.24,7.33-2.17,3.23-1.24,6.34-2.86,9.32-4.85,6.71-4.47,12.11-10,16.15-16.46.87-1.37,1.68-2.8,2.42-4.22,2.3-4.53,3.98-8.88,4.97-13.04.93-3.48,1.37-6.77,1.37-10,0-2.55-.12-4.97-.43-7.33ZM362.42,320.62c-2.36,7.14-6.03,13.23-11.12,18.33-.37.37-.81.81-1.24,1.12-1.68,1.49-3.48,2.73-5.4,3.73-3.67,1.86-7.77,2.8-12.36,2.8-10.06,0-18.26-4.78-24.48-14.35-1.3-1.99-2.48-4.1-3.48-6.21-1.18-2.3-2.17-4.72-2.92-7.21-1.93-5.78-2.92-12.11-3.04-18.82v-1.06c0-5.78.62-11.18,1.8-16.34,1.06-4.6,2.61-8.95,4.66-12.98.81-1.74,1.74-3.48,2.73-5.09,1.18-1.93,2.42-3.6,3.79-5.16,5.53-6.52,12.42-9.75,20.69-9.75,6.34,0,12.24,1.99,17.77,6.03,5.53,4.04,9.63,10.44,12.18,19.32.87,2.98,1.62,5.9,2.11,8.82.93,4.47,1.49,8.88,1.68,13.23.06.44.06.81,0,1.18.12.93.12,1.86.12,2.8,0,4.66-.68,9.69-2.17,14.97-.31,1.55-.81,3.11-1.3,4.66Z"/>
      <g>
        <path class="cls-1" d="M383.17,136.3c-1.43-6.15-4.04-11.87-7.89-17.27-1.37-2.05-2.92-3.98-4.66-5.9-6.65-7.27-14.47-11.93-23.61-14.04-2.24-.56-4.6-.93-6.96-1.12-1.61-.19-3.29-.25-4.97-.25-10.25,0-19.44,2.73-27.58,8.2-1.62,1.06-3.11,2.17-4.53,3.35-2.36,1.86-4.47,3.85-6.4,6.03-.06,0,0,.06,0,.06-.81.87-1.55,1.74-2.24,2.61-2.11,2.67-3.91,5.53-5.47,8.64-.75,1.43-1.43,2.86-1.99,4.29,0,0-.06,0-.06.06-2.55,6.03-3.98,11.68-4.22,16.9-.06.62-.06,1.18-.06,1.74,0,1.8.06,3.54.25,5.22-.06.43,0,.87.06,1.24.06,1.12.19,2.17.37,3.23.06.62.19,1.18.25,1.8.19,1.18.43,2.42.75,3.54,2.05,9.13,6.27,16.84,12.49,23.3,1.93,1.93,3.91,3.73,5.96,5.22,3.35,2.61,7.02,4.6,10.87,6.09,5.53,2.17,11.62,3.29,18.2,3.29,1.24,0,2.48-.06,3.67-.12,4.47-.31,8.7-1.12,12.67-2.55.99-.31,1.99-.68,2.98-1.12,6.58-2.73,12.61-7.08,18.02-12.86,2.92-3.17,5.47-6.4,7.52-9.75.25-.37.5-.75.62-1.12,3.11-5.09,5.16-10.44,6.27-16.03.75-3.48,1.12-7.08,1.12-10.75,0-4.1-.43-8.14-1.43-11.93ZM365.09,167.11c-1.49,5.9-3.85,11.37-6.96,16.46-6.15,9.94-14.29,14.91-24.48,14.91-6.34,0-12.24-2.05-17.77-6.03-1.86-1.37-3.54-2.98-4.97-4.85-2.05-2.42-3.73-5.28-5.16-8.64-.75-1.8-1.43-3.79-2.05-5.9-.62-2.05-1.12-4.16-1.62-6.21-1.3-5.84-2.11-11.56-2.17-17.21-.12-.87-.12-1.68-.12-2.55,0-4.6.68-9.44,2.05-14.66.43-1.62.93-3.29,1.49-5.03.25-.68.43-1.37.68-1.99,2.36-6.27,5.84-11.68,10.37-16.28,5.09-5.09,11.43-7.7,19.01-7.7,3.73,0,7.14.62,10.37,1.93,1.86.81,3.67,1.74,5.34,3.04,3.29,2.24,6.21,5.4,8.82,9.38,2.86,4.41,5.09,9.13,6.58,14.23,1.74,5.47,2.67,11.31,2.73,17.58.06.5.06.99.06,1.49v.81c-.06,6.09-.81,11.8-2.24,17.21Z"/>
        <path class="cls-1" d="M367.33,149.09v.81c-1.06-.44-2.17-.75-3.23-.99,1.06-.37,2.17-.81,3.17-1.31.06.5.06.99.06,1.49Z"/>
      </g>
    </g>
    <g>
      <path class="cls-1" d="M394.42,330.06c-2.92-8.88-6.83-15.84-11.8-20.81l-.81-.81c-4.6-4.47-9.44-7.95-14.41-10.62-.56-.25-1.06-.56-1.62-.81-6.46-3.11-13.17-4.66-20.25-4.78-5.4-.06-10.56.68-15.41,2.24-.31.06-.68.19-.99.37-4.72,1.55-9.13,3.91-13.23,7.14-1.86,1.37-3.73,2.98-5.47,4.72-3.73,3.73-6.71,7.77-9.01,12.11-2.11,3.98-3.67,8.2-4.53,12.67-.37,1.49-.62,2.98-.75,4.53-.37,2.86-.5,5.84-.37,8.88.25,6.9,1.49,13.3,3.79,19.13.31,1.12.75,2.17,1.3,3.23,2.49,5.65,6.03,10.68,10.56,15.22.25.25.43.44.68.62,9.13,8.88,20.5,13.61,34.04,14.29,13.85.62,25.84-4.16,35.97-14.29,7.27-7.21,11.87-15.65,13.79-25.28,1.86-9.57,1.43-18.89-1.49-27.77ZM380.69,379.32c-7.14,7.14-16.28,9.5-27.52,7.21-8.57-1.8-16.52-5.59-23.86-11.43-2.11-1.62-4.22-3.48-6.27-5.53-1.68-1.68-3.23-3.35-4.66-5.09-5.28-6.21-9.13-12.92-11.49-20-.75-1.86-1.3-3.79-1.74-5.72-1.06-4.6-1.37-8.82-.81-12.73v-.06c.75-5.78,3.29-10.75,7.58-15.03,3.11-3.11,6.71-5.34,10.87-6.83,1.86-.68,3.85-1.18,5.96-1.49,3.17-.5,6.52-.37,10,.31,3.91.87,8.01,2.42,12.3,4.78,4.53,2.49,8.82,5.22,12.67,8.26,3.04,2.3,5.84,4.72,8.45,7.33.75.75,1.49,1.55,2.24,2.42,3.35,3.85,6.46,8.51,9.19,13.98,3.35,6.65,5.03,13.61,5.09,20.75,0,7.21-2.67,13.48-8.01,18.89Z"/>
      <path class="cls-1" d="M254.95,302.66c-2.05-.19-4.22-.19-6.4-.12-9.26.31-17.52,2.42-24.79,6.27,4.04,2.49,7.89,5.59,11.68,9.38.43.43.81.87,1.24,1.3,3.85-2.42,7.89-4.41,12.11-5.84,1.93-.68,3.91-1.24,5.9-1.74,1.93-.5,3.85-.81,5.65-.93,2.48-2.05,5.4-3.79,8.88-5.22-4.47-1.74-9.19-2.8-14.29-3.11ZM299.62,339.31c-.62-2.73-1.55-5.34-2.73-7.83-2.36-5.16-5.78-9.94-10.19-14.29-1.18-1.18-2.42-2.3-3.67-3.35-4.22-3.54-8.82-6.21-13.79-8.08-4.47-1.74-9.19-2.8-14.29-3.11-2.05-.19-4.22-.19-6.4-.12-9.26.31-17.52,2.42-24.79,6.27-4.66,2.36-8.95,5.53-12.8,9.38-.56.56-1.12,1.12-1.49,1.68-2.92,3.04-5.28,6.34-7.21,9.88-3.79,6.83-5.84,14.54-6.21,23.17,0,.31-.06.62,0,.87-.06,1.62-.06,3.17.12,4.66.06,3.04.56,5.96,1.3,8.82,2.05,7.95,6.34,15.16,12.8,21.62,2.73,2.73,5.59,5.09,8.63,7.02,2.17,1.43,4.35,2.61,6.65,3.6,3.17,1.43,6.52,2.49,10,3.17,7.83,1.55,15.47,1.55,22.8-.19,1.68-.31,3.35-.75,4.97-1.3,4.78-1.55,8.95-3.42,12.55-5.53,3.17-1.86,5.96-3.98,8.26-6.27,1.93-1.93,3.67-3.85,5.22-5.78,4.16-5.22,7.21-10.62,9.13-16.28.43-1.06.75-2.17,1.06-3.29.99-3.79,1.55-7.7,1.62-11.74.06-4.53-.43-8.88-1.55-12.98ZM272.78,376.09c-.19.25-.37.44-.62.68-.62.74-1.37,1.49-2.05,2.17-3.35,3.35-7.45,6.46-12.3,9.19-1.3.81-2.61,1.55-4.04,2.24-6.71,3.35-13.6,5.09-20.81,5.09-.56,0-1.12,0-1.68-.06-2.24-.12-4.35-.5-6.4-1.18-3.91-1.31-7.52-3.54-10.81-6.77-7.08-7.14-9.5-16.28-7.14-27.46.5-2.55,1.24-5.09,2.11-7.52.87-2.42,1.93-4.78,3.17-7.08,2.73-5.28,6.4-10.25,10.93-14.91.25-.25.43-.43.68-.68,4.1-4.1,8.39-7.52,12.86-10.31,3.85-2.42,7.89-4.41,12.11-5.84,1.93-.68,3.91-1.24,5.9-1.74,1.93-.5,3.85-.81,5.65-.93,8.82-.81,16.21,1.74,22.18,7.7,4.47,4.47,7.21,10.06,8.26,16.83,1.12,6.71-.56,14.16-5.03,22.3-1.43,2.55-2.92,5.03-4.53,7.39-2.55,3.91-5.4,7.52-8.45,10.87Z"/>
      <g>
        <path class="cls-1" d="M329.75,224.57c-4.04-4.04-7.45-8.32-10.25-12.8-.43.37-.87.75-1.3,1.18-3.11,3.11-5.72,6.21-7.95,9.5-.5.68-.99,1.43-1.43,2.17l-.06.06c2.36,4.66,5.53,8.95,9.38,12.8.56.56,1.12,1.06,1.68,1.55,3.23-5.03,6.77-9.69,10.68-13.79-.25-.19-.5-.43-.75-.68ZM399.45,222.77c-1.12-1.93-2.48-3.85-4.04-5.65-1.06-1.24-2.17-2.49-3.35-3.67-7.27-7.27-15.65-11.87-25.28-13.79-2.05-.44-4.1-.68-6.15-.93-3.23-.25-6.4-.25-9.57,0q-.06,0-.12.06c-.81,0-1.61.12-2.42.25-3.23.37-6.4,1.12-9.57,2.11-1.24.37-2.42.81-3.54,1.24-6.52,2.49-11.8,5.59-15.9,9.38-.43.37-.87.75-1.3,1.18-3.11,3.11-5.72,6.21-7.95,9.5-.5.68-.99,1.43-1.43,2.17l-.06.06c-4.97,7.95-7.45,16.4-7.64,25.35-.06,2.55.12,5.03.5,7.39.5,4.29,1.62,8.32,3.23,12.18,2.42,5.65,6.03,10.81,10.75,15.53.75.74,1.49,1.43,2.24,2.05,3.48,3.17,7.27,5.72,11.31,7.64,1.06.62,2.17,1.06,3.29,1.55,6.46,2.55,13.6,3.67,21.37,3.42,4.22-.12,8.2-.68,11.99-1.62.56-.06,1.12-.19,1.62-.37,5.59-1.37,10.68-3.6,15.34-6.71,3.11-1.93,5.96-4.29,8.64-6.96,3.11-3.04,5.65-6.4,7.7-9.94,3.29-5.34,5.4-11.31,6.46-17.77.37-2.3.62-4.6.75-7.02.43-9.82-1.8-18.7-6.83-26.65ZM364.1,283.78c-5.22,3.11-10.68,5.28-16.46,6.65-11.37,2.67-20.62.44-27.83-6.77-4.47-4.47-7.21-10.06-8.32-16.84-.37-2.36-.43-4.85-.12-7.46.43-3.11,1.37-6.4,2.8-9.82.68-1.61,1.49-3.29,2.42-5.03,1.06-1.86,2.11-3.73,3.23-5.47,3.23-5.03,6.77-9.69,10.68-13.79.5-.62,1.12-1.24,1.74-1.86,3.17-3.17,7.02-6.09,11.55-8.82,1.55-.87,3.11-1.74,4.78-2.61.5-.25.93-.44,1.43-.68,6.27-2.92,12.67-4.41,19.38-4.41,7.21,0,13.48,2.67,18.82,8.01,2.61,2.61,4.6,5.53,5.96,8.7v.06c.81,1.86,1.37,3.85,1.68,5.9.68,3.91.56,8.2-.43,12.8-1.06,5.03-2.8,9.88-5.16,14.41-2.61,5.09-6.09,9.94-10.44,14.41-.43.5-.87.93-1.3,1.37-.19.19-.37.37-.56.56-4.35,4.29-9.01,7.89-13.85,10.68Z"/>
        <path class="cls-1" d="M379.82,271.17c-.43.5-.87.93-1.3,1.37-.19.19-.37.37-.56.56-.56-1.18-1.12-2.3-1.86-3.42,1.24.56,2.48,1.12,3.73,1.49Z"/>
      </g>
    </g>
  </g>
</svg>