<?xml version="1.0" encoding="UTF-8"?>
<svg id="Layer_1" data-name="Layer 1" xmlns="http://www.w3.org/2000/svg" xmlns:xlink="http://www.w3.org/1999/xlink" viewBox="0 0 421.32 714.38">
  <defs>
    <style>
      .cls-1 {
        fill: none;
      }

      .cls-2 {
        fill: #e5d4c2;
      }

      .cls-3 {
        clip-path: url(#clippath);
      }
    </style>
    <clipPath id="clippath">
      <rect class="cls-1" width="421.32" height="714.38"/>
    </clipPath>
  </defs>
  <g class="cls-3">
    <g>
      <g>
        <path class="cls-2" d="M424.13,600c-.09-.61-.26-1.21-.52-1.73-3.29-9.69-8.4-18.09-15.41-25.27-5.19-5.37-10.91-9.69-17.14-12.9-.52-.35-1.04-.61-1.64-.69v-.09c-6.15-3.12-12.9-5.11-20.08-5.89-3.29-.61-6.58-.78-10.04-.78-7.01,0-13.76.95-20.08,2.86-6.23,1.82-12.12,4.5-17.66,8.14-1.64,1.13-3.29,2.25-4.85,3.55-3.29,2.51-6.4,5.45-9.43,8.66-6.66,7.1-11.77,14.63-15.23,22.59-.78,1.56-1.39,3.12-1.9,4.67-3.03,7.96-4.5,16.27-4.5,25.1,0,.61,0,1.3.09,1.9.35,17.57,6.84,33.24,19.47,47,12.98,14.28,29.51,21.46,49.51,21.46,14.28,0,27.09-3.81,38.43-11.34,11.34-7.62,19.99-17.22,25.88-28.82,5.97-11.68,8.92-22.42,8.92-32.11v-.78c-.09-9.26-1.3-17.74-3.81-25.53ZM398.94,657.21c-3.29,9.87-8.4,18.44-15.49,25.53-7.01,7.1-15.84,10.65-26.49,10.65-14.02,0-25.36-6.66-34.1-19.99-6.66-10.13-10.73-21.55-12.38-34.19-.43-3.89-.69-7.96-.69-12.2,0-3.12.09-6.14.43-9.18.87-11.51,3.72-22.16,8.48-31.76v-.09c1.21-2.42,2.51-4.76,3.89-7.01,3.55-5.8,7.62-10.3,12.2-13.59,6.32-4.76,13.68-7.1,21.9-7.1,5.97,0,11.77,1.3,17.31,3.98,2.51,1.12,5.02,2.68,7.44,4.41,3.81,2.68,7.01,6.23,9.87,10.65v.09c2.94,4.5,5.28,9.95,7.1,16.18,2.08,7.27,3.55,14.45,4.33,21.47.69,5.02,1.04,9.95,1.04,14.8,0,1.65-.09,3.38-.26,5.19-.43,6.84-1.99,14.28-4.59,22.16Z"/>
        <path class="cls-2" d="M325.37,533.7c-.52-7.79-2.34-15.06-5.37-21.9-2.68-6.06-6.23-11.86-10.82-17.22-2.08-2.42-4.33-4.76-6.75-7.01-9.43-8.74-19.65-14.89-30.64-18.35-7.01-2.16-14.28-3.29-21.81-3.29-1.04,0-2.08,0-3.12.17-5.37.09-10.56.95-15.58,2.34-10.91,2.94-21.03,8.66-30.21,17.05-.43.43-.95.87-1.38,1.39-1.73,1.56-3.29,3.29-4.76,5.02-2.77,3.2-5.11,6.58-7.01,10.13-5.45,9.69-8.22,20.69-8.22,32.98,0,5.28.52,10.39,1.64,15.23.69,3.55,1.64,6.92,2.94,10.21,1.73,4.59,3.98,8.83,6.75,12.98,6.32,9.43,14.02,17.05,23.2,22.68,1.82,1.13,3.72,2.25,5.63,3.2,6.49,3.29,12.64,5.71,18.52,7.1,4.67,1.21,9.26,1.82,13.59,1.82,3.72,0,7.27-.17,10.73-.61,9.17-.95,17.48-3.2,25.01-6.84,1.47-.69,2.94-1.47,4.33-2.34,4.85-2.68,9.17-6.06,13.24-9.95,4.67-4.59,8.57-9.52,11.6-14.8,1.9-3.2,3.46-6.58,4.67-10.04,2.77-7.36,4.07-15.41,4.07-24.06,0-1.99-.09-3.98-.26-5.89ZM284.69,578.71c-3.98,1.13-7.96,2.08-11.86,2.86-6.14,1.21-12.29,1.99-18.26,2.25-.61.17-1.21.17-1.82.09-1.47.17-2.86.17-4.33.17-6.32,0-13.24-.95-20.51-2.77-2.25-.61-4.5-1.3-6.84-2.08-9.87-3.29-18.44-8.4-25.53-15.49-.61-.61-1.13-1.13-1.64-1.73-2.08-2.34-3.81-4.85-5.11-7.53-2.6-5.11-3.89-10.82-3.89-17.14,0-14.11,6.66-25.45,19.99-34.19,2.77-1.82,5.63-3.46,8.66-4.85,3.38-1.73,6.84-3.11,10.47-4.15,8.05-2.6,16.62-3.89,25.88-4.07h1.38c8.05,0,15.58.87,22.76,2.51,6.58,1.47,12.72,3.63,18.52,6.58,2.34,1.13,4.59,2.34,6.75,3.72,2.6,1.65,4.93,3.29,7.01,5.28,9.09,7.62,13.68,17.31,13.68,28.82,0,8.74-2.77,17.05-8.4,24.75-5.54,7.7-14.54,13.33-26.92,16.96Z"/>
        <path class="cls-2" d="M520.29,502.71c-1.56-2.25-3.12-4.41-4.76-6.4-2.68-3.37-5.63-6.4-8.74-9.09h-.09c-1.04-1.04-2.08-1.9-3.2-2.68-3.72-2.94-7.7-5.54-12.03-7.7-1.73-.86-3.46-1.73-5.11-2.42-8.83-3.98-17.05-6.06-24.58-6.41-.87-.09-1.64-.09-2.42-.09-2.42,0-4.76.09-7.1.35-.69-.09-1.39,0-2.08.09-1.39.09-2.77.26-4.15.52-.87.09-1.73.17-2.6.35-1.64.35-3.29.61-4.93,1.04-12.72,2.86-23.54,8.66-32.46,17.4-2.77,2.68-5.19,5.45-7.27,8.31-3.64,4.76-6.49,9.87-8.57,15.32-3.03,7.7-4.5,16.19-4.5,25.27,0,1.3,0,2.51.09,3.72v.09c.35,6.66,1.47,12.98,3.64,18.95.52,1.82,1.3,3.64,1.99,5.37,0,0,.09,0,.09.09,3.81,8.66,9.69,16.53,17.4,23.8,4.41,4.16,9.09,7.7,13.85,10.65.43.35.95.61,1.39.78,7.18,4.33,14.63,7.18,22.59,8.74,4.67,1.04,9.52,1.47,14.54,1.47,5.97,0,11.68-.69,17.14-2.16,8.48-1.99,16.53-5.71,23.98-11.16,2.68-1.82,5.28-3.9,7.79-6.23,10.13-9.18,16.62-20.17,19.56-32.89.78-3.12,1.3-6.32,1.56-9.69.26-2.25.35-4.59.35-6.92,0-14.28-3.81-27.09-11.34-38.43ZM519.51,560.79c-3.2,4.5-7.53,8.57-13.07,12.2-5.97,3.98-12.46,7.01-19.3,9.09-7.62,2.42-15.67,3.72-24.41,3.9-.87.09-1.73.09-2.68.09h-.61c-8.48-.09-16.53-1.04-24.06-2.94-8.4-2.16-16.19-5.45-23.37-9.87-13.85-8.48-20.69-19.91-20.69-34.1,0-8.74,2.77-17.05,8.4-24.75,1.82-2.51,3.98-4.85,6.58-6.84,3.46-2.86,7.53-5.28,12.38-7.27,2.51-1.13,5.11-1.99,7.96-2.86,2.94-.87,5.8-1.56,8.74-2.16,8.05-1.9,16.1-2.94,23.89-3.03,1.21-.17,2.42-.17,3.64-.17,6.4,0,13.42.95,20.77,2.94,2.16.52,4.33,1.21,6.58,1.9,1.04.35,2.08.69,3.03,1.04,8.57,3.38,16.19,8.14,22.5,14.45,7.1,7.01,10.65,15.84,10.65,26.4,0,5.19-.87,10.04-2.68,14.45-1.13,2.68-2.51,5.11-4.24,7.53Z"/>
      </g>
      <g>
        <path class="cls-2" d="M257.86,533.87c0-.35-.09-.69-.35-1.04-2.16-6.75-5.63-12.98-10.3-18.87-1.82-2.51-3.89-4.85-6.23-7.18-5.19-5.19-10.82-9.43-16.96-12.64-5.54-2.94-11.43-5.02-17.66-6.23-2.16-.52-4.41-.87-6.66-1.04-3.81-.43-7.79-.61-11.94-.43-9.69.35-18.61,1.99-26.75,5.19-1.64.52-3.38,1.21-4.93,2.08-7.62,3.46-14.54,8.31-20.69,14.45-.43.43-.95.95-1.3,1.47-12.12,12.72-18.52,28.3-19.39,46.91-.95,19.3,5.71,36.01,19.82,50.2,10.04,10.04,21.81,16.45,35.23,19.13,13.42,2.68,26.31,1.99,38.69-2.08,12.46-4.07,22.07-9.52,29-16.44.35-.35.61-.61.95-.95,6.32-6.41,11.25-13.16,14.97-20.17.43-.78.78-1.65,1.21-2.42,4.24-8.92,6.4-18.26,6.58-28.13.09-7.7-.95-14.97-3.29-21.81ZM195.02,608.74c-9.26,4.76-18.96,7.1-28.91,7.1-10.04.09-18.78-3.63-26.31-11.17-9.95-9.95-13.24-22.68-9.95-38.26,2.42-11.86,7.62-22.85,15.49-32.98,2.42-3.12,5.11-6.14,8.05-9.09,2.16-2.16,4.41-4.24,6.66-6.14,8.66-7.36,17.92-12.81,27.87-16.19v-.09c2.77-1.04,5.63-1.82,8.48-2.51,6.14-1.47,11.86-1.82,17.14-1.13,8.31.95,15.49,4.5,21.64,10.65,4.07,4.07,7.1,8.83,9.09,14.37,1.13,2.77,1.9,5.8,2.42,9,.69,4.33.61,8.74-.35,13.5-1.13,5.63-3.29,11.42-6.66,17.57-3.55,6.49-7.44,12.46-11.77,17.92-3.12,4.15-6.49,7.96-10.04,11.51-1.13,1.12-2.34,2.25-3.64,3.29-5.28,4.59-11.68,8.83-19.22,12.64Z"/>
        <path class="cls-2" d="M238.12,386.04c-.61-1.12-1.21-2.25-1.9-3.29-.35-.78-.87-1.56-1.38-2.34-.35-.69-.78-1.39-1.3-1.99-.95-1.47-1.99-2.86-3.12-4.15-1.64-2.08-3.46-4.16-5.37-6.06-.78-.78-1.56-1.47-2.34-2.16-4.15-3.9-8.74-7.18-13.59-9.87h-.09c-9.61-5.28-20.43-8.22-32.46-8.74-.52,0-1.13-.09-1.64,0-2.25-.09-4.41-.09-6.58.17-4.24.17-8.31.87-12.2,1.99-10.91,2.86-20.77,8.74-29.69,17.66-3.81,3.81-7.01,7.79-9.69,12.03-1.99,2.94-3.72,6.06-5.11,9.26-1.9,4.41-3.38,9.09-4.33,13.93-2.16,10.91-2.16,21.55.17,31.85.43,2.34,1.04,4.67,1.82,6.92,2.16,6.58,4.67,12.29,7.62,17.31h.09c2.51,4.5,5.45,8.4,8.74,11.6,2.51,2.51,5.02,4.85,7.62,6.92,7.18,5.8,14.71,10.13,22.59,12.98,1.64.61,3.38,1.13,5.02,1.56,5.37,1.47,10.82,2.25,16.45,2.34,6.14.09,11.94-.61,17.48-2.08,3.98-.86,7.79-2.16,11.43-3.98,7.18-3.29,13.85-7.96,19.99-14.11,1.73-1.73,3.38-3.55,4.93-5.37,4.59-5.63,8.22-11.77,10.73-18.35,2.51-6.23,4.07-12.98,4.5-20.17.26-3.03.35-6.14.26-9.35-.43-12.9-3.29-24.41-8.66-34.53ZM233.71,429.14c.69,2.94,1.21,5.8,1.38,8.57.95,11.95-2.68,22.07-10.82,30.21-6.23,6.23-14.02,10.04-23.46,11.6-9.35,1.47-19.73-.87-31.07-7.1-3.72-2.08-7.27-4.24-10.73-6.58-5.37-3.55-10.3-7.36-14.89-11.68-.35-.17-.69-.52-1.04-.95-.95-.78-1.9-1.64-2.77-2.6-4.67-4.67-8.91-10.39-12.81-17.14h-.09c-1.04-1.82-1.99-3.63-3.03-5.63-4.67-9.26-7.01-18.95-7.1-29,0-.78,0-1.47.09-2.25.17-3.2.78-6.23,1.73-9.17,1.73-5.45,4.85-10.3,9.35-14.8,9.95-9.95,22.76-13.33,38.34-10.04,3.29.69,6.58,1.64,9.78,2.77,3.38,1.12,6.75,2.6,9.95,4.33,7.53,3.81,14.63,9,21.29,15.49.35.26.69.61,1.04.95,4.24,4.24,7.96,8.74,11.25,13.33,1.13,1.47,2.08,3.03,3.03,4.59,3.46,5.45,6.23,11.17,8.22,17.14.95,2.6,1.73,5.28,2.34,7.96Z"/>
        <g>
          <path class="cls-2" d="M371.59,517.6c-5.28-5.28-10.65-9.61-16.27-13.07-10.99-6.92-22.85-10.47-35.4-10.65-3.72-.09-7.27.17-10.73.69-5.8.78-11.34,2.25-16.62,4.59,2.34,1.13,4.59,2.34,6.75,3.72,2.6,1.65,4.93,3.29,7.01,5.28,4.41.43,8.92,1.64,13.68,3.63,2.51.95,5.02,2.16,7.62,3.55,2.68,1.47,5.28,3.03,7.79,4.59,7.01,4.5,13.33,9.35,19.04,14.8.35-.35.61-.61.95-.95,5.71-5.71,11.68-10.47,17.92-14.37-.61-.61-1.13-1.21-1.73-1.82ZM391.49,564.77c0-.09-.09-.09-.09-.09,0-1.56-.17-3.12-.35-4.59-.61-4.59-1.56-9.09-3.03-13.5-.69-2.16-1.47-4.24-2.25-6.23v-.09c-3.38-8.48-7.53-15.41-12.46-20.86-.61-.61-1.13-1.21-1.73-1.82-5.28-5.28-10.65-9.61-16.27-13.07-10.99-6.92-22.85-10.47-35.4-10.65-3.72-.09-7.27.17-10.73.69-5.8.78-11.34,2.25-16.62,4.59-7.79,3.29-14.97,8.31-21.55,14.89-1.39,1.39-2.68,2.77-3.81,4.15-3.98,4.59-7.27,9.44-9.69,14.63-.69,1.21-1.21,2.42-1.73,3.64-3.81,9.35-5.54,19.56-5.19,30.81.17,5.8.95,11.34,2.16,16.62.17.78.35,1.56.61,2.34,1.9,7.79,5.02,14.89,9.35,21.38,2.68,4.33,5.97,8.31,9.69,12.03,4.15,4.07,8.57,7.62,13.33,10.47,7.44,4.59,15.67,7.62,24.75,9.09,3.29.69,6.75,1.04,10.3,1.21,13.68.61,25.97-2.51,37.04-9.52,2.77-1.64,5.37-3.55,7.96-5.71,1.73-1.47,3.46-3.03,5.11-4.67,10.13-10.04,16.53-21.81,19.22-35.23.52-2.6.87-5.28,1.21-7.88v-.09c.43-4.24.52-8.4.17-12.55ZM368.9,615.23c-3.64,3.64-7.62,6.4-12.03,8.31-2.6,1.13-5.37,1.9-8.31,2.34-5.45.95-11.42.69-17.92-.61-7.1-1.47-13.94-3.98-20.43-7.44-7.1-3.72-13.76-8.66-20.08-14.71-.52-.43-1.04-.95-1.56-1.47l-.87-.87c-5.97-6.06-10.91-12.46-14.89-19.21-4.24-7.27-7.27-14.89-9.17-22.94-3.72-15.75-.61-28.74,9.43-38.78,6.23-6.15,14.02-10.04,23.46-11.51,3.2-.52,6.4-.52,9.78-.17,4.41.43,8.92,1.64,13.68,3.63,2.51.95,5.02,2.16,7.62,3.55,2.68,1.47,5.28,3.03,7.79,4.59,7.01,4.5,13.33,9.35,19.04,14.8.87.69,1.73,1.56,2.6,2.42,4.41,4.5,8.57,9.95,12.29,16.27,1.3,2.08,2.51,4.33,3.64,6.58.35.78.78,1.47,1.04,2.25,3.98,8.57,6.06,17.48,6.06,26.66.09,10.04-3.64,18.78-11.17,26.31Z"/>
          <path class="cls-2" d="M292.05,598.44c-.78,1.56-1.39,3.12-1.9,4.67-.52-.43-1.04-.95-1.56-1.47l-.87-.87c1.47-.69,2.94-1.47,4.33-2.34Z"/>
        </g>
      </g>
      <g>
        <path class="cls-2" d="M186.54,369.68c-1.73-6.06-4.41-11.86-8.05-17.31v-.09c-1.13-1.65-2.25-3.29-3.55-4.85-2.51-3.29-5.37-6.4-8.66-9.43-7.1-6.58-14.63-11.68-22.59-15.15-1.47-.78-2.94-1.39-4.41-1.82-6.75-2.68-13.76-4.15-21.12-4.5-1.38-.17-2.86-.17-4.33-.17-.43,0-.78,0-1.21.09-1.21-.09-2.42,0-3.64.17-7.1.35-13.93,1.9-20.43,4.41h-.09c-7.79,2.94-14.97,7.44-21.81,13.42-.61.43-1.13.95-1.73,1.47-14.28,12.98-21.38,29.51-21.38,49.51,0,14.28,3.72,27.09,11.34,38.43,7.53,11.42,17.22,19.99,28.82,25.97,11.68,5.89,22.33,8.83,32.11,8.83.43,0,.78,0,1.13-.09h.09c9.09,0,17.48-1.3,25.1-3.72.69-.17,1.3-.35,1.99-.69,9.52-3.2,17.83-8.31,25.01-15.23,5.37-5.19,9.69-10.91,12.9-17.14.35-.52.61-1.04.78-1.65,3.12-6.06,5.02-12.72,5.89-19.73.52-3.29.78-6.75.78-10.3,0-7.18-.95-13.93-2.94-20.43ZM127.42,433.47c-5.11.69-10.13,1.04-15.15,1.04-1.56,0-3.12-.09-4.76-.17-7.01-.43-14.54-1.99-22.59-4.67-9.95-3.2-18.44-8.4-25.53-15.41-7.1-7.1-10.65-15.93-10.65-26.48,0-14.11,6.66-25.45,19.99-34.19,10.21-6.66,21.81-10.82,34.71-12.29,3.72-.52,7.7-.78,11.68-.78,3.29,0,6.49.17,9.61.43,11.43,1.04,21.9,3.89,31.42,8.66,2.42,1.04,4.67,2.34,6.92,3.72,5.71,3.55,10.21,7.53,13.5,12.03,4.85,6.32,7.27,13.68,7.27,22.07,0,6.15-1.39,12.03-4.07,17.57-1.21,2.42-2.6,4.85-4.33,7.18-2.77,3.72-6.23,7.01-10.56,9.78-4.59,2.94-10.04,5.28-16.36,7.18-7.1,2.08-14.11,3.55-21.03,4.33h-.09Z"/>
        <path class="cls-2" d="M275.95,277.59c-.17-5.63-.95-10.99-2.51-16.18-2.94-10.65-8.57-20.51-16.79-29.51-.35-.35-.61-.69-.95-.95-1.56-1.73-3.2-3.29-4.85-4.67-3.2-2.86-6.58-5.28-10.13-7.36-9.87-5.63-21.03-8.48-33.58-8.48-5.28,0-10.39.52-15.32,1.64-3.46.69-6.92,1.73-10.21,3.03-4.5,1.73-8.83,3.98-12.98,6.75-9.35,6.14-16.79,13.76-22.42,22.76-1.3,1.99-2.42,3.98-3.46,6.06-1.3,2.6-2.51,5.11-3.46,7.62-1.47,3.55-2.68,7.01-3.55,10.39-1.3,4.93-1.9,9.61-1.9,14.02,0,3.55.17,7.01.61,10.39-.09.17,0,.43.09.61.95,9.26,3.29,17.57,7.01,25.1.61,1.39,1.3,2.77,2.16,4.07,2.68,4.76,6.06,9.17,9.95,13.24,4.5,4.67,9.43,8.48,14.71,11.51,3.2,1.9,6.58,3.55,10.13,4.67v.09c7.36,2.68,15.32,4.07,23.97,4.07,2.25,0,4.41-.09,6.58-.26h.09c7.7-.69,14.97-2.6,21.81-5.71,5.97-2.68,11.68-6.32,16.96-10.91,2.25-1.9,4.41-4.07,6.58-6.32,8.83-9.43,14.97-19.65,18.35-30.64,2.16-7.01,3.29-14.28,3.29-21.81,0-1.13,0-2.16-.17-3.2ZM243.14,322.68c-1.13,2.51-2.42,5.02-3.89,7.36-1.47,2.34-2.94,4.5-4.67,6.4-7.79,9.61-17.66,14.37-29.43,14.37-8.83,0-17.05-2.86-24.75-8.4-7.7-5.63-13.42-14.63-16.96-27-1.13-3.89-2.08-7.7-2.86-11.51-1.3-6.4-2.16-12.64-2.34-18.87-.17-.52-.17-.95-.09-1.39-.17-1.47-.17-2.94-.17-4.41,0-6.49.95-13.42,2.94-20.86.52-2.16,1.21-4.33,1.9-6.58,3.29-9.87,8.4-18.35,15.49-25.45.52-.52,1.13-1.13,1.73-1.56,2.34-2.16,4.85-3.81,7.53-5.19,5.11-2.68,10.82-3.98,17.22-3.98,14.02,0,25.45,6.66,34.1,19.99,1.99,3.11,3.81,6.32,5.37,9.61v.09c1.56,3.2,2.86,6.58,3.89,10.04,2.51,7.88,3.72,16.27,3.89,25.27v1.38c0,8.05-.87,15.67-2.6,22.85-1.39,6.32-3.46,12.2-6.32,17.83Z"/>
        <g>
          <path class="cls-2" d="M271.79,469.22c-2.86-12.64-8.66-23.46-17.4-32.46-2.51-2.6-5.11-4.93-7.88-6.84-4.67-3.81-9.78-6.66-15.15-8.74.95,2.6,1.73,5.28,2.34,7.96.69,2.94,1.21,5.8,1.38,8.57,2.68,3.46,5.02,7.62,6.92,12.38,1.04,2.25,1.82,4.67,2.6,7.27.87,2.94,1.64,5.89,2.25,8.74,1.82,8.14,2.86,16.1,3.03,23.98h1.38c8.05,0,15.58.87,22.76,2.51.09-.87.09-1.64.09-2.51,0-7.44-.78-14.37-2.34-20.86ZM271.79,469.22c-2.86-12.64-8.66-23.46-17.4-32.46-2.51-2.6-5.11-4.93-7.88-6.84-4.67-3.81-9.78-6.66-15.15-8.74-7.88-3.2-16.45-4.76-25.79-4.76-1.13,0-2.25,0-3.38.09-6.84.26-13.33,1.47-19.39,3.64-1.82.52-3.64,1.3-5.37,2.08h-.09c-8.66,3.81-16.62,9.69-23.89,17.4-4.07,4.41-7.53,8.91-10.39,13.59-.43.52-.69,1.04-.95,1.65-4.24,7.01-7.18,14.45-8.74,22.24-1.04,4.85-1.56,9.87-1.56,14.97,0,6.06.69,11.95,2.25,17.57,2.08,8.48,5.89,16.36,11.25,23.8,1.82,2.6,3.81,5.11,6.06,7.53,9.26,10.13,20.17,16.62,32.89,19.47,3.12.78,6.32,1.3,9.61,1.56,2.34.26,4.59.35,7.01.35,14.28,0,27.09-3.72,38.43-11.34,2.51-1.64,4.85-3.38,7.01-5.19,3.46-2.86,6.58-5.97,9.43-9.35.69-.78,1.38-1.65,2.08-2.6,2.86-3.64,5.28-7.53,7.44-11.69.69-1.38,1.3-2.68,1.9-3.98,4.15-9.17,6.49-17.66,6.84-25.62.09-.87.09-1.64.09-2.51,0-7.44-.78-14.37-2.34-20.86ZM245.13,520.98c-.26.78-.52,1.56-.87,2.34-3.2,9-8.14,16.7-14.54,23.2-7.1,7.1-15.93,10.65-26.49,10.65-5.19,0-9.95-.87-14.45-2.68-2.6-1.13-5.11-2.42-7.44-4.24-4.59-3.11-8.66-7.53-12.29-13.07-3.81-5.89-6.84-12.2-9-18.96-2.42-7.62-3.81-15.75-3.98-24.49-.09-.95-.09-1.9-.09-2.94v-.69c.09-8.57,1.04-16.62,3.03-24.24,2.16-8.31,5.45-15.92,9.78-23.02,8.57-13.85,19.91-20.77,34.1-20.77,8.83,0,17.05,2.77,24.75,8.4,2.77,1.99,5.19,4.41,7.44,7.27,2.68,3.46,5.02,7.62,6.92,12.38,1.04,2.25,1.82,4.67,2.6,7.27.87,2.94,1.64,5.89,2.25,8.74,1.82,8.14,2.86,16.1,3.03,23.98.09,1.21.09,2.34.09,3.55,0,6.4-.87,13.16-2.77,20.34-.61,2.34-1.3,4.67-2.08,7.01Z"/>
          <path class="cls-2" d="M161,491.64c-1.64.52-3.38,1.21-4.93,2.08-.09-.95-.09-1.9-.09-2.94v-.69c1.64.61,3.38,1.13,5.02,1.56Z"/>
        </g>
      </g>
      <g>
        <path class="cls-2" d="M205.32,286.33q-.09-.09-.17-.17l-.26-.26c-.87-.78-1.73-1.56-2.6-2.42-1.21-1.04-2.34-2.16-3.29-3.38-1.04-1.04-1.99-2.08-2.77-3.12h-.09c-5.45-1.13-10.99-3.29-16.96-6.58-6.58-3.64-12.72-7.62-18.26-12.03-3.98-3.03-7.7-6.32-11.17-9.78-1.21-1.21-2.51-2.6-3.55-3.98-4.59-5.19-8.66-11.51-12.38-18.78-4.67-9.35-7.01-18.95-7.1-28.99,0-4.93.87-9.44,2.68-13.76,1.82-4.5,4.67-8.66,8.48-12.46,1.38-1.39,2.77-2.6,4.24-3.72-.69.09-1.3.09-1.99.09-1.9,0-3.81-.09-5.63-.26-6.49,6.84-11.34,14.37-14.54,22.59-.17.43-.35.87-.52,1.3-1.13,3.2-2.08,6.49-2.77,9.87-.61,3.38-1.13,6.66-1.3,9.95-.35,4.33-.35,8.66.17,12.9.43,5.37,1.47,10.65,3.2,15.84,4.07,12.46,9.52,22.16,16.45,29l.52.52c1.21,1.21,2.42,2.34,3.64,3.46,5.45,4.85,11.17,8.83,16.96,11.94h.09c.61.35,1.21.69,1.82.95,9.09,4.41,18.61,6.75,28.65,6.92,7.62.09,14.8-.95,21.55-3.12-1.04-.78-2.08-1.64-3.12-2.51ZM205.32,286.33q-.09-.09-.17-.17l-.26-.26c-.87-.69-1.73-1.56-2.6-2.42-1.21-1.04-2.34-2.16-3.29-3.38-1.04-1.04-1.99-2.08-2.77-3.12h-.09c-5.45-1.13-10.99-3.29-16.96-6.58-6.58-3.64-12.72-7.62-18.26-12.03-3.98-3.03-7.7-6.32-11.17-9.78-1.21-1.21-2.51-2.6-3.55-3.98-4.59-5.19-8.66-11.51-12.38-18.78-4.67-9.35-7.01-18.95-7.1-28.99,0-4.93.87-9.44,2.68-13.76,1.82-4.5,4.67-8.66,8.48-12.46,1.38-1.39,2.77-2.6,4.24-3.72-.69.09-1.3.09-1.99.09-1.9,0-3.81-.09-5.63-.26-6.49,6.84-11.34,14.37-14.54,22.59-.17.43-.35.87-.52,1.3-1.13,3.2-2.08,6.49-2.77,9.87-.61,3.38-1.13,6.66-1.3,9.95-.35,4.33-.35,8.66.17,12.9.43,5.37,1.47,10.65,3.2,15.84,4.07,12.46,9.52,22.16,16.45,29l.52.52c1.21,1.21,2.42,2.34,3.64,3.46,5.45,4.85,11.17,8.83,16.96,11.94h.09c.61.35,1.21.69,1.82.95,9.09,4.41,18.61,6.75,28.65,6.92,7.62.09,14.8-.95,21.55-3.12-1.04-.78-2.08-1.64-3.12-2.51ZM250.93,191.9c-.52-1.73-1.21-3.38-2.08-5.02-3.46-7.62-8.31-14.54-14.45-20.69-.52-.52-1.04-1.04-1.56-1.39-11.68-11.25-25.97-17.57-42.84-19.04-1.3-.17-2.6-.26-3.98-.35-14.02-.61-26.75,2.68-38,10.04-4.24,2.6-8.22,5.89-12.12,9.78-.52.52-.95.95-1.39,1.47-6.49,6.84-11.34,14.37-14.54,22.59-.17.43-.35.87-.52,1.3-1.13,3.2-2.08,6.49-2.77,9.87-.61,3.38-1.13,6.66-1.3,9.95-.35,4.33-.35,8.66.17,12.9.43,5.37,1.47,10.65,3.2,15.84,4.07,12.46,9.52,22.16,16.45,29l.52.52c1.21,1.21,2.42,2.34,3.64,3.46,5.45,4.85,11.17,8.83,16.96,11.94h.09c.61.35,1.21.69,1.82.95,9.09,4.41,18.61,6.75,28.65,6.92,7.62.09,14.8-.95,21.55-3.12.52-.17.95-.26,1.47-.52,6.66-2.25,12.9-5.63,18.7-10.21,2.51-1.9,4.85-3.98,7.18-6.32,5.02-5.02,9.17-10.56,12.38-16.45,3.03-5.63,5.28-11.68,6.49-18.18.52-1.99.87-4.07,1.04-6.23.52-3.98.69-8.14.52-12.38-.35-9.61-2.08-18.52-5.28-26.66ZM233.71,265.91c-4.15,4.15-9,7.27-14.63,9.35-2.77.95-5.71,1.73-8.83,2.25-4.41.69-9.09.52-14.02-.52h-.09c-5.45-1.13-10.99-3.29-16.96-6.58-6.58-3.64-12.72-7.62-18.26-12.03-3.98-3.03-7.7-6.32-11.17-9.78-1.21-1.21-2.51-2.6-3.55-3.98-4.59-5.19-8.66-11.51-12.38-18.78-4.67-9.35-7.01-18.95-7.1-28.99,0-4.93.87-9.44,2.68-13.76,1.82-4.5,4.67-8.66,8.48-12.46,1.38-1.39,2.77-2.6,4.24-3.72.35-.26.69-.52,1.04-.78,7.79-5.54,16.96-7.62,27.7-6.32,1.73.09,3.55.43,5.37.78,11.86,2.42,22.68,7.53,32.72,15.32,3.2,2.51,6.23,5.19,9.26,8.22,2.16,2.16,4.24,4.41,6.06,6.66,7.53,8.74,12.98,18.09,16.45,28.13.95,2.68,1.73,5.45,2.42,8.22,1.56,6.49,1.9,12.55,1.13,18.09v.09c-1.13,7.88-4.67,14.71-10.56,20.6ZM205.32,286.33q-.09-.09-.17-.17l-.26-.26c-.87-.78-1.73-1.56-2.6-2.42-1.21-1.04-2.34-2.16-3.29-3.38-1.04-1.04-1.99-2.08-2.77-3.12h-.09c-5.45-1.13-10.99-3.29-16.96-6.58-6.58-3.64-12.72-7.62-18.26-12.03-3.98-3.03-7.7-6.32-11.17-9.78-1.21-1.21-2.51-2.6-3.55-3.98-4.59-5.19-8.66-11.51-12.38-18.78-4.67-9.35-7.01-18.95-7.1-28.99,0-4.93.87-9.44,2.68-13.76,1.82-4.5,4.67-8.66,8.48-12.46,1.38-1.39,2.77-2.6,4.24-3.72-.69.09-1.3.09-1.99.09-1.9,0-3.81-.09-5.63-.26-6.49,6.84-11.34,14.37-14.54,22.59-.17.43-.35.87-.52,1.3-1.13,3.2-2.08,6.49-2.77,9.87-.61,3.38-1.13,6.66-1.3,9.95-.35,4.33-.35,8.66.17,12.9.43,5.37,1.47,10.65,3.2,15.84,4.07,12.46,9.52,22.16,16.45,29l.52.52c1.21,1.21,2.42,2.34,3.64,3.46,5.45,4.85,11.17,8.83,16.96,11.94h.09c.61.35,1.21.69,1.82.95,9.09,4.41,18.61,6.75,28.65,6.92,7.62.09,14.8-.95,21.55-3.12-1.04-.78-2.08-1.64-3.12-2.51Z"/>
        <path class="cls-2" d="M340.26,255.69c-.61-.61-1.13-1.21-1.73-1.82-5.71,3.55-11.6,6.4-17.74,8.4-2.42.87-4.85,1.56-7.36,2.16-3.12.78-6.14,1.21-9.09,1.47-3.38,2.68-7.44,4.93-12.12,6.84,6.23,2.51,12.9,3.98,19.99,4.5,3.2.35,6.4.35,9.78.26,12.9-.43,24.49-3.29,34.62-8.66-5.63-3.46-11.08-7.88-16.36-13.16ZM394.96,198.39c-.26-4.15-1.04-8.22-2.16-12.12-2.94-10.65-8.83-20.34-17.48-29.08-3.81-3.72-7.79-7.01-11.94-9.69-3.03-1.9-6.15-3.64-9.35-5.02-4.41-1.99-9.09-3.46-13.93-4.41-11.17-2.25-21.9-2.16-32.37.35-2.16.43-4.24,1.04-6.32,1.73-6.84,2.25-12.81,4.85-17.92,7.96-4.33,2.51-7.96,5.28-11.08,8.4-2.6,2.6-4.93,5.19-7.01,7.79-5.89,7.18-10.13,14.63-12.81,22.5-.69,1.65-1.21,3.38-1.64,5.11-1.39,5.28-2.16,10.73-2.25,16.27-.09,6.32.52,12.38,2.16,18.09.87,3.81,2.16,7.44,3.81,10.91,3.29,7.18,8.05,13.85,14.11,19.99,1.47,1.47,3.03,2.94,4.67,4.24,5.71,4.93,12.03,8.66,18.78,11.34,6.23,2.51,12.9,3.98,19.99,4.5,3.2.35,6.4.35,9.78.26,12.9-.43,24.49-3.29,34.62-8.66,6.49-3.38,12.38-7.7,17.74-13.07.78-.78,1.56-1.56,2.16-2.42,3.81-3.98,6.92-8.31,9.52-12.9,5.54-9.69,8.57-20.77,9.09-33.06.09-.78.09-1.47.09-2.16,0-2.34,0-4.67-.26-6.84ZM356.44,239.59c-5.71,5.63-11.68,10.47-17.92,14.28-5.71,3.55-11.6,6.4-17.74,8.4-2.42.87-4.85,1.56-7.36,2.16-3.12.78-6.14,1.21-9.09,1.47-11.77.78-21.64-2.86-29.69-10.91-6.23-6.23-10.04-14.02-11.6-23.46-1.47-9.35.87-19.73,7.1-30.99,2.08-3.72,4.15-7.27,6.49-10.65,3.46-5.28,7.27-10.04,11.34-14.54.35-.43.78-.87,1.21-1.3.87-1.04,1.82-1.99,2.77-2.94,4.59-4.59,10.13-8.83,16.7-12.64,1.9-1.13,3.98-2.25,6.06-3.29,9.35-4.76,18.96-7.1,29-7.18.78,0,1.64,0,2.42.09,3.12.17,6.15.78,9,1.73,5.45,1.82,10.39,4.93,14.89,9.43,9.87,9.87,13.24,22.68,9.95,38.26-.61,3.12-1.47,6.23-2.6,9.26-1.13,3.55-2.6,7.01-4.33,10.3-3.89,7.62-9.09,14.8-15.67,21.47-.26.35-.61.69-.95,1.04Z"/>
        <g>
          <path class="cls-2" d="M243.14,322.68c-1.13,2.51-2.42,5.02-3.89,7.36-1.47,2.34-2.94,4.5-4.67,6.4-.43,4.5-1.56,9.18-3.64,14.02,5.97-2.68,11.68-6.32,16.96-10.91-.69-5.89-2.34-11.51-4.76-16.88ZM230.42,374.27c-1.64-2.08-3.46-4.16-5.37-6.06-.78-.78-1.56-1.47-2.34-2.16-4.5,7.01-9.43,13.42-14.89,19.13.35.26.69.61,1.04.95,1.38,1.39,2.77,2.86,4.07,4.33,1.3,1.47,2.6,2.94,3.72,4.41,1.21,1.56,2.34,3.03,3.46,4.59,1.13,1.47,2.08,3.03,3.03,4.59.61-.52,1.21-1.04,1.82-1.64,5.28-5.28,9.69-10.73,13.16-16.36-1.3-2.6-2.86-5.19-4.59-7.62-.95-1.47-1.99-2.86-3.12-4.15ZM247.9,339.56c-.69-5.89-2.34-11.51-4.76-16.88-3.29-7.53-8.14-14.54-14.54-20.95-1.21-1.21-2.42-2.34-3.72-3.29,0-.09-.09-.09-.09-.09-4.67-4.15-9.52-7.53-14.89-10.04-1.47-.78-2.94-1.47-4.59-1.99q-.09-.09-.17-.17c-9-3.55-18.96-5.19-29.77-4.76-6.06.17-11.77.95-17.22,2.25-.61.09-1.21.26-1.73.43h-.09c-7.96,1.99-15.23,5.28-21.81,9.61-.17.09-.26.17-.43.35h-.09c-3.81,2.6-7.36,5.45-10.73,8.83l-.09.09-.17.17c-2.77,2.77-5.19,5.63-7.36,8.74-.09,0-.09.09-.09.09-1.13,1.47-2.16,2.94-2.94,4.5-1.73,2.51-3.12,5.19-4.24,7.96-2.42,5.28-4.07,10.91-4.93,16.88-.69,3.29-1.04,6.66-1.21,10.21-.69,13.68,2.42,25.97,9.43,37.04,1.64,2.77,3.55,5.45,5.71,8.05,1.47,1.73,3.03,3.46,4.67,5.11,10.13,10.04,21.9,16.45,35.23,19.13,2.6.52,5.11.87,7.62,1.13,4.24.52,8.4.61,12.46.26h.09c1.56-.09,3.12-.17,4.59-.43,4.76-.52,9.35-1.56,13.93-3.03,2.16-.69,4.24-1.47,6.23-2.25,8.48-3.37,15.49-7.53,20.95-12.46.61-.52,1.21-1.04,1.82-1.64,5.28-5.28,9.69-10.73,13.16-16.36,6.84-11.08,10.39-22.85,10.56-35.4.09-3.81-.17-7.53-.78-11.08ZM205.41,387.77c-4.59,4.59-10.13,8.83-16.7,12.64-1.9,1.13-3.98,2.25-6.06,3.29-.95.52-1.9.95-2.86,1.3-8.4,3.9-17.14,5.8-26.14,5.8-10.04.09-18.78-3.64-26.23-11.17-3.72-3.72-6.49-7.7-8.31-12.2-1.13-2.51-1.9-5.28-2.34-8.14-.95-5.45-.78-11.42.61-17.92,1.47-7.1,3.89-13.93,7.36-20.43,3.64-7.01,8.57-13.68,14.54-19.91.52-.61,1.04-1.12,1.64-1.73.17-.17.43-.43.61-.52,6.06-6.06,12.38-10.99,19.04-14.89,7.36-4.41,15.15-7.53,23.37-9.52,15.84-3.72,28.74-.52,38.78,9.52,6.23,6.14,10.04,13.94,11.6,23.37.43,2.94.52,6.06.26,9.17-.43,4.5-1.56,9.18-3.64,14.02-.95,2.51-2.25,5.19-3.72,7.88-1.47,2.68-2.94,5.19-4.5,7.7-4.5,7.01-9.43,13.42-14.89,19.13-.69.87-1.56,1.73-2.42,2.6ZM233.54,378.43c-.95-1.47-1.99-2.86-3.12-4.15-1.64-2.08-3.46-4.16-5.37-6.06-.78-.78-1.56-1.47-2.34-2.16-4.5,7.01-9.43,13.42-14.89,19.13.35.26.69.61,1.04.95,1.38,1.47,2.77,2.86,4.07,4.33,1.3,1.47,2.6,2.94,3.72,4.41,1.21,1.56,2.34,3.03,3.46,4.59,1.04,1.47,2.08,3.03,3.03,4.59.61-.52,1.21-1.04,1.82-1.64,5.28-5.28,9.69-10.73,13.16-16.36-1.3-2.6-2.86-5.19-4.59-7.62ZM243.14,322.68c-1.13,2.51-2.42,5.02-3.89,7.36-1.47,2.34-2.94,4.5-4.67,6.4-.43,4.5-1.56,9.18-3.64,14.02,5.97-2.68,11.68-6.32,16.96-10.91-.69-5.89-2.34-11.51-4.76-16.88Z"/>
          <path class="cls-2" d="M143.69,322.86c-1.47-.78-2.94-1.39-4.41-1.82.52-.61,1.04-1.12,1.64-1.73.17-.17.43-.43.61-.52.61,1.39,1.3,2.77,2.16,4.07Z"/>
        </g>
      </g>
      <g>
        <path class="cls-2" d="M425.6,143c-.26-17.66-6.75-33.5-19.47-47.34-12.98-14.28-29.51-21.38-49.51-21.38-14.28,0-27.09,3.81-38.43,11.34-11.34,7.62-19.99,17.22-25.97,28.82-5.89,11.68-8.83,22.33-8.83,32.11,0,.52,0,1.04.09,1.56.09,9,1.3,17.31,3.81,24.84.17.78.43,1.64.69,2.42,3.29,9.26,8.31,17.48,15.15,24.49,5.37,5.54,11.25,9.95,17.66,13.16.35.26.69.43,1.13.52,6.23,3.12,13.07,5.11,20.34,5.97,3.12.52,6.4.69,9.78.69,7.44,0,14.45-1.04,21.03-3.12,5.89-1.82,11.51-4.5,16.79-7.96,1.82-1.21,3.64-2.51,5.37-3.89,3.03-2.42,5.97-5.19,8.83-8.22,6.58-7.1,11.68-14.63,15.15-22.59.87-1.56,1.47-3.12,1.99-4.76,3.03-7.96,4.5-16.36,4.5-25.1,0-.52,0-1.04-.09-1.56ZM392.79,186.28c.09.09,0,.09,0,.09-1.21,2.6-2.6,5.11-4.07,7.53-3.38,5.37-7.1,9.69-11.34,12.9-6.49,5.19-14.11,7.79-22.76,7.79-5.89,0-11.51-1.21-16.96-3.81-2.68-1.21-5.28-2.77-7.79-4.59-3.55-2.6-6.66-5.89-9.35-9.95-3.12-4.67-5.63-10.3-7.62-16.96-1.99-7.01-3.46-13.94-4.24-20.77-.78-5.28-1.13-10.39-1.13-15.49,0-1.47.09-3.03.17-4.59.43-7.1,1.99-14.63,4.67-22.76,3.2-9.95,8.4-18.43,15.41-25.53,7.1-7.1,15.93-10.65,26.49-10.65,14.11,0,25.45,6.66,34.19,19.99,6.75,10.21,10.82,21.72,12.38,34.62.43,3.81.69,7.7.69,11.77,0,3.2-.17,6.32-.43,9.44-.95,11.25-3.64,21.55-8.31,30.99Z"/>
        <path class="cls-2" d="M437.19,282.7c0-.78,0-1.56.09-2.42-6.23-1.38-12.2-3.46-17.74-6.23-2.6-1.21-5.11-2.6-7.53-4.07-2.34-1.47-4.5-3.03-6.49-4.76-4.5-.43-9.17-1.73-14.02-3.72,2.68,6.14,6.4,11.86,11.08,17.22,1.9,2.25,4.07,4.41,6.32,6.58,9.52,8.83,19.65,14.89,30.64,18.35-1.56-6.49-2.34-13.42-2.34-20.95ZM529.98,222.54c-.69-3.55-1.73-6.92-2.94-10.21-1.82-4.5-4.07-8.83-6.75-12.9-6.23-9.26-13.68-16.71-22.59-22.33-1.99-1.3-4.07-2.51-6.23-3.64-6.23-3.12-12.12-5.45-17.74-6.84-5.02-1.3-9.78-1.99-14.37-1.99-3.64,0-7.1.17-10.47.61-9.26.87-17.66,3.2-25.27,6.84-1.47.69-2.94,1.47-4.41,2.34-4.76,2.77-9.17,6.06-13.16,9.95-4.5,4.33-8.22,9-11.08,14.02-2.16,3.38-3.89,7.01-5.11,10.73-2.77,7.44-4.15,15.49-4.15,24.15,0,2.42.09,4.85.35,7.18.69,7.36,2.51,14.37,5.45,20.95v.09c2.68,6.14,6.4,11.86,11.08,17.22,1.9,2.25,4.07,4.41,6.32,6.58,9.52,8.83,19.65,14.89,30.64,18.35,6.92,2.16,14.19,3.29,21.72,3.29,1.13,0,2.16,0,3.2-.17,5.89-.17,11.6-1.04,16.96-2.77,10.39-3.03,19.91-8.57,28.74-16.62.35-.35.69-.61,1.04-1.04,1.56-1.47,3.12-2.94,4.5-4.59,2.86-3.2,5.28-6.58,7.27-10.13,5.8-9.87,8.66-21.12,8.66-33.75,0-5.37-.52-10.47-1.64-15.32ZM506.44,269.71c-3.03,1.99-6.15,3.72-9.43,5.19-3.2,1.65-6.58,2.94-10.04,3.9-7.88,2.6-16.45,3.89-25.53,3.98h-1.39c-8.05,0-15.58-.87-22.76-2.51-6.23-1.38-12.2-3.46-17.74-6.23-2.6-1.21-5.11-2.6-7.53-4.07-2.34-1.47-4.5-3.03-6.49-4.76-9.52-7.79-14.19-17.57-14.19-29.34,0-8.74,2.77-17.05,8.4-24.75,5.54-7.7,14.54-13.33,26.92-16.96,4.07-1.13,8.05-2.16,12.03-2.86,6.4-1.3,12.72-2.08,18.96-2.34.43-.09.87-.09,1.3,0,1.39-.17,2.68-.17,3.98-.17,6.58,0,13.68.95,21.21,3.03,1.99.52,4.07,1.13,6.14,1.82,9.87,3.2,18.44,8.4,25.53,15.41.52.52,1.13,1.13,1.56,1.73,2.08,2.34,3.81,4.85,5.19,7.53,2.6,5.11,3.89,10.82,3.89,17.22,0,14.11-6.66,25.45-19.99,34.19Z"/>
        <g>
          <path class="cls-2" d="M221.07,275.95c-.69-.26-1.38-.43-1.99-.69-2.77.95-5.71,1.73-8.83,2.25-4.41.69-9.09.52-14.02-.52.78,1.04,1.73,2.08,2.77,3.12.95,1.21,2.08,2.34,3.29,3.38.87.87,1.73,1.65,2.6,2.42l.26.26q.09.09.17.17c1.04.87,2.08,1.73,3.12,2.51.52-.17.95-.26,1.47-.52,6.66-2.25,12.9-5.63,18.7-10.21-2.42-.61-4.93-1.3-7.53-2.16ZM325.45,231.54c-.35-6.32-1.56-12.29-3.55-18-.35-1.3-.87-2.6-1.47-3.89v-.17c-3.89-9.18-9.87-17.57-18-25.19-4.24-3.98-8.66-7.44-13.24-10.21-.61-.43-1.21-.87-1.9-1.12-6.92-4.24-14.28-7.1-21.9-8.66-5.02-1.13-10.13-1.65-15.41-1.65-5.89,0-11.68.69-17.14,2.16-8.48,1.99-16.44,5.71-23.89,11.08-2.68,1.82-5.28,3.9-7.88,6.23-10.04,9.26-16.62,20.25-19.47,32.98-.78,3.12-1.3,6.32-1.56,9.69-.26,2.16-.35,4.5-.35,6.84,0,14.28,3.81,27.09,11.34,38.52,1.64,2.42,3.29,4.67,5.11,6.84h.09c.78,1.04,1.73,2.08,2.77,3.12.95,1.21,2.08,2.34,3.29,3.38.87.87,1.73,1.65,2.6,2.42l.26.26q.09.09.17.17c1.04.87,2.08,1.73,3.12,2.51,3.55,2.68,7.36,5.11,11.43,7.18,1.64.87,3.29,1.64,4.93,2.34,0,0,.09,0,.09.09,8.74,3.89,16.96,6.06,24.58,6.4.87.09,1.64.09,2.51.09,7.44,0,14.37-.78,20.86-2.34,12.72-2.86,23.54-8.66,32.46-17.4,2.6-2.51,4.93-5.19,6.92-7.96,3.72-4.67,6.49-9.61,8.57-14.97,3.29-7.88,4.85-16.62,4.85-25.97,0-1.65-.09-3.2-.17-4.76ZM284.69,275.34c-2.94.87-5.8,1.64-8.74,2.25-8.05,1.82-16.1,2.94-23.89,3.03-1.21.17-2.42.17-3.64.17-6.15,0-12.81-.87-19.82-2.68-2.42-.61-4.93-1.3-7.53-2.16-.69-.26-1.38-.43-1.99-.69-9-3.29-16.96-8.22-23.54-14.8-7.1-7.01-10.65-15.84-10.65-26.48,0-5.11.87-9.95,2.68-14.37,1.04-2.68,2.51-5.19,4.24-7.53,3.2-4.59,7.53-8.66,13.07-12.2,6.06-3.98,12.46-7.01,19.39-9.09,7.62-2.42,15.84-3.72,24.58-3.9.78-.09,1.56-.09,2.42-.09h1.3c8.48.09,16.53,1.13,24.06,3.12,8.14,2.16,15.67,5.37,22.68,9.69,13.76,8.48,20.69,19.91,20.69,34.1,0,8.74-2.77,16.97-8.4,24.67-1.99,2.77-4.41,5.28-7.27,7.53-3.38,2.68-7.44,4.93-12.12,6.84-2.34.95-4.85,1.82-7.53,2.6Z"/>
          <path class="cls-2" d="M252.58,186.8c-.69,1.65-1.21,3.38-1.64,5.11-.52-1.73-1.21-3.38-2.08-5.02.78-.09,1.56-.09,2.42-.09h1.3Z"/>
        </g>
      </g>
      <g>
        <path class="cls-2" d="M458.92,188.96c-.09-.61-.17-1.21-.43-1.82-1.99-7.96-5.19-15.23-9.61-21.9-2.68-4.07-5.89-7.96-9.43-11.51-4.24-4.33-8.91-7.88-13.85-10.73-7.44-4.59-15.75-7.53-24.75-8.91-3.2-.61-6.4-.95-9.78-1.13-13.68-.61-26.05,2.51-37.04,9.52-2.68,1.56-5.37,3.46-7.88,5.63-1.73,1.47-3.46,3.03-5.19,4.76-10.13,10.04-16.53,21.81-19.21,35.23-.52,2.68-.95,5.45-1.21,8.14-.43,4.5-.43,8.92-.09,13.24v.17c.09,1.12.17,2.25.35,3.37.52,4.59,1.56,9.18,3.03,13.76.52,1.64,1.13,3.2,1.64,4.67v.09c3.55,9.18,7.88,16.62,13.07,22.33.61.61,1.13,1.21,1.73,1.82,4.33,4.33,8.66,7.96,13.24,11.08.95.69,1.99,1.39,3.03,1.99l.09.09c11.08,6.92,22.85,10.47,35.31,10.65,3.64.09,7.18-.17,10.65-.78,5.97-.69,11.6-2.25,16.96-4.67,7.7-3.29,14.8-8.22,21.29-14.71.87-.87,1.64-1.73,2.34-2.6,4.67-4.93,8.4-10.39,11.17-16.19.95-1.82,1.73-3.64,2.42-5.63,3.38-8.74,4.85-18.35,4.5-28.82-.26-6.06-.95-11.77-2.34-17.14ZM438.75,253.44c-6.23,6.23-14.02,10.13-23.46,11.6-3.2.52-6.4.52-9.78.17-4.5-.43-9.17-1.73-14.02-3.72v-.09c-2.34-.95-4.76-2.08-7.27-3.46-2.68-1.47-5.19-2.94-7.7-4.59-7.01-4.33-13.42-9.26-19.13-14.8-.87-.69-1.73-1.56-2.6-2.42-4.5-4.5-8.74-10.04-12.55-16.62-1.21-1.99-2.34-3.98-3.38-6.14-.43-.87-.87-1.73-1.21-2.6-3.89-8.48-5.8-17.31-5.89-26.4,0-9.95,3.72-18.78,11.17-26.23,3.64-3.64,7.7-6.4,12.12-8.31h.09c2.6-1.13,5.28-1.9,8.14-2.34,0-.09.09,0,.09,0,5.45-.95,11.43-.69,17.83.61,6.92,1.47,13.59,3.81,19.91,7.18,7.1,3.55,13.76,8.4,20.08,14.37.69.61,1.39,1.3,2.08,1.99.17.17.26.26.35.43,6.06,6.06,11.08,12.46,15.06,19.21,4.41,7.44,7.62,15.23,9.52,23.37,3.72,15.84.61,28.74-9.43,38.78Z"/>
        <path class="cls-2" d="M423.61,172.08c-1.47.69-2.94,1.47-4.41,2.34.87-1.56,1.47-3.12,1.99-4.76.69.61,1.39,1.3,2.08,1.99.17.17.26.26.35.43Z"/>
      </g>
      <path class="cls-2" d="M398.77,495.96c-2.86-.26-5.89-.26-8.92-.17-12.9.43-24.41,3.38-34.53,8.74,5.63,3.46,10.99,7.79,16.27,13.07.61.61,1.13,1.21,1.73,1.82,5.37-3.38,10.99-6.14,16.88-8.14,2.68-.95,5.45-1.73,8.22-2.42,2.68-.69,5.37-1.13,7.88-1.3,3.46-2.86,7.53-5.28,12.38-7.27-6.23-2.42-12.81-3.9-19.91-4.33ZM461,547.03c-.87-3.81-2.16-7.44-3.81-10.91-3.29-7.18-8.05-13.85-14.19-19.91-1.64-1.64-3.38-3.2-5.11-4.67-5.89-4.93-12.29-8.66-19.21-11.25-6.23-2.42-12.81-3.9-19.91-4.33-2.86-.26-5.89-.26-8.92-.17-12.9.43-24.41,3.38-34.53,8.74-6.49,3.29-12.46,7.7-17.83,13.07-.78.78-1.56,1.56-2.08,2.34-4.07,4.24-7.36,8.83-10.04,13.76-5.28,9.52-8.14,20.25-8.66,32.28,0,.43-.09.87,0,1.21-.09,2.25-.09,4.41.17,6.49.09,4.24.78,8.31,1.82,12.29,2.86,11.08,8.83,21.12,17.83,30.12,3.81,3.81,7.79,7.1,12.03,9.78,3.03,1.99,6.06,3.64,9.26,5.02,4.41,1.99,9.09,3.46,13.94,4.41,10.91,2.16,21.55,2.16,31.76-.26,2.34-.43,4.67-1.04,6.92-1.82,6.66-2.16,12.46-4.76,17.48-7.7,4.41-2.6,8.31-5.54,11.51-8.74,2.68-2.68,5.11-5.37,7.27-8.05,5.8-7.27,10.04-14.8,12.72-22.68.61-1.47,1.04-3.03,1.47-4.59,1.38-5.28,2.16-10.73,2.25-16.36.09-6.32-.61-12.38-2.16-18.09ZM423.61,598.27c-.26.35-.52.61-.87.95-.87,1.04-1.9,2.08-2.86,3.03-4.67,4.67-10.39,9-17.14,12.81-1.82,1.13-3.64,2.16-5.63,3.12-9.35,4.67-18.96,7.1-29,7.1-.78,0-1.56,0-2.34-.09-3.12-.17-6.06-.69-8.92-1.65-5.45-1.82-10.47-4.93-15.06-9.43-9.87-9.95-13.24-22.68-9.95-38.26.69-3.55,1.73-7.1,2.94-10.47,1.21-3.37,2.68-6.66,4.41-9.87,3.81-7.36,8.91-14.28,15.23-20.77.35-.35.61-.61.95-.95,5.71-5.71,11.68-10.47,17.92-14.37,5.37-3.38,10.99-6.14,16.88-8.14,2.68-.95,5.45-1.73,8.22-2.42,2.68-.69,5.37-1.13,7.88-1.3,12.29-1.13,22.59,2.42,30.9,10.73,6.23,6.23,10.04,14.02,11.51,23.46,1.56,9.35-.78,19.73-7.01,31.07-1.99,3.55-4.07,7.01-6.32,10.3-3.55,5.45-7.53,10.47-11.77,15.15Z"/>
    </g>
  </g>
</svg>