<?xml version="1.0" encoding="UTF-8"?>
<svg id="Layer_1" data-name="Layer 1" xmlns="http://www.w3.org/2000/svg" viewBox="0 0 477.87 477.93">
  <defs>
    <style>
      .cls-1 {
        opacity: .39;
      }

      .cls-2 {
        fill: #f2eade;
      }
    </style>
  </defs>
  <g class="cls-1">
    <g>
      <path class="cls-2" d="M291.35,402.46c-.07-.46-.2-.93-.4-1.32-2.52-7.42-6.43-13.85-11.79-19.35-3.98-4.11-8.35-7.42-13.12-9.87-.4-.27-.8-.46-1.26-.53v-.07c-4.7-2.39-9.87-3.91-15.37-4.51-2.52-.46-5.04-.6-7.69-.6-5.37,0-10.54.73-15.37,2.19-4.77,1.39-9.28,3.45-13.52,6.23-1.26.86-2.52,1.72-3.71,2.72-2.52,1.92-4.9,4.17-7.22,6.63-5.1,5.43-9.01,11.2-11.66,17.29-.6,1.19-1.06,2.39-1.46,3.58-2.32,6.1-3.45,12.46-3.45,19.21,0,.46,0,.99.07,1.46.26,13.45,5.23,25.44,14.91,35.98,9.94,10.93,22.59,16.43,37.9,16.43,10.93,0,20.74-2.92,29.42-8.68,8.68-5.83,15.31-13.19,19.81-22.07,4.57-8.94,6.82-17.16,6.82-24.58v-.6c-.07-7.09-.99-13.58-2.92-19.55ZM272.06,446.26c-2.52,7.55-6.43,14.11-11.86,19.55-5.37,5.43-12.13,8.15-20.28,8.15-10.73,0-19.41-5.1-26.11-15.31-5.1-7.75-8.22-16.5-9.48-26.17-.33-2.98-.53-6.1-.53-9.34,0-2.39.07-4.7.33-7.02.66-8.81,2.85-16.96,6.49-24.32v-.07c.93-1.86,1.92-3.64,2.98-5.37,2.72-4.44,5.83-7.88,9.34-10.4,4.84-3.64,10.47-5.43,16.76-5.43,4.57,0,9.01.99,13.25,3.05,1.92.86,3.84,2.05,5.7,3.38,2.92,2.05,5.37,4.77,7.55,8.15v.07c2.25,3.45,4.04,7.62,5.43,12.39,1.59,5.57,2.72,11.07,3.31,16.43.53,3.84.8,7.62.8,11.33,0,1.26-.07,2.58-.2,3.98-.33,5.23-1.52,10.93-3.51,16.96Z"/>
      <path class="cls-2" d="M215.74,351.71c-.4-5.96-1.79-11.53-4.11-16.76-2.05-4.64-4.77-9.08-8.28-13.19-1.59-1.86-3.31-3.64-5.17-5.37-7.22-6.69-15.04-11.4-23.46-14.05-5.37-1.66-10.93-2.52-16.7-2.52-.8,0-1.59,0-2.39.13-4.11.07-8.08.73-11.93,1.79-8.35,2.25-16.1,6.63-23.12,13.05-.33.33-.73.66-1.06,1.06-1.33,1.19-2.52,2.52-3.64,3.84-2.12,2.45-3.91,5.04-5.37,7.75-4.17,7.42-6.29,15.84-6.29,25.25,0,4.04.4,7.95,1.26,11.66.53,2.72,1.26,5.3,2.25,7.82,1.33,3.51,3.05,6.76,5.17,9.94,4.84,7.22,10.73,13.05,17.76,17.36,1.39.86,2.85,1.72,4.31,2.45,4.97,2.52,9.67,4.37,14.18,5.43,3.58.93,7.09,1.39,10.4,1.39,2.85,0,5.57-.13,8.22-.46,7.02-.73,13.38-2.45,19.15-5.23,1.13-.53,2.25-1.13,3.31-1.79,3.71-2.05,7.02-4.64,10.14-7.62,3.58-3.51,6.56-7.29,8.88-11.33,1.46-2.45,2.65-5.04,3.58-7.69,2.12-5.63,3.11-11.79,3.11-18.42,0-1.52-.07-3.05-.2-4.51ZM184.6,386.16c-3.05.86-6.1,1.59-9.08,2.19-4.7.93-9.41,1.52-13.98,1.72-.46.13-.93.13-1.39.07-1.13.13-2.19.13-3.31.13-4.84,0-10.14-.73-15.7-2.12-1.72-.46-3.45-.99-5.23-1.59-7.55-2.52-14.11-6.43-19.55-11.86-.46-.46-.86-.86-1.26-1.32-1.59-1.79-2.92-3.71-3.91-5.76-1.99-3.91-2.98-8.28-2.98-13.12,0-10.8,5.1-19.48,15.31-26.17,2.12-1.39,4.31-2.65,6.63-3.71,2.58-1.32,5.23-2.38,8.02-3.18,6.16-1.99,12.72-2.98,19.81-3.11h1.06c6.16,0,11.93.66,17.43,1.92,5.04,1.13,9.74,2.78,14.18,5.04,1.79.86,3.51,1.79,5.17,2.85,1.99,1.26,3.78,2.52,5.37,4.04,6.96,5.83,10.47,13.25,10.47,22.06,0,6.69-2.12,13.05-6.43,18.95-4.24,5.9-11.13,10.2-20.61,12.99Z"/>
      <g>
        <path class="cls-2" d="M364.96,327.99c-1.19-1.72-2.39-3.38-3.64-4.9-2.05-2.58-4.31-4.9-6.69-6.96h-.07c-.8-.8-1.59-1.46-2.45-2.05-2.85-2.25-5.9-4.24-9.21-5.9-1.33-.66-2.65-1.32-3.91-1.85-6.76-3.05-13.05-4.64-18.82-4.9-.66-.07-1.26-.07-1.86-.07-1.86,0-3.64.07-5.43.26-.53-.07-1.06,0-1.59.07-1.06.07-2.12.2-3.18.4-.66.07-1.33.13-1.99.27-1.26.26-2.52.46-3.78.79-9.74,2.19-18.02,6.63-24.85,13.32-2.12,2.05-3.98,4.18-5.57,6.36-2.78,3.64-4.97,7.55-6.56,11.73-2.32,5.9-3.45,12.39-3.45,19.35,0,.99,0,1.92.07,2.85v.07c.26,5.1,1.13,9.94,2.78,14.51.4,1.39.99,2.78,1.52,4.11,0,0,.07,0,.07.07,2.92,6.63,7.42,12.66,13.32,18.22,3.38,3.18,6.96,5.9,10.6,8.15.33.26.73.46,1.06.6,5.5,3.31,11.2,5.5,17.29,6.69,3.58.8,7.29,1.13,11.13,1.13,4.57,0,8.94-.53,13.12-1.66,6.49-1.52,12.66-4.37,18.35-8.55,2.05-1.39,4.04-2.98,5.96-4.77,7.75-7.02,12.72-15.44,14.97-25.18.6-2.39.99-4.84,1.19-7.42.2-1.72.26-3.51.26-5.3,0-10.93-2.92-20.74-8.68-29.42ZM364.36,372.45c-2.45,3.45-5.76,6.56-10,9.34-4.57,3.05-9.54,5.37-14.78,6.96-5.83,1.86-11.99,2.85-18.69,2.98-.66.07-1.32.07-2.05.07h-.46c-6.49-.07-12.66-.8-18.42-2.25-6.43-1.66-12.39-4.17-17.89-7.55-10.6-6.49-15.84-15.24-15.84-26.11,0-6.69,2.12-13.05,6.43-18.95,1.39-1.92,3.05-3.71,5.04-5.23,2.65-2.19,5.76-4.04,9.48-5.57,1.92-.86,3.91-1.52,6.1-2.19,2.25-.66,4.44-1.19,6.69-1.66,6.16-1.46,12.32-2.25,18.29-2.32.93-.13,1.86-.13,2.78-.13,4.9,0,10.27.73,15.9,2.25,1.66.4,3.31.93,5.04,1.46.8.27,1.59.53,2.32.8,6.56,2.58,12.39,6.23,17.23,11.07,5.43,5.37,8.15,12.13,8.15,20.21,0,3.98-.66,7.69-2.05,11.07-.86,2.05-1.92,3.91-3.25,5.76Z"/>
        <path class="cls-2" d="M320.9,391.73c-.66.07-1.32.07-2.05.07h-.46c.46-1.13.8-2.32,1.13-3.51.33,1.19.8,2.32,1.39,3.45Z"/>
      </g>
    </g>
    <g>
      <path class="cls-2" d="M164.06,351.84c0-.27-.07-.53-.26-.8-1.66-5.17-4.31-9.94-7.88-14.45-1.39-1.92-2.98-3.71-4.77-5.5-3.98-3.98-8.28-7.22-12.99-9.67-4.24-2.25-8.75-3.84-13.52-4.77-1.66-.4-3.38-.66-5.1-.8-2.92-.33-5.96-.46-9.14-.33-7.42.27-14.25,1.52-20.47,3.98-1.26.4-2.58.93-3.78,1.59-5.83,2.65-11.13,6.36-15.84,11.07-.33.33-.73.73-.99,1.13-9.28,9.74-14.18,21.67-14.84,35.91-.73,14.78,4.37,27.56,15.17,38.43,7.69,7.69,16.7,12.59,26.97,14.64,10.27,2.05,20.14,1.52,29.62-1.59,9.54-3.11,16.9-7.29,22.2-12.59.26-.27.46-.46.73-.73,4.84-4.9,8.61-10.07,11.46-15.44.33-.6.6-1.26.93-1.86,3.25-6.82,4.9-13.98,5.04-21.53.07-5.9-.73-11.46-2.52-16.7ZM115.96,409.16c-7.09,3.64-14.51,5.43-22.13,5.43-7.69.07-14.38-2.78-20.14-8.55-7.62-7.62-10.14-17.36-7.62-29.29,1.86-9.08,5.83-17.49,11.86-25.25,1.86-2.39,3.91-4.7,6.16-6.96,1.66-1.66,3.38-3.25,5.1-4.7,6.63-5.63,13.72-9.81,21.34-12.39v-.07c2.12-.8,4.31-1.39,6.49-1.92,4.7-1.13,9.08-1.39,13.12-.86,6.36.73,11.86,3.45,16.57,8.15,3.11,3.11,5.43,6.76,6.96,11,.86,2.12,1.46,4.44,1.86,6.89.53,3.31.46,6.69-.27,10.34-.86,4.31-2.52,8.75-5.1,13.45-2.72,4.97-5.7,9.54-9.01,13.72-2.39,3.18-4.97,6.1-7.69,8.81-.86.86-1.79,1.72-2.78,2.52-4.04,3.51-8.95,6.76-14.71,9.67Z"/>
      <path class="cls-2" d="M148.95,238.67c-.46-.86-.93-1.72-1.46-2.52-.26-.6-.66-1.19-1.06-1.79-.27-.53-.6-1.06-.99-1.52-.73-1.13-1.52-2.19-2.39-3.18-1.26-1.59-2.65-3.18-4.11-4.64-.6-.6-1.19-1.13-1.79-1.66-3.18-2.98-6.69-5.5-10.4-7.55h-.07c-7.35-4.04-15.64-6.29-24.85-6.69-.4,0-.86-.07-1.26,0-1.72-.07-3.38-.07-5.04.13-3.25.13-6.36.66-9.34,1.52-8.35,2.19-15.9,6.69-22.73,13.52-2.92,2.92-5.37,5.96-7.42,9.21-1.52,2.25-2.85,4.64-3.91,7.09-1.46,3.38-2.58,6.96-3.31,10.67-1.66,8.35-1.66,16.5.13,24.38.33,1.79.8,3.58,1.39,5.3,1.66,5.04,3.58,9.41,5.83,13.25h.07c1.92,3.44,4.17,6.43,6.69,8.88,1.92,1.92,3.84,3.71,5.83,5.3,5.5,4.44,11.26,7.75,17.29,9.94,1.26.46,2.58.86,3.84,1.19,4.11,1.13,8.28,1.72,12.59,1.79,4.7.07,9.14-.46,13.38-1.59,3.05-.66,5.96-1.66,8.75-3.05,5.5-2.52,10.6-6.1,15.31-10.8,1.33-1.33,2.58-2.72,3.78-4.11,3.51-4.31,6.29-9.01,8.22-14.05,1.92-4.77,3.11-9.94,3.45-15.44.2-2.32.26-4.7.2-7.16-.33-9.87-2.52-18.68-6.63-26.44ZM145.57,271.67c.53,2.25.93,4.44,1.06,6.56.73,9.14-2.05,16.9-8.28,23.13-4.77,4.77-10.73,7.69-17.96,8.88-7.16,1.13-15.11-.66-23.79-5.43-2.85-1.59-5.57-3.25-8.22-5.04-4.11-2.72-7.88-5.63-11.4-8.94-.26-.13-.53-.4-.8-.73-.73-.6-1.46-1.26-2.12-1.99-3.58-3.58-6.82-7.95-9.81-13.12h-.07c-.8-1.39-1.52-2.78-2.32-4.31-3.58-7.09-5.37-14.51-5.43-22.2,0-.6,0-1.13.07-1.72.13-2.45.6-4.77,1.33-7.02,1.32-4.17,3.71-7.89,7.16-11.33,7.62-7.62,17.43-10.2,29.35-7.69,2.52.53,5.04,1.26,7.49,2.12,2.58.86,5.17,1.99,7.62,3.31,5.76,2.92,11.2,6.89,16.3,11.86.26.2.53.46.8.73,3.25,3.25,6.1,6.69,8.61,10.2.86,1.13,1.59,2.32,2.32,3.51,2.65,4.17,4.77,8.55,6.29,13.12.73,1.99,1.33,4.04,1.79,6.1Z"/>
      <g>
        <path class="cls-2" d="M251.13,339.38c-4.04-4.04-8.15-7.35-12.46-10.01-8.42-5.3-17.49-8.02-27.1-8.15-2.85-.07-5.57.13-8.22.53-4.44.6-8.68,1.72-12.72,3.51,1.79.86,3.51,1.79,5.17,2.85,1.99,1.26,3.78,2.52,5.37,4.04,3.38.33,6.82,1.26,10.47,2.78,1.92.73,3.84,1.66,5.83,2.72,2.05,1.13,4.04,2.32,5.96,3.51,5.37,3.45,10.2,7.16,14.58,11.33.26-.26.46-.46.73-.73,4.37-4.37,8.94-8.02,13.72-11-.46-.46-.86-.93-1.33-1.39ZM266.37,375.5c0-.07-.07-.07-.07-.07,0-1.19-.13-2.39-.26-3.51-.46-3.51-1.19-6.96-2.32-10.34-.53-1.66-1.13-3.25-1.72-4.77v-.07c-2.58-6.49-5.76-11.79-9.54-15.97-.46-.46-.86-.93-1.33-1.39-4.04-4.04-8.15-7.35-12.46-10.01-8.42-5.3-17.49-8.02-27.1-8.15-2.85-.07-5.57.13-8.22.53-4.44.6-8.68,1.72-12.72,3.51-5.96,2.52-11.46,6.36-16.5,11.4-1.06,1.06-2.05,2.12-2.92,3.18-3.05,3.51-5.57,7.22-7.42,11.2-.53.93-.93,1.85-1.33,2.78-2.92,7.16-4.24,14.97-3.98,23.59.13,4.44.73,8.68,1.66,12.72.13.6.26,1.19.46,1.79,1.46,5.96,3.84,11.4,7.16,16.37,2.05,3.31,4.57,6.36,7.42,9.21,3.18,3.11,6.56,5.83,10.2,8.02,5.7,3.51,11.99,5.83,18.95,6.96,2.52.53,5.17.8,7.88.93,10.47.46,19.88-1.92,28.36-7.29,2.12-1.26,4.11-2.72,6.1-4.37,1.32-1.13,2.65-2.32,3.91-3.58,7.75-7.69,12.66-16.7,14.71-26.97.4-1.99.66-4.04.93-6.03v-.07c.33-3.25.4-6.43.13-9.61ZM249.07,414.13c-2.78,2.78-5.83,4.9-9.21,6.36-1.99.86-4.11,1.46-6.36,1.79-4.17.73-8.75.53-13.72-.46-5.43-1.13-10.67-3.05-15.64-5.7-5.43-2.85-10.54-6.63-15.37-11.26-.4-.33-.8-.73-1.19-1.13l-.66-.66c-4.57-4.64-8.35-9.54-11.4-14.71-3.25-5.57-5.57-11.4-7.02-17.56-2.85-12.06-.46-22,7.22-29.68,4.77-4.71,10.73-7.69,17.96-8.81,2.45-.4,4.9-.4,7.49-.13,3.38.33,6.82,1.26,10.47,2.78,1.92.73,3.84,1.66,5.83,2.72,2.05,1.13,4.04,2.32,5.96,3.51,5.37,3.45,10.2,7.16,14.58,11.33.66.53,1.32,1.19,1.99,1.86,3.38,3.44,6.56,7.62,9.41,12.46.99,1.59,1.92,3.31,2.78,5.04.27.6.6,1.13.8,1.72,3.05,6.56,4.64,13.38,4.64,20.41.07,7.69-2.78,14.38-8.55,20.14Z"/>
        <path class="cls-2" d="M190.23,401.27c-.6,1.19-1.06,2.39-1.46,3.58-.4-.33-.8-.73-1.19-1.13l-.66-.66c1.13-.53,2.25-1.13,3.31-1.79Z"/>
      </g>
    </g>
    <g>
      <path class="cls-2" d="M109.46,226.15c-1.33-4.64-3.38-9.08-6.16-13.25v-.07c-.86-1.26-1.72-2.52-2.72-3.71-1.92-2.52-4.11-4.9-6.63-7.22-5.43-5.04-11.2-8.94-17.29-11.6-1.13-.6-2.25-1.06-3.38-1.39-5.17-2.05-10.54-3.18-16.17-3.45-1.06-.13-2.19-.13-3.31-.13-.33,0-.6,0-.93.07-.93-.07-1.86,0-2.78.13-5.43.27-10.67,1.46-15.64,3.38h-.07c-5.96,2.25-11.46,5.7-16.7,10.27-.46.33-.86.73-1.33,1.13C5.43,210.24,0,222.9,0,238.21c0,10.93,2.85,20.74,8.68,29.42,5.76,8.75,13.19,15.31,22.06,19.88,8.94,4.51,17.1,6.76,24.58,6.76.33,0,.6,0,.86-.07h.07c6.96,0,13.38-.99,19.22-2.85.53-.13.99-.27,1.52-.53,7.29-2.45,13.65-6.36,19.15-11.66,4.11-3.98,7.42-8.35,9.87-13.12.27-.4.46-.8.6-1.26,2.39-4.64,3.84-9.74,4.51-15.11.4-2.52.6-5.17.6-7.89,0-5.5-.73-10.67-2.25-15.64ZM64.21,274.98c-3.91.53-7.75.8-11.6.8-1.19,0-2.39-.07-3.64-.13-5.37-.33-11.13-1.52-17.29-3.58-7.62-2.45-14.11-6.43-19.55-11.79-5.43-5.43-8.15-12.19-8.15-20.28,0-10.8,5.1-19.48,15.31-26.17,7.82-5.1,16.7-8.28,26.57-9.41,2.85-.4,5.9-.6,8.94-.6,2.52,0,4.97.13,7.35.33,8.75.8,16.76,2.98,24.05,6.63,1.86.8,3.58,1.79,5.3,2.85,4.37,2.72,7.82,5.77,10.34,9.21,3.71,4.84,5.57,10.47,5.57,16.9,0,4.71-1.06,9.21-3.11,13.45-.93,1.85-1.99,3.71-3.31,5.5-2.12,2.85-4.77,5.37-8.08,7.49-3.51,2.25-7.69,4.04-12.52,5.5-5.43,1.59-10.8,2.72-16.1,3.31h-.07Z"/>
      <path class="cls-2" d="M177.91,155.64c-.13-4.31-.73-8.41-1.92-12.39-2.25-8.15-6.56-15.7-12.85-22.59-.26-.27-.46-.53-.73-.73-1.19-1.32-2.45-2.52-3.71-3.58-2.45-2.19-5.04-4.04-7.75-5.63-7.55-4.31-16.1-6.49-25.71-6.49-4.04,0-7.95.4-11.73,1.26-2.65.53-5.3,1.33-7.82,2.32-3.45,1.33-6.76,3.05-9.94,5.17-7.16,4.7-12.85,10.54-17.16,17.43-.99,1.52-1.86,3.05-2.65,4.64-.99,1.99-1.92,3.91-2.65,5.83-1.13,2.72-2.05,5.37-2.72,7.95-.99,3.78-1.46,7.35-1.46,10.73,0,2.72.13,5.37.46,7.95-.07.13,0,.33.07.46.73,7.09,2.52,13.45,5.37,19.21.46,1.06.99,2.12,1.66,3.11,2.05,3.64,4.64,7.02,7.62,10.14,3.45,3.58,7.22,6.49,11.26,8.81,2.45,1.46,5.04,2.72,7.75,3.58v.07c5.63,2.05,11.73,3.11,18.35,3.11,1.72,0,3.38-.07,5.04-.2h.07c5.9-.53,11.46-1.99,16.7-4.37,4.57-2.05,8.94-4.84,12.99-8.35,1.72-1.46,3.38-3.11,5.04-4.84,6.76-7.22,11.46-15.04,14.05-23.46,1.66-5.37,2.52-10.93,2.52-16.7,0-.86,0-1.66-.13-2.45ZM152.8,190.17c-.86,1.92-1.86,3.84-2.98,5.63-1.13,1.79-2.25,3.45-3.58,4.9-5.96,7.36-13.52,11-22.53,11-6.76,0-13.05-2.19-18.95-6.43-5.9-4.31-10.27-11.2-12.99-20.67-.86-2.98-1.59-5.9-2.19-8.81-.99-4.9-1.66-9.67-1.79-14.44-.13-.4-.13-.73-.07-1.06-.13-1.13-.13-2.25-.13-3.38,0-4.97.73-10.27,2.25-15.97.4-1.66.93-3.31,1.46-5.04,2.52-7.55,6.43-14.05,11.86-19.48.4-.4.86-.86,1.33-1.19,1.79-1.66,3.71-2.92,5.76-3.98,3.91-2.05,8.28-3.05,13.19-3.05,10.73,0,19.48,5.1,26.11,15.31,1.52,2.38,2.92,4.84,4.11,7.35v.07c1.19,2.45,2.19,5.04,2.98,7.69,1.92,6.03,2.85,12.46,2.98,19.35v1.06c0,6.16-.66,11.99-1.99,17.49-1.06,4.84-2.65,9.34-4.84,13.65Z"/>
      <g>
        <path class="cls-2" d="M174.73,302.35c-2.19-9.67-6.63-17.96-13.32-24.85-1.92-1.99-3.91-3.78-6.03-5.23-3.58-2.92-7.49-5.1-11.6-6.69.73,1.99,1.33,4.04,1.79,6.1.53,2.25.93,4.44,1.06,6.56,2.05,2.65,3.84,5.83,5.3,9.48.8,1.72,1.39,3.58,1.99,5.57.66,2.25,1.26,4.51,1.72,6.69,1.39,6.23,2.19,12.33,2.32,18.35h1.06c6.16,0,11.93.66,17.43,1.92.07-.66.07-1.26.07-1.92,0-5.7-.6-11-1.79-15.97ZM174.73,302.35c-2.19-9.67-6.63-17.96-13.32-24.85-1.92-1.99-3.91-3.78-6.03-5.23-3.58-2.92-7.49-5.1-11.6-6.69-6.03-2.45-12.59-3.64-19.75-3.64-.86,0-1.72,0-2.58.07-5.23.2-10.2,1.13-14.84,2.78-1.39.4-2.78.99-4.11,1.59h-.07c-6.63,2.92-12.72,7.42-18.29,13.32-3.11,3.38-5.76,6.82-7.95,10.4-.33.4-.53.8-.73,1.26-3.25,5.37-5.5,11.07-6.69,17.03-.8,3.71-1.19,7.55-1.19,11.46,0,4.64.53,9.14,1.72,13.45,1.59,6.49,4.51,12.52,8.61,18.22,1.39,1.99,2.92,3.91,4.64,5.76,7.09,7.75,15.44,12.72,25.18,14.91,2.39.6,4.84.99,7.35,1.19,1.79.2,3.51.27,5.37.27,10.93,0,20.74-2.85,29.42-8.68,1.92-1.26,3.71-2.58,5.37-3.98,2.65-2.19,5.04-4.57,7.22-7.16.53-.6,1.06-1.26,1.59-1.99,2.19-2.78,4.04-5.76,5.7-8.95.53-1.06.99-2.05,1.46-3.05,3.18-7.02,4.97-13.52,5.23-19.61.07-.66.07-1.26.07-1.92,0-5.7-.6-11-1.79-15.97ZM154.32,341.97c-.2.6-.4,1.19-.66,1.79-2.45,6.89-6.23,12.79-11.13,17.76-5.43,5.43-12.19,8.15-20.28,8.15-3.98,0-7.62-.66-11.07-2.05-1.99-.86-3.91-1.86-5.7-3.25-3.51-2.38-6.63-5.76-9.41-10-2.92-4.51-5.23-9.34-6.89-14.51-1.86-5.83-2.92-12.06-3.05-18.75-.07-.73-.07-1.46-.07-2.25v-.53c.07-6.56.8-12.72,2.32-18.55,1.66-6.36,4.17-12.19,7.49-17.62,6.56-10.6,15.24-15.9,26.11-15.9,6.76,0,13.05,2.12,18.95,6.43,2.12,1.52,3.98,3.38,5.7,5.56,2.05,2.65,3.84,5.83,5.3,9.48.8,1.72,1.39,3.58,1.99,5.57.66,2.25,1.26,4.51,1.72,6.69,1.39,6.23,2.19,12.33,2.32,18.35.07.93.07,1.79.07,2.72,0,4.9-.66,10.07-2.12,15.57-.46,1.79-.99,3.58-1.59,5.37Z"/>
        <path class="cls-2" d="M89.91,319.51c-1.26.4-2.58.93-3.78,1.59-.07-.73-.07-1.46-.07-2.25v-.53c1.26.46,2.58.86,3.84,1.19Z"/>
      </g>
    </g>
    <g>
      <path class="cls-2" d="M123.84,162.34q-.07-.07-.13-.13l-.2-.2c-.66-.6-1.33-1.19-1.99-1.86-.93-.8-1.79-1.66-2.52-2.58-.8-.79-1.52-1.59-2.12-2.39h-.07c-4.17-.86-8.42-2.52-12.99-5.04-5.04-2.78-9.74-5.83-13.98-9.21-3.05-2.32-5.9-4.84-8.55-7.49-.93-.93-1.92-1.99-2.72-3.05-3.51-3.98-6.63-8.81-9.48-14.38-3.58-7.16-5.37-14.51-5.43-22.2,0-3.78.66-7.22,2.05-10.54,1.39-3.45,3.58-6.63,6.49-9.54,1.06-1.06,2.12-1.99,3.25-2.85-.53.07-.99.07-1.52.07-1.46,0-2.92-.07-4.31-.2-4.97,5.23-8.68,11-11.13,17.29-.13.33-.26.66-.4.99-.86,2.45-1.59,4.97-2.12,7.55-.46,2.58-.86,5.1-.99,7.62-.26,3.31-.26,6.63.13,9.87.33,4.11,1.13,8.15,2.45,12.13,3.11,9.54,7.29,16.96,12.59,22.2l.4.4c.93.93,1.86,1.79,2.78,2.65,4.17,3.71,8.55,6.76,12.99,9.14h.07c.46.27.93.53,1.39.73,6.96,3.38,14.25,5.17,21.93,5.3,5.83.07,11.33-.73,16.5-2.39-.8-.6-1.59-1.26-2.39-1.92ZM123.84,162.34q-.07-.07-.13-.13l-.2-.2c-.66-.53-1.33-1.19-1.99-1.86-.93-.8-1.79-1.66-2.52-2.58-.8-.79-1.52-1.59-2.12-2.39h-.07c-4.17-.86-8.42-2.52-12.99-5.04-5.04-2.78-9.74-5.83-13.98-9.21-3.05-2.32-5.9-4.84-8.55-7.49-.93-.93-1.92-1.99-2.72-3.05-3.51-3.98-6.63-8.81-9.48-14.38-3.58-7.16-5.37-14.51-5.43-22.2,0-3.78.66-7.22,2.05-10.54,1.39-3.45,3.58-6.63,6.49-9.54,1.06-1.06,2.12-1.99,3.25-2.85-.53.07-.99.07-1.52.07-1.46,0-2.92-.07-4.31-.2-4.97,5.23-8.68,11-11.13,17.29-.13.33-.26.66-.4.99-.86,2.45-1.59,4.97-2.12,7.55-.46,2.58-.86,5.1-.99,7.62-.26,3.31-.26,6.63.13,9.87.33,4.11,1.13,8.15,2.45,12.13,3.11,9.54,7.29,16.96,12.59,22.2l.4.4c.93.93,1.86,1.79,2.78,2.65,4.17,3.71,8.55,6.76,12.99,9.14h.07c.46.27.93.53,1.39.73,6.96,3.38,14.25,5.17,21.93,5.3,5.83.07,11.33-.73,16.5-2.39-.8-.6-1.59-1.26-2.39-1.92ZM158.76,90.05c-.4-1.32-.93-2.58-1.59-3.84-2.65-5.83-6.36-11.13-11.07-15.84-.4-.4-.8-.8-1.19-1.06-8.94-8.61-19.88-13.45-32.8-14.58-.99-.13-1.99-.2-3.05-.26-10.73-.46-20.47,2.05-29.09,7.69-3.25,1.99-6.29,4.51-9.28,7.49-.4.4-.73.73-1.06,1.13-4.97,5.23-8.68,11-11.13,17.29-.13.33-.26.66-.4.99-.86,2.45-1.59,4.97-2.12,7.55-.46,2.58-.86,5.1-.99,7.62-.26,3.31-.26,6.63.13,9.87.33,4.11,1.13,8.15,2.45,12.13,3.11,9.54,7.29,16.96,12.59,22.2l.4.4c.93.93,1.86,1.79,2.78,2.65,4.17,3.71,8.55,6.76,12.99,9.14h.07c.46.27.93.53,1.39.73,6.96,3.38,14.25,5.17,21.93,5.3,5.83.07,11.33-.73,16.5-2.39.4-.13.73-.2,1.13-.4,5.1-1.72,9.87-4.31,14.31-7.82,1.92-1.46,3.71-3.05,5.5-4.84,3.84-3.84,7.02-8.08,9.48-12.59,2.32-4.31,4.04-8.94,4.97-13.91.4-1.52.66-3.11.8-4.77.4-3.05.53-6.23.4-9.48-.26-7.35-1.59-14.18-4.04-20.41ZM145.57,146.7c-3.18,3.18-6.89,5.57-11.2,7.16-2.12.73-4.37,1.32-6.76,1.72-3.38.53-6.96.4-10.73-.4h-.07c-4.17-.86-8.42-2.52-12.99-5.04-5.04-2.78-9.74-5.83-13.98-9.21-3.05-2.32-5.9-4.84-8.55-7.49-.93-.93-1.92-1.99-2.72-3.05-3.51-3.98-6.63-8.81-9.48-14.38-3.58-7.16-5.37-14.51-5.43-22.2,0-3.78.66-7.22,2.05-10.54,1.39-3.45,3.58-6.63,6.49-9.54,1.06-1.06,2.12-1.99,3.25-2.85.26-.2.53-.4.8-.6,5.96-4.24,12.99-5.83,21.2-4.84,1.33.07,2.72.33,4.11.6,9.08,1.85,17.36,5.76,25.05,11.73,2.45,1.92,4.77,3.98,7.09,6.3,1.66,1.66,3.25,3.38,4.64,5.1,5.76,6.69,9.94,13.85,12.59,21.53.73,2.05,1.33,4.17,1.86,6.3,1.19,4.97,1.46,9.61.86,13.85v.07c-.86,6.03-3.58,11.26-8.08,15.77ZM123.84,162.34q-.07-.07-.13-.13l-.2-.2c-.66-.6-1.33-1.19-1.99-1.86-.93-.8-1.79-1.66-2.52-2.58-.8-.79-1.52-1.59-2.12-2.39h-.07c-4.17-.86-8.42-2.52-12.99-5.04-5.04-2.78-9.74-5.83-13.98-9.21-3.05-2.32-5.9-4.84-8.55-7.49-.93-.93-1.92-1.99-2.72-3.05-3.51-3.98-6.63-8.81-9.48-14.38-3.58-7.16-5.37-14.51-5.43-22.2,0-3.78.66-7.22,2.05-10.54,1.39-3.45,3.58-6.63,6.49-9.54,1.06-1.06,2.12-1.99,3.25-2.85-.53.07-.99.07-1.52.07-1.46,0-2.92-.07-4.31-.2-4.97,5.23-8.68,11-11.13,17.29-.13.33-.26.66-.4.99-.86,2.45-1.59,4.97-2.12,7.55-.46,2.58-.86,5.1-.99,7.62-.26,3.31-.26,6.63.13,9.87.33,4.11,1.13,8.15,2.45,12.13,3.11,9.54,7.29,16.96,12.59,22.2l.4.4c.93.93,1.86,1.79,2.78,2.65,4.17,3.71,8.55,6.76,12.99,9.14h.07c.46.27.93.53,1.39.73,6.96,3.38,14.25,5.17,21.93,5.3,5.83.07,11.33-.73,16.5-2.39-.8-.6-1.59-1.26-2.39-1.92Z"/>
      <path class="cls-2" d="M227.14,138.88c-.46-.46-.86-.93-1.33-1.39-4.37,2.72-8.88,4.9-13.58,6.43-1.86.66-3.71,1.19-5.63,1.66-2.39.6-4.7.93-6.96,1.13-2.58,2.05-5.7,3.78-9.28,5.23,4.77,1.92,9.87,3.05,15.31,3.45,2.45.26,4.9.26,7.49.2,9.87-.33,18.75-2.52,26.5-6.63-4.31-2.65-8.48-6.03-12.52-10.07ZM269.02,95.02c-.2-3.18-.8-6.29-1.66-9.28-2.25-8.15-6.76-15.57-13.38-22.26-2.92-2.85-5.96-5.37-9.14-7.42-2.32-1.46-4.7-2.78-7.16-3.84-3.38-1.52-6.96-2.65-10.67-3.38-8.55-1.72-16.76-1.66-24.78.27-1.66.33-3.25.79-4.84,1.32-5.23,1.72-9.81,3.71-13.72,6.1-3.31,1.92-6.1,4.04-8.48,6.43-1.99,1.99-3.78,3.98-5.37,5.96-4.51,5.5-7.75,11.2-9.81,17.23-.53,1.26-.93,2.59-1.26,3.91-1.06,4.04-1.66,8.22-1.72,12.46-.07,4.84.4,9.48,1.66,13.85.66,2.92,1.66,5.7,2.92,8.35,2.52,5.5,6.16,10.6,10.8,15.31,1.13,1.13,2.32,2.25,3.58,3.25,4.37,3.78,9.21,6.63,14.38,8.68,4.77,1.92,9.87,3.05,15.31,3.45,2.45.26,4.9.26,7.49.2,9.87-.33,18.75-2.52,26.5-6.63,4.97-2.58,9.48-5.9,13.58-10.01.6-.6,1.19-1.19,1.66-1.86,2.92-3.05,5.3-6.36,7.29-9.87,4.24-7.42,6.56-15.9,6.96-25.31.07-.6.07-1.13.07-1.66,0-1.79,0-3.58-.2-5.23ZM239.53,126.56c-4.37,4.31-8.95,8.02-13.72,10.93-4.37,2.72-8.88,4.9-13.58,6.43-1.86.66-3.71,1.19-5.63,1.66-2.39.6-4.7.93-6.96,1.13-9.01.6-16.57-2.19-22.73-8.35-4.77-4.77-7.69-10.73-8.88-17.96-1.13-7.16.66-15.11,5.43-23.72,1.59-2.85,3.18-5.57,4.97-8.15,2.65-4.04,5.57-7.69,8.68-11.13.27-.33.6-.66.93-.99.66-.79,1.39-1.52,2.12-2.25,3.51-3.51,7.75-6.76,12.79-9.67,1.46-.86,3.05-1.72,4.64-2.52,7.16-3.64,14.51-5.43,22.2-5.5.6,0,1.26,0,1.86.07,2.39.13,4.7.6,6.89,1.33,4.17,1.39,7.95,3.78,11.4,7.22,7.55,7.55,10.14,17.36,7.62,29.29-.46,2.39-1.13,4.77-1.99,7.09-.86,2.72-1.99,5.37-3.31,7.88-2.98,5.83-6.96,11.33-11.99,16.43-.2.26-.46.53-.73.8Z"/>
      <g>
        <path class="cls-2" d="M152.8,190.17c-.86,1.92-1.86,3.84-2.98,5.63-1.13,1.79-2.25,3.45-3.58,4.9-.33,3.45-1.19,7.02-2.78,10.73,4.57-2.05,8.94-4.84,12.99-8.35-.53-4.51-1.79-8.81-3.64-12.92ZM143.06,229.66c-1.26-1.59-2.65-3.18-4.11-4.64-.6-.6-1.19-1.13-1.79-1.66-3.45,5.37-7.22,10.27-11.4,14.64.26.2.53.46.8.73,1.06,1.06,2.12,2.19,3.11,3.31.99,1.13,1.99,2.25,2.85,3.38.93,1.19,1.79,2.32,2.65,3.51.86,1.13,1.59,2.32,2.32,3.51.46-.4.93-.8,1.39-1.26,4.04-4.04,7.42-8.22,10.07-12.52-.99-1.99-2.19-3.98-3.51-5.83-.73-1.13-1.52-2.19-2.39-3.18ZM156.44,203.09c-.53-4.51-1.79-8.81-3.64-12.92-2.52-5.76-6.23-11.13-11.13-16.04-.93-.93-1.86-1.79-2.85-2.52,0-.07-.07-.07-.07-.07-3.58-3.18-7.29-5.77-11.4-7.69-1.13-.6-2.25-1.13-3.51-1.52q-.07-.07-.13-.13c-6.89-2.72-14.51-3.98-22.79-3.64-4.64.13-9.01.73-13.19,1.72-.46.07-.93.2-1.32.33h-.07c-6.1,1.52-11.66,4.04-16.7,7.36-.13.07-.2.13-.33.27h-.07c-2.92,1.99-5.63,4.17-8.22,6.76l-.07.07-.13.13c-2.12,2.12-3.98,4.31-5.63,6.69-.07,0-.07.07-.07.07-.86,1.13-1.66,2.25-2.25,3.45-1.33,1.92-2.39,3.98-3.25,6.1-1.86,4.04-3.11,8.35-3.78,12.92-.53,2.52-.8,5.1-.93,7.82-.53,10.47,1.86,19.88,7.22,28.36,1.26,2.12,2.72,4.17,4.37,6.16,1.13,1.33,2.32,2.65,3.58,3.91,7.75,7.69,16.76,12.59,26.97,14.64,1.99.4,3.91.66,5.83.86,3.25.4,6.43.46,9.54.2h.07c1.19-.07,2.39-.13,3.51-.33,3.64-.4,7.16-1.19,10.67-2.32,1.66-.53,3.25-1.13,4.77-1.72,6.49-2.58,11.86-5.76,16.03-9.54.46-.4.93-.8,1.39-1.26,4.04-4.04,7.42-8.22,10.07-12.52,5.23-8.48,7.95-17.49,8.08-27.1.07-2.92-.13-5.76-.6-8.48ZM123.91,239.99c-3.51,3.51-7.75,6.76-12.79,9.67-1.46.86-3.05,1.72-4.64,2.52-.73.4-1.46.73-2.19.99-6.43,2.98-13.12,4.44-20.01,4.44-7.69.07-14.38-2.78-20.08-8.55-2.85-2.85-4.97-5.9-6.36-9.34-.86-1.92-1.46-4.04-1.79-6.23-.73-4.17-.6-8.75.46-13.72,1.13-5.43,2.98-10.67,5.63-15.64,2.78-5.37,6.56-10.47,11.13-15.24.4-.46.8-.86,1.26-1.32.13-.13.33-.33.46-.4,4.64-4.64,9.48-8.41,14.58-11.4,5.63-3.38,11.6-5.76,17.89-7.29,12.13-2.85,22-.4,29.68,7.29,4.77,4.7,7.69,10.67,8.88,17.89.33,2.25.4,4.64.2,7.02-.33,3.45-1.19,7.02-2.78,10.73-.73,1.92-1.72,3.97-2.85,6.03-1.13,2.05-2.25,3.98-3.45,5.9-3.45,5.37-7.22,10.27-11.4,14.64-.53.66-1.19,1.33-1.86,1.99ZM145.44,232.84c-.73-1.13-1.52-2.19-2.39-3.18-1.26-1.59-2.65-3.18-4.11-4.64-.6-.6-1.19-1.13-1.79-1.66-3.45,5.37-7.22,10.27-11.4,14.64.26.2.53.46.8.73,1.06,1.13,2.12,2.19,3.11,3.31.99,1.13,1.99,2.25,2.85,3.38.93,1.19,1.79,2.32,2.65,3.51.8,1.13,1.59,2.32,2.32,3.51.46-.4.93-.8,1.39-1.26,4.04-4.04,7.42-8.22,10.07-12.52-.99-1.99-2.19-3.98-3.51-5.83ZM152.8,190.17c-.86,1.92-1.86,3.84-2.98,5.63-1.13,1.79-2.25,3.45-3.58,4.9-.33,3.45-1.19,7.02-2.78,10.73,4.57-2.05,8.94-4.84,12.99-8.35-.53-4.51-1.79-8.81-3.64-12.92Z"/>
        <path class="cls-2" d="M76.66,190.3c-1.13-.6-2.25-1.06-3.38-1.39.4-.46.8-.86,1.26-1.32.13-.13.33-.33.46-.4.46,1.06.99,2.12,1.66,3.11Z"/>
      </g>
    </g>
    <g>
      <path class="cls-2" d="M292.47,52.61c-.2-13.52-5.17-25.64-14.91-36.24C267.62,5.43,254.97,0,239.66,0c-10.93,0-20.74,2.92-29.42,8.68-8.68,5.83-15.31,13.19-19.88,22.07-4.51,8.94-6.76,17.09-6.76,24.58,0,.4,0,.8.07,1.19.07,6.89.99,13.25,2.92,19.02.13.6.33,1.26.53,1.85,2.52,7.09,6.36,13.38,11.6,18.75,4.11,4.24,8.61,7.62,13.52,10.07.26.2.53.33.86.4,4.77,2.39,10.01,3.91,15.57,4.57,2.39.4,4.9.53,7.49.53,5.7,0,11.07-.8,16.1-2.39,4.51-1.39,8.81-3.44,12.85-6.1,1.39-.93,2.78-1.92,4.11-2.98,2.32-1.86,4.57-3.98,6.76-6.3,5.04-5.43,8.94-11.2,11.6-17.29.66-1.19,1.13-2.39,1.52-3.64,2.32-6.1,3.45-12.52,3.45-19.21,0-.4,0-.8-.07-1.19ZM267.36,85.74c.07.07,0,.07,0,.07-.93,1.99-1.99,3.91-3.11,5.76-2.58,4.11-5.43,7.42-8.68,9.87-4.97,3.98-10.8,5.96-17.43,5.96-4.51,0-8.81-.93-12.99-2.92-2.05-.93-4.04-2.12-5.96-3.51-2.72-1.99-5.1-4.51-7.16-7.62-2.39-3.58-4.31-7.88-5.83-12.99-1.52-5.37-2.65-10.67-3.25-15.9-.6-4.04-.86-7.95-.86-11.86,0-1.13.07-2.32.13-3.51.33-5.43,1.52-11.2,3.58-17.43,2.45-7.62,6.43-14.11,11.79-19.55,5.43-5.43,12.19-8.15,20.28-8.15,10.8,0,19.48,5.1,26.17,15.31,5.17,7.82,8.28,16.63,9.48,26.5.33,2.92.53,5.9.53,9.01,0,2.45-.13,4.84-.33,7.22-.73,8.61-2.78,16.5-6.36,23.72Z"/>
      <path class="cls-2" d="M301.35,159.55c0-.6,0-1.19.07-1.86-4.77-1.06-9.34-2.65-13.58-4.77-1.99-.93-3.91-1.99-5.76-3.11-1.79-1.13-3.45-2.32-4.97-3.64-3.45-.33-7.02-1.32-10.73-2.85,2.05,4.7,4.9,9.08,8.48,13.19,1.46,1.72,3.11,3.38,4.84,5.04,7.29,6.76,15.04,11.4,23.46,14.05-1.19-4.97-1.79-10.27-1.79-16.03ZM372.38,113.5c-.53-2.72-1.33-5.3-2.25-7.82-1.39-3.45-3.11-6.76-5.17-9.87-4.77-7.09-10.47-12.79-17.29-17.09-1.52-.99-3.11-1.92-4.77-2.78-4.77-2.39-9.28-4.17-13.58-5.23-3.84-.99-7.49-1.52-11-1.52-2.78,0-5.43.13-8.02.46-7.09.66-13.52,2.45-19.35,5.23-1.13.53-2.25,1.13-3.38,1.79-3.64,2.12-7.02,4.64-10.07,7.62-3.45,3.31-6.29,6.89-8.48,10.73-1.66,2.58-2.98,5.37-3.91,8.22-2.12,5.7-3.18,11.86-3.18,18.49,0,1.86.07,3.71.26,5.5.53,5.63,1.92,11,4.17,16.04v.07c2.05,4.7,4.9,9.08,8.48,13.19,1.46,1.72,3.11,3.38,4.84,5.04,7.29,6.76,15.04,11.4,23.46,14.05,5.3,1.66,10.87,2.52,16.63,2.52.86,0,1.66,0,2.45-.13,4.51-.13,8.88-.8,12.99-2.12,7.95-2.32,15.24-6.56,22-12.72.26-.27.53-.46.8-.8,1.19-1.13,2.39-2.25,3.45-3.51,2.19-2.45,4.04-5.04,5.57-7.75,4.44-7.55,6.63-16.17,6.63-25.84,0-4.11-.4-8.02-1.26-11.73ZM354.36,149.62c-2.32,1.52-4.7,2.85-7.22,3.98-2.45,1.26-5.04,2.25-7.69,2.98-6.03,1.99-12.59,2.98-19.55,3.05h-1.06c-6.16,0-11.93-.66-17.43-1.92-4.77-1.06-9.34-2.65-13.58-4.77-1.99-.93-3.91-1.99-5.76-3.11-1.79-1.13-3.45-2.32-4.97-3.64-7.29-5.96-10.87-13.45-10.87-22.46,0-6.69,2.12-13.05,6.43-18.95,4.24-5.9,11.13-10.2,20.61-12.99,3.11-.86,6.16-1.66,9.21-2.19,4.9-.99,9.74-1.59,14.51-1.79.33-.07.66-.07.99,0,1.06-.13,2.05-.13,3.05-.13,5.04,0,10.47.73,16.23,2.32,1.52.4,3.11.86,4.7,1.39,7.55,2.45,14.11,6.43,19.55,11.79.4.4.86.86,1.19,1.32,1.59,1.79,2.92,3.71,3.98,5.77,1.99,3.91,2.98,8.28,2.98,13.19,0,10.8-5.1,19.48-15.31,26.17Z"/>
      <g>
        <path class="cls-2" d="M135.9,154.39c-.53-.2-1.06-.33-1.52-.53-2.12.73-4.37,1.32-6.76,1.72-3.38.53-6.96.4-10.73-.4.6.8,1.33,1.59,2.12,2.39.73.93,1.59,1.79,2.52,2.58.66.66,1.33,1.26,1.99,1.86l.2.2q.07.07.13.13c.8.66,1.59,1.33,2.39,1.92.4-.13.73-.2,1.13-.4,5.1-1.72,9.87-4.31,14.31-7.82-1.86-.46-3.78-.99-5.76-1.66ZM215.81,120.39c-.26-4.84-1.19-9.41-2.72-13.78-.27-.99-.66-1.99-1.13-2.98v-.13c-2.98-7.02-7.55-13.45-13.78-19.28-3.25-3.05-6.63-5.7-10.14-7.82-.46-.33-.93-.66-1.46-.86-5.3-3.25-10.93-5.43-16.76-6.63-3.84-.86-7.75-1.26-11.79-1.26-4.51,0-8.95.53-13.12,1.66-6.49,1.52-12.59,4.37-18.29,8.48-2.05,1.39-4.04,2.98-6.03,4.77-7.69,7.09-12.72,15.5-14.91,25.24-.6,2.39-.99,4.84-1.19,7.42-.2,1.66-.26,3.45-.26,5.23,0,10.93,2.92,20.74,8.68,29.49,1.26,1.86,2.52,3.58,3.91,5.23h.07c.6.8,1.33,1.59,2.12,2.39.73.93,1.59,1.79,2.52,2.58.66.66,1.33,1.26,1.99,1.86l.2.2q.07.07.13.13c.8.66,1.59,1.33,2.39,1.92,2.72,2.05,5.63,3.91,8.75,5.5,1.26.66,2.52,1.26,3.78,1.79,0,0,.07,0,.07.07,6.69,2.98,12.99,4.64,18.82,4.9.66.07,1.26.07,1.92.07,5.7,0,11-.6,15.97-1.79,9.74-2.19,18.02-6.63,24.85-13.32,1.99-1.92,3.78-3.98,5.3-6.1,2.85-3.58,4.97-7.35,6.56-11.46,2.52-6.03,3.71-12.72,3.71-19.88,0-1.26-.07-2.45-.13-3.64ZM184.6,153.92c-2.25.66-4.44,1.26-6.69,1.72-6.16,1.39-12.32,2.25-18.29,2.32-.93.13-1.86.13-2.78.13-4.7,0-9.81-.66-15.17-2.05-1.86-.46-3.78-.99-5.76-1.66-.53-.2-1.06-.33-1.52-.53-6.89-2.52-12.99-6.3-18.02-11.33-5.43-5.37-8.15-12.13-8.15-20.28,0-3.91.66-7.62,2.05-11,.8-2.05,1.92-3.98,3.25-5.76,2.45-3.51,5.76-6.63,10.01-9.34,4.64-3.05,9.54-5.37,14.84-6.96,5.83-1.86,12.13-2.85,18.82-2.98.6-.07,1.19-.07,1.86-.07h.99c6.49.07,12.66.86,18.42,2.39,6.23,1.66,11.99,4.11,17.36,7.42,10.54,6.49,15.84,15.24,15.84,26.11,0,6.69-2.12,12.99-6.43,18.88-1.52,2.12-3.38,4.04-5.57,5.77-2.58,2.05-5.7,3.78-9.28,5.23-1.79.73-3.71,1.39-5.76,1.99Z"/>
        <path class="cls-2" d="M160.02,86.14c-.53,1.26-.93,2.59-1.26,3.91-.4-1.32-.93-2.58-1.59-3.84.6-.07,1.19-.07,1.86-.07h.99Z"/>
      </g>
    </g>
    <g>
      <path class="cls-2" d="M408.63,70.7c-7.75-7.75-16.7-12.59-26.97-14.64-10.27-2.05-20.14-1.52-29.62,1.52-9.54,3.11-16.9,7.35-22.2,12.59-.2.2-.33.33-.53.53-4.9,5.04-8.75,10.27-11.66,15.7-.2.46-.46.93-.66,1.39-3.45,6.96-5.17,14.25-5.3,21.93-.07,5.7.66,11.07,2.25,16.1.13.53.27.99.53,1.46,1.59,4.97,4.11,9.61,7.49,13.98,1.52,2.05,3.25,4.04,5.17,5.96,3.78,3.78,7.95,6.89,12.32,9.34,4.37,2.38,9.08,4.11,14.11,5.1,1.46.33,2.92.6,4.44.66,3.11.46,6.43.6,9.87.46,7.42-.27,14.25-1.59,20.47-3.98,1.13-.4,2.32-.86,3.38-1.39,6.03-2.72,11.4-6.43,16.23-11.26.26-.27.53-.53.73-.8,9.41-9.81,14.44-21.87,15.17-36.31.66-14.78-4.44-27.56-15.24-38.36ZM400.28,126.96c-1.86,2.32-3.91,4.64-6.1,6.82-1.72,1.72-3.58,3.38-5.37,4.9-6.76,5.7-14.05,9.81-21.8,12.39-1.92.73-3.84,1.26-5.76,1.72-5.1,1.26-9.81,1.52-14.11.8-5.96-.86-11.13-3.58-15.57-8.02-3.31-3.31-5.76-7.29-7.29-11.79-.66-1.92-1.19-3.98-1.52-6.16-.6-3.51-.46-7.22.4-11.06.93-4.04,2.58-8.28,4.97-12.66,2.78-5.04,5.83-9.67,9.14-13.91,2.32-3.05,4.9-5.96,7.55-8.61.86-.86,1.86-1.79,2.85-2.65h.07c4.04-3.51,8.88-6.69,14.58-9.61,7.09-3.58,14.51-5.37,22.13-5.43,7.69,0,14.38,2.85,20.14,8.55,7.62,7.62,10.14,17.43,7.62,29.35-1.86,9.14-5.9,17.62-11.93,25.38Z"/>
      <path class="cls-2" d="M334.41,212.5c-.66-1.92-1.26-3.91-1.72-5.9-.53-2.25-.93-4.37-1.06-6.49-2.19-2.58-3.98-5.63-5.5-9.21-1.79,4.7-2.92,9.74-3.31,15.11-.2,2.32-.2,4.7-.13,7.16.33,9.87,2.52,18.68,6.63,26.5,2.65-4.31,6.03-8.48,10.07-12.52.46-.46.93-.86,1.39-1.26-2.65-4.31-4.84-8.75-6.36-13.38ZM429.23,202.29c-.33-1.66-.8-3.31-1.33-4.9-1.72-5.23-3.78-9.81-6.1-13.72-1.92-3.25-4.11-6.1-6.49-8.48-2.05-2.05-4.17-3.98-6.29-5.63-5.5-4.37-11.26-7.62-17.23-9.67-1.13-.46-2.32-.8-3.45-1.06-4.11-1.13-8.28-1.72-12.59-1.79-5.04-.07-9.81.53-14.31,1.79-2.72.66-5.37,1.59-7.88,2.85-5.5,2.45-10.54,6.1-15.24,10.8-1.13,1.13-2.19,2.25-3.11,3.38-3.98,4.57-7.02,9.61-9.08,15.04-1.79,4.7-2.92,9.74-3.31,15.11-.2,2.32-.2,4.7-.13,7.16.33,9.87,2.52,18.68,6.63,26.5,2.52,4.97,5.9,9.54,10.01,13.65.6.6,1.19,1.13,1.79,1.66,3.05,2.85,6.29,5.23,9.81,7.22,7.49,4.17,15.97,6.56,25.51,7.02.46.07.86.07,1.26,0,1.79.07,3.58.07,5.3-.13,3.25-.2,6.36-.73,9.34-1.59,8.22-2.25,15.7-6.76,22.46-13.52,2.92-2.92,5.37-5.96,7.42-9.14,1.52-2.32,2.85-4.71,3.84-7.22,1.52-3.38,2.65-6.89,3.38-10.6,1.72-8.55,1.66-16.76-.2-24.71ZM420.42,238.54c-1.33,4.18-3.71,7.95-7.16,11.4-7.62,7.62-17.43,10.14-29.35,7.62-2.58-.53-5.17-1.26-7.69-2.12-2.65-.93-5.23-2.05-7.75-3.45-5.7-2.92-11-6.82-15.97-11.73-.26-.2-.53-.46-.8-.73-4.31-4.31-7.95-8.88-10.93-13.65-2.65-4.31-4.84-8.75-6.36-13.38-.66-1.92-1.26-3.91-1.72-5.9-.53-2.25-.93-4.37-1.06-6.49-.8-9.14,1.99-16.9,8.28-23.19,4.77-4.71,10.73-7.69,17.96-8.81,7.16-1.19,15.11.66,23.72,5.37,2.72,1.52,5.3,3.05,7.82,4.77,4.11,2.65,7.88,5.63,11.4,8.88.27.13.6.4.86.73.86.73,1.66,1.52,2.45,2.32,3.51,3.51,6.69,7.69,9.67,12.72.86,1.52,1.72,3.11,2.58,4.77,3.58,7.09,5.37,14.51,5.43,22.13,0,.6,0,1.19-.07,1.79-.13,2.45-.6,4.77-1.33,6.96Z"/>
      <g>
        <path class="cls-2" d="M317.98,87.79c-.07-.46-.13-.93-.33-1.39-1.52-6.1-3.98-11.66-7.35-16.76-2.05-3.11-4.51-6.1-7.22-8.81-3.25-3.31-6.82-6.03-10.6-8.22-5.7-3.51-12.06-5.76-18.95-6.82-2.45-.46-4.9-.73-7.49-.86-10.47-.46-19.94,1.92-28.36,7.29-2.05,1.19-4.11,2.65-6.03,4.31-1.33,1.13-2.65,2.32-3.98,3.64-7.75,7.69-12.66,16.7-14.71,26.97-.4,2.05-.73,4.17-.93,6.23-.33,3.45-.33,6.82-.07,10.14v.13c.07.86.13,1.72.27,2.58.4,3.51,1.19,7.02,2.32,10.54.4,1.26.86,2.45,1.26,3.58v.07c2.72,7.02,6.03,12.72,10.01,17.09.46.46.86.93,1.33,1.39,3.31,3.31,6.63,6.1,10.14,8.48.73.53,1.52,1.06,2.32,1.52l.07.07c8.48,5.3,17.49,8.02,27.03,8.15,2.78.07,5.5-.13,8.15-.6,4.57-.53,8.88-1.72,12.99-3.58,5.9-2.52,11.33-6.29,16.3-11.26.66-.66,1.26-1.33,1.79-1.99,3.58-3.78,6.43-7.95,8.55-12.39.73-1.39,1.33-2.78,1.86-4.31,2.58-6.69,3.71-14.05,3.45-22.06-.2-4.64-.73-9.01-1.79-13.12ZM302.54,137.16c-4.77,4.77-10.73,7.75-17.96,8.88-2.45.4-4.9.4-7.49.13-3.45-.33-7.02-1.32-10.73-2.85v-.07c-1.79-.73-3.64-1.59-5.57-2.65-2.05-1.13-3.98-2.25-5.9-3.51-5.37-3.31-10.27-7.09-14.64-11.33-.66-.53-1.33-1.19-1.99-1.86-3.45-3.45-6.69-7.69-9.61-12.72-.93-1.52-1.79-3.05-2.58-4.7-.33-.66-.66-1.32-.93-1.99-2.98-6.49-4.44-13.25-4.51-20.21,0-7.62,2.85-14.38,8.55-20.08,2.78-2.78,5.9-4.9,9.28-6.36h.07c1.99-.86,4.04-1.46,6.23-1.79,0-.07.07,0,.07,0,4.17-.73,8.75-.53,13.65.46,5.3,1.13,10.4,2.92,15.24,5.5,5.43,2.72,10.54,6.43,15.37,11,.53.46,1.06.99,1.59,1.52.13.13.2.2.27.33,4.64,4.64,8.48,9.54,11.53,14.71,3.38,5.7,5.83,11.66,7.29,17.89,2.85,12.13.46,22-7.22,29.68Z"/>
        <path class="cls-2" d="M290.95,74.87c-1.13.53-2.25,1.13-3.38,1.79.66-1.19,1.13-2.39,1.52-3.64.53.46,1.06.99,1.59,1.52.13.13.2.2.27.33Z"/>
      </g>
    </g>
    <g>
      <path class="cls-2" d="M469.19,210.24c-5.76-8.68-13.12-15.31-22.06-19.81-8.95-4.51-17.1-6.76-24.58-6.76h-.73c-7.09.07-13.58.99-19.48,2.98-.53.07-.99.27-1.52.46-7.22,2.45-13.58,6.36-19.08,11.66-4.24,4.11-7.62,8.61-10,13.52-.27.27-.4.53-.46.86-2.45,4.84-3.98,10.07-4.57,15.7-.4,2.39-.53,4.77-.53,7.29,0,5.57.73,10.87,2.32,15.84,1.39,4.64,3.45,9.01,6.16,13.12.93,1.39,1.92,2.78,2.98,4.11h.07c1.79,2.32,3.91,4.57,6.23,6.76,5.43,5.04,11.13,8.94,17.23,11.66,1.32.6,2.65,1.19,3.98,1.59,6.03,2.25,12.32,3.31,18.95,3.31.53,0,1.06,0,1.59-.07,13.38-.33,25.31-5.3,35.85-14.84,10.93-10.01,16.37-22.6,16.37-37.9,0-10.93-2.85-20.74-8.68-29.49ZM458.65,264.05c-7.75,5.1-16.43,8.22-26.11,9.47-3.05.4-6.23.6-9.48.6-2.32,0-4.57-.07-6.82-.27-8.68-.73-16.7-2.85-23.92-6.36-2.05-.93-4.04-1.99-5.96-3.18-4.24-2.59-7.62-5.57-10.07-8.88h-.07c-3.84-4.97-5.76-10.67-5.76-17.23,0-4.51.93-8.75,2.85-12.85.93-2.12,2.12-4.11,3.58-6.1,2.05-2.78,4.57-5.23,7.75-7.29,3.58-2.32,7.88-4.24,12.92-5.7,5.5-1.59,10.93-2.78,16.23-3.38,3.84-.53,7.69-.8,11.46-.8,1.33,0,2.65.07,3.98.2,5.3.33,10.93,1.52,17.03,3.51,7.55,2.52,14.05,6.43,19.48,11.86,5.43,5.43,8.15,12.19,8.15,20.28,0,10.73-5.1,19.48-15.24,26.11Z"/>
      <path class="cls-2" d="M321.69,274.58c-1.86,1.59-3.58,3.25-5.3,5.1-6.76,7.22-11.46,15.04-14.05,23.46,4.97-1.19,10.27-1.79,15.97-1.79.6,0,1.19,0,1.86.07,1.13-4.9,2.78-9.54,4.97-13.85.86-1.86,1.86-3.71,2.92-5.43,1.26-2.05,2.58-3.84,4.04-5.5.46-3.31,1.46-6.82,2.98-10.47-4.77,2.05-9.21,4.84-13.38,8.42ZM408.23,310.5c-.66-7.09-2.39-13.45-5.1-19.22-.6-1.26-1.19-2.45-1.99-3.64-1.99-3.64-4.57-7.02-7.55-10.14-3.25-3.38-6.82-6.23-10.6-8.42-2.65-1.66-5.43-2.98-8.35-3.98-5.63-2.12-11.79-3.18-18.42-3.18-1.79,0-3.58.07-5.3.27h-.07c-5.57.46-10.87,1.79-15.77,3.98-4.77,2.05-9.21,4.84-13.38,8.42-1.86,1.59-3.58,3.25-5.3,5.1-6.76,7.22-11.46,15.04-14.05,23.46-1.66,5.37-2.52,10.93-2.52,16.7,0,.86,0,1.66.13,2.45.13,4.31.8,8.48,1.92,12.46,2.32,8.15,6.56,15.64,12.85,22.53.4.4.73.8,1.13,1.13,1.19,1.32,2.45,2.45,3.71,3.51,2.45,2.12,5.04,3.98,7.75,5.5,7.42,4.17,15.84,6.23,25.31,6.23,4.04,0,7.95-.4,11.73-1.19,2.65-.53,5.3-1.33,7.82-2.32,3.45-1.32,6.76-3.05,9.94-5.17,7.16-4.77,12.92-10.67,17.23-17.56.93-1.46,1.79-2.98,2.58-4.51,2.45-4.84,4.24-9.47,5.3-13.91.99-3.71,1.46-7.22,1.46-10.67,0-2.72-.13-5.3-.46-7.82ZM386.56,341.97c-2.52,7.62-6.43,14.11-11.86,19.55-.4.4-.86.86-1.32,1.19-1.79,1.59-3.71,2.92-5.76,3.98-3.91,1.99-8.28,2.98-13.19,2.98-10.73,0-19.48-5.1-26.11-15.31-1.39-2.12-2.65-4.37-3.71-6.63-1.26-2.45-2.32-5.04-3.11-7.69-2.05-6.16-3.11-12.92-3.25-20.08v-1.13c0-6.16.66-11.93,1.92-17.43,1.13-4.9,2.78-9.54,4.97-13.85.86-1.86,1.86-3.71,2.92-5.43,1.26-2.05,2.58-3.84,4.04-5.5,5.9-6.96,13.25-10.4,22.06-10.4,6.76,0,13.05,2.12,18.95,6.43,5.9,4.31,10.27,11.13,12.99,20.61.93,3.18,1.72,6.3,2.25,9.41.99,4.77,1.59,9.48,1.79,14.11.07.46.07.86,0,1.26.13.99.13,1.99.13,2.98,0,4.97-.73,10.34-2.32,15.97-.33,1.66-.86,3.31-1.39,4.97Z"/>
      <g>
        <path class="cls-2" d="M408.69,145.38c-1.52-6.56-4.31-12.66-8.41-18.42-1.46-2.19-3.11-4.24-4.97-6.3-7.09-7.75-15.44-12.72-25.18-14.97-2.39-.6-4.9-.99-7.42-1.19-1.72-.2-3.51-.26-5.3-.26-10.93,0-20.74,2.92-29.42,8.75-1.72,1.13-3.31,2.32-4.84,3.58-2.52,1.99-4.77,4.11-6.82,6.43-.07,0,0,.07,0,.07-.86.93-1.66,1.86-2.39,2.78-2.25,2.85-4.17,5.9-5.83,9.21-.8,1.52-1.52,3.05-2.12,4.57,0,0-.07,0-.07.07-2.72,6.43-4.24,12.46-4.51,18.02-.07.66-.07,1.26-.07,1.86,0,1.92.07,3.78.26,5.57-.07.46,0,.93.07,1.33.07,1.19.2,2.32.4,3.45.07.66.2,1.26.26,1.92.2,1.26.46,2.58.8,3.78,2.19,9.74,6.69,17.96,13.32,24.85,2.05,2.05,4.17,3.98,6.36,5.57,3.58,2.78,7.49,4.9,11.6,6.49,5.9,2.32,12.39,3.51,19.41,3.51,1.33,0,2.65-.07,3.91-.13,4.77-.33,9.28-1.19,13.52-2.72,1.06-.33,2.12-.73,3.18-1.19,7.02-2.92,13.45-7.55,19.22-13.72,3.11-3.38,5.83-6.82,8.02-10.4.27-.4.53-.8.66-1.19,3.31-5.43,5.5-11.13,6.69-17.09.8-3.71,1.19-7.55,1.19-11.46,0-4.37-.46-8.68-1.52-12.72ZM389.41,178.24c-1.59,6.29-4.11,12.13-7.42,17.56-6.56,10.6-15.24,15.9-26.11,15.9-6.76,0-13.05-2.19-18.95-6.43-1.99-1.46-3.78-3.18-5.3-5.17-2.19-2.58-3.98-5.63-5.5-9.21-.8-1.92-1.52-4.04-2.19-6.29-.66-2.19-1.19-4.44-1.72-6.63-1.39-6.23-2.25-12.33-2.32-18.35-.13-.93-.13-1.79-.13-2.72,0-4.9.73-10.07,2.19-15.64.46-1.72.99-3.51,1.59-5.37.26-.73.46-1.46.73-2.12,2.52-6.69,6.23-12.46,11.07-17.36,5.43-5.43,12.19-8.22,20.28-8.22,3.98,0,7.62.66,11.07,2.05,1.99.86,3.91,1.85,5.7,3.25,3.51,2.38,6.63,5.76,9.41,10.01,3.05,4.7,5.43,9.74,7.02,15.17,1.86,5.83,2.85,12.06,2.92,18.75.07.53.07,1.06.07,1.59v.86c-.07,6.49-.86,12.59-2.39,18.35Z"/>
        <path class="cls-2" d="M391.8,159.02v.86c-1.13-.46-2.32-.8-3.45-1.06,1.13-.4,2.32-.86,3.38-1.39.07.53.07,1.06.07,1.59Z"/>
      </g>
    </g>
    <g>
      <path class="cls-2" d="M420.69,352.04c-3.11-9.48-7.29-16.9-12.59-22.2l-.86-.86c-4.9-4.77-10.07-8.48-15.37-11.33-.6-.26-1.13-.6-1.72-.86-6.89-3.31-14.05-4.97-21.6-5.1-5.76-.07-11.26.73-16.43,2.39-.33.07-.73.2-1.06.4-5.04,1.66-9.74,4.17-14.11,7.62-1.99,1.46-3.98,3.18-5.83,5.04-3.98,3.98-7.16,8.28-9.61,12.92-2.25,4.24-3.91,8.75-4.84,13.52-.4,1.59-.66,3.18-.8,4.84-.4,3.05-.53,6.23-.4,9.47.27,7.36,1.59,14.18,4.04,20.41.33,1.19.8,2.32,1.39,3.45,2.65,6.03,6.43,11.4,11.26,16.23.27.27.46.46.73.66,9.74,9.48,21.87,14.51,36.31,15.24,14.78.66,27.56-4.44,38.36-15.24,7.75-7.69,12.66-16.7,14.71-26.97,1.99-10.2,1.52-20.14-1.59-29.62ZM406.04,404.58c-7.62,7.62-17.36,10.14-29.35,7.69-9.14-1.92-17.63-5.96-25.44-12.19-2.25-1.72-4.51-3.71-6.69-5.9-1.79-1.79-3.45-3.58-4.97-5.43-5.63-6.63-9.74-13.78-12.26-21.34-.8-1.99-1.39-4.04-1.86-6.1-1.13-4.9-1.46-9.41-.86-13.58v-.07c.8-6.16,3.51-11.46,8.08-16.04,3.31-3.31,7.16-5.7,11.6-7.29,1.99-.73,4.11-1.26,6.36-1.59,3.38-.53,6.96-.4,10.67.33,4.17.93,8.55,2.59,13.12,5.1,4.84,2.65,9.41,5.57,13.52,8.81,3.25,2.45,6.23,5.04,9.01,7.82.8.8,1.59,1.66,2.39,2.58,3.58,4.11,6.89,9.08,9.81,14.91,3.58,7.09,5.37,14.51,5.43,22.13,0,7.69-2.85,14.38-8.55,20.14Z"/>
      <path class="cls-2" d="M271.93,322.82c-2.19-.2-4.51-.2-6.82-.13-9.87.33-18.69,2.58-26.44,6.69,4.31,2.65,8.42,5.96,12.46,10.01.46.46.86.93,1.33,1.39,4.11-2.58,8.41-4.7,12.92-6.23,2.05-.73,4.17-1.32,6.29-1.85,2.05-.53,4.11-.86,6.03-.99,2.65-2.19,5.76-4.04,9.48-5.57-4.77-1.86-9.81-2.98-15.24-3.31ZM319.57,361.91c-.66-2.92-1.66-5.7-2.92-8.35-2.52-5.5-6.16-10.6-10.87-15.24-1.26-1.26-2.58-2.45-3.91-3.58-4.51-3.78-9.41-6.63-14.71-8.61-4.77-1.86-9.81-2.98-15.24-3.31-2.19-.2-4.51-.2-6.82-.13-9.87.33-18.69,2.58-26.44,6.69-4.97,2.52-9.54,5.9-13.65,10.01-.6.6-1.19,1.19-1.59,1.79-3.11,3.25-5.63,6.76-7.69,10.54-4.04,7.29-6.23,15.5-6.63,24.71,0,.33-.07.66,0,.93-.07,1.72-.07,3.38.13,4.97.07,3.25.6,6.36,1.39,9.41,2.19,8.48,6.76,16.17,13.65,23.06,2.92,2.92,5.96,5.43,9.21,7.49,2.32,1.52,4.64,2.78,7.09,3.84,3.38,1.52,6.96,2.65,10.67,3.38,8.35,1.66,16.5,1.66,24.32-.2,1.79-.33,3.58-.8,5.3-1.39,5.1-1.66,9.54-3.64,13.38-5.9,3.38-1.99,6.36-4.24,8.81-6.69,2.05-2.05,3.91-4.11,5.57-6.16,4.44-5.56,7.69-11.33,9.74-17.36.46-1.13.8-2.32,1.13-3.51,1.06-4.04,1.66-8.22,1.72-12.52.07-4.84-.46-9.48-1.66-13.85ZM290.95,401.14c-.2.27-.4.46-.66.73-.66.79-1.46,1.59-2.19,2.32-3.58,3.58-7.95,6.89-13.12,9.81-1.39.86-2.78,1.66-4.31,2.39-7.16,3.58-14.51,5.43-22.2,5.43-.6,0-1.19,0-1.79-.07-2.39-.13-4.64-.53-6.82-1.26-4.17-1.39-8.02-3.78-11.53-7.22-7.55-7.62-10.14-17.36-7.62-29.29.53-2.72,1.33-5.43,2.25-8.02.93-2.58,2.05-5.1,3.38-7.55,2.92-5.63,6.82-10.93,11.66-15.9.26-.26.46-.46.73-.73,4.37-4.37,8.94-8.02,13.72-11,4.11-2.58,8.41-4.7,12.92-6.23,2.05-.73,4.17-1.32,6.29-1.85,2.05-.53,4.11-.86,6.03-.99,9.41-.86,17.29,1.86,23.65,8.22,4.77,4.77,7.69,10.73,8.81,17.96,1.19,7.16-.6,15.11-5.37,23.79-1.52,2.72-3.11,5.37-4.84,7.88-2.72,4.17-5.76,8.02-9.01,11.6Z"/>
      <g>
        <path class="cls-2" d="M351.71,239.53c-4.31-4.31-7.95-8.88-10.93-13.65-.46.4-.93.8-1.39,1.26-3.31,3.31-6.1,6.63-8.48,10.14-.53.73-1.06,1.52-1.52,2.32l-.07.07c2.52,4.97,5.9,9.54,10.01,13.65.6.6,1.19,1.13,1.79,1.66,3.45-5.37,7.22-10.34,11.4-14.71-.26-.2-.53-.46-.8-.73ZM426.05,237.61c-1.19-2.05-2.65-4.11-4.31-6.03-1.13-1.33-2.32-2.65-3.58-3.91-7.75-7.75-16.7-12.66-26.97-14.71-2.19-.46-4.37-.73-6.56-.99-3.45-.26-6.82-.26-10.2,0q-.07,0-.13.07c-.86,0-1.72.13-2.58.27-3.45.4-6.82,1.19-10.2,2.25-1.33.4-2.58.86-3.78,1.32-6.96,2.65-12.59,5.96-16.96,10.01-.46.4-.93.8-1.39,1.26-3.31,3.31-6.1,6.63-8.48,10.14-.53.73-1.06,1.52-1.52,2.32l-.07.07c-5.3,8.48-7.95,17.49-8.15,27.03-.07,2.72.13,5.37.53,7.89.53,4.57,1.72,8.88,3.45,12.99,2.58,6.03,6.43,11.53,11.46,16.57.8.79,1.59,1.52,2.39,2.19,3.71,3.38,7.75,6.1,12.06,8.15,1.13.66,2.32,1.13,3.51,1.66,6.89,2.72,14.51,3.91,22.79,3.64,4.51-.13,8.75-.73,12.79-1.72.6-.07,1.19-.2,1.72-.4,5.96-1.46,11.4-3.84,16.37-7.16,3.31-2.05,6.36-4.57,9.21-7.42,3.31-3.25,6.03-6.82,8.22-10.6,3.51-5.7,5.76-12.06,6.89-18.95.4-2.45.66-4.9.8-7.49.46-10.47-1.92-19.94-7.29-28.43ZM388.35,302.68c-5.57,3.31-11.4,5.63-17.56,7.09-12.13,2.85-22,.46-29.68-7.22-4.77-4.77-7.69-10.73-8.88-17.96-.4-2.52-.46-5.17-.13-7.95.46-3.31,1.46-6.82,2.98-10.47.73-1.72,1.59-3.51,2.58-5.37,1.13-1.99,2.25-3.98,3.45-5.83,3.45-5.37,7.22-10.34,11.4-14.71.53-.66,1.19-1.32,1.86-1.99,3.38-3.38,7.49-6.49,12.32-9.41,1.66-.93,3.31-1.86,5.1-2.78.53-.27.99-.46,1.52-.73,6.69-3.11,13.52-4.7,20.67-4.7,7.69,0,14.38,2.85,20.08,8.55,2.78,2.78,4.9,5.9,6.36,9.28v.07c.86,1.99,1.46,4.11,1.79,6.3.73,4.17.6,8.75-.46,13.65-1.13,5.37-2.98,10.54-5.5,15.37-2.78,5.43-6.49,10.6-11.13,15.37-.46.53-.93.99-1.39,1.46-.2.2-.4.4-.6.6-4.64,4.57-9.61,8.42-14.78,11.4Z"/>
        <path class="cls-2" d="M405.11,289.23c-.46.53-.93.99-1.39,1.46-.2.2-.4.4-.6.6-.6-1.26-1.19-2.45-1.99-3.64,1.32.6,2.65,1.19,3.98,1.59Z"/>
      </g>
    </g>
  </g>
</svg>