<svg id="Layer_1" data-name="Layer 1" xmlns="http://www.w3.org/2000/svg" viewBox="0 0 459.43 493.71"><defs><style>.cls-1{fill:#f6efe6;}.cls-2{fill:#9e3622;}</style></defs><path class="cls-1" d="M418.66,371.73c69-104.35,40.27-244.85-64.08-313.81S109.74,17.64,40.77,122,.5,366.84,104.85,435.8s244.84,40.27,313.81-64.07"/><path class="cls-2" d="M274.48,358.36H185a72.14,72.14,0,0,1-72-72.06V207.41a72.13,72.13,0,0,1,72-72h89.53a72.14,72.14,0,0,1,72,72V286.3A72.14,72.14,0,0,1,274.48,358.36ZM185,151.37a56.1,56.1,0,0,0-56,56V286.3a56.1,56.1,0,0,0,56,56h89.53a56.1,56.1,0,0,0,56-56V207.41a56.1,56.1,0,0,0-56-56Z"/><path class="cls-2" d="M229.72,311a64.14,64.14,0,1,1,64.14-64.14A64.22,64.22,0,0,1,229.72,311Zm0-112.27a48.13,48.13,0,1,0,48.12,48.13A48.18,48.18,0,0,0,229.72,198.73Z"/><path class="cls-2" d="M306.18,184.69a13.31,13.31,0,1,1-13.3-13.31A13.3,13.3,0,0,1,306.18,184.69Z"/></svg>