<svg id="Layer_1" data-name="Layer 1" xmlns="http://www.w3.org/2000/svg" viewBox="0 0 459.43 493.71"><defs><style>.cls-1{fill:#f6efe6;}.cls-2{fill:#9e3622;}</style></defs><path class="cls-1" d="M418.66,371.73c69-104.35,40.27-244.85-64.08-313.81S109.74,17.64,40.77,122,.5,366.84,104.85,435.8s244.84,40.27,313.81-64.07"/><path class="cls-2" d="M128.88,170.12s11.71-20.49,21.27-21.66,21.85-1.18,25.17,5.07,18.15,42.54,18.15,42.54a14.28,14.28,0,0,1-1.37,12.29c-3.9,6-12.68,14.82-12.68,14.82s-4.88,6.25,0,12.89,12.44,18.83,28.1,34.47,45.65,26.8,45.65,26.8,4.3.58,7-2.15,17.56-21.27,17.56-21.27a10.4,10.4,0,0,1,12.68-2.53c7.9,3.61,42.14,20.67,42.14,20.67s4,1.47,4,7.51-2.44,20.85-7.45,25.86-19.64,20.42-41.62,20.42S213.17,328,185.27,300.07s-52.69-56.2-58.53-81.95S121.66,180.72,128.88,170.12Z"/></svg>