<svg id="Layer_1" data-name="Layer 1" xmlns="http://www.w3.org/2000/svg" viewBox="0 0 459.43 493.71"><defs><style>.cls-1{fill:#f6efe6;}.cls-2{fill:#9e3622;}</style></defs><path class="cls-1" d="M418.66,371.73c69-104.35,40.27-244.85-64.08-313.81S109.74,17.64,40.77,122,.5,366.84,104.85,435.8s244.84,40.27,313.81-64.07"/><path class="cls-2" d="M115.44,159.89s13.27-23.22,24.1-24.55,24.77-1.33,28.53,5.75,20.56,48.21,20.56,48.21a16.18,16.18,0,0,1-1.55,13.93c-4.42,6.86-14.36,16.8-14.36,16.8s-5.53,7.08,0,14.6,14.1,21.34,31.85,39.07,51.73,30.36,51.73,30.36,4.87.66,8-2.43,19.9-24.1,19.9-24.1a11.8,11.8,0,0,1,14.38-2.87c8.95,4.09,47.75,23.43,47.75,23.43s4.54,1.66,4.54,8.51-2.77,23.63-8.45,29.3-22.25,23.15-47.16,23.15S211,338.78,179.34,307.16s-59.7-63.69-66.33-92.87S107.26,171.91,115.44,159.89Z"/></svg>