<svg id="Layer_1" data-name="Layer 1" xmlns="http://www.w3.org/2000/svg" viewBox="0 0 459.43 493.71"><defs><style>.cls-1{fill:#f6efe6;}.cls-2{fill:#9e3622;}</style></defs><path class="cls-1" d="M418.66,371.73c69-104.35,40.27-244.85-64.08-313.81S109.74,17.64,40.77,122,.5,366.84,104.85,435.8s244.84,40.27,313.81-64.07"/><path class="cls-2" d="M229.71,358.36a111,111,0,0,1-55.61-15l-43.44,15,8.92-46a110.24,110.24,0,0,1-21.37-65.49,111.51,111.51,0,1,1,111.5,111.5ZM176.1,325.15l3.36,2.11A95,95,0,1,0,155,305.2l2.33,3-4.88,25.14Z"/><path class="cls-2" d="M173.42,204s6.54-11.44,11.88-12.09,12.2-.66,14,2.83,10.13,23.74,10.13,23.74a8,8,0,0,1-.77,6.87,67.66,67.66,0,0,1-7.07,8.27,6.06,6.06,0,0,0,0,7.19c2.72,3.71,7,10.51,15.69,19.25S242.81,275,242.81,275a5.1,5.1,0,0,0,3.92-1.19c1.53-1.53,9.8-11.88,9.8-11.88a5.83,5.83,0,0,1,7.09-1.41c4.4,2,23.52,11.54,23.52,11.54s2.23.82,2.23,4.19-1.36,11.64-4.16,14.44-11,11.4-23.23,11.4-41.5-10-57.08-25.56-29.41-31.37-32.67-45.75S169.4,209.94,173.42,204Z"/></svg>